<svg width="16" height="16" viewBox="0 0 16 16" fill="none" xmlns="http://www.w3.org/2000/svg">
<path d="M12.1588 7.86964L14.2885 5.73917C14.5822 5.45558 14.8164 5.11635 14.9775 4.74127C15.1386 4.3662 15.2234 3.9628 15.227 3.5546C15.2305 3.1464 15.1527 2.74158 14.9981 2.36376C14.8436 1.98595 14.6153 1.6427 14.3266 1.35405C14.038 1.06539 13.6947 0.837121 13.3169 0.682544C12.9391 0.527967 12.5343 0.450182 12.1261 0.453729C11.7179 0.457276 11.3145 0.542084 10.9394 0.703203C10.5643 0.864323 10.2251 1.09853 9.94151 1.39215L7.81104 3.52185L5.68058 1.39215C5.39698 1.09853 5.05775 0.864323 4.68268 0.703203C4.30761 0.542084 3.9042 0.457276 3.496 0.453729C3.0878 0.450182 2.68298 0.527967 2.30517 0.682544C1.92735 0.837121 1.5841 1.06539 1.29545 1.35405C1.0068 1.6427 0.778527 1.98595 0.62395 2.36376C0.469373 2.74158 0.391588 3.1464 0.395136 3.5546C0.398683 3.9628 0.48349 4.3662 0.64461 4.74127C0.805729 5.11635 1.03993 5.45558 1.33356 5.73917L3.46326 7.86964L1.33356 10.0001C1.03993 10.2837 0.805729 10.6229 0.64461 10.998C0.48349 11.3731 0.398683 11.7765 0.395136 12.1847C0.391588 12.5929 0.469373 12.9977 0.62395 13.3755C0.778527 13.7533 1.0068 14.0966 1.29545 14.3852C1.5841 14.6739 1.92735 14.9022 2.30517 15.0567C2.68298 15.2113 3.0878 15.2891 3.496 15.2855C3.9042 15.282 4.30761 15.1972 4.68268 15.0361C5.05775 14.875 5.39698 14.6407 5.68058 14.3471L7.81104 12.2174L9.94151 14.3471C10.2251 14.6407 10.5643 14.875 10.9394 15.0361C11.3145 15.1972 11.7179 15.282 12.1261 15.2855C12.5343 15.2891 12.9391 15.2113 13.3169 15.0567C13.6947 14.9022 14.038 14.6739 14.3266 14.3852C14.6153 14.0966 14.8436 13.7533 14.9981 13.3755C15.1527 12.9977 15.2305 12.5929 15.227 12.1847C15.2234 11.7765 15.1386 11.3731 14.9775 10.998C14.8164 10.6229 14.5822 10.2837 14.2885 10.0001L12.1588 7.86964ZM10.8085 2.2591C10.98 2.08752 11.1837 1.95141 11.4079 1.85855C11.6321 1.76569 11.8724 1.7179 12.115 1.7179C12.3577 1.7179 12.5979 1.76569 12.8221 1.85855C13.0463 1.95141 13.25 2.08752 13.4216 2.2591C13.5932 2.43068 13.7293 2.63437 13.8221 2.85855C13.915 3.08273 13.9628 3.32301 13.9628 3.56566C13.9628 3.80831 13.915 4.04859 13.8221 4.27277C13.7293 4.49695 13.5932 4.70064 13.4216 4.87222L11.2911 7.00269L8.68029 4.39187L10.8085 2.2591ZM10.4173 7.86964L7.81104 10.4782L5.20253 7.86964L7.81104 5.26112L10.4173 7.86964ZM2.2005 4.87222C2.02892 4.70064 1.89282 4.49695 1.79996 4.27277C1.7071 4.04859 1.65931 3.80831 1.65931 3.56566C1.65931 3.32301 1.7071 3.08273 1.79996 2.85855C1.89282 2.63437 2.02892 2.43068 2.2005 2.2591C2.37208 2.08752 2.57578 1.95141 2.79996 1.85855C3.02414 1.76569 3.26441 1.7179 3.50707 1.7179C3.74972 1.7179 3.98999 1.76569 4.21417 1.85855C4.43835 1.95141 4.64205 2.08752 4.81363 2.2591L6.9441 4.38956L4.33328 7.00039L2.2005 4.87222ZM4.81363 13.4802C4.64205 13.6518 4.43835 13.7879 4.21417 13.8807C3.98999 13.9736 3.74972 14.0214 3.50707 14.0214C3.26441 14.0214 3.02414 13.9736 2.79996 13.8807C2.57578 13.7879 2.37208 13.6518 2.2005 13.4802C2.02892 13.3086 1.89282 13.1049 1.79996 12.8807C1.7071 12.6565 1.65931 12.4163 1.65931 12.1736C1.65931 11.931 1.7071 11.6907 1.79996 11.4665C1.89282 11.2423 2.02892 11.0386 2.2005 10.8671L4.33097 8.73658L6.93949 11.3451L4.81363 13.4802ZM13.4216 13.4802C13.2502 13.6521 13.0466 13.7886 12.8224 13.8817C12.5982 13.9748 12.3578 14.0227 12.115 14.0227C11.8723 14.0227 11.6319 13.9748 11.4077 13.8817C11.1834 13.7886 10.9798 13.6521 10.8085 13.4802L8.67799 11.3497L11.2865 8.74119L13.4216 10.8671C13.5935 11.0384 13.73 11.242 13.8231 11.4663C13.9162 11.6905 13.9641 11.9308 13.9641 12.1736C13.9641 12.4164 13.9162 12.6568 13.8231 12.881C13.73 13.1052 13.5935 13.3088 13.4216 13.4802ZM6.88876 7.86964C6.88876 7.68723 6.94285 7.50891 7.0442 7.35725C7.14554 7.20558 7.28958 7.08737 7.4581 7.01756C7.62663 6.94776 7.81207 6.92949 7.99097 6.96508C8.16988 7.00066 8.33421 7.0885 8.46319 7.21749C8.59218 7.34647 8.68002 7.5108 8.7156 7.68971C8.75119 7.86861 8.73293 8.05405 8.66312 8.22258C8.59331 8.3911 8.4751 8.53514 8.32344 8.63649C8.17177 8.73783 7.99345 8.79192 7.81104 8.79192C7.56644 8.79192 7.33185 8.69475 7.15889 8.52179C6.98593 8.34883 6.88876 8.11424 6.88876 7.86964Z" fill="#343330"/>
</svg>
