<svg width="15" height="16" viewBox="0 0 15 16" fill="none" xmlns="http://www.w3.org/2000/svg">
<path d="M1.87506 5L13.1251 5M1.87506 11L13.1251 11M7.50006 2L7.50006 14M10.5001 2L10.5001 5M10.5001 11L10.5001 14M4.50006 2L4.50006 5M4.50006 11L4.50006 14M3.74999 2L11.2501 2C12.4927 2 13.5001 3.00736 13.5001 4.25L13.5001 11.75C13.5001 12.9926 12.4927 14 11.2501 14L3.74999 14C2.50735 14 1.49999 12.9926 1.49999 11.75L1.49999 4.25C1.49999 3.00736 2.50735 2 3.74999 2Z" stroke="#6E7485" stroke-linecap="round" stroke-linejoin="round"/>
</svg>
