<svg width="24" height="25" viewBox="0 0 24 25" fill="none" xmlns="http://www.w3.org/2000/svg">
<path d="M5.2691 10.2499C5.26786 9.36045 5.44268 8.47951 5.78349 7.6579C6.1243 6.83628 6.62436 6.09025 7.25484 5.4628C7.88531 4.83535 8.63374 4.33889 9.45699 4.00204C10.2802 3.66519 11.162 3.49461 12.0515 3.50013C15.763 3.52772 18.7318 6.61275 18.7318 10.3347V10.9999C18.7318 14.3577 19.4343 16.3061 20.053 17.371C20.1196 17.4848 20.1551 17.6142 20.1558 17.746C20.1565 17.8779 20.1224 18.0076 20.057 18.1221C19.9916 18.2366 19.8971 18.3318 19.7831 18.3982C19.6692 18.4645 19.5397 18.4996 19.4078 18.4999H4.59228C4.4604 18.4996 4.33093 18.4645 4.21695 18.3981C4.10297 18.3318 4.0085 18.2366 3.94307 18.122C3.87765 18.0075 3.84358 17.8778 3.84431 17.7459C3.84504 17.614 3.88054 17.4846 3.94722 17.3709C4.56628 16.3059 5.2691 14.3575 5.2691 10.9999L5.2691 10.2499Z" stroke="#1D2026" stroke-width="1.5" stroke-linecap="round" stroke-linejoin="round"/>
<path d="M9 18.5V19.25C9 20.0456 9.31607 20.8087 9.87868 21.3713C10.4413 21.9339 11.2044 22.25 12 22.25C12.7956 22.25 13.5587 21.9339 14.1213 21.3713C14.6839 20.8087 15 20.0456 15 19.25V18.5" stroke="#1D2026" stroke-width="1.5" stroke-linecap="round" stroke-linejoin="round"/>
</svg>
