<svg width="15" height="16" viewBox="0 0 15 16" fill="none" xmlns="http://www.w3.org/2000/svg">
<path fill-rule="evenodd" clip-rule="evenodd" d="M0.523256 0.5C0.38448 0.5 0.251388 0.559974 0.153258 0.666728C0.0551286 0.773482 0 0.918272 0 1.06925C0 1.22022 0.0551286 1.36501 0.153258 1.47176C0.251388 1.57852 0.38448 1.63849 0.523256 1.63849H1.9186V8.86943C1.9186 9.88648 1.9186 10.395 2.10558 10.8436C2.29256 11.2921 2.64419 11.6269 3.34814 12.297L4.74349 13.6253C6.05721 14.8753 6.71372 15.5 7.5 15.5C8.28628 15.5 8.94349 14.8753 10.2565 13.6253L11.6519 12.297C12.3551 11.6269 12.7074 11.2921 12.8937 10.8436C13.0814 10.3958 13.0814 9.88724 13.0814 8.87019V1.63849H14.4767C14.6155 1.63849 14.7486 1.57852 14.8467 1.47176C14.9449 1.36501 15 1.22022 15 1.06925C15 0.918272 14.9449 0.773482 14.8467 0.666728C14.7486 0.559974 14.6155 0.5 14.4767 0.5H0.523256ZM5.05814 8.84893C4.91936 8.84893 4.78627 8.90891 4.68814 9.01566C4.59001 9.12242 4.53488 9.26721 4.53488 9.41818C4.53488 9.56915 4.59001 9.71394 4.68814 9.8207C4.78627 9.92745 4.91936 9.98743 5.05814 9.98743H9.94186C10.0806 9.98743 10.2137 9.92745 10.3119 9.8207C10.41 9.71394 10.4651 9.56915 10.4651 9.41818C10.4651 9.26721 10.41 9.12242 10.3119 9.01566C10.2137 8.90891 10.0806 8.84893 9.94186 8.84893H5.05814ZM4.53488 5.62321C4.53488 5.47224 4.59001 5.32745 4.68814 5.22069C4.78627 5.11394 4.91936 5.05396 5.05814 5.05396H9.94186C10.0806 5.05396 10.2137 5.11394 10.3119 5.22069C10.41 5.32745 10.4651 5.47224 10.4651 5.62321C10.4651 5.77418 10.41 5.91897 10.3119 6.02573C10.2137 6.13248 10.0806 6.19246 9.94186 6.19246H5.05814C4.91936 6.19246 4.78627 6.13248 4.68814 6.02573C4.59001 5.91897 4.53488 5.77418 4.53488 5.62321Z" fill="#007BFF"/>
</svg>
