<svg width="57" height="54" viewBox="0 0 57 54" fill="none" xmlns="http://www.w3.org/2000/svg">
<path d="M47.1777 18.6804C47.1769 18.4135 47.1706 18.1467 47.1586 17.8801V2.7506L42.9761 6.93333C39.5527 2.74315 34.3451 0.0667572 28.5119 0.0667572C22.4416 0.0667572 17.0488 2.9642 13.64 7.45165L20.4959 14.3796C21.1671 13.1394 22.1179 12.0725 23.273 11.2635C24.47 10.3296 26.1659 9.56569 28.5119 9.56569C28.7954 9.56569 29.0142 9.59899 29.1748 9.66121C32.0817 9.8908 34.6012 11.4948 36.0845 13.8231L31.2314 18.676C37.3784 18.6519 44.3223 18.6379 47.1772 18.6793" fill="#1C3AA9"/>
<path d="M28.4028 0.0676117C28.1359 0.0683615 27.8691 0.074716 27.6025 0.0866709H12.473L16.6558 4.2694C12.4656 7.69261 9.78918 12.9004 9.78918 18.7334C9.78918 24.8038 12.6866 30.1967 17.1741 33.6057L24.102 26.7499C22.8618 26.0785 21.7949 25.1276 20.9859 23.9725C20.052 22.7757 19.2881 21.0796 19.2881 18.7336C19.2881 18.4503 19.3214 18.2315 19.3836 18.0707C19.6132 15.164 21.2173 12.6445 23.5456 11.1612L28.3984 16.014C28.3743 9.86689 28.3601 2.92299 28.4017 0.0680498" fill="#4285F4"/>
<path d="M9.79089 18.7323C9.79162 19.0003 9.79798 19.2671 9.80995 19.5326V34.6621L13.9927 30.4794C17.4159 34.6696 22.6237 37.346 28.4567 37.346C34.5271 37.346 39.92 34.4485 43.329 29.9611L36.4731 23.0331C35.8018 24.2734 34.8509 25.3402 33.6957 26.1492C32.499 27.0831 30.8029 27.847 28.4569 27.847C28.1736 27.847 27.9548 27.8137 27.794 27.7513C24.8873 27.5219 22.3678 25.9177 20.8845 23.5896L25.7373 18.7365C19.5902 18.7606 12.6463 18.7748 9.79133 18.7334" fill="#ABABAB"/>
<path d="M12.9395 44.5746C12.4848 44.5746 12.0772 44.6608 11.7166 44.8331C11.3588 44.9998 11.0448 45.2474 10.7994 45.5565C10.5525 45.8701 10.3625 46.2502 10.2291 46.697C10.0997 47.14 10.035 47.6358 10.035 48.1845V49.7662C10.035 50.3187 10.0997 50.8164 10.2291 51.2594C10.3623 51.7022 10.5505 52.0805 10.7937 52.3942C11.0365 52.7076 11.3305 52.9486 11.6754 53.1171C12.0202 53.2858 12.4083 53.3701 12.8396 53.3701C13.2825 53.3701 13.6706 53.3054 14.0037 53.176C14.3408 53.0468 14.623 52.8606 14.8502 52.6174C15.0776 52.3706 15.2521 52.0727 15.3736 51.7238C15.499 51.3749 15.5735 50.979 15.597 50.5362H14.5093C14.4819 50.8772 14.4349 51.1693 14.3683 51.4123C14.3015 51.6514 14.2035 51.8493 14.0743 52.006C13.9488 52.1589 13.7841 52.2726 13.5803 52.3471C13.3803 52.4176 13.1334 52.4529 12.8396 52.4529C12.526 52.4529 12.2595 52.3842 12.04 52.2469C11.8205 52.106 11.6421 51.914 11.505 51.6708C11.3718 51.4278 11.2738 51.1436 11.211 50.8184C11.1521 50.4931 11.1227 50.1423 11.1227 49.766V48.1727C11.1227 47.769 11.158 47.4025 11.2285 47.0731C11.303 46.7439 11.4147 46.4638 11.5637 46.2326C11.7127 46.0014 11.9009 45.823 12.1283 45.6974C12.3555 45.5681 12.6259 45.5035 12.9395 45.5035C13.2022 45.5035 13.4276 45.5427 13.6155 45.6211C13.8039 45.6956 13.9607 45.8132 14.0859 45.9738C14.2115 46.1305 14.3075 46.3304 14.374 46.5734C14.4407 46.8165 14.4858 47.1065 14.5093 47.4436H15.597C15.5775 46.9812 15.5049 46.5716 15.3795 46.2148C15.2539 45.8582 15.0794 45.5583 14.8561 45.3153C14.6327 45.0723 14.3603 44.888 14.039 44.7626C13.7215 44.6373 13.355 44.5748 12.9395 44.5746ZM39.4909 44.5744C39.0361 44.5744 38.6284 44.6606 38.2679 44.8329C37.9101 44.9995 37.596 45.2472 37.3506 45.5563C37.1038 45.8698 36.9137 46.25 36.7804 46.6968C36.6511 47.1397 36.5865 47.6356 36.5865 48.1843V49.766C36.5865 50.3185 36.6511 50.8162 36.7804 51.2592C36.9136 51.702 37.1017 52.0802 37.3449 52.3939C37.5878 52.7074 37.8817 52.9483 38.2267 53.1169C38.5716 53.2856 38.9597 53.3699 39.3908 53.3699C39.8338 53.3699 40.2218 53.3052 40.555 53.1758C40.892 53.0466 41.1743 52.8603 41.4017 52.6172C41.6288 52.3704 41.8032 52.0725 41.9248 51.7236C42.0504 51.3747 42.1249 50.9788 42.1483 50.536H41.0606C41.0331 50.877 40.9861 51.169 40.9195 51.4121C40.8529 51.6511 40.7549 51.849 40.6255 52.0057C40.5 52.1587 40.3354 52.2724 40.1317 52.3468C39.9316 52.4174 39.6847 52.4527 39.3908 52.4527C39.0772 52.4527 38.8107 52.384 38.5912 52.2467C38.3717 52.1058 38.1934 51.9137 38.0562 51.6706C37.923 51.4275 37.825 51.1434 37.7622 50.8182C37.7035 50.4929 37.6742 50.1421 37.6742 49.7657V48.1724C37.6742 47.7688 37.7094 47.4023 37.78 47.0729C37.8545 46.7437 37.9662 46.4635 38.1152 46.2323C38.2641 46.0011 38.4522 45.8228 38.6795 45.6971C38.9069 45.5679 39.1773 45.5033 39.4907 45.5033C39.7536 45.5033 39.979 45.5425 40.167 45.6209C40.3549 45.6954 40.5117 45.813 40.6373 45.9736C40.7626 46.1303 40.8587 46.3302 40.9254 46.5732C40.9922 46.8162 41.0372 47.1063 41.0606 47.4434H42.1483C42.1287 46.981 42.0562 46.5714 41.9307 46.2146C41.8051 45.8579 41.6307 45.5581 41.4074 45.3151C41.1839 45.0721 40.9115 44.8878 40.5902 44.7624C40.2727 44.6371 39.9062 44.5743 39.4907 44.5742M19.1366 44.6918L16.3793 53.2525H17.4845L18.149 51.0182H21.0416L21.7177 53.2525H22.8231L20.0597 44.6923L19.1366 44.6918ZM23.9868 44.6918V53.252H25.0627V49.9007H26.7147C27.1262 49.9007 27.4908 49.8439 27.8083 49.7303C28.1258 49.6127 28.3923 49.4441 28.6079 49.2246C28.8274 49.0051 28.992 48.7346 29.1017 48.4132C29.2156 48.0879 29.2725 47.7195 29.2723 47.308C29.2723 46.9277 29.2155 46.5788 29.1017 46.2615C28.9921 45.94 28.8295 45.6637 28.6138 45.4325C28.3982 45.1972 28.1297 45.015 27.8083 44.8857C27.4908 44.7563 27.1262 44.6916 26.7147 44.6916L23.9868 44.6918ZM30.0954 44.6918V45.6207H32.3413V53.252H33.417V45.6207H35.669V44.6918H30.0954ZM43.6003 44.6918V53.252H44.6759V49.2952H48.1215V53.252H49.2032V44.6918H48.1215V48.3722H44.6761V44.6918H43.6003ZM53.2832 44.6918L50.526 53.252H51.6314L52.2957 51.0177H55.1883L55.8645 53.252H56.97L54.2066 44.6918H53.2832ZM25.0624 45.6207H26.7147C26.9773 45.6207 27.2007 45.6677 27.385 45.7618C27.573 45.856 27.7258 45.9814 27.8436 46.1381C27.9678 46.3006 28.0577 46.4865 28.108 46.6847C28.1668 46.8885 28.1963 47.1002 28.1963 47.3198C28.1963 47.5628 28.1668 47.7863 28.108 47.9902C28.0577 48.1812 27.9676 48.3595 27.8436 48.5133C27.7258 48.6583 27.5729 48.772 27.3848 48.8542C27.2008 48.9366 26.9773 48.9777 26.7145 48.9777H25.0627L25.0624 45.6207ZM19.5949 46.1968L20.7649 50.0889H18.4312L19.5949 46.1968ZM53.742 46.1968L54.9118 50.0889H52.5778L53.742 46.1968ZM3.09813 46.773C2.8275 46.773 2.59426 46.8417 2.39841 46.9789C2.20636 47.1162 2.04571 47.3024 1.91645 47.5373L1.89871 46.8907H0.887695V53.252H1.92828V48.7013C2.02643 48.4308 2.16561 48.2172 2.34583 48.0605C2.52985 47.9036 2.76302 47.8252 3.04533 47.8252C3.13559 47.8252 3.21591 47.8292 3.28631 47.837C3.35714 47.8408 3.4336 47.8506 3.51568 47.8664L3.50998 46.8552C3.48541 46.8444 3.45968 46.8364 3.43331 46.8315C3.39899 46.8188 3.36367 46.809 3.32771 46.8021C3.28689 46.794 3.24564 46.7881 3.20416 46.7846C3.16935 46.7772 3.13392 46.7733 3.09834 46.7728L3.09813 46.773ZM6.59626 46.773C6.29452 46.773 6.0025 46.8259 5.72019 46.9318C5.43803 47.0377 5.18719 47.2121 4.96768 47.455C4.75212 47.6942 4.57773 48.0078 4.44454 48.3957C4.3112 48.7799 4.24453 49.2522 4.24453 49.8126V50.5299C4.24453 51.0159 4.30141 51.4373 4.41518 51.7939C4.52866 52.1507 4.69129 52.4467 4.90306 52.6818C5.11944 52.9134 5.38739 53.0907 5.68514 53.1992C5.99067 53.3129 6.33359 53.3697 6.7139 53.3697C6.98818 53.3697 7.23317 53.3422 7.44888 53.2873C7.66825 53.2325 7.86227 53.162 8.03096 53.0757C8.18871 52.9933 8.33498 52.8905 8.46603 52.7701C8.58144 52.6633 8.68581 52.5451 8.77755 52.4174L8.23667 51.7589C8.1505 51.8647 8.05841 51.9627 7.96042 52.0526C7.86227 52.1389 7.75449 52.2154 7.63707 52.282C7.51421 52.3468 7.38383 52.3962 7.24887 52.429C7.09294 52.4659 6.93308 52.4837 6.77283 52.482C6.29058 52.482 5.92013 52.3272 5.66148 52.0176C5.40677 51.708 5.27942 51.2121 5.27942 50.5301V50.3829H8.83057V49.7774C8.83057 49.2913 8.78938 48.8621 8.70701 48.4899C8.62464 48.1176 8.49334 47.804 8.31312 47.5492C8.13762 47.2985 7.89801 47.0995 7.61932 46.973C7.33716 46.8397 6.99614 46.773 6.59626 46.773ZM6.59626 47.6668C6.82365 47.6668 7.01184 47.7079 7.16081 47.7902C7.30816 47.8709 7.43025 47.991 7.51351 48.1369C7.60362 48.2859 7.66832 48.4643 7.70761 48.6721C7.75069 48.8759 7.77808 49.1012 7.78976 49.3482V49.4893H5.28533C5.30111 49.1326 5.34419 48.8367 5.41459 48.6014C5.48527 48.3662 5.57743 48.1801 5.69106 48.043C5.80862 47.9019 5.94386 47.8039 6.09678 47.749C6.25731 47.6928 6.4264 47.6649 6.59648 47.6666" fill="#A6A6A6"/>
</svg>
