<svg width="20" height="17" viewBox="0 0 20 17" fill="none" xmlns="http://www.w3.org/2000/svg">
<mask id="mask0_3064_7309" style="mask-type:luminance" maskUnits="userSpaceOnUse" x="0" y="0" width="20" height="17">
<path d="M11.9937 0.866211H8.13262C4.49256 0.866211 2.67204 0.866211 1.5417 1.99752C0.727009 2.81125 0.499203 3.98309 0.435495 5.93392H19.6909C19.6271 3.98309 19.3993 2.81125 18.5846 1.99752C17.4543 0.866211 15.6338 0.866211 11.9937 0.866211ZM8.13262 16.3107H11.9937C15.6338 16.3107 17.4543 16.3107 18.5846 15.1793C19.715 14.048 19.716 12.2285 19.716 8.58843C19.716 8.16242 19.7153 7.76022 19.714 7.38184H0.412328C0.410398 7.76022 0.409754 8.16242 0.410398 8.58843C0.410398 12.2285 0.410397 14.049 1.5417 15.1793C2.67301 16.3097 4.49256 16.3107 8.13262 16.3107Z" fill="white"/>
<path fill-rule="evenodd" clip-rule="evenodd" d="M3.54688 12.4495C3.54688 12.2575 3.62315 12.0734 3.75892 11.9376C3.89469 11.8019 4.07883 11.7256 4.27083 11.7256H8.13194C8.32395 11.7256 8.50809 11.8019 8.64386 11.9376C8.77963 12.0734 8.8559 12.2575 8.8559 12.4495C8.8559 12.6415 8.77963 12.8257 8.64386 12.9615C8.50809 13.0972 8.32395 13.1735 8.13194 13.1735H4.27083C4.07883 13.1735 3.89469 13.0972 3.75892 12.9615C3.62315 12.8257 3.54688 12.6415 3.54688 12.4495ZM9.82118 12.4495C9.82118 12.2575 9.89746 12.0734 10.0332 11.9376C10.169 11.8019 10.3531 11.7256 10.5451 11.7256H11.9931C12.1851 11.7256 12.3692 11.8019 12.505 11.9376C12.6407 12.0734 12.717 12.2575 12.717 12.4495C12.717 12.6415 12.6407 12.8257 12.505 12.9615C12.3692 13.0972 12.1851 13.1735 11.9931 13.1735H10.5451C10.3531 13.1735 10.169 13.0972 10.0332 12.9615C9.89746 12.8257 9.82118 12.6415 9.82118 12.4495Z" fill="black"/>
</mask>
<g mask="url(#mask0_3064_7309)">
<path d="M0.410156 -1.06445H19.7157V16.3105H0.410156V-1.06445Z" fill="black"/>
</g>
</svg>
