<svg width="16" height="15" viewBox="0 0 16 15" fill="none" xmlns="http://www.w3.org/2000/svg">
<path d="M14.3468 0.420898H6.34142V2.92257H8.34276V3.92324H1.83841C0.987838 3.92324 0.337402 4.57368 0.337402 5.42425V10.9279C0.337402 11.7785 0.987838 12.4289 1.83841 12.4289H2.33874V14.9806L5.49085 12.4289H8.84309V8.92659H14.3468C15.1973 8.92659 15.8478 8.27615 15.8478 7.42558V1.9219C15.8478 1.07133 15.1973 0.420898 14.3468 0.420898ZM5.74102 10.3776L5.49085 9.57702H3.93981L3.63961 10.3776H2.43881L4.08991 5.92458H5.29072L6.94182 10.3776H5.74102ZM13.3461 6.42491V7.42558C12.6957 7.42558 11.9952 7.22545 11.3948 6.92525C10.7944 7.22545 10.0939 7.37555 9.39346 7.42558L9.34343 6.42491C9.69366 6.42491 10.0439 6.37488 10.3941 6.27481C9.94383 5.82451 9.64363 5.27414 9.49353 4.67374H10.5442C10.6943 5.12404 10.9945 5.47428 11.3448 5.77448C11.8951 5.32418 12.2454 4.67374 12.2954 3.92324H9.29339V2.92257H10.7944V1.9219H11.7951V2.92257H13.4462L13.4962 3.42291C13.5462 4.47361 13.146 5.52431 12.3955 6.27481C12.7457 6.37488 13.0459 6.42491 13.3461 6.42491Z" fill="black"/>
</svg>
