<svg width="87" height="89" viewBox="0 0 87 89" fill="none" xmlns="http://www.w3.org/2000/svg">
<path d="M59.1815 48.2216L58.3921 47.0503L58.3724 47.0635L58.3531 47.0775L59.1815 48.2216ZM59.1815 42.083L58.3252 43.2063L58.3883 43.2544L58.4563 43.2951L59.1815 42.083ZM35.416 23.9671L36.2723 22.8438L36.2325 22.8134L36.1906 22.7859L35.416 23.9671ZM30.4337 26.673L31.8462 26.669L31.8462 26.6571L31.846 26.6451L30.4337 26.673ZM30.5334 62.2585L29.1209 62.2625L29.121 62.3011L29.1232 62.3396L30.5334 62.2585ZM35.6984 65.224L36.4005 66.4496L36.4658 66.4122L36.5267 66.3681L35.6984 65.224ZM17.8183 3.20156H69.5254V0.376568H17.8183V3.20156ZM83.625 17.8473V71.3748H86.45V17.8473H83.625ZM69.5254 86.0205H17.8183V88.8455H69.5254V86.0205ZM3.71865 71.3748V17.8473H0.893658V71.3748H3.71865ZM17.8183 86.0205C10.0769 86.0205 3.71865 79.5098 3.71865 71.3748H0.893658C0.893658 80.9771 8.4254 88.8455 17.8183 88.8455V86.0205ZM83.625 71.3748C83.625 79.5098 77.2667 86.0205 69.5254 86.0205V88.8455C78.9182 88.8455 86.45 80.9771 86.45 71.3748H83.625ZM69.5254 3.20156C77.2667 3.20156 83.625 9.71222 83.625 17.8473H86.45C86.45 8.24495 78.9182 0.376568 69.5254 0.376568V3.20156ZM17.8183 0.376568C8.4254 0.376568 0.893658 8.24495 0.893658 17.8473H3.71865C3.71865 9.71222 10.0769 3.20156 17.8183 3.20156V0.376568ZM59.9709 49.3929C61.6174 48.2833 62.8716 46.8313 62.8692 45.0617C62.8669 43.2615 61.573 41.8678 59.9067 40.8708L58.4563 43.2951C59.8181 44.1098 60.0438 44.7613 60.0442 45.0654C60.0447 45.4002 59.7848 46.1118 58.3921 47.0503L59.9709 49.3929ZM60.0378 40.9596L36.2723 22.8438L34.5597 25.0905L58.3252 43.2063L60.0378 40.9596ZM36.1906 22.7859C34.6966 21.8063 32.8973 21.4367 31.3615 22.179C29.7626 22.9518 28.9813 24.6615 29.0215 26.7008L31.846 26.6451C31.8197 25.3151 32.2978 24.8641 32.5909 24.7225C32.9469 24.5504 33.6719 24.5125 34.6415 25.1483L36.1906 22.7859ZM29.0213 26.6769L29.1209 62.2625L31.9459 62.2546L31.8462 26.669L29.0213 26.6769ZM29.1232 62.3396C29.2374 64.3255 29.8604 66.1291 31.4048 66.983C32.9568 67.841 34.7795 67.3783 36.4005 66.4496L34.9962 63.9984C33.6666 64.7601 33.0119 64.6435 32.7717 64.5107C32.5239 64.3737 32.0397 63.8493 31.9436 62.1774L29.1232 62.3396ZM36.5267 66.3681L60.0099 49.3657L58.3531 47.0775L34.87 64.0799L36.5267 66.3681Z" fill="#007BFF"/>
</svg>
