<svg width="342" height="323" viewBox="0 0 342 323" fill="none" xmlns="http://www.w3.org/2000/svg">
<g clip-path="url(#clip0_3842_3289)">
<path d="M20.582 147.944L22.0052 174.126C22.0579 175.061 22.8185 175.792 23.7522 175.8L70.8008 176.147C71.7722 176.154 72.5704 175.37 72.5779 174.39L72.7285 154.007C72.736 153.027 71.9454 152.227 70.9665 152.227L42.028 152.205C41.5611 152.205 41.1093 152.016 40.778 151.685L35.7854 146.685C35.4541 146.353 35.0174 146.172 34.5505 146.165L22.3516 146.074C21.3426 146.074 20.5293 146.926 20.582 147.944Z" fill="#C5DCFF"/>
<path d="M72.7665 149.157L21.3579 148.779L21.1328 179.538L72.5414 179.915L72.7665 149.157Z" fill="#C5DCFF"/>
<path d="M17.2536 151.493L20.9434 183.602C21.0112 184.175 21.4856 184.605 22.0654 184.612L72.1637 184.982C72.7586 184.989 73.2556 184.537 73.3007 183.941L76.0568 151.878C76.117 151.214 75.5975 150.649 74.9348 150.641L18.3907 150.227C17.7054 150.219 17.1708 150.815 17.2536 151.493Z" fill="#C5DCFF"/>
<path d="M234.19 152.474L235.417 175.021C235.463 175.82 236.118 176.453 236.923 176.461L277.436 176.755C278.272 176.763 278.965 176.084 278.965 175.247L279.093 157.7C279.1 156.855 278.415 156.169 277.571 156.169L252.654 156.146C252.255 156.146 251.863 155.988 251.577 155.701L247.278 151.396C246.999 151.117 246.615 150.951 246.216 150.951L235.711 150.875C234.845 150.86 234.145 151.592 234.19 152.474Z" fill="#C5DCFF"/>
<path d="M279.129 153.501L234.866 153.176L234.672 179.667L278.935 179.991L279.129 153.501Z" fill="#C5DCFF"/>
<path d="M231.321 155.523L234.499 183.168C234.552 183.658 234.966 184.027 235.463 184.035L278.603 184.351C279.115 184.351 279.537 183.967 279.582 183.454L281.954 155.847C281.999 155.282 281.555 154.792 280.99 154.784L232.3 154.43C231.713 154.43 231.253 154.935 231.321 155.523Z" fill="#C5DCFF"/>
<path d="M315.08 4.71289H243.083V124.053H315.08V4.71289Z" fill="#C5DCFF"/>
<path d="M312.685 4.71289H240.688V124.053H312.685V4.71289Z" fill="#C5DCFF"/>
<path d="M309.627 7.14062H243.761V121.639H309.627V7.14062Z" fill="white"/>
<path d="M296.796 22.0176H256.298V106.761H296.796V22.0176Z" fill="#C5DCFF"/>
<path d="M256.299 76.7779C256.208 68.8601 263.309 61.1309 271.141 60.0299C274.876 59.5021 278.837 60.2486 282.331 58.8158C288.558 56.2595 290.538 47.9798 296.804 45.5215L297.09 106.775H256.306V76.7779H256.299Z" fill="#C5DCFF"/>
<path d="M310.922 157.609C310.922 157.609 304.958 157.179 305.508 170.572C306.058 183.964 307.421 191.105 307.421 191.105C307.421 191.105 307.247 194.076 304.951 193.496C302.654 192.915 298.332 190.019 296.201 192.184C293.987 194.423 294.777 197.862 297.707 201.911C300.643 205.961 306.75 215.062 307.3 215.892C307.842 216.699 308.053 218.222 306.427 218.078C304.8 217.935 293.806 214.203 292.353 219.534C290.899 224.865 300.93 234.796 302.006 235.905C303.083 237.013 303.143 237.707 302.707 238.378C302.27 239.049 298.693 237.443 295.523 236.516C292.353 235.581 288.512 235.06 287.932 238.205C287.353 241.349 291.765 250.556 308.309 260.224L316.269 264.205L323.799 259.394C339.296 248.113 342.767 238.514 341.879 235.445C340.983 232.376 337.218 233.281 334.16 234.525C331.103 235.769 327.699 237.722 327.202 237.104C326.698 236.478 326.69 235.777 327.647 234.57C328.603 233.364 337.594 222.475 335.614 217.317C333.633 212.159 323.068 216.97 321.464 217.279C319.86 217.588 319.921 216.058 320.38 215.19C320.847 214.316 326.013 204.641 328.528 200.32C331.043 195.999 331.487 192.5 329.055 190.494C326.713 188.556 322.707 191.867 320.478 192.674C318.249 193.481 317.782 190.547 317.782 190.547C317.782 190.547 318.43 183.308 317.639 169.931C316.848 156.546 310.817 157.624 310.817 157.624" fill="#C5DCFF"/>
<path d="M311.389 169.602C311.389 169.602 311.404 169.7 311.419 169.881C311.434 170.077 311.457 170.348 311.48 170.703C311.532 171.442 311.6 172.505 311.69 173.862C311.871 176.607 312.105 180.588 312.376 185.505C312.918 195.338 313.558 208.919 314.213 223.933C314.868 238.946 315.471 252.535 315.96 262.368C316.208 267.277 316.412 271.251 316.555 274.011C316.623 275.376 316.675 276.439 316.713 277.178C316.728 277.532 316.736 277.804 316.743 278C316.751 278.188 316.743 278.279 316.743 278.279C316.743 278.279 316.728 278.181 316.713 278C316.698 277.804 316.675 277.532 316.653 277.178C316.6 276.439 316.532 275.376 316.442 274.018C316.261 271.274 316.028 267.292 315.757 262.375C315.214 252.542 314.574 238.954 313.919 223.94C313.264 208.934 312.662 195.346 312.172 185.513C311.924 180.604 311.72 176.63 311.577 173.87C311.51 172.505 311.457 171.442 311.419 170.703C311.404 170.348 311.397 170.077 311.389 169.881C311.389 169.7 311.389 169.602 311.389 169.602Z" fill="#C5DCFF"/>
<path d="M302.075 196.464C302.09 196.449 302.264 196.6 302.572 196.879C302.881 197.158 303.31 197.572 303.837 198.093C304.884 199.133 306.3 200.611 307.828 202.27C309.327 203.907 310.675 205.392 311.721 206.538C312.188 207.044 312.58 207.473 312.904 207.828C313.182 208.129 313.333 208.303 313.318 208.318C313.303 208.333 313.13 208.19 312.821 207.911C312.512 207.632 312.083 207.217 311.563 206.689C310.524 205.633 309.131 204.14 307.602 202.481C306.096 200.853 304.733 199.382 303.679 198.244C303.212 197.738 302.813 197.316 302.489 196.962C302.211 196.66 302.06 196.479 302.075 196.464Z" fill="#C5DCFF"/>
<path d="M314.108 208.062C314.048 208.002 316.962 204.948 320.607 201.245C324.259 197.535 327.264 194.587 327.324 194.639C327.384 194.7 324.477 197.754 320.825 201.456C317.173 205.166 314.169 208.122 314.108 208.062Z" fill="#C5DCFF"/>
<path d="M314.078 231.149C314.07 231.134 314.266 231.006 314.635 230.795C315.057 230.554 315.576 230.267 316.194 229.92C317.504 229.181 319.319 228.156 321.277 226.949C323.235 225.75 324.974 224.604 326.224 223.76C326.811 223.367 327.301 223.036 327.707 222.764C328.061 222.53 328.265 222.41 328.272 222.432C328.287 222.447 328.107 222.606 327.775 222.862C327.444 223.126 326.954 223.496 326.345 223.933C325.125 224.823 323.4 225.999 321.427 227.206C319.462 228.412 317.632 229.415 316.292 230.109C315.622 230.456 315.072 230.72 314.688 230.901C314.304 231.074 314.085 231.165 314.078 231.149Z" fill="#C5DCFF"/>
<path d="M300.892 223.07C300.9 223.055 301.096 223.145 301.442 223.326C301.789 223.507 302.278 223.786 302.888 224.126C304.1 224.812 305.765 225.785 307.587 226.871C309.417 227.956 311.058 228.959 312.24 229.698C312.835 230.068 313.31 230.369 313.634 230.588C313.957 230.807 314.131 230.927 314.123 230.95C314.116 230.965 313.92 230.875 313.573 230.694C313.227 230.513 312.737 230.234 312.128 229.894C310.915 229.208 309.251 228.235 307.429 227.15C305.599 226.064 303.957 225.061 302.775 224.322C302.18 223.952 301.706 223.651 301.382 223.432C301.058 223.213 300.877 223.085 300.892 223.07Z" fill="#C5DCFF"/>
<path d="M298.272 243.462C298.279 243.447 298.528 243.568 298.972 243.802C299.461 244.073 300.086 244.412 300.824 244.827C302.383 245.702 304.522 246.931 306.879 248.303C309.236 249.676 311.359 250.935 312.888 251.855C313.611 252.3 314.213 252.669 314.695 252.964C315.117 253.227 315.343 253.386 315.335 253.408C315.328 253.424 315.079 253.303 314.635 253.069C314.145 252.798 313.52 252.458 312.782 252.044C311.224 251.169 309.085 249.94 306.728 248.567C304.371 247.195 302.248 245.936 300.719 245.016C299.996 244.571 299.394 244.201 298.912 243.907C298.49 243.636 298.264 243.485 298.272 243.462Z" fill="#C5DCFF"/>
<path d="M314.989 253.042C314.981 253.027 315.222 252.861 315.682 252.574C316.186 252.265 316.841 251.873 317.617 251.398C319.251 250.403 321.503 249.015 323.942 247.424C326.39 245.833 328.566 244.332 330.132 243.239C330.878 242.719 331.503 242.281 331.992 241.942C332.436 241.64 332.685 241.482 332.692 241.497C332.707 241.512 332.482 241.708 332.06 242.04C331.638 242.372 331.028 242.847 330.253 243.412C328.716 244.551 326.555 246.082 324.1 247.68C321.653 249.279 319.379 250.636 317.715 251.587C316.879 252.062 316.201 252.439 315.727 252.68C315.268 252.929 315.004 253.057 314.989 253.042Z" fill="#C5DCFF"/>
<path d="M326.955 266.811H304.937L312.12 321.285H319.771L326.955 266.811Z" fill="#C5DCFF"/>
<path d="M306.081 273.5C306.074 273.508 306.104 273.576 306.202 273.696C306.292 273.809 306.465 273.96 306.736 274.073C307.256 274.299 308.175 274.322 309.063 273.787C309.952 273.297 310.727 272.331 311.917 271.902C313.099 271.449 314.56 271.532 315.968 271.984C317.391 272.422 318.619 273.146 319.741 273.817C320.863 274.48 321.887 275.076 322.806 275.461C323.717 275.86 324.515 276.041 325.065 276.117C325.343 276.155 325.554 276.162 325.705 276.162C325.848 276.162 325.931 276.155 325.931 276.147C325.946 276.072 324.688 276.087 322.911 275.235C322.023 274.827 321.021 274.217 319.914 273.538C318.807 272.852 317.542 272.105 316.081 271.653C314.635 271.185 313.077 271.102 311.804 271.607C311.172 271.849 310.637 272.226 310.193 272.603C309.741 272.972 309.342 273.327 308.935 273.583C308.129 274.103 307.286 274.126 306.789 273.953C306.269 273.764 306.104 273.47 306.081 273.5Z" fill="#C5DCFF"/>
<path d="M306.88 283.518C306.91 283.533 307.053 283.291 307.399 282.929C307.753 282.582 308.325 282.123 309.161 281.813C309.99 281.497 311.051 281.308 312.226 281.353C313.408 281.391 314.688 281.655 316.059 281.874C317.422 282.1 318.777 282.205 319.982 282.04C321.187 281.881 322.234 281.534 323.069 281.157C323.905 280.773 324.523 280.358 324.922 280.049C325.328 279.74 325.524 279.536 325.509 279.521C325.472 279.461 324.621 280.222 322.964 280.924C322.136 281.263 321.112 281.58 319.937 281.708C318.762 281.851 317.467 281.745 316.112 281.519C314.756 281.301 313.453 281.044 312.233 281.022C311.014 280.991 309.914 281.218 309.063 281.58C308.205 281.934 307.625 282.447 307.294 282.839C307.136 283.042 307.023 283.208 306.962 283.329C306.902 283.45 306.872 283.51 306.88 283.518Z" fill="#C5DCFF"/>
<path d="M324.462 288.889C324.47 288.874 324.266 288.739 323.852 288.573C323.446 288.407 322.821 288.241 322.03 288.181C321.239 288.12 320.298 288.165 319.274 288.339C318.25 288.505 317.143 288.791 315.991 289.033C314.839 289.274 313.724 289.44 312.715 289.402C311.706 289.364 310.81 289.146 310.11 288.837C308.694 288.211 308.189 287.306 308.137 287.366C308.122 287.374 308.22 287.6 308.506 287.939C308.792 288.279 309.281 288.716 310.004 289.063C310.72 289.417 311.646 289.674 312.7 289.726C313.754 289.787 314.899 289.621 316.066 289.38C317.233 289.131 318.325 288.837 319.334 288.656C320.336 288.475 321.254 288.399 322.022 288.422C323.559 288.49 324.44 288.957 324.462 288.889Z" fill="#C5DCFF"/>
<path d="M308.83 296.451C308.837 296.511 309.613 295.961 310.968 296.232C311.631 296.353 312.369 296.685 313.205 297.069C314.033 297.454 315.034 297.786 316.111 297.869C318.272 298.08 320.2 297.378 321.375 296.647C321.977 296.285 322.399 295.901 322.685 295.637C322.956 295.35 323.092 295.184 323.069 295.169C323.024 295.116 322.444 295.765 321.247 296.428C320.065 297.084 318.212 297.71 316.141 297.514C314.056 297.394 312.459 296.149 311.013 295.983C310.306 295.878 309.718 295.976 309.349 296.127C308.973 296.278 308.815 296.443 308.83 296.451Z" fill="#C5DCFF"/>
<path d="M310.057 306.9C310.057 306.938 310.795 306.938 311.894 306.538C313.001 306.169 314.371 305.317 315.968 304.683C316.774 304.374 317.572 304.185 318.31 304.193C319.04 304.193 319.695 304.374 320.192 304.623C321.201 305.128 321.495 305.844 321.555 305.799C321.57 305.792 321.525 305.611 321.344 305.332C321.164 305.053 320.832 304.691 320.313 304.397C319.801 304.103 319.108 303.884 318.317 303.861C317.527 303.839 316.676 304.027 315.847 304.344C314.191 305.007 312.865 305.882 311.804 306.297C310.749 306.749 310.049 306.84 310.057 306.9Z" fill="#C5DCFF"/>
<path d="M311.134 311.779C311.119 311.825 311.646 312.013 312.527 312.232C313.408 312.451 314.635 312.684 316.013 312.82C317.391 312.956 318.641 312.963 319.545 312.926C320.448 312.88 321.006 312.797 320.998 312.752C320.991 312.647 318.769 312.737 316.043 312.466C313.325 312.202 311.164 311.674 311.134 311.779Z" fill="#C5DCFF"/>
<path d="M81.2677 17.7734H9.30176V122.228H81.2677V17.7734Z" fill="#C5DCFF"/>
<path d="M77.6617 17.7734H5.6958V122.228H77.6617V17.7734Z" fill="#C5DCFF"/>
<path d="M68.7214 29.0801H14.6396V110.905H68.7214V29.0801Z" fill="white"/>
<path d="M68.7219 110.917C68.7219 110.917 68.7143 110.781 68.7143 110.517C68.7143 110.246 68.7068 109.861 68.7068 109.356C68.6993 108.331 68.6917 106.822 68.6842 104.869C68.6767 100.948 68.6541 95.2323 68.639 88.0158C68.6164 73.5903 68.5863 53.1549 68.5487 29.0923L68.7294 29.2732C52.2082 29.2808 33.8948 29.2808 14.6552 29.2883H14.6477L14.8434 29.0923C14.8284 59.9642 14.8133 88.423 14.8058 110.917L14.6477 110.759C31.1162 110.796 44.6178 110.819 54.0154 110.842C58.7143 110.857 62.3815 110.872 64.889 110.879C66.1315 110.887 67.0878 110.894 67.7429 110.894C68.3755 110.902 68.7219 110.917 68.7219 110.917C68.7219 110.917 68.4056 110.925 67.7655 110.932C67.1179 110.94 66.1767 110.94 64.9417 110.947C62.4417 110.955 58.782 110.97 54.0983 110.985C44.678 111.008 31.1463 111.03 14.6401 111.068H14.482V110.91C14.4745 88.4155 14.4594 59.9491 14.4443 29.0847V28.8887H14.6401H14.6477C33.8873 28.8962 52.2007 28.8962 68.7219 28.9038H68.9026V29.0847C68.8649 53.1926 68.8348 73.6657 68.8122 88.1289C68.7896 95.3304 68.7746 101.031 68.767 104.945C68.7595 106.883 68.752 108.376 68.7445 109.394C68.7369 109.892 68.7369 110.269 68.7369 110.533C68.7294 110.789 68.7219 110.917 68.7219 110.917Z" fill="#C5DCFF"/>
<path d="M77.8634 17.7613C77.9086 17.7915 77.4191 18.5078 76.5833 19.6239C75.7474 20.7399 74.5577 22.2631 73.2097 23.9146C71.8543 25.5585 70.5892 27.0214 69.6555 28.0544C68.7218 29.0875 68.1118 29.7059 68.0742 29.6757C68.0365 29.638 68.5636 28.9593 69.4447 27.8735C70.4085 26.7046 71.5983 25.2568 72.9085 23.6657C74.2188 22.0671 75.4086 20.6268 76.3724 19.458C77.2535 18.3797 77.8182 17.7236 77.8634 17.7613Z" fill="#C5DCFF"/>
<path d="M68.9932 110.645C71.6814 114.92 74.8516 118.894 78.4285 122.461Z" fill="white"/>
<path d="M78.4285 122.456C78.3908 122.494 77.7508 121.936 76.7869 120.955C75.823 119.983 74.5354 118.572 73.2251 116.936C71.9149 115.292 70.8305 113.731 70.0926 112.578C69.3546 111.416 68.9555 110.67 68.9932 110.64C69.0383 110.609 69.5278 111.303 70.3185 112.419C71.1091 113.535 72.2236 115.058 73.5263 116.687C74.8291 118.316 76.0715 119.741 76.9827 120.759C77.8938 121.792 78.4661 122.418 78.4285 122.456Z" fill="#C5DCFF"/>
<path d="M5.68799 122.141C8.82808 118.257 11.9757 114.374 15.1158 110.498Z" fill="white"/>
<path d="M15.1153 110.49C15.1981 110.557 13.1574 113.219 10.552 116.439C7.94655 119.659 5.77033 122.208 5.68749 122.14C5.60466 122.072 7.64534 119.41 10.2508 116.19C12.8487 112.978 15.0325 110.422 15.1153 110.49Z" fill="#C5DCFF"/>
<path d="M5.69595 17.7611C5.77878 17.6933 7.827 20.144 10.2743 23.2357C12.7141 26.3274 14.6268 28.8913 14.5439 28.9592C14.4611 29.027 12.4129 26.5763 9.96557 23.4846C7.52579 20.3853 5.61312 17.829 5.69595 17.7611Z" fill="#C5DCFF"/>
<path d="M51.8694 45.6953H33.7593V97.1836H51.8694V45.6953Z" fill="#C5DCFF"/>
<path d="M171.457 0.328125H114.897V59.3723H171.457V0.328125Z" fill="#C5DCFF"/>
<path d="M167.633 0.298828H111.074V59.343H167.633V0.298828Z" fill="#FAFAFA"/>
<path d="M167.653 59.365H111.056V0.283203H167.653V59.365ZM111.086 59.3273H167.615V0.320907H111.086V59.3273Z" fill="#C5DCFF"/>
<path d="M160.034 8.24219H118.678V51.413H160.034V8.24219Z" fill="white"/>
<path d="M118.678 51.7116C118.708 51.7493 118.316 52.2017 117.654 52.903C116.991 53.6043 116.065 54.5469 115.026 55.5724C113.987 56.598 113.03 57.5104 112.322 58.1589C111.615 58.8074 111.163 59.192 111.125 59.1543C111.087 59.1166 111.479 58.6717 112.142 57.9704C112.804 57.2691 113.73 56.3265 114.777 55.2934C115.824 54.2679 116.78 53.3479 117.481 52.6994C118.188 52.0509 118.64 51.6739 118.678 51.7116Z" fill="#C5DCFF"/>
<path d="M160.026 51.5856C160.064 51.5554 160.515 51.9476 161.216 52.6112C161.916 53.2747 162.857 54.2022 163.881 55.2429C164.906 56.2835 165.817 57.2412 166.464 57.95C167.112 58.6588 167.496 59.1113 167.458 59.149C167.421 59.1867 166.976 58.7946 166.276 58.131C165.576 57.4674 164.634 56.5399 163.603 55.4917C162.579 54.4436 161.66 53.4859 161.012 52.7846C160.372 52.0682 159.988 51.6158 160.026 51.5856Z" fill="#C5DCFF"/>
<path d="M159.913 8.34956C159.883 8.31186 160.274 7.85941 160.937 7.15812C161.6 6.45683 162.526 5.51424 163.565 4.48869C164.604 3.46315 165.56 2.55072 166.268 1.90222C166.976 1.25371 167.428 0.869132 167.466 0.906836C167.503 0.94454 167.112 1.38944 166.449 2.09073C165.786 2.79202 164.86 3.73462 163.813 4.7677C162.767 5.79325 161.81 6.71322 161.11 7.36172C160.402 8.01023 159.95 8.38727 159.913 8.34956Z" fill="#C5DCFF"/>
<path d="M118.565 8.44282C118.528 8.47299 118.076 8.08087 117.375 7.41728C116.675 6.75369 115.734 5.82618 114.71 4.78556C113.686 3.74493 112.774 2.78726 112.127 2.07843C111.479 1.3696 111.095 0.917151 111.133 0.879447C111.171 0.841743 111.615 1.23386 112.315 1.89745C113.015 2.56104 113.957 3.48855 114.988 4.53671C116.012 5.58488 116.931 6.54255 117.579 7.24384C118.219 7.96021 118.603 8.41266 118.565 8.44282Z" fill="#C5DCFF"/>
<path d="M159.913 51.3984C159.913 51.3984 159.906 51.323 159.906 51.1872C159.906 51.0364 159.898 50.8404 159.898 50.584C159.891 50.041 159.891 49.2644 159.883 48.2539C159.876 46.2103 159.861 43.2317 159.838 39.4538C159.815 31.8905 159.793 21.1223 159.755 8.22758L159.913 8.38594C147.872 8.39348 133.738 8.40102 118.678 8.40856H118.67L118.851 8.22758C118.844 24.0707 118.836 38.8958 118.829 51.3984L118.67 51.24C131.027 51.2702 141.321 51.3003 148.535 51.323C152.142 51.3381 154.973 51.3531 156.924 51.3607C157.888 51.3682 158.626 51.3758 159.145 51.3758C159.386 51.3833 159.574 51.3833 159.717 51.3833C159.845 51.3908 159.913 51.3908 159.913 51.3984C159.913 51.3984 159.853 51.4059 159.733 51.4059C159.597 51.4059 159.416 51.4135 159.175 51.4135C158.663 51.421 157.933 51.421 156.984 51.4285C155.041 51.4361 152.217 51.4512 148.633 51.4662C141.397 51.4889 131.073 51.5115 118.67 51.5492H118.512V51.3908C118.505 38.8883 118.497 24.0632 118.49 8.22004V8.03906H118.67H118.678C133.738 8.0466 147.88 8.05414 159.913 8.06168H160.079V8.22004C160.049 21.16 160.019 31.9659 159.996 39.5519C159.981 43.3147 159.966 46.2782 159.951 48.3142C159.943 49.3096 159.936 50.0788 159.936 50.6141C159.928 50.863 159.928 51.059 159.928 51.2023C159.921 51.3381 159.921 51.3984 159.913 51.3984Z" fill="#C5DCFF"/>
<path d="M146.252 22.9043H132.449V36.7265H146.252V22.9043Z" fill="#C5DCFF"/>
<path d="M85.3481 239.055L86.7638 265.093C86.8165 266.02 87.5771 266.752 88.5033 266.752L135.296 267.099C136.267 267.106 137.058 266.322 137.065 265.357L137.216 245.087C137.224 244.115 136.433 243.315 135.461 243.315L106.689 243.293C106.222 243.293 105.778 243.104 105.446 242.78L100.484 237.811C100.16 237.486 99.7157 237.298 99.2564 237.298L87.1253 237.207C86.1012 237.192 85.2954 238.044 85.3481 239.055Z" fill="#C5DCFF"/>
<path d="M137.249 240.26L86.1265 239.885L85.9026 270.478L137.025 270.853L137.249 240.26Z" fill="#C5DCFF"/>
<path d="M82.0355 242.595L85.7027 274.523C85.7705 275.088 86.2449 275.518 86.8172 275.525L136.637 275.887C137.224 275.895 137.721 275.443 137.766 274.854L140.507 242.972C140.56 242.316 140.048 241.75 139.393 241.743L83.1575 241.328C82.4873 241.328 81.9602 241.924 82.0355 242.595Z" fill="#C5DCFF"/>
<path d="M166.637 253.727L168.053 279.826C168.106 280.753 168.866 281.485 169.8 281.492L216.69 281.839C217.662 281.847 218.452 281.062 218.46 280.09L218.61 259.775C218.618 258.794 217.827 258.003 216.856 258.003L188.015 257.98C187.549 257.98 187.104 257.792 186.773 257.467L181.795 252.49C181.472 252.166 181.027 251.978 180.568 251.978L168.414 251.887C167.39 251.865 166.585 252.717 166.637 253.727Z" fill="#C5DCFF"/>
<path d="M218.653 254.925L167.417 254.549L167.193 285.21L218.428 285.586L218.653 254.925Z" fill="#C5DCFF"/>
<path d="M163.316 257.266L166.991 289.269C167.059 289.834 167.533 290.264 168.105 290.272L218.038 290.641C218.625 290.649 219.122 290.196 219.175 289.608L221.924 257.658C221.984 257.002 221.464 256.436 220.802 256.429L164.446 256.014C163.768 255.999 163.241 256.595 163.316 257.266Z" fill="#C5DCFF"/>
<path d="M251.675 41.8881L250.448 39.8672C240.109 22.8025 221.411 12.5169 201.705 13.7686C199.175 13.927 196.652 14.2739 194.16 14.8093C176.238 18.6475 160.643 32.2209 154.182 49.6023C150.379 59.8276 149.318 71.5912 142.104 79.705C132.714 90.2621 116.78 90.5939 102.766 90.1565C88.7524 89.7191 72.8035 90.0886 63.4585 100.691C57.6076 107.327 55.7476 116.775 56.222 125.666C57.472 149.208 73.8502 170.254 94.6862 180.713C115.515 191.172 140.048 192.115 162.842 187.508C194.777 181.06 225.154 163.355 243.407 136.004C261.66 108.662 266.284 71.4102 251.675 41.8881Z" fill="#C5DCFF"/>
<path d="M111.125 65.9289C119.351 65.9289 126.019 59.2509 126.019 51.0133C126.019 42.7756 119.351 36.0977 111.125 36.0977C102.899 36.0977 96.23 42.7756 96.23 51.0133C96.23 59.2509 102.899 65.9289 111.125 65.9289Z" fill="#C5DCFF"/>
<path d="M51.1768 209.614C43.4584 197.79 44.5804 180.899 53.8049 170.206C56.6664 166.888 60.6649 164 65.0324 164.377C69.4978 164.762 73.0972 168.6 74.4602 172.875C75.8156 177.151 75.3488 181.789 74.5506 186.207C73.4361 192.391 71.5611 198.725 67.2764 203.317C62.9842 207.91 56.6889 212.63 51.1768 209.614Z" fill="#0064FF" fill-opacity="0.74902"/>
<path d="M53.5119 266.517C50.6053 259.723 52.7137 251.127 58.4291 246.451C60.2063 245.003 62.5256 243.88 64.7394 244.468C67.006 245.071 68.512 247.371 68.8283 249.701C69.1446 252.031 68.4819 254.377 67.6687 256.579C66.5316 259.663 64.9955 262.754 62.375 264.73C59.7469 266.706 56.0797 268.568 53.5119 266.517Z" fill="#0064FF" fill-opacity="0.74902"/>
<path d="M36.8316 262.463C38.9552 251.982 33.4355 240.414 23.9626 235.475C21.0183 233.944 17.4038 233.039 14.4369 234.525C11.4023 236.048 9.94141 239.758 10.1824 243.144C10.4233 246.537 12.0499 249.667 13.8496 252.547C16.3646 256.582 19.452 260.51 23.7517 262.539C28.0515 264.575 33.797 266.128 36.8316 262.463Z" fill="#0064FF" fill-opacity="0.74902"/>
<path d="M38.165 234.112C41.8623 222.168 35.5972 207.69 25.1528 200.835C21.9073 198.708 17.8033 197.23 14.1813 198.61C10.4765 200.028 8.34542 204.168 8.22493 208.142C8.10445 212.116 9.63308 215.947 11.3876 219.506C13.8425 224.498 16.975 229.43 21.7341 232.295C26.5007 235.16 34.2116 238.026 38.165 234.112Z" fill="#0064FF" fill-opacity="0.74902"/>
<path d="M43.6542 292.486C43.6392 292.486 43.594 292.29 43.5337 291.905C43.466 291.468 43.3831 290.917 43.2853 290.239C43.2325 289.869 43.1798 289.47 43.1196 289.032C43.0368 288.595 42.9464 288.12 42.8485 287.615C42.6527 286.597 42.4569 285.428 42.1181 284.168C41.9675 283.535 41.8018 282.871 41.6361 282.178C41.4328 281.491 41.2295 280.783 41.0111 280.044C40.612 278.558 40.0247 277.027 39.475 275.391C38.2551 272.164 36.734 268.687 34.874 265.166C32.9764 261.667 30.9207 258.47 28.9101 255.672C27.8559 254.307 26.9071 252.972 25.8905 251.819C25.401 251.23 24.9191 250.665 24.4598 250.122C23.9778 249.602 23.511 249.096 23.0667 248.621C22.2007 247.641 21.3423 246.834 20.6043 246.11C20.2353 245.748 19.8965 245.409 19.5727 245.1C19.2414 244.806 18.9401 244.542 18.6615 244.293C18.1495 243.833 17.7353 243.456 17.4115 243.162C17.1329 242.898 16.9898 242.755 16.9974 242.74C17.0049 242.724 17.1705 242.845 17.4793 243.079C17.8257 243.358 18.2549 243.705 18.7895 244.135C19.0757 244.368 19.392 244.632 19.7308 244.911C20.0621 245.22 20.4161 245.545 20.7926 245.899C21.5531 246.608 22.4342 247.407 23.3227 248.372C23.7745 248.848 24.2489 249.345 24.7459 249.858C25.2128 250.401 25.7023 250.967 26.2068 251.547C27.2384 252.693 28.2098 254.028 29.2791 255.393C31.3198 258.198 33.4056 261.403 35.3108 264.924C37.1858 268.469 38.6994 271.975 39.9042 275.225C40.4464 276.877 41.0262 278.422 41.4027 279.915C41.606 280.654 41.8093 281.378 42.0051 282.065C42.1633 282.758 42.3139 283.429 42.4569 284.078C42.7732 285.352 42.9464 286.529 43.1121 287.554C43.1949 288.067 43.2702 288.542 43.3455 288.987C43.3907 289.424 43.4283 289.832 43.466 290.201C43.5262 290.887 43.5789 291.445 43.6166 291.883C43.6693 292.282 43.6768 292.486 43.6542 292.486Z" fill="#263238"/>
<path d="M43.3829 294.65C43.3754 294.65 43.3754 294.567 43.3829 294.408C43.398 294.22 43.4131 293.994 43.4356 293.715C43.4959 293.066 43.5787 292.184 43.6766 291.06C43.7369 290.48 43.7971 289.839 43.8649 289.145C43.9176 288.444 43.9402 287.682 43.9778 286.86C44.0381 285.216 44.1962 283.354 44.136 281.288C44.1284 280.254 44.1284 279.169 44.1209 278.045C44.1058 276.914 44.0004 275.745 43.9477 274.531C43.8649 272.103 43.5335 269.524 43.2474 266.809C42.5094 261.403 41.3498 255.498 39.5877 249.443C37.7654 243.403 35.5214 237.823 33.2021 232.883C31.9672 230.448 30.8452 228.11 29.5877 226.029C28.9777 224.981 28.428 223.94 27.8256 222.99C27.2157 222.04 26.6283 221.135 26.0711 220.26C24.9943 218.496 23.8497 217.018 22.9009 215.675C22.4189 215.012 21.9897 214.378 21.5605 213.82C21.1237 213.277 20.7246 212.772 20.3632 212.32C19.6704 211.437 19.1132 210.736 18.7141 210.231C18.5484 210.005 18.4053 209.824 18.2924 209.68C18.202 209.552 18.1569 209.484 18.1644 209.484C18.1719 209.484 18.2246 209.537 18.33 209.65C18.4505 209.794 18.6011 209.959 18.7894 210.171C19.2111 210.668 19.7834 211.347 20.5138 212.207C20.8903 212.651 21.3045 213.149 21.7487 213.685C22.1855 214.235 22.6298 214.861 23.1268 215.517C24.0982 216.844 25.2653 218.315 26.3647 220.072C26.937 220.939 27.5319 221.844 28.1494 222.794C28.7669 223.744 29.3241 224.785 29.9491 225.833C31.2217 227.914 32.3663 230.259 33.6163 232.695C35.9732 237.649 38.2398 243.252 40.0697 249.315C41.8393 255.4 42.9914 261.335 43.7067 266.772C43.9854 269.501 44.3016 272.088 44.3694 274.531C44.4146 275.753 44.5125 276.921 44.5125 278.06C44.5049 279.191 44.4974 280.277 44.4974 281.318C44.5351 283.391 44.3468 285.262 44.264 286.905C44.2113 287.727 44.1736 288.496 44.1058 289.198C44.023 289.892 43.9402 290.533 43.8724 291.113C43.7293 292.229 43.6164 293.111 43.5335 293.76C43.4959 294.039 43.4582 294.265 43.4356 294.446C43.4131 294.574 43.3905 294.65 43.3829 294.65Z" fill="#263238"/>
<path d="M63.4811 178.645C63.4887 178.652 63.4586 178.727 63.3833 178.863C63.2929 179.029 63.1875 179.233 63.0519 179.482C62.7281 180.055 62.2914 180.846 61.7341 181.842C61.448 182.355 61.1091 182.913 60.7853 183.546C60.4691 184.187 60.1227 184.881 59.7537 185.627C59.3847 186.374 58.9856 187.173 58.5639 188.018C58.1648 188.87 57.7808 189.797 57.3516 190.755C56.9374 191.72 56.4705 192.716 56.0489 193.779C55.6347 194.85 55.213 195.958 54.7687 197.112C54.5504 197.685 54.3244 198.273 54.091 198.869C53.8877 199.472 53.6768 200.083 53.466 200.709C53.0443 201.953 52.6151 203.235 52.1708 204.547C50.5368 209.848 48.9855 215.745 47.6753 222.011C46.4102 228.285 45.5217 234.326 44.859 239.838C44.2942 245.358 43.8801 250.342 43.7671 254.535C43.6617 256.631 43.6391 258.531 43.6316 260.198C43.6015 261.864 43.6015 263.305 43.6391 264.473C43.6542 265.612 43.6692 266.517 43.6768 267.181C43.6768 267.467 43.6768 267.693 43.6768 267.882C43.6768 268.04 43.6692 268.123 43.6617 268.123C43.6542 268.123 43.6391 268.04 43.6316 267.882C43.6165 267.693 43.6015 267.46 43.5864 267.181C43.5563 266.525 43.5111 265.62 43.4509 264.473C43.3831 263.297 43.3605 261.864 43.3605 260.19C43.3379 258.524 43.3379 256.616 43.4207 254.52C43.4885 250.312 43.8725 245.32 44.4072 239.785C45.0397 234.258 45.9208 228.202 47.1858 221.906C48.4961 215.624 50.0699 209.705 51.7341 204.404C52.1859 203.092 52.6226 201.802 53.0518 200.558C53.2702 199.932 53.4811 199.321 53.6844 198.718C53.9178 198.122 54.1437 197.534 54.3696 196.961C54.8214 195.815 55.2582 194.699 55.6799 193.628C56.1166 192.565 56.591 191.569 57.0203 190.612C57.457 189.654 57.8561 188.734 58.2703 187.882C58.707 187.045 59.1136 186.246 59.4977 185.507C59.8817 184.768 60.2356 184.081 60.567 183.44C60.9058 182.815 61.2597 182.264 61.561 181.751C62.1558 180.771 62.6227 180.002 62.9616 179.436C63.1122 179.195 63.2402 178.999 63.3381 178.841C63.4284 178.705 63.4736 178.645 63.4811 178.645Z" fill="#263238"/>
<path d="M60.8606 251.192C60.8908 251.214 60.5971 251.727 60.0398 252.632C59.4751 253.537 58.6995 254.872 57.7883 256.546C56.8696 258.212 55.8757 260.248 54.8666 262.556C53.8802 264.871 52.8937 267.457 52.0277 270.225C51.1843 273 50.5367 275.699 50.0473 278.165C49.5879 280.638 49.2566 282.886 49.0759 284.778C48.8876 286.671 48.7747 288.209 48.7295 289.28C48.6768 290.343 48.6316 290.932 48.594 290.932C48.5563 290.932 48.5413 290.343 48.5337 289.273C48.5187 288.202 48.5714 286.656 48.722 284.748C48.8575 282.84 49.1512 280.578 49.5879 278.082C50.0548 275.594 50.6874 272.879 51.5383 270.081C52.4118 267.291 53.4133 264.69 54.4299 262.375C55.469 260.067 56.5082 258.031 57.4721 256.38C58.4284 254.721 59.2492 253.409 59.8667 252.534C60.4766 251.652 60.8305 251.177 60.8606 251.192Z" fill="#263238"/>
<path d="M28.4961 287.18H62.4045L58.3006 321.86H32.7205L28.4961 287.18Z" fill="#455A64"/>
<path d="M29.7305 318.117L32.6145 321.857H58.3L61.2669 318.23L29.7305 318.117Z" fill="#263238"/>
<path d="M61.0868 297.37C61.0868 297.513 54.046 297.626 45.3713 297.626C36.689 297.626 29.6558 297.513 29.6558 297.37C29.6558 297.226 36.689 297.113 45.3713 297.113C54.046 297.121 61.0868 297.234 61.0868 297.37Z" fill="white"/>
<path d="M61.0868 299.688C61.0868 299.831 54.046 299.944 45.3713 299.944C36.689 299.944 29.6558 299.831 29.6558 299.688C29.6558 299.545 36.689 299.432 45.3713 299.432C54.046 299.432 61.0868 299.545 61.0868 299.688Z" fill="white"/>
<path d="M60.6651 301.909C60.6651 302.052 53.8728 302.165 45.4993 302.165C37.1182 302.165 30.3335 302.052 30.3335 301.909C30.3335 301.765 37.1257 301.652 45.4993 301.652C53.8728 301.652 60.6651 301.765 60.6651 301.909Z" fill="white"/>
<path d="M328.491 321.887C328.491 321.993 255.049 322.084 164.476 322.084C73.8649 322.084 0.437988 322.001 0.437988 321.887C0.437988 321.782 73.8649 321.691 164.468 321.691C255.049 321.691 328.491 321.782 328.491 321.887Z" fill="#263238"/>
<path d="M315.027 82.1605C312.496 78.9481 312.436 73.089 312.519 71.5507C312.715 67.999 304.808 47.2619 285.215 55.8282V55.8131C278.196 55.8131 278.076 62.7506 276.743 64.1532C275.41 65.5482 273.927 67.0036 273.58 68.9038C272.963 72.2746 276.156 75.5472 275.343 78.8727C275.041 80.1245 274.205 81.1802 273.618 82.3188C272.993 83.3444 272.489 85.0033 272.76 85.9233C273.031 86.8433 273.618 87.6351 274.1 88.4646C274.582 89.294 274.981 90.2442 274.808 91.1943C274.499 92.906 272.526 93.8486 271.992 95.5076C271.472 97.1289 272.489 98.7954 273.415 100.228C274.334 101.661 275.23 103.456 274.484 104.986C274.085 105.801 273.302 106.344 272.669 106.985C270.734 108.93 270.162 112.105 271.284 114.608C275.041 113.869 278.799 113.123 282.556 112.384C283.046 107.007 283.543 101.623 284.032 96.2466C287.331 97.0685 290.938 94.9571 292.496 94.5575L294.416 93.5169C298.618 94.2558 303.151 93.9919 306.834 91.8428C310.516 89.6937 315.975 92.4385 315.26 88.2308C314.921 86.1722 316.307 83.7893 315.027 82.1605Z" fill="#263238"/>
<path d="M302.173 62.5152L286.842 57.9681C281.902 57.2442 278.355 63.224 277.843 68.2009C277.271 73.7283 276.789 80.4923 277.278 84.6548C278.265 93.0175 284.583 94.3296 284.583 94.3296C284.583 94.3221 283.476 106.176 283.37 109.14L302.279 99.4498L304.666 65.5843C304.756 64.0761 303.672 62.7414 302.173 62.5152Z" fill="#FFD3C1"/>
<path d="M278.792 75.028C278.747 75.5936 279.191 76.0913 279.779 76.1441C280.366 76.1968 280.871 75.7896 280.916 75.2241C280.961 74.6585 280.517 74.1608 279.937 74.108C279.342 74.0553 278.837 74.47 278.792 75.028Z" fill="#263238"/>
<path d="M278.226 72.6071C278.332 72.7428 279.235 72.5467 280.365 72.8861C281.494 73.2103 282.21 73.8815 282.36 73.8136C282.436 73.7834 282.345 73.5647 282.037 73.2631C281.735 72.969 281.178 72.5995 280.47 72.3959C279.77 72.1923 279.122 72.2074 278.731 72.2979C278.339 72.3959 278.174 72.5392 278.226 72.6071Z" fill="#263238"/>
<path d="M289.416 75.8894C289.371 76.455 289.815 76.9527 290.403 77.0054C290.99 77.0582 291.495 76.651 291.54 76.0855C291.585 75.5199 291.141 75.0222 290.561 74.9694C289.966 74.9167 289.454 75.3239 289.416 75.8894Z" fill="#263238"/>
<path d="M289.605 74.0943C289.771 74.1698 290.599 73.6193 291.879 73.4383C293.16 73.2498 294.176 73.5363 294.297 73.4157C294.357 73.3629 294.176 73.2045 293.732 73.0688C293.295 72.9331 292.572 72.8501 291.774 72.9632C290.976 73.0763 290.343 73.3629 289.989 73.6117C289.628 73.8606 289.522 74.0566 289.605 74.0943Z" fill="#263238"/>
<path d="M285.652 81.5965C285.659 81.5287 284.951 81.3778 283.807 81.1818C283.513 81.1365 283.242 81.0687 283.197 80.8651C283.137 80.6539 283.272 80.3372 283.43 80.0054C283.732 79.3041 284.048 78.5802 284.387 77.8111C285.712 74.6816 286.691 72.1103 286.563 72.0575C286.435 72.0047 285.26 74.4931 283.927 77.6225C283.604 78.3917 283.302 79.1307 283.009 79.832C282.888 80.1638 282.677 80.5333 282.813 80.9782C282.881 81.1969 283.092 81.3703 283.28 81.4231C283.468 81.491 283.626 81.4985 283.777 81.5136C284.921 81.6267 285.644 81.6568 285.652 81.5965Z" fill="#263238"/>
<path d="M284.582 94.3586C284.582 94.3586 290.034 95.0599 295.704 91.9531C295.606 91.9682 292.3 97.7369 284.378 96.5681L284.582 94.3586Z" fill="#F4AF9B"/>
<path d="M286.02 84.3588C286.457 83.831 287.187 83.5595 287.903 83.6651C288.4 83.7405 288.889 83.9969 289.175 84.4192C289.462 84.8339 289.499 85.4145 289.213 85.7916C288.889 86.2139 288.234 86.2893 287.699 86.1083C287.157 85.9273 286.705 85.5503 286.269 85.1732C286.148 85.0677 286.028 84.9621 285.952 84.8188C285.877 84.6831 285.87 84.5021 285.968 84.389" fill="#F4AF9B"/>
<path d="M288.989 82.4884C288.8 82.4733 288.748 83.7176 287.648 84.5546C286.549 85.3992 285.231 85.2031 285.216 85.3765C285.193 85.4519 285.502 85.6329 286.059 85.6706C286.609 85.7083 287.415 85.5651 288.085 85.0523C288.755 84.5395 289.064 83.8231 289.124 83.3179C289.199 82.7976 289.079 82.4809 288.989 82.4884Z" fill="#263238"/>
<path d="M289.755 70.0271C289.853 70.3438 291.005 70.2383 292.345 70.457C293.686 70.6455 294.755 71.0828 294.943 70.8114C295.026 70.6832 294.853 70.3815 294.424 70.0573C294.002 69.7406 293.317 69.4239 292.519 69.3032C291.713 69.1826 290.975 69.2806 290.478 69.4616C289.966 69.6426 289.71 69.8839 289.755 70.0271Z" fill="#263238"/>
<path d="M279.454 69.2861C279.643 69.5576 280.448 69.3163 281.397 69.3389C282.346 69.3314 283.144 69.5878 283.34 69.3163C283.423 69.1881 283.31 68.9242 282.971 68.6603C282.632 68.4039 282.067 68.1777 281.412 68.1701C280.757 68.1626 280.185 68.3813 279.846 68.6301C279.492 68.894 279.371 69.158 279.454 69.2861Z" fill="#263238"/>
<path d="M285.034 56.9023C291.201 57.8826 297.24 59.6019 303.001 62.0074C304.333 62.5655 305.734 63.229 306.487 64.4657C307.285 65.7703 307.18 67.4217 307.052 68.9449C306.419 76.3952 305.787 83.8455 305.154 91.2957L304.356 91.2505C302.059 91.6275 301.894 90.4512 300.252 88.7998C298.611 87.1483 297.82 84.6825 298.196 82.3826C298.535 80.3541 299.71 78.3181 299.077 76.3575C298.242 73.771 294.695 72.8435 293.844 70.257C293.347 68.7564 293.912 67.0371 293.339 65.5667C292.805 64.1792 291.397 63.3346 290.019 62.7766C288.641 62.2186 287.157 61.8114 286.02 60.8537C284.891 59.9036 284.228 58.1541 285.034 56.9023Z" fill="#263238"/>
<path d="M234.695 99.8472H173.919C171.442 99.8472 169.438 97.8338 169.438 95.3604V46.436C169.438 43.9551 171.442 41.9492 173.919 41.9492H234.695C237.172 41.9492 239.175 43.9626 239.175 46.436V95.3529C239.183 97.8414 237.172 99.8472 234.695 99.8472Z" fill="#455A64"/>
<path d="M204.31 79.8467C209.862 79.8467 214.363 75.3396 214.363 69.7798C214.363 64.22 209.862 59.7129 204.31 59.7129C198.758 59.7129 194.257 64.22 194.257 69.7798C194.257 75.3396 198.758 79.8467 204.31 79.8467Z" fill="#0064FF" fill-opacity="0.74902"/>
<path d="M201.885 72.7214V66.7793C201.885 66.4928 202.194 66.3042 202.45 66.4475L207.751 69.4412C208.007 69.5845 208.007 69.954 207.751 70.0972L202.45 73.0457C202.194 73.1889 201.885 73.008 201.885 72.7214Z" fill="white"/>
<path d="M267.388 294.57L269.128 311.348C269.128 311.348 252.682 318.753 252.705 321.882L285.31 319.673L283.669 293.416L267.388 294.57Z" fill="#455A64"/>
<g opacity="0.3">
<path d="M267.388 294.57L269.128 311.348C269.128 311.348 252.682 318.753 252.705 321.882L285.31 319.673L283.669 293.416L267.388 294.57Z" fill="black"/>
</g>
<g opacity="0.6">
<path d="M279.107 309.245C279.747 309.373 280.236 310.059 280.131 310.708C280.025 311.356 279.34 311.854 278.692 311.733C278.045 311.612 277.442 310.813 277.616 310.18C277.789 309.546 278.632 309.003 279.227 309.275" fill="white"/>
</g>
<g opacity="0.6">
<path d="M285.304 319.672L285.033 317.033L253.873 320.14C253.873 320.14 252.465 320.871 252.698 321.882L285.304 319.672Z" fill="white"/>
</g>
<path d="M268.58 311.224C268.595 311.383 269.393 311.405 270.214 311.858C271.042 312.295 271.494 312.959 271.637 312.883C271.78 312.846 271.479 311.903 270.477 311.368C269.491 310.825 268.542 311.081 268.58 311.224Z" fill="#263238"/>
<path d="M265.259 312.879C265.237 313.037 265.945 313.263 266.524 313.897C267.127 314.515 267.315 315.239 267.473 315.216C267.624 315.231 267.669 314.289 266.931 313.512C266.193 312.728 265.252 312.728 265.259 312.879Z" fill="#263238"/>
<path d="M263.595 317.098C263.745 317.12 263.911 316.314 263.444 315.461C262.985 314.609 262.209 314.315 262.149 314.459C262.066 314.594 262.586 315.032 262.955 315.733C263.346 316.427 263.437 317.098 263.595 317.098Z" fill="#263238"/>
<path d="M268.611 307.361C268.686 307.504 269.401 307.232 270.305 307.232C271.208 307.217 271.931 307.466 272.007 307.33C272.09 307.21 271.367 306.667 270.305 306.682C269.236 306.682 268.528 307.24 268.611 307.361Z" fill="#263238"/>
<path d="M268.324 303.974C268.324 304.042 268.964 304.094 269.958 303.853C270.455 303.732 271.035 303.529 271.63 303.212C271.931 303.054 272.232 302.865 272.534 302.647C272.677 302.541 272.85 302.428 273.001 302.232C273.166 302.051 273.234 301.621 273.016 301.38C272.835 301.138 272.526 301.055 272.293 301.063C272.052 301.071 271.863 301.131 271.683 301.191C271.329 301.304 270.99 301.448 270.689 301.606C270.086 301.93 269.604 302.322 269.251 302.699C268.543 303.453 268.324 304.064 268.377 304.094C268.452 304.14 268.784 303.619 269.522 302.986C269.883 302.669 270.357 302.337 270.922 302.066C271.208 301.93 271.517 301.81 271.841 301.711C272.18 301.598 272.473 301.576 272.571 301.719C272.609 301.779 272.616 301.802 272.549 301.908C272.481 302.006 272.345 302.104 272.202 302.209C271.924 302.42 271.645 302.601 271.374 302.76C270.824 303.084 270.297 303.31 269.838 303.476C268.927 303.8 268.317 303.891 268.324 303.974Z" fill="#263238"/>
<path d="M268.544 304.172C268.604 304.194 268.883 303.599 268.868 302.566C268.86 302.053 268.762 301.434 268.521 300.794C268.401 300.469 268.243 300.145 268.039 299.828C267.828 299.519 267.565 299.104 266.94 299.074C266.616 299.082 266.367 299.353 266.292 299.579C266.202 299.806 266.194 300.002 266.164 300.19C266.127 300.575 266.164 300.952 266.239 301.291C266.39 301.977 266.714 302.535 267.053 302.935C267.746 303.742 268.423 303.885 268.431 303.832C268.476 303.749 267.904 303.478 267.361 302.701C267.09 302.317 266.842 301.804 266.744 301.201C266.691 300.899 266.676 300.582 266.706 300.251C266.736 299.904 266.842 299.61 266.977 299.64C267.143 299.625 267.429 299.866 267.587 300.137C267.776 300.416 267.926 300.711 268.054 300.997C268.295 301.57 268.423 302.136 268.483 302.611C268.589 303.546 268.461 304.157 268.544 304.172Z" fill="#263238"/>
<path d="M264.559 171.785C264.559 171.785 250.116 237.45 249.672 243.309C249.228 249.176 267.571 299.797 267.571 299.797L283.355 296.811C283.355 296.811 282.353 222.059 281.841 220.589C281.329 219.126 285.877 182.387 285.877 182.387L264.559 171.785Z" fill="#263238"/>
<path d="M274.642 295.359L274.815 312.228C274.815 312.228 257.752 318.072 257.48 321.194L290.146 321.533L290.952 295.736L274.642 295.359Z" fill="#455A64"/>
<g opacity="0.6">
<path d="M284.958 311.086C285.583 311.274 286.005 311.998 285.839 312.632C285.673 313.265 284.943 313.703 284.318 313.522C283.685 313.341 283.158 312.488 283.392 311.878C283.625 311.267 284.514 310.799 285.079 311.124" fill="white"/>
</g>
<g opacity="0.6">
<path d="M290.155 321.53L290.14 319.373L258.822 319.562C258.822 319.562 257.353 320.157 257.489 321.19L290.155 321.53Z" fill="white"/>
</g>
<path d="M274.295 312.037C274.295 312.196 275.093 312.294 275.861 312.821C276.645 313.334 277.036 314.036 277.179 313.975C277.33 313.945 277.111 312.987 276.17 312.354C275.229 311.728 274.265 311.894 274.295 312.037Z" fill="#263238"/>
<path d="M270.833 313.396C270.795 313.547 271.473 313.841 272 314.527C272.542 315.198 272.662 315.937 272.821 315.929C272.971 315.96 273.107 315.025 272.436 314.18C271.774 313.335 270.84 313.245 270.833 313.396Z" fill="#263238"/>
<path d="M268.775 317.447C268.918 317.485 269.159 316.693 268.775 315.811C268.391 314.921 267.653 314.559 267.578 314.687C267.487 314.815 267.954 315.298 268.263 316.029C268.594 316.753 268.617 317.424 268.775 317.447Z" fill="#263238"/>
<path d="M274.68 308.176C274.74 308.326 275.478 308.123 276.382 308.206C277.285 308.274 277.978 308.59 278.061 308.455C278.159 308.342 277.489 307.731 276.427 307.648C275.365 307.557 274.605 308.047 274.68 308.176Z" fill="#263238"/>
<g opacity="0.3">
<path d="M274.679 298.723L274.709 301.724L290.771 301.988L290.862 299.281L274.679 298.723Z" fill="black"/>
</g>
<path d="M274.709 304.812C274.709 304.88 275.334 304.993 276.344 304.842C276.848 304.767 277.443 304.616 278.068 304.36C278.384 304.232 278.7 304.073 279.017 303.885C279.167 303.794 279.348 303.696 279.521 303.515C279.702 303.357 279.815 302.935 279.619 302.671C279.461 302.414 279.167 302.301 278.926 302.286C278.685 302.271 278.49 302.316 278.309 302.354C277.94 302.429 277.601 302.543 277.285 302.678C276.652 302.95 276.14 303.297 275.749 303.628C274.973 304.315 274.702 304.903 274.755 304.933C274.822 304.986 275.206 304.496 275.99 303.938C276.381 303.659 276.878 303.372 277.473 303.153C277.767 303.048 278.083 302.95 278.422 302.889C278.768 302.806 279.062 302.814 279.152 302.972C279.182 303.033 279.19 303.055 279.115 303.153C279.039 303.244 278.896 303.334 278.746 303.425C278.452 303.606 278.158 303.764 277.872 303.9C277.292 304.171 276.743 304.345 276.276 304.465C275.319 304.699 274.709 304.722 274.709 304.812Z" fill="#263238"/>
<path d="M274.906 305.01C274.959 305.033 275.29 304.475 275.381 303.442C275.418 302.929 275.381 302.303 275.2 301.64C275.109 301.308 274.981 300.969 274.808 300.637C274.628 300.312 274.402 299.868 273.784 299.785C273.46 299.762 273.189 300.011 273.091 300.222C272.978 300.441 272.948 300.629 272.911 300.818C272.843 301.195 272.835 301.572 272.881 301.919C272.963 302.62 273.234 303.208 273.536 303.63C274.153 304.498 274.816 304.701 274.831 304.648C274.884 304.573 274.341 304.249 273.867 303.419C273.634 303.012 273.438 302.477 273.385 301.866C273.362 301.564 273.37 301.24 273.438 300.923C273.498 300.576 273.634 300.297 273.762 300.335C273.927 300.335 274.191 300.607 274.319 300.886C274.477 301.18 274.605 301.489 274.703 301.783C274.891 302.379 274.966 302.944 274.981 303.427C275.012 304.392 274.823 304.98 274.906 305.01Z" fill="#263238"/>
<path d="M301.269 170.773L264.56 171.784L269.831 237.192L273.099 300.241L292.143 300.904C293.114 288.734 293.182 245.729 293.182 245.729L297.03 219.751C297.918 212.745 300.727 205.386 302.082 199.104C302.873 195.409 304.04 190.621 304.281 189.06C305.004 184.437 301.269 170.773 301.269 170.773Z" fill="#263238"/>
<path d="M266.698 186.836C266.705 186.836 266.705 186.934 266.705 187.13C266.698 187.341 266.69 187.628 266.682 187.99C266.652 188.766 266.607 189.875 266.554 191.293C266.494 192.725 266.419 194.482 266.359 196.518C266.298 198.554 266.201 200.877 266.148 203.441C266.005 208.568 265.929 214.676 265.96 221.463C266.012 228.25 266.17 235.7 266.554 243.52C266.954 251.34 267.548 258.775 268.219 265.524C268.588 268.895 268.911 272.099 269.318 275.093C269.514 276.586 269.679 278.034 269.883 279.421C270.086 280.809 270.282 282.136 270.463 283.403C270.809 285.944 271.223 288.229 271.547 290.242C271.863 292.256 272.179 293.983 272.443 295.393C272.692 296.788 272.895 297.881 273.03 298.643C273.091 299.005 273.136 299.284 273.173 299.487C273.204 299.676 273.219 299.774 273.211 299.782C273.204 299.782 273.181 299.684 273.136 299.495C273.091 299.291 273.03 299.012 272.955 298.658C272.804 297.896 272.579 296.81 272.3 295.415C272.014 294.005 271.675 292.286 271.336 290.273C270.99 288.259 270.56 285.982 270.199 283.441C270.003 282.174 269.8 280.839 269.589 279.459C269.378 278.072 269.205 276.624 269.009 275.131C268.588 272.137 268.249 268.932 267.872 265.562C267.179 258.805 266.577 251.362 266.178 243.535C265.794 235.708 265.643 228.25 265.613 221.456C265.606 214.669 265.711 208.553 265.884 203.426C265.945 200.862 266.065 198.539 266.148 196.503C266.231 194.467 266.321 192.71 266.411 191.277C266.494 189.86 266.562 188.751 266.607 187.975C266.63 187.613 266.652 187.326 266.667 187.115C266.675 186.934 266.69 186.836 266.698 186.836Z" fill="#455A64"/>
<path d="M245.802 99.3565L236.397 89.3047L228.987 94.5003L236.397 105.472L245.802 99.3565Z" fill="#FFD3C1"/>
<path d="M305.237 103.076L304.778 96.7037L283.55 96.3945L283.369 104.395C283.369 104.395 272.948 115.684 269.168 128.345C262.812 149.625 260.508 176.711 260.508 176.711H303.949C303.498 169.216 300.41 152.445 300.41 152.445L310.071 123.602C312.466 113.233 305.237 103.076 305.237 103.076Z" fill="#0064FF" fill-opacity="0.74902"/>
<path d="M252.677 131.865C252.677 131.865 252.797 131.978 253.038 132.189C253.272 132.407 253.641 132.702 254.138 133.048C255.132 133.727 256.736 134.564 258.897 134.881C259.966 135.047 261.178 135.047 262.436 134.843C263.701 134.7 265.049 134.526 266.465 134.338C269.296 133.953 272.406 133.478 275.659 132.928C282.135 131.789 288.001 130.756 292.301 130.002C294.394 129.663 296.111 129.376 297.353 129.172C297.918 129.082 298.37 129.007 298.731 128.954C299.048 128.901 299.206 128.863 299.206 128.863C299.206 128.863 299.04 128.878 298.724 128.916C298.362 128.969 297.911 129.029 297.346 129.105C296.149 129.27 294.417 129.534 292.286 129.881C288.016 130.56 282.135 131.653 275.636 132.762C272.383 133.312 269.281 133.795 266.449 134.187C265.034 134.383 263.686 134.557 262.421 134.707C261.163 134.911 259.981 134.919 258.919 134.768C256.781 134.466 255.177 133.659 254.175 133.003C253.671 132.664 253.302 132.385 253.061 132.174C252.812 131.963 252.677 131.865 252.677 131.865Z" fill="#263238"/>
<path d="M306.571 121.587C306.578 121.587 306.593 121.526 306.616 121.421C306.646 121.262 306.684 121.104 306.714 120.931C306.797 120.501 306.91 119.883 307.015 119.106C307.218 117.575 307.437 115.373 306.857 113.035C306.262 110.698 304.801 108.911 303.483 108.074C302.821 107.644 302.226 107.41 301.804 107.312C301.382 107.206 301.141 107.191 301.141 107.191C301.119 107.244 302.135 107.305 303.423 108.172C304.703 109.016 306.126 110.781 306.706 113.081C307.279 115.381 307.083 117.567 306.91 119.098C306.819 119.867 306.721 120.493 306.661 120.923C306.639 121.097 306.616 121.262 306.593 121.421C306.571 121.526 306.571 121.587 306.571 121.587Z" fill="#263238"/>
<path d="M261.382 126.778C261.39 126.778 261.382 126.605 261.352 126.303C261.314 125.903 261.277 125.474 261.232 125.014C261.141 123.92 261.066 122.404 261.104 120.738C261.149 119.064 261.299 117.556 261.442 116.47C261.51 116.01 261.57 115.588 261.631 115.188C261.676 114.886 261.698 114.713 261.683 114.713C261.676 114.713 261.631 114.879 261.563 115.173C261.495 115.475 261.412 115.912 261.329 116.455C261.156 117.541 260.983 119.056 260.938 120.73C260.9 122.412 260.991 123.928 261.111 125.021C261.171 125.564 261.232 126.009 261.284 126.311C261.337 126.612 261.375 126.778 261.382 126.778Z" fill="#263238"/>
<path d="M283.626 104.278C284.07 102.77 285.019 101.473 285.945 100.214C287.466 98.1549 289.108 95.9983 291.48 95.0255C293.091 94.3619 297.255 94.7314 298.37 93.3816C301.834 89.1814 296.758 86.5648 298.603 80.7886C300.621 74.4619 299.582 75.4271 299.733 70.4502L307.429 67.1172C308.641 68.0221 311.999 71.2948 311.631 72.7577C311.262 74.2281 311.367 75.8569 311.924 77.6064C313.106 81.3164 317.188 83.5108 319.116 86.889C321.096 90.3578 318.867 94.9501 318.814 98.9392C318.762 102.928 320.268 107.732 324.161 108.599C322.707 111.525 320.275 113.953 317.338 115.386C316.525 114.277 315.712 113.169 314.899 112.06C315.381 115.069 313.332 118.281 310.403 119.111C309.582 115.604 308.716 112 306.6 109.097C304.484 106.193 300.764 104.142 297.293 105.07C294.974 105.696 293.174 107.483 291.103 108.704C289.032 109.918 286.088 110.439 284.432 108.697C283.34 107.566 283.181 105.779 283.626 104.278Z" fill="#263238"/>
<g opacity="0.3">
<path d="M269.167 133.837C279.175 132.005 292.519 129.818 302.526 127.993C302.903 127.925 303.294 127.857 303.648 128.001C304.311 128.264 304.507 129.184 304.205 129.833C303.904 130.481 303.272 130.904 302.639 131.235C299.356 132.955 295.501 133.091 291.796 133.196C285.47 133.37 275.493 133.664 269.167 133.837Z" fill="black"/>
</g>
<path d="M261.855 134.836C264.965 134.897 300.809 128.344 300.809 128.344Z" fill="#0064FF" fill-opacity="0.74902"/>
<path d="M300.2 105.923C302.828 106.247 304.537 106.707 307.61 109.995C307.941 110.349 308.242 110.786 308.528 111.284C311.947 117.317 309.47 125.649 302.926 127.911L296.585 129.216L261.856 134.826C261.856 134.826 254.454 136.493 248.106 126.614C245.779 122.995 229.732 99.0227 229.732 99.0227L240.275 91.957L261.525 114.723L300.2 105.923Z" fill="#0064FF" fill-opacity="0.74902"/>
<path d="M252.677 131.865C252.677 131.865 252.797 131.978 253.038 132.189C253.272 132.407 253.641 132.702 254.138 133.048C255.132 133.727 256.736 134.564 258.897 134.881C259.966 135.047 261.178 135.047 262.436 134.843C263.701 134.7 265.049 134.526 266.465 134.338C269.296 133.953 272.406 133.478 275.659 132.928C282.135 131.789 288.001 130.756 292.301 130.002C294.394 129.663 296.111 129.376 297.353 129.172C297.918 129.082 298.37 129.007 298.731 128.954C299.048 128.901 299.206 128.863 299.206 128.863C299.206 128.863 299.04 128.878 298.724 128.916C298.362 128.969 297.911 129.029 297.346 129.105C296.149 129.27 294.417 129.534 292.286 129.881C288.016 130.56 282.135 131.653 275.636 132.762C272.383 133.312 269.281 133.795 266.449 134.187C265.034 134.383 263.686 134.557 262.421 134.707C261.163 134.911 259.981 134.919 258.919 134.768C256.781 134.466 255.177 133.659 254.175 133.003C253.671 132.664 253.302 132.385 253.061 132.174C252.812 131.963 252.677 131.865 252.677 131.865Z" fill="#263238"/>
<path d="M306.571 121.587C306.578 121.587 306.593 121.526 306.616 121.421C306.646 121.262 306.684 121.104 306.714 120.931C306.797 120.501 306.91 119.883 307.015 119.106C307.218 117.575 307.437 115.373 306.857 113.035C306.262 110.698 304.801 108.911 303.483 108.074C302.821 107.644 302.226 107.41 301.804 107.312C301.382 107.206 301.141 107.191 301.141 107.191C301.119 107.244 302.135 107.305 303.423 108.172C304.703 109.016 306.126 110.781 306.706 113.081C307.279 115.381 307.083 117.567 306.91 119.098C306.819 119.867 306.721 120.493 306.661 120.923C306.639 121.097 306.616 121.262 306.593 121.421C306.571 121.526 306.571 121.587 306.571 121.587Z" fill="#263238"/>
<path d="M261.382 126.78C261.39 126.78 261.382 126.607 261.352 126.305C261.314 125.905 261.277 125.475 261.232 125.016C261.141 123.922 261.066 122.406 261.104 120.74C261.149 119.066 261.299 117.558 261.442 116.472C261.51 116.012 261.57 115.59 261.631 115.19C261.676 114.888 261.698 114.715 261.683 114.715C261.676 114.715 261.631 114.881 261.563 115.175C261.495 115.476 261.412 115.914 261.329 116.457C261.156 117.543 260.983 119.058 260.938 120.732C260.9 122.414 260.991 123.93 261.111 125.023C261.171 125.566 261.232 126.011 261.284 126.313C261.337 126.614 261.375 126.78 261.382 126.78Z" fill="#263238"/>
<path d="M236.351 81.5435C236.065 79.3039 236.103 77.9013 236.155 77.2227C236.178 76.9059 235.914 76.6571 235.606 76.6873C235.033 76.74 234.19 77.0643 233.67 78.3764C233.354 79.1832 233.444 80.0127 233.452 80.8121C233.467 82.1543 233.452 83.21 233.452 83.21C233.452 83.21 226.765 75.1942 225.41 74.8322C224.679 74.6362 224.416 74.8549 224.145 75.2847C223.896 75.6843 224.393 76.6194 224.393 76.6194L228.166 82.0186C228.166 82.0186 222.465 75.2998 221.434 75.3224C220.38 75.345 219.95 76.1066 220.598 77.3207C221.087 78.2331 226.065 84.1375 226.065 84.1375C226.065 84.1375 220.741 78.9872 219.679 79.0324C218.618 79.0777 218.798 80.2012 219.356 80.6688C219.913 81.1363 223.851 85.7211 223.851 85.7211C223.851 85.7211 220.003 82.471 219.227 82.7274C218.429 82.9913 218.783 83.8434 219.197 84.5447C219.612 85.2385 229.258 94.9057 229.258 94.9057L237.624 90.698C237.842 89.5216 237.804 88.3151 237.496 87.1538C237.127 85.7286 236.615 83.5795 236.351 81.5435Z" fill="#FFD3C1"/>
<path d="M113.407 176.766C109.152 176.766 105.704 173.312 105.704 169.051V101.984C105.704 98.568 108.655 95.8081 112.293 95.8081H118.588C121.156 95.8081 123.49 94.4055 124.567 92.2187L125.922 89.4663C126.999 87.2795 129.333 85.877 131.901 85.877H161.796C164.123 85.877 166.284 87.0307 167.466 88.9159L168.935 91.246C170.117 93.1236 172.278 94.2849 174.605 94.2849H212.715C216.352 94.2849 219.304 97.0523 219.304 100.461V169.051C219.304 173.312 215.855 176.766 211.601 176.766H113.407Z" fill="#0064FF" fill-opacity="0.74902"/>
<g opacity="0.3">
<path d="M113.407 176.766C109.152 176.766 105.704 173.312 105.704 169.051V101.984C105.704 98.568 108.655 95.8081 112.293 95.8081H118.588C121.156 95.8081 123.49 94.4055 124.567 92.2187L125.922 89.4663C126.999 87.2795 129.333 85.877 131.901 85.877H161.796C164.123 85.877 166.284 87.0307 167.466 88.9159L168.935 91.246C170.117 93.1236 172.278 94.2849 174.605 94.2849H212.715C216.352 94.2849 219.304 97.0523 219.304 100.461V169.051C219.304 173.312 215.855 176.766 211.601 176.766H113.407Z" fill="black"/>
</g>
<path d="M170.847 94.2793L146.607 94.2265L144.438 90.1696C143.03 87.5379 140.169 85.8789 137.028 85.8789H113.331C109.114 85.8789 105.695 89.0837 105.695 93.0426V95.8101V168.631C105.695 173.125 109.581 176.767 114.37 176.767H210.621C215.41 176.767 219.296 173.125 219.296 168.631V99.8368C219.296 96.7677 216.811 94.2793 213.746 94.2793H170.847Z" fill="#0064FF" fill-opacity="0.74902"/>
<path d="M183.075 151.554H172.345C171.923 151.554 171.584 151.215 171.584 150.792C171.584 150.37 171.923 150.031 172.345 150.031H183.075C188.964 150.031 193.753 145.235 193.753 139.338C193.753 133.667 189.318 128.985 183.663 128.675C183.332 128.66 183.053 128.427 182.97 128.11C181.027 120.562 174.235 115.291 166.456 115.291C161.253 115.291 156.404 117.628 153.135 121.708C152.97 121.911 152.714 122.017 152.458 121.987C151.863 121.919 151.328 121.881 150.831 121.881C143.083 121.881 136.78 128.193 136.78 135.952C136.78 143.712 143.083 150.023 150.831 150.023H159.529C159.95 150.023 160.289 150.363 160.289 150.785C160.289 151.207 159.95 151.547 159.529 151.547H150.831C142.247 151.547 135.259 144.549 135.259 135.952C135.259 127.356 142.247 120.358 150.831 120.358C151.268 120.358 151.727 120.381 152.217 120.426C155.764 116.188 160.937 113.76 166.456 113.76C174.747 113.76 182.006 119.257 184.295 127.197C190.493 127.816 195.274 133.041 195.274 139.33C195.267 146.079 189.8 151.554 183.075 151.554Z" fill="white"/>
<path d="M165.725 158.416C165.304 158.416 164.965 158.077 164.965 157.655V138.049C164.965 137.626 165.304 137.287 165.725 137.287C166.147 137.287 166.486 137.626 166.486 138.049V157.655C166.486 158.077 166.14 158.416 165.725 158.416Z" fill="white"/>
<path d="M171.441 145.876C171.208 145.876 170.982 145.77 170.831 145.574L165.839 138.878C165.794 138.825 165.756 138.818 165.696 138.81C165.651 138.81 165.598 138.825 165.553 138.878L160.259 145.386C159.996 145.71 159.514 145.763 159.19 145.499C158.866 145.235 158.813 144.752 159.077 144.428L164.371 137.921C164.702 137.513 165.191 137.295 165.718 137.287C166.246 137.295 166.728 137.536 167.051 137.958L172.044 144.662C172.292 145.001 172.225 145.476 171.893 145.725C171.765 145.831 171.6 145.876 171.441 145.876Z" fill="white"/>
<path d="M151.027 192.663V189.285H151.652V192.641C151.652 194.043 152.307 194.684 153.452 194.684C154.604 194.684 155.259 194.043 155.259 192.641V189.285H155.869V192.663C155.869 194.36 154.958 195.235 153.452 195.235C151.946 195.235 151.027 194.36 151.027 192.663Z" fill="#263238"/>
<path d="M162.104 192.972C162.104 194.322 161.163 195.234 159.898 195.234C159.19 195.234 158.588 194.932 158.211 194.359V196.833H157.616V190.762H158.189V191.637C158.55 191.049 159.167 190.725 159.898 190.725C161.163 190.717 162.104 191.63 162.104 192.972ZM161.509 192.972C161.509 191.946 160.794 191.245 159.86 191.245C158.919 191.245 158.211 191.946 158.211 192.972C158.211 194.012 158.919 194.699 159.86 194.699C160.794 194.699 161.509 194.005 161.509 192.972Z" fill="#263238"/>
<path d="M163.324 188.934H163.919V195.192H163.324V188.934Z" fill="#263238"/>
<path d="M165.146 192.972C165.146 191.66 166.103 190.725 167.406 190.725C168.701 190.725 169.657 191.66 169.657 192.972C169.657 194.291 168.708 195.234 167.406 195.234C166.103 195.226 165.146 194.284 165.146 192.972ZM169.04 192.972C169.04 191.931 168.339 191.245 167.398 191.245C166.457 191.245 165.749 191.939 165.749 192.972C165.749 194.012 166.457 194.699 167.398 194.699C168.339 194.699 169.04 194.005 169.04 192.972Z" fill="#263238"/>
<path d="M174.183 192.44V195.185H173.611V194.491C173.34 194.943 172.82 195.222 172.09 195.222C171.088 195.222 170.471 194.702 170.471 193.933C170.471 193.247 170.907 192.673 172.18 192.673H173.588V192.402C173.588 191.64 173.159 191.233 172.331 191.233C171.758 191.233 171.216 191.437 170.855 191.754L170.584 191.309C171.028 190.932 171.683 190.713 172.383 190.713C173.535 190.72 174.183 191.294 174.183 192.44ZM173.588 193.857V193.133H172.203C171.344 193.133 171.066 193.473 171.066 193.925C171.066 194.438 171.48 194.762 172.188 194.762C172.85 194.762 173.347 194.438 173.588 193.857Z" fill="#263238"/>
<path d="M179.868 188.934V195.192H179.296V194.318C178.934 194.913 178.317 195.238 177.586 195.238C176.321 195.238 175.38 194.318 175.38 192.975C175.38 191.633 176.321 190.728 177.586 190.728C178.294 190.728 178.904 191.03 179.273 191.603V188.941H179.868V188.934ZM179.273 192.975C179.273 191.935 178.565 191.249 177.631 191.249C176.69 191.249 175.982 191.942 175.982 192.975C175.982 194.016 176.69 194.702 177.631 194.702C178.565 194.702 179.273 194.009 179.273 192.975Z" fill="#263238"/>
<path d="M181.141 194.765C181.141 194.501 181.344 194.312 181.585 194.312C181.826 194.312 182.037 194.509 182.037 194.765C182.037 195.022 181.826 195.233 181.585 195.233C181.344 195.226 181.141 195.022 181.141 194.765Z" fill="#263238"/>
<path d="M182.925 194.765C182.925 194.501 183.129 194.312 183.37 194.312C183.611 194.312 183.822 194.509 183.822 194.765C183.822 195.022 183.611 195.233 183.37 195.233C183.129 195.226 182.925 195.022 182.925 194.765Z" fill="#263238"/>
<path d="M184.71 194.765C184.71 194.501 184.913 194.312 185.155 194.312C185.396 194.312 185.607 194.509 185.607 194.765C185.607 195.022 185.396 195.233 185.155 195.233C184.913 195.226 184.71 195.022 184.71 194.765Z" fill="#263238"/>
<path d="M223.061 216.732H105.612C102.856 216.732 100.62 214.492 100.62 211.732V210.269C100.62 207.509 102.856 205.27 105.612 205.27H223.053C225.809 205.27 228.046 207.509 228.046 210.269V211.732C228.046 214.492 225.809 216.732 223.061 216.732Z" fill="#C5DCFF"/>
<path d="M159.348 216.732H105.612C102.856 216.732 100.62 214.492 100.62 211.732V210.269C100.62 207.509 102.856 205.27 105.612 205.27H159.348C162.104 205.27 164.34 207.509 164.34 210.269V211.732C164.332 214.492 162.104 216.732 159.348 216.732Z" fill="#0064FF" fill-opacity="0.74902"/>
<g opacity="0.3">
<path d="M110.251 205.271L103.466 216.047L104.528 216.522C104.829 216.658 105.153 216.726 105.477 216.726H107.63L114.995 205.271H110.251Z" fill="white"/>
</g>
<g opacity="0.3">
<path d="M122.368 205.271L115.161 216.726H119.762L127.127 205.271H122.368Z" fill="white"/>
</g>
<g opacity="0.3">
<path d="M134.491 205.271L127.277 216.726H131.886L139.243 205.271H134.491Z" fill="white"/>
</g>
<g opacity="0.3">
<path d="M146.607 205.271L139.401 216.726H144.002L151.366 205.271H146.607Z" fill="white"/>
</g>
<g opacity="0.3">
<path d="M158.731 205.271L151.524 216.726H156.125L161.924 207.7L162.609 206.719C161.72 205.739 160.357 205.339 158.731 205.271Z" fill="white"/>
</g>
<path d="M223.167 216.729C223.167 216.714 223.4 216.721 223.859 216.653C224.311 216.593 224.989 216.435 225.749 215.96C226.51 215.507 227.338 214.693 227.805 213.479C228.039 212.876 228.144 212.174 228.129 211.428C228.114 210.674 228.182 209.859 227.948 209.052C227.549 207.439 226.111 205.825 224.078 205.463C223.581 205.357 223.054 205.38 222.511 205.38C221.969 205.38 221.419 205.38 220.855 205.388C219.733 205.388 218.566 205.395 217.353 205.395C212.519 205.403 207.007 205.41 200.922 205.425C176.57 205.44 142.94 205.463 105.793 205.486C104.679 205.493 103.572 205.885 102.714 206.594C101.855 207.303 101.26 208.306 101.049 209.392C100.936 209.927 100.959 210.485 100.959 211.066C100.959 211.646 100.952 212.189 101.072 212.732C101.298 213.803 101.915 214.783 102.751 215.47C103.595 216.156 104.671 216.533 105.748 216.548C106.87 216.548 107.985 216.548 109.099 216.548C111.328 216.548 113.534 216.548 115.726 216.548C124.483 216.555 132.932 216.555 140.982 216.563C157.074 216.578 171.57 216.593 183.746 216.608C195.915 216.638 205.757 216.653 212.579 216.669C215.975 216.684 218.618 216.699 220.418 216.706C221.307 216.714 221.984 216.721 222.459 216.729C222.933 216.714 223.167 216.729 223.167 216.729C223.167 216.729 222.933 216.744 222.474 216.752C222.007 216.759 221.322 216.759 220.433 216.774C218.633 216.782 215.99 216.797 212.594 216.812C205.779 216.827 195.93 216.85 183.761 216.872C171.585 216.887 157.089 216.902 140.997 216.917C132.947 216.917 124.498 216.925 115.741 216.932C113.55 216.932 111.343 216.932 109.114 216.932C108 216.932 106.878 216.932 105.756 216.932C104.589 216.917 103.421 216.51 102.51 215.771C101.599 215.025 100.936 213.976 100.688 212.808C100.56 212.227 100.567 211.624 100.567 211.058C100.575 210.493 100.545 209.897 100.665 209.309C100.899 208.14 101.546 207.054 102.465 206.285C103.391 205.523 104.589 205.093 105.793 205.086C142.932 205.109 176.562 205.131 200.922 205.146C207.007 205.154 212.511 205.169 217.353 205.176C218.566 205.176 219.725 205.184 220.855 205.184C221.419 205.184 221.969 205.184 222.511 205.192C223.046 205.199 223.588 205.176 224.108 205.29C226.216 205.682 227.692 207.356 228.091 209.022C228.325 209.867 228.249 210.689 228.257 211.443C228.264 212.204 228.151 212.921 227.903 213.539C227.414 214.776 226.555 215.598 225.779 216.05C225.004 216.518 224.311 216.661 223.852 216.714C223.407 216.752 223.167 216.729 223.167 216.729Z" fill="#263238"/>
</g>
<defs>
<clipPath id="clip0_3842_3289">
<rect width="341.562" height="321.802" fill="white" transform="translate(0.438477 0.289062)"/>
</clipPath>
</defs>
</svg>
