<svg width="163" height="179" viewBox="0 0 163 179" fill="none" xmlns="http://www.w3.org/2000/svg">
<path d="M62.7066 29.8197H99.5872C99.5872 24.8768 97.6444 20.1363 94.1862 16.6411C90.7279 13.1459 86.0376 11.1824 81.1469 11.1824C76.2562 11.1824 71.5659 13.1459 68.1077 16.6411C64.6494 20.1363 62.7066 24.8768 62.7066 29.8197ZM51.6424 29.8197C51.6424 21.911 54.7509 14.3263 60.2841 8.73398C65.8173 3.14171 73.3218 0 81.1469 0C88.972 0 96.4765 3.14171 102.01 8.73398C107.543 14.3263 110.651 21.911 110.651 29.8197H156.752C158.219 29.8197 159.626 30.4087 160.664 31.4573C161.701 32.5059 162.284 33.928 162.284 35.4109C162.284 36.8937 161.701 38.3159 160.664 39.3644C159.626 40.413 158.219 41.0021 156.752 41.0021H147.089L138.113 149.866C137.46 157.786 133.886 165.168 128.1 170.549C122.313 175.93 114.738 178.917 106.875 178.918H55.419C47.556 178.917 39.9804 175.93 34.1943 170.549C28.4082 165.168 24.8343 157.786 24.1812 149.866L15.2044 41.0021H5.54173C4.07453 41.0021 2.66742 40.413 1.62995 39.3644C0.592486 38.3159 0.00964355 36.8937 0.00964355 35.4109C0.00964355 33.928 0.592486 32.5059 1.62995 31.4573C2.66742 30.4087 4.07453 29.8197 5.54173 29.8197H51.6424ZM35.2085 148.934C35.6303 154.059 37.9422 158.836 41.6858 162.319C45.4293 165.801 50.3311 167.735 55.419 167.736H106.875C111.963 167.735 116.864 165.801 120.608 162.319C124.352 158.836 126.664 154.059 127.085 148.934L135.996 41.0021H26.3055L35.2085 148.934ZM64.5506 67.0943C66.0178 67.0943 67.425 67.6833 68.4624 68.7319C69.4999 69.7804 70.0827 71.2026 70.0827 72.6855V136.052C70.0827 137.535 69.4999 138.957 68.4624 140.006C67.425 141.054 66.0178 141.643 64.5506 141.643C63.0834 141.643 61.6763 141.054 60.6389 140.006C59.6014 138.957 59.0186 137.535 59.0186 136.052V72.6855C59.0186 71.2026 59.6014 69.7804 60.6389 68.7319C61.6763 67.6833 63.0834 67.0943 64.5506 67.0943ZM103.275 72.6855C103.275 71.2026 102.692 69.7804 101.655 68.7319C100.617 67.6833 99.2104 67.0943 97.7432 67.0943C96.276 67.0943 94.8689 67.6833 93.8314 68.7319C92.7939 69.7804 92.2111 71.2026 92.2111 72.6855V136.052C92.2111 137.535 92.7939 138.957 93.8314 140.006C94.8689 141.054 96.276 141.643 97.7432 141.643C99.2104 141.643 100.617 141.054 101.655 140.006C102.692 138.957 103.275 137.535 103.275 136.052V72.6855Z" fill="#FF0000"/>
</svg>
