<svg width="10" height="18" viewBox="0 0 10 18" fill="none" xmlns="http://www.w3.org/2000/svg">
<path d="M8.33333 5.85H10C10 3.2967 7.70417 2.1321 5.83333 1.8639V0H4.16667V1.8639C2.29583 2.1321 0 3.2967 0 5.85C0 8.2854 2.22167 9.5517 4.16667 9.837V14.31C2.96 14.0841 1.66667 13.3884 1.66667 12.15H0C0 14.4801 2.02083 15.8571 4.16667 16.1424V18H5.83333V16.137C7.70417 15.8688 10 14.7033 10 12.15C10 9.5967 7.70417 8.4321 5.83333 8.1639V3.69C6.94167 3.9051 8.33333 4.5369 8.33333 5.85ZM1.66667 5.85C1.66667 4.5369 3.05833 3.9051 4.16667 3.69V8.0091C3.02417 7.7814 1.66667 7.1073 1.66667 5.85ZM8.33333 12.15C8.33333 13.4631 6.94167 14.0949 5.83333 14.31V9.99C6.94167 10.2051 8.33333 10.8369 8.33333 12.15Z" fill="black"/>
</svg>
