<svg width="18" height="18" viewBox="0 0 18 18" fill="none" xmlns="http://www.w3.org/2000/svg">
<path d="M9.43298 0.515625C4.73858 0.515625 0.932983 4.32122 0.932983 9.01563C0.932983 13.71 4.73858 17.5156 9.43298 17.5156C14.1274 17.5156 17.933 13.71 17.933 9.01563C17.933 4.32122 14.1274 0.515625 9.43298 0.515625ZM9.43298 15.6678C5.75858 15.6678 2.78081 12.6891 2.78081 9.01563C2.78081 5.34215 5.75858 2.36345 9.43298 2.36345C13.1074 2.36345 16.0852 5.34215 16.0852 9.01563C16.0852 12.6891 13.1074 15.6678 9.43298 15.6678ZM11.096 5.45856H7.76993V9.23736H5.69114L9.43298 12.7575L13.1748 9.23736H11.096L11.096 5.45856Z" fill="#007BFF"/>
</svg>
