<svg width="20" height="21" viewBox="0 0 20 21" fill="none" xmlns="http://www.w3.org/2000/svg">
<path d="M10 0.40625C4.5 0.40625 0 4.89625 0 10.4263C0 15.4263 3.66 19.5762 8.44 20.3262V13.3263H5.9V10.4263H8.44V8.21625C8.44 5.70625 9.93 4.32625 12.22 4.32625C13.31 4.32625 14.45 4.51625 14.45 4.51625V6.98625H13.19C11.95 6.98625 11.56 7.75625 11.56 8.54625V10.4263H14.34L13.89 13.3263H11.56V20.3262C13.9164 19.9541 16.0622 18.7518 17.6099 16.9363C19.1576 15.1209 20.0054 12.8119 20 10.4263C20 4.89625 15.5 0.40625 10 0.40625Z" fill="white"/>
</svg>
