<svg width="9" height="18" viewBox="0 0 9 18" fill="none" xmlns="http://www.w3.org/2000/svg">
<path d="M4.83106 3.86586C5.78531 3.86586 6.55265 3.03457 6.55265 2.0008C6.55265 0.967025 5.78531 0.135742 4.83106 0.135742C3.87681 0.135742 3.10947 0.967025 3.10947 2.0008C3.10947 3.03457 3.87681 3.86586 4.83106 3.86586ZM6.79859 12.9247V17.1877H2.86353V12.9247H0.895996L3.23736 6.12524C3.36018 5.77506 3.57839 5.47362 3.86302 5.26092C4.14766 5.04822 4.48527 4.93431 4.83106 4.93431C5.17685 4.93431 5.51446 5.04822 5.7991 5.26092C6.08374 5.47362 6.30194 5.77506 6.42476 6.12524L8.76613 12.9247H6.79859Z" fill="black"/>
</svg>
