<svg width="16" height="16" viewBox="0 0 16 16" fill="none" xmlns="http://www.w3.org/2000/svg">
<path d="M9.85711 8.70246C9.85711 9.19637 9.68402 9.67919 9.35973 10.0899C9.03543 10.5005 8.5745 10.8206 8.03522 11.0096C7.49595 11.1986 6.90254 11.2481 6.33004 11.1517C5.75755 11.0554 5.23168 10.8175 4.81893 10.4683C4.40618 10.119 4.1251 9.67407 4.01122 9.18966C3.89735 8.70524 3.95579 8.20312 4.17917 7.74681C4.40254 7.29049 4.78082 6.90048 5.26616 6.62608C5.7515 6.35167 6.3221 6.20521 6.90581 6.20521C7.29338 6.20521 7.67716 6.26981 8.03522 6.3953C8.39329 6.5208 8.71864 6.70475 8.9927 6.93664C9.26675 7.16853 9.48414 7.44383 9.63246 7.74681C9.78077 8.04979 9.85711 8.37452 9.85711 8.70246ZM15.1039 1.76565V13.9744C15.1039 14.2688 14.9657 14.5511 14.7197 14.7593C14.4737 14.9674 14.1401 15.0843 13.7922 15.0843H1.98698C1.6391 15.0843 1.30547 14.9674 1.05948 14.7593C0.813488 14.5511 0.675293 14.2688 0.675293 13.9744V1.76565C0.675293 1.47129 0.813488 1.18899 1.05948 0.980841C1.30547 0.772696 1.6391 0.655762 1.98698 0.655762H13.7922C14.1401 0.655762 14.4737 0.772696 14.7197 0.980841C14.9657 1.18899 15.1039 1.47129 15.1039 1.76565ZM13.1363 3.98543C13.1363 3.83825 13.0672 3.6971 12.9442 3.59303C12.8212 3.48895 12.6544 3.43049 12.4805 3.43049H9.85711C9.68317 3.43049 9.51635 3.48895 9.39336 3.59303C9.27036 3.6971 9.20127 3.83825 9.20127 3.98543C9.20127 4.13261 9.27036 4.27376 9.39336 4.37784C9.51635 4.48191 9.68317 4.54038 9.85711 4.54038H10.8974L9.42179 5.789C8.55462 5.25094 7.47943 5.00958 6.41108 5.11315C5.34273 5.21671 4.35991 5.65758 3.65902 6.34765C2.95813 7.03772 2.59078 7.92616 2.6304 8.83544C2.67001 9.74473 3.11366 10.6079 3.87269 11.2524C4.63173 11.8969 5.65024 12.2754 6.7247 12.3121C7.79916 12.3488 8.85043 12.0411 9.66844 11.4505C10.4864 10.8599 11.0109 10.0298 11.1371 9.12623C11.2633 8.22261 10.9818 7.31199 10.349 6.57633L11.8246 5.32771V6.20521C11.8246 6.35239 11.8937 6.49355 12.0167 6.59762C12.1397 6.70169 12.3065 6.76016 12.4805 6.76016C12.6544 6.76016 12.8212 6.70169 12.9442 6.59762C13.0672 6.49355 13.1363 6.35239 13.1363 6.20521V3.98543Z" fill="black"/>
</svg>
