<svg width="18" height="19" viewBox="0 0 18 19" fill="none" xmlns="http://www.w3.org/2000/svg">
<path d="M6.67207 7.10006C6.86015 6.5654 7.23139 6.11455 7.72003 5.82737C8.20868 5.54019 8.78319 5.43522 9.34181 5.53103C9.90044 5.62685 10.4071 5.91728 10.7721 6.35089C11.1371 6.78449 11.3369 7.33328 11.3361 7.90006C11.3361 9.50006 8.93607 10.3001 8.93607 10.3001M9 13.5H9.008M17 9.5C17 13.9183 13.4183 17.5 9 17.5C4.58172 17.5 1 13.9183 1 9.5C1 5.08172 4.58172 1.5 9 1.5C13.4183 1.5 17 5.08172 17 9.5Z" stroke="black" stroke-width="2" stroke-linecap="round" stroke-linejoin="round"/>
</svg>
