<svg width="20" height="20" viewBox="0 0 20 20" fill="none" xmlns="http://www.w3.org/2000/svg">
<path d="M7.16846 11.792H11.9474" stroke="#007BFF" stroke-width="1.19475" stroke-linecap="round" stroke-linejoin="round"/>
<path d="M7.16846 9.40332H11.9474" stroke="#007BFF" stroke-width="1.19475" stroke-linecap="round" stroke-linejoin="round"/>
<path d="M11.9476 3.42969H14.9343C15.0928 3.42969 15.2447 3.49262 15.3567 3.60465C15.4688 3.71668 15.5317 3.86863 15.5317 4.02706V16.5719C15.5317 16.7303 15.4688 16.8823 15.3567 16.9943C15.2447 17.1063 15.0928 17.1693 14.9343 17.1693H4.1816C4.02317 17.1693 3.87122 17.1063 3.7592 16.9943C3.64717 16.8823 3.58423 16.7303 3.58423 16.5719V4.02706C3.58423 3.86863 3.64717 3.71668 3.7592 3.60465C3.87122 3.49262 4.02317 3.42969 4.1816 3.42969H7.16831" stroke="#007BFF" stroke-width="1.19475" stroke-linecap="round" stroke-linejoin="round"/>
<path d="M6.57104 5.81861V5.22124C6.57104 4.42908 6.88573 3.66935 7.44588 3.10921C8.00602 2.54906 8.76574 2.23438 9.55791 2.23438C10.3501 2.23438 11.1098 2.54906 11.6699 3.10921C12.2301 3.66935 12.5448 4.42908 12.5448 5.22124V5.81861H6.57104Z" stroke="#007BFF" stroke-width="1.19475" stroke-linecap="round" stroke-linejoin="round"/>
</svg>
