<svg width="20" height="20" viewBox="0 0 20 20" fill="none" xmlns="http://www.w3.org/2000/svg">
<path opacity="0.2" d="M11.9475 3.42969C12.3361 3.94625 12.5458 4.57539 12.5448 5.22181V5.81918H6.57111V5.22181C6.57013 4.57539 6.77983 3.94625 7.16844 3.42969H4.18161C4.10316 3.42969 4.02548 3.44514 3.95301 3.47516C3.88053 3.50518 3.81467 3.54918 3.7592 3.60465C3.70373 3.66012 3.65973 3.72598 3.62971 3.79845C3.59969 3.87093 3.58424 3.94861 3.58424 4.02706V16.5719C3.58424 16.6503 3.59969 16.728 3.62971 16.8005C3.65973 16.873 3.70373 16.9388 3.7592 16.9943C3.81467 17.0498 3.88053 17.0938 3.95301 17.1238C4.02548 17.1538 4.10316 17.1693 4.18161 17.1693H14.9343C15.0128 17.1693 15.0905 17.1538 15.1629 17.1238C15.2354 17.0938 15.3013 17.0498 15.3567 16.9943C15.4122 16.9388 15.4562 16.873 15.4862 16.8005C15.5163 16.728 15.5317 16.6503 15.5317 16.5719V4.02706C15.5317 3.94861 15.5163 3.87093 15.4862 3.79845C15.4562 3.72598 15.4122 3.66012 15.3567 3.60465C15.3013 3.54918 15.2354 3.50518 15.1629 3.47516C15.0905 3.44514 15.0128 3.42969 14.9343 3.42969H11.9475Z" fill="#6E7485"/>
<path d="M7.16848 11.792H11.9475" stroke="#6E7485" stroke-width="1.19475" stroke-linecap="round" stroke-linejoin="round"/>
<path d="M7.16848 9.40332H11.9475" stroke="#6E7485" stroke-width="1.19475" stroke-linecap="round" stroke-linejoin="round"/>
<path d="M11.9476 3.42969H14.9343C15.0928 3.42969 15.2447 3.49262 15.3567 3.60465C15.4688 3.71668 15.5317 3.86863 15.5317 4.02706V16.5719C15.5317 16.7303 15.4688 16.8823 15.3567 16.9943C15.2447 17.1063 15.0928 17.1693 14.9343 17.1693H4.18161C4.02318 17.1693 3.87124 17.1063 3.75921 16.9943C3.64718 16.8823 3.58424 16.7303 3.58424 16.5719V4.02706C3.58424 3.86863 3.64718 3.71668 3.75921 3.60465C3.87124 3.49262 4.02318 3.42969 4.18161 3.42969H7.16832" stroke="#6E7485" stroke-width="1.19475" stroke-linecap="round" stroke-linejoin="round"/>
<path d="M6.57111 5.81861V5.22124C6.57111 4.42908 6.88579 3.66935 7.44594 3.10921C8.00608 2.54906 8.76581 2.23438 9.55797 2.23438C10.3501 2.23438 11.1099 2.54906 11.67 3.10921C12.2302 3.66935 12.5448 4.42908 12.5448 5.22124V5.81861H6.57111Z" stroke="#6E7485" stroke-width="1.19475" stroke-linecap="round" stroke-linejoin="round"/>
</svg>
