<svg width="20" height="21" viewBox="0 0 20 21" fill="none" xmlns="http://www.w3.org/2000/svg">
<path d="M5.8 0.366211H14.2C17.4 0.366211 20 2.96621 20 6.16621V14.5662C20 16.1045 19.3889 17.5797 18.3012 18.6674C17.2135 19.7551 15.7383 20.3662 14.2 20.3662H5.8C2.6 20.3662 0 17.7662 0 14.5662V6.16621C0 4.62796 0.61107 3.1527 1.69878 2.06499C2.78649 0.977281 4.26174 0.366211 5.8 0.366211ZM5.6 2.36621C4.64522 2.36621 3.72955 2.7455 3.05442 3.42063C2.37928 4.09576 2 5.01143 2 5.96621V14.7662C2 16.7562 3.61 18.3662 5.6 18.3662H14.4C15.3548 18.3662 16.2705 17.9869 16.9456 17.3118C17.6207 16.6367 18 15.721 18 14.7662V5.96621C18 3.97621 16.39 2.36621 14.4 2.36621H5.6ZM15.25 3.86621C15.5815 3.86621 15.8995 3.99791 16.1339 4.23233C16.3683 4.46675 16.5 4.78469 16.5 5.11621C16.5 5.44773 16.3683 5.76567 16.1339 6.00009C15.8995 6.23451 15.5815 6.36621 15.25 6.36621C14.9185 6.36621 14.6005 6.23451 14.3661 6.00009C14.1317 5.76567 14 5.44773 14 5.11621C14 4.78469 14.1317 4.46675 14.3661 4.23233C14.6005 3.99791 14.9185 3.86621 15.25 3.86621ZM10 5.36621C11.3261 5.36621 12.5979 5.89299 13.5355 6.83068C14.4732 7.76836 15 9.04013 15 10.3662C15 11.6923 14.4732 12.9641 13.5355 13.9017C12.5979 14.8394 11.3261 15.3662 10 15.3662C8.67392 15.3662 7.40215 14.8394 6.46447 13.9017C5.52678 12.9641 5 11.6923 5 10.3662C5 9.04013 5.52678 7.76836 6.46447 6.83068C7.40215 5.89299 8.67392 5.36621 10 5.36621ZM10 7.36621C9.20435 7.36621 8.44129 7.68228 7.87868 8.24489C7.31607 8.8075 7 9.57056 7 10.3662C7 11.1619 7.31607 11.9249 7.87868 12.4875C8.44129 13.0501 9.20435 13.3662 10 13.3662C10.7956 13.3662 11.5587 13.0501 12.1213 12.4875C12.6839 11.9249 13 11.1619 13 10.3662C13 9.57056 12.6839 8.8075 12.1213 8.24489C11.5587 7.68228 10.7956 7.36621 10 7.36621Z" fill="white"/>
</svg>
