<svg width="18" height="19" viewBox="0 0 18 19" fill="none" xmlns="http://www.w3.org/2000/svg">
<path d="M16 0.366211C16.5304 0.366211 17.0391 0.576925 17.4142 0.951997C17.7893 1.32707 18 1.83578 18 2.36621V16.3662C18 16.8966 17.7893 17.4054 17.4142 17.7804C17.0391 18.1555 16.5304 18.3662 16 18.3662H2C1.46957 18.3662 0.960859 18.1555 0.585786 17.7804C0.210714 17.4054 0 16.8966 0 16.3662V2.36621C0 1.83578 0.210714 1.32707 0.585786 0.951997C0.960859 0.576925 1.46957 0.366211 2 0.366211H16ZM15.5 15.8662V10.5662C15.5 9.7016 15.1565 8.87241 14.5452 8.26104C13.9338 7.64967 13.1046 7.30621 12.24 7.30621C11.39 7.30621 10.4 7.82621 9.92 8.60621V7.49621H7.13V15.8662H9.92V10.9362C9.92 10.1662 10.54 9.53621 11.31 9.53621C11.6813 9.53621 12.0374 9.68371 12.2999 9.94626C12.5625 10.2088 12.71 10.5649 12.71 10.9362V15.8662H15.5ZM3.88 5.92621C4.32556 5.92621 4.75288 5.74921 5.06794 5.43415C5.383 5.11909 5.56 4.69177 5.56 4.24621C5.56 3.31621 4.81 2.55621 3.88 2.55621C3.43178 2.55621 3.00193 2.73426 2.68499 3.0512C2.36805 3.36814 2.19 3.798 2.19 4.24621C2.19 5.17621 2.95 5.92621 3.88 5.92621ZM5.27 15.8662V7.49621H2.5V15.8662H5.27Z" fill="white"/>
</svg>
