<svg width="9" height="16" viewBox="0 0 9 16" fill="none" xmlns="http://www.w3.org/2000/svg">
<path d="M4.83106 3.65217C4.19708 3.65217 3.65622 3.48394 3.2085 3.14749C2.76078 2.81105 2.53648 2.40541 2.53561 1.93057C2.53473 1.45574 2.75903 1.0501 3.2085 0.713656C3.65797 0.377208 4.19883 0.208984 4.83106 0.208984C5.46329 0.208984 6.00458 0.377208 6.45493 0.713656C6.90528 1.0501 7.12914 1.45574 7.12651 1.93057C7.12389 2.40541 6.89959 2.81137 6.45362 3.14848C6.00764 3.48558 5.46679 3.65348 4.83106 3.65217ZM2.20768 14.9655V11.0304C1.83604 11.0304 1.52473 10.936 1.27376 10.7471C1.02279 10.5582 0.896871 10.3247 0.895996 10.0466V6.60346C0.895996 6.06239 1.15309 5.59937 1.66727 5.21439C2.18145 4.82941 2.79882 4.63659 3.51937 4.63593H6.14275C6.86418 4.63593 7.48198 4.82875 7.99616 5.21439C8.51034 5.60002 8.767 6.06305 8.76612 6.60346V10.0466C8.76612 10.3254 8.6402 10.5592 8.38836 10.7481C8.13651 10.937 7.82521 11.0311 7.45444 11.0304V14.9655C7.45444 15.2442 7.32851 15.478 7.07667 15.6669C6.82483 15.8558 6.51352 15.9499 6.14275 15.9492H3.51937C3.14773 15.9492 2.83642 15.8548 2.58545 15.6659C2.33448 15.477 2.20856 15.2436 2.20768 14.9655Z" fill="black"/>
</svg>
