<svg width="32" height="18" viewBox="0 0 32 18" fill="none" xmlns="http://www.w3.org/2000/svg">
<path fill-rule="evenodd" clip-rule="evenodd" d="M15.9423 15.1444C17.5908 16.5301 19.7502 17.2977 21.9904 17.2945C24.3886 17.2806 26.6834 16.4006 28.3738 14.8466C30.0643 13.2927 31.013 11.191 31.013 9.00029C31.013 6.80962 30.0643 4.7079 28.3738 3.15394C26.6834 1.59998 24.3886 0.719991 21.9904 0.706065C19.7501 0.702781 17.5907 1.47045 15.9423 2.85617C15.0046 3.63413 14.2552 4.5826 13.7425 5.64071C13.2297 6.69881 12.9648 7.84316 12.9648 9.00029C12.9648 10.1574 13.2297 11.3018 13.7425 12.3599C14.2552 13.418 15.0046 14.3665 15.9423 15.1444Z" fill="#E9B040"/>
<path fill-rule="evenodd" clip-rule="evenodd" d="M29.8128 13.6208C29.8127 13.5871 29.8198 13.5537 29.8339 13.5225C29.8479 13.4914 29.8686 13.4631 29.8946 13.4393C29.9207 13.4155 29.9517 13.3966 29.9858 13.3838C30.0199 13.3709 30.0564 13.3644 30.0933 13.3645C30.1313 13.3629 30.1693 13.3684 30.205 13.3805C30.2407 13.3927 30.2733 13.4113 30.3009 13.4352C30.3285 13.4591 30.3506 13.4879 30.3658 13.5197C30.381 13.5516 30.3889 13.586 30.3892 13.6208C30.3906 13.6566 30.3839 13.6923 30.3695 13.7257C30.3551 13.7591 30.3334 13.7894 30.3056 13.8148C30.2779 13.8401 30.2447 13.86 30.2082 13.8732C30.1717 13.8864 30.1326 13.8926 30.0933 13.8914C30.0552 13.8911 30.0176 13.8838 29.9827 13.8699C29.9477 13.856 29.9163 13.8358 29.8901 13.8106C29.8639 13.7853 29.8435 13.7555 29.8303 13.7229C29.817 13.6902 29.811 13.6555 29.8128 13.6208ZM30.0933 13.8346C30.1548 13.8332 30.2134 13.8102 30.2569 13.7704C30.3004 13.7307 30.3254 13.6771 30.3269 13.6209C30.3247 13.5662 30.2989 13.5146 30.2552 13.4772C30.2114 13.4399 30.1532 13.4199 30.0933 13.4217C30.0358 13.4227 29.981 13.4441 29.9404 13.4812C29.8997 13.5184 29.8763 13.5684 29.8752 13.6209C29.8761 13.6749 29.8989 13.7266 29.9392 13.7661C29.9795 13.8056 30.0344 13.83 30.0933 13.8346ZM30.0621 13.7491H29.9997V13.507H30.1087C30.1307 13.5047 30.1529 13.5099 30.1711 13.5214C30.2023 13.5355 30.2023 13.5499 30.2023 13.5784C30.2023 13.6068 30.1869 13.6353 30.1557 13.6353L30.2181 13.7493H30.1399L30.1087 13.6487H30.0621V13.606H30.1245C30.1399 13.606 30.1399 13.5916 30.1399 13.5775C30.1399 13.5634 30.1399 13.5631 30.1245 13.549H30.0621V13.7491Z" fill="#E9B040"/>
<path fill-rule="evenodd" clip-rule="evenodd" d="M18.8556 8.12493C18.8244 7.82596 18.7621 7.54124 18.6997 7.2421H13.1815C13.2481 6.94872 13.3313 6.65869 13.4308 6.37318H18.4348C18.3262 6.07342 18.2015 5.77915 18.0607 5.49034H13.8206C13.9766 5.18869 14.1478 4.89442 14.3343 4.60751H17.5301C17.3245 4.30341 17.0953 4.01314 16.8443 3.73892H15.021C15.3032 3.42419 15.6106 3.1291 15.9408 2.85609C14.8474 1.96349 13.5331 1.3268 12.1108 1.00075C10.6885 0.674693 9.20082 0.669037 7.77562 0.984264C6.35041 1.29949 5.03034 1.92617 3.92889 2.81042C2.82743 3.69468 1.97756 4.81005 1.45233 6.06064C0.927106 7.31124 0.742238 8.65964 0.913622 9.98993C1.08501 11.3202 1.60752 12.5926 2.43623 13.6976C3.26494 14.8027 4.37506 15.7074 5.67115 16.3339C6.96724 16.9604 8.41052 17.2901 9.8769 17.2945C12.1218 17.2977 14.2862 16.5303 15.9408 15.1444C16.2659 14.8761 16.5682 14.5857 16.845 14.2756H15.021C14.7748 13.9931 14.5458 13.6983 14.3351 13.3928H17.5308C17.7318 13.1112 17.909 12.8161 18.0609 12.5099H13.8206C13.6747 12.2266 13.5446 11.9366 13.4308 11.6412H18.4348C18.5396 11.3513 18.6279 11.0566 18.6995 10.7583C18.7679 10.4667 18.82 10.172 18.8554 9.87551C18.887 9.58683 18.9027 9.29688 18.9024 9.00676C18.9024 8.70829 18.8868 8.40932 18.8556 8.1246V8.12493Z" fill="#CC2131"/>
<path fill-rule="evenodd" clip-rule="evenodd" d="M29.8128 10.9296C29.8111 10.8949 29.817 10.8602 29.8303 10.8276C29.8436 10.795 29.8639 10.7652 29.8901 10.74C29.9163 10.7148 29.9478 10.6946 29.9827 10.6808C30.0176 10.6669 30.0552 10.6596 30.0933 10.6593C30.1325 10.6581 30.1716 10.6643 30.2081 10.6774C30.2446 10.6906 30.2778 10.7105 30.3055 10.7358C30.3333 10.7611 30.355 10.7914 30.3694 10.8248C30.3838 10.8581 30.3906 10.8938 30.3892 10.9296C30.3906 10.965 30.3842 11.0003 30.3703 11.0333C30.3565 11.0663 30.3355 11.0965 30.3085 11.122C30.2816 11.1474 30.2494 11.1677 30.2138 11.1815C30.1781 11.1954 30.1398 11.2025 30.101 11.2025C30.0623 11.2025 30.0239 11.1954 29.9883 11.1815C29.9526 11.1677 29.9204 11.1474 29.8935 11.122C29.8666 11.0965 29.8456 11.0663 29.8317 11.0333C29.8178 11.0003 29.8114 10.965 29.8128 10.9296ZM30.0933 11.1289C30.1233 11.1308 30.1533 11.1271 30.1816 11.118C30.2099 11.1089 30.2359 11.0945 30.2579 11.0758C30.2798 11.0571 30.2974 11.0345 30.3093 11.0093C30.3213 10.9842 30.3275 10.9571 30.3275 10.9296C30.3275 10.9022 30.3213 10.8751 30.3093 10.8499C30.2974 10.8248 30.2798 10.8022 30.2579 10.7835C30.2359 10.7648 30.2099 10.7504 30.1816 10.7413C30.1533 10.7322 30.1233 10.7284 30.0933 10.7304C30.0355 10.7304 29.98 10.7514 29.9391 10.7887C29.8982 10.8261 29.8752 10.8768 29.8752 10.9296C29.8752 10.9825 29.8982 11.0332 29.9391 11.0705C29.98 11.1079 30.0355 11.1289 30.0933 11.1289ZM30.0621 11.0434H29.9997V10.8157H30.1711C30.2023 10.8301 30.2023 10.8586 30.2023 10.8871C30.2001 10.8993 30.1948 10.9109 30.1867 10.9208C30.1785 10.9307 30.1679 10.9387 30.1557 10.9441L30.2181 11.0436H30.1399L30.1087 10.9581H30.0621V10.9154H30.0933C30.1087 10.9154 30.1245 10.9154 30.1245 10.901C30.1399 10.901 30.1399 10.8869 30.1399 10.8725C30.14 10.8706 30.1396 10.8688 30.1388 10.8671C30.1381 10.8653 30.1369 10.8638 30.1355 10.8624C30.1341 10.8611 30.1323 10.8601 30.1305 10.8594C30.1286 10.8587 30.1265 10.8584 30.1245 10.8584C30.1245 10.844 30.1087 10.8584 30.0933 10.8584H30.0621V11.0434Z" fill="white"/>
<path fill-rule="evenodd" clip-rule="evenodd" d="M12.8695 11.3993C12.6317 11.466 12.3854 11.5043 12.1369 11.5133C11.6692 11.5133 11.3885 11.2426 11.3885 10.7591C11.3919 10.6539 11.4023 10.549 11.4197 10.4449L11.4821 10.1176L11.5289 9.84698L11.9498 7.51221H12.8854L12.7753 8.02485H13.3681L13.2278 8.87952H12.6355L12.3862 10.2748C12.3753 10.3216 12.3701 10.3694 12.3706 10.4173C12.3706 10.6025 12.4642 10.6735 12.6979 10.6735C12.7973 10.6719 12.8964 10.6624 12.994 10.645L12.8695 11.3991V11.3993ZM15.8937 11.3708C15.5692 11.4552 15.2334 11.4983 14.896 11.4989C13.836 11.4989 13.228 10.9862 13.228 9.97552C13.228 8.79355 13.9451 7.93921 14.9426 7.93921C15.7376 7.93921 16.252 8.42336 16.252 9.17782C16.2489 9.46068 16.2124 9.7424 16.143 10.0181H14.1937C14.1825 10.0552 14.1773 10.0936 14.1781 10.132C14.1781 10.5307 14.4742 10.73 15.0354 10.73C15.3864 10.7289 15.7326 10.656 16.0487 10.5166L15.8937 11.3708ZM15.3169 9.33468V9.16375C15.3249 9.10526 15.3185 9.04587 15.2981 8.98995C15.2776 8.93404 15.2437 8.88302 15.1989 8.84066C15.154 8.7983 15.0993 8.76568 15.0388 8.7452C14.9783 8.72472 14.9135 8.71691 14.8492 8.72233C14.5373 8.72233 14.3192 8.93583 14.2254 9.33451H15.3167L15.3169 9.33468ZM5.38744 11.4419H4.42058L4.9818 8.20986L3.7192 11.4419H3.04901L2.97103 8.22427L2.37863 11.4419H1.42773L2.19149 7.24156H3.61004L3.64123 9.83324L4.59212 7.24156H6.15156L5.38744 11.4419ZM7.74146 9.91854C7.67982 9.90769 7.61709 9.90286 7.55433 9.90413C6.99311 9.90413 6.7126 10.1034 6.7126 10.4168C6.70732 10.4623 6.71272 10.5083 6.72844 10.5518C6.74415 10.5952 6.76982 10.6351 6.80374 10.6688C6.83766 10.7025 6.87904 10.7292 6.92514 10.7472C6.97124 10.7651 7.02099 10.7739 7.07108 10.7729C7.53873 10.7729 7.72568 10.4168 7.74146 9.91821V9.91854ZM8.52082 11.4419H7.67872L7.69431 11.0861C7.47599 11.3564 7.18061 11.4989 6.66545 11.4989C6.1978 11.4989 5.79252 11.1146 5.79252 10.5592C5.79436 10.4094 5.82064 10.2607 5.8705 10.118C6.02626 9.59092 6.60307 9.26329 7.49158 9.24921C7.60166 9.24921 7.7721 9.24921 7.92804 9.26363C7.951 9.18953 7.96145 9.11268 7.95905 9.03571C7.95905 8.8078 7.75724 8.73657 7.30445 8.73657C7.02937 8.73517 6.75579 8.77363 6.49391 8.85053L6.35356 8.87902L6.29118 8.8931L6.43153 8.12422C6.79761 8.00813 7.18155 7.94591 7.56901 7.93988C8.41074 7.93988 8.86279 8.29583 8.86279 8.95075C8.87267 9.17473 8.85699 9.39905 8.81601 9.62008L8.59806 10.8439L8.56687 11.0576L8.55127 11.2285L8.53568 11.3425L8.52008 11.4419H8.52082ZM20.6017 8.05317C20.9087 8.0626 21.2085 8.14081 21.4747 8.28091L21.646 7.36959C21.5649 7.33644 21.4816 7.3079 21.3967 7.28413L21.0072 7.18357C20.8588 7.15301 20.707 7.13866 20.555 7.14084C20.0715 7.14084 19.791 7.15509 19.4951 7.31178C19.2818 7.44005 19.0879 7.59323 18.9181 7.76744L18.7933 7.73895L17.7957 8.37962L17.8426 8.02367H16.8136L16.2059 11.4409H17.1882L17.5465 9.60432C17.5465 9.60432 17.687 9.34775 17.7492 9.26262C17.8098 9.18459 17.8928 9.12335 17.989 9.08565C18.0853 9.04794 18.191 9.03525 18.2947 9.04895H18.3728C18.3401 9.26595 18.3244 9.48482 18.3259 9.70387C18.3259 10.8144 19.0117 11.5123 20.0717 11.5123C20.3619 11.5105 20.6505 11.4722 20.9292 11.3983L21.1009 10.4302C20.8507 10.5674 20.567 10.6457 20.2754 10.6579C19.6987 10.6579 19.3555 10.2592 19.3555 9.63281C19.3555 8.70725 19.8692 8.05233 20.603 8.05233L20.6017 8.05317ZM28.8787 7.24156L28.6608 8.4376C28.5743 8.29114 28.446 8.16879 28.2895 8.08355C28.133 7.99831 27.9542 7.95336 27.7721 7.95346C27.4979 7.96079 27.2314 8.03802 27.0028 8.1764C26.7741 8.31478 26.5924 8.50881 26.4781 8.73657V8.7225L25.8543 8.38063L25.9167 8.02468H24.8722L24.2798 11.4419H25.2463L25.5738 9.60533C25.5738 9.60533 25.8231 9.34876 25.8857 9.26363C25.938 9.20208 26.0039 9.15125 26.0791 9.11445C26.1542 9.07764 26.2371 9.05567 26.3221 9.04996C26.2037 9.37588 26.1458 9.71761 26.1508 10.061C26.1508 10.9157 26.6338 11.4855 27.3508 11.4855C27.5237 11.4886 27.695 11.4556 27.8517 11.3889C28.0084 11.3223 28.1463 11.2237 28.2549 11.1008L28.2083 11.4426H29.1277L29.8758 7.24223H28.878L28.8787 7.24156ZM27.6783 10.6304C27.3508 10.6304 27.1795 10.4027 27.1795 9.96111C27.1795 9.29178 27.4914 8.8078 27.943 8.8078C28.2859 8.8078 28.4567 9.04996 28.4567 9.47713C28.4567 10.1605 28.1448 10.6304 27.6774 10.6304H27.6783ZM23.1735 9.91854C23.1119 9.90769 23.0492 9.90286 22.9864 9.90413C22.4248 9.90413 22.1443 10.1034 22.1443 10.4168C22.1391 10.4623 22.1445 10.5083 22.1602 10.5518C22.176 10.5952 22.2016 10.6351 22.2356 10.6688C22.2695 10.7025 22.3109 10.7292 22.357 10.7472C22.4031 10.7651 22.4529 10.7739 22.503 10.7729C22.9706 10.7729 23.1578 10.4168 23.1735 9.91854ZM23.9529 11.4419H23.0954L23.1266 11.0861C22.9084 11.3564 22.6129 11.4989 22.0979 11.4989C21.6145 11.4989 21.1938 11.1287 21.1938 10.5592C21.1938 9.74777 21.8638 9.24938 22.9238 9.24938C23.0644 9.2475 23.2049 9.25231 23.3449 9.26379C23.3715 9.19006 23.3873 9.11341 23.3919 9.03588C23.3919 8.80796 23.19 8.73674 22.7215 8.73674C22.4465 8.73645 22.1731 8.77489 21.9109 8.8507L21.7862 8.87919L21.7238 8.89326L21.864 8.12439C22.2301 8.00834 22.614 7.94612 23.0014 7.94005C23.8432 7.94005 24.2796 8.296 24.2796 8.95091C24.2977 9.17492 24.2821 9.40014 24.233 9.62024L24.0312 10.8448L24 11.0584L23.9688 11.2294L23.9534 11.3433V11.4426L23.9529 11.4419ZM10.5624 8.75082C10.8079 8.75201 11.0529 8.77106 11.2952 8.8078L11.4355 8.01043C11.1548 7.98194 10.7807 7.93921 10.5624 7.93921C9.47134 7.93921 9.11304 8.48034 9.11304 9.10677C9.11304 9.51986 9.31485 9.81866 9.84561 10.0464C10.2353 10.2173 10.2977 10.2457 10.2977 10.4025C10.2977 10.6159 10.0959 10.7442 9.72085 10.7442C9.41788 10.7442 9.11721 10.696 8.83234 10.6018L8.72226 11.3847L8.73767 11.3991L8.9248 11.4276C9.00712 11.4457 9.0904 11.46 9.17432 11.4702C9.40805 11.4846 9.61078 11.4987 9.73553 11.4987C10.8268 11.4987 11.2788 11.1144 11.2788 10.3591C11.2788 9.88989 11.0293 9.60499 10.5461 9.4054C10.1252 9.2343 10.0784 9.20614 10.0784 9.04929C10.0784 8.89243 10.2656 8.75032 10.5617 8.75032L10.5624 8.75082Z" fill="#1B3771"/>
<path fill-rule="evenodd" clip-rule="evenodd" d="M21.9113 7.09946L21.7396 8.01078C21.4735 7.87057 21.1737 7.79235 20.8667 7.78303C20.1339 7.78303 19.6191 8.43795 19.6191 9.36352C19.6191 10.0044 19.962 10.3886 20.539 10.3886C20.8283 10.3755 21.1106 10.3026 21.3646 10.1753L21.1933 11.129C20.915 11.2067 20.6266 11.2499 20.3357 11.2574C19.2759 11.2574 18.6211 10.5596 18.6211 9.43491C18.6211 7.93972 19.5252 6.88595 20.819 6.88595C20.9709 6.88379 21.1226 6.89814 21.2709 6.92869L21.6607 7.01416C21.7857 7.05689 21.8168 7.07114 21.9104 7.09946H21.9113ZM18.7625 7.72605H18.669C18.3419 7.72605 18.1553 7.8685 17.8584 8.28126L17.952 7.75437H17.0633L16.4557 11.1717H17.4379C17.7962 9.07862 17.8898 8.72267 18.3575 8.72267H18.4198C18.4915 8.38027 18.6175 8.04926 18.7939 7.74013L18.7625 7.72605ZM13.1196 11.129C12.895 11.2046 12.6575 11.2432 12.4182 11.243C11.9193 11.243 11.6386 10.9867 11.6386 10.4888C11.642 10.3886 11.6524 10.2887 11.6698 10.1897L11.7322 9.848L11.779 9.57769L12.1999 7.24224H13.1669L13.0568 7.75488H13.5556L13.4309 8.59498H12.9324L12.6675 10.0194C12.6553 10.0661 12.6501 10.114 12.6519 10.1619C12.6519 10.3328 12.7455 10.404 12.9792 10.404C13.0687 10.4114 13.1589 10.4017 13.2441 10.3756L13.1196 11.1297V11.129ZM9.36276 8.83646C9.36276 9.2638 9.5809 9.56261 10.0953 9.79052C10.5006 9.96146 10.563 10.0183 10.563 10.1607C10.563 10.3744 10.3914 10.4739 10.0018 10.4739C9.70536 10.4721 9.41099 10.4289 9.12885 10.3459L8.9885 11.1288L9.03528 11.1433L9.20682 11.1717C9.29339 11.1918 9.38245 11.2013 9.47174 11.2002C9.64741 11.2216 9.82457 11.2312 10.0018 11.2287C11.0305 11.2287 11.5139 10.8726 11.5139 10.0892C11.5139 9.61908 11.3121 9.34843 10.8281 9.1351C10.4072 8.96483 10.3599 8.92227 10.3599 8.76558C10.3599 8.58123 10.5314 8.4951 10.8431 8.4951C11.0777 8.49698 11.3119 8.51125 11.5447 8.53783L11.6849 7.75471C11.4015 7.71107 11.1149 7.68726 10.8275 7.68349C9.7363 7.68349 9.34662 8.2102 9.36221 8.83663L9.36276 8.83646ZM29.3787 11.1717H28.4588L28.5058 10.8441C28.394 10.9627 28.255 11.0573 28.0987 11.1212C27.9424 11.1852 27.7725 11.217 27.6013 11.2143C26.8843 11.2143 26.4167 10.6593 26.4167 9.80493C26.4167 8.66536 27.1494 7.6974 28.0066 7.6974C28.1929 7.69835 28.3761 7.74176 28.5395 7.82369C28.7029 7.90563 28.8413 8.0235 28.9422 8.16663L29.1604 6.97058H30.1268L29.3787 11.1711V11.1717ZM27.9444 10.3744C28.3966 10.3744 28.7083 9.89023 28.7083 9.2209C28.7083 8.77949 28.5366 8.55157 28.1946 8.55157C27.7581 8.55157 27.431 9.02081 27.431 9.69114C27.431 10.147 27.6023 10.3748 27.9447 10.3747L27.9444 10.3744ZM16.1124 11.1005C15.7852 11.1975 15.4431 11.2456 15.0991 11.243C14.0079 11.243 13.4467 10.7163 13.4467 9.70522C13.4467 8.53766 14.1638 7.66907 15.1459 7.66907C15.9565 7.66907 16.4707 8.15322 16.4707 8.90786C16.4685 9.1964 16.4266 9.48354 16.346 9.76253H14.4133C14.4015 9.7949 14.3962 9.82898 14.3977 9.86308C14.3977 10.2618 14.694 10.461 15.2551 10.461C15.6069 10.4668 15.9549 10.3934 16.2683 10.2474L16.1124 11.102V11.1005ZM15.5668 9.06438V8.89361C15.5748 8.83512 15.5684 8.77573 15.548 8.71982C15.5275 8.6639 15.4936 8.61288 15.4488 8.57053C15.4039 8.52817 15.3492 8.49555 15.2887 8.47507C15.2282 8.45459 15.1634 8.44677 15.0991 8.45219C14.7872 8.45219 14.5691 8.66586 14.4754 9.06438H15.5666H15.5668ZM5.63716 11.1719H4.67067L5.23189 7.93955L3.96929 11.1719H3.29891L3.22094 7.96804L2.62872 11.1719H1.72461L2.48929 6.97142H3.89224L3.93865 9.57719L4.87432 6.97142H6.40202L5.63826 11.1719H5.63716ZM8.05338 9.64824C7.95982 9.64824 7.91303 9.63416 7.83506 9.63416C7.28944 9.63416 7.00947 9.81851 7.00947 10.1609C7.00272 10.2048 7.00668 10.2494 7.02106 10.2918C7.03545 10.3341 7.05991 10.373 7.09268 10.4056C7.12545 10.4383 7.16573 10.4639 7.21063 10.4807C7.25553 10.4974 7.30393 10.5049 7.35237 10.5026C7.75764 10.5026 8.03834 10.1609 8.05393 9.64791L8.05338 9.64824ZM8.77036 11.1719H7.95963L7.97486 10.8158C7.85246 10.9552 7.695 11.0656 7.51586 11.1376C7.33673 11.2095 7.14123 11.2408 6.94599 11.2289C6.41597 11.2289 6.05748 10.8587 6.05748 10.3033C6.05748 9.4634 6.68125 8.97941 7.77213 8.97941C7.88221 8.97941 8.02164 8.99366 8.1774 9.00773C8.1995 8.93841 8.21001 8.86643 8.20859 8.79423C8.20859 8.56649 8.03705 8.48102 7.58482 8.48102C7.31176 8.47795 7.03938 8.50667 6.77427 8.56649L6.63392 8.60922L6.54035 8.62346L6.6807 7.85459C7.05872 7.74386 7.45295 7.68623 7.84992 7.68365C8.69165 7.68365 9.14371 8.02536 9.14371 8.68028C9.13769 8.90967 9.11162 9.13825 9.06574 9.36385L8.84741 10.5743L8.81622 10.7876L8.80063 10.9586L8.78504 11.0869L8.76981 11.1721L8.77036 11.1719ZM23.4858 9.64824C23.3757 9.64824 23.3299 9.63416 23.2677 9.63416C22.7065 9.63416 22.4256 9.81851 22.4256 10.1609C22.4206 10.2057 22.4263 10.2509 22.4423 10.2935C22.4584 10.3361 22.4843 10.375 22.5184 10.4075C22.5526 10.44 22.594 10.4653 22.6399 10.4817C22.6858 10.4982 22.735 10.5053 22.7843 10.5026C23.1741 10.5026 23.47 10.1609 23.4858 9.64791V9.64824ZM24.2028 11.1719H23.3923L23.4077 10.8158C23.2853 10.9553 23.1279 11.0657 22.9488 11.1376C22.7697 11.2095 22.5742 11.2408 22.379 11.2289C21.849 11.2289 21.4903 10.8587 21.4903 10.3033C21.4903 9.4634 22.1141 8.97941 23.2049 8.97941C23.315 8.97941 23.4546 8.99366 23.5948 9.00773C23.6198 8.93855 23.6356 8.86687 23.6418 8.79423C23.6418 8.56649 23.47 8.48102 23.018 8.48102C22.74 8.47805 22.4626 8.50676 22.1924 8.56649L22.0676 8.60922L21.9741 8.62346L22.1142 7.85459C22.4923 7.74388 22.8865 7.68624 23.2835 7.68365C24.1252 7.68365 24.5617 8.02536 24.5617 8.68028C24.5639 8.91008 24.5378 9.13938 24.4839 9.36385L24.2821 10.5743L24.2509 10.7876L24.2197 10.9586L24.2043 11.0869V11.1721L24.2028 11.1719ZM26.8216 7.72605H26.728C26.4009 7.72605 26.2143 7.8685 25.9174 8.28126L26.011 7.75437H25.1223L24.5299 11.1717H25.4957C25.8543 9.07862 25.9479 8.72267 26.4156 8.72267H26.4779C26.5496 8.38027 26.6756 8.04926 26.852 7.74013L26.8208 7.72605H26.8216Z" fill="white"/>
</svg>
