<svg width="15" height="16" viewBox="0 0 15 16" fill="none" xmlns="http://www.w3.org/2000/svg">
<path d="M3.75 6.4375H2.5V10.8125H3.75V6.4375Z" fill="#6E7485"/>
<path d="M7.5 6.4375H6.25V10.8125H7.5V6.4375Z" fill="#6E7485"/>
<path d="M13.125 3.9375L6.875 0.8125L0.625 3.9375V5.1875H13.125V3.9375ZM3.41875 3.9375L6.875 2.2125L10.3313 3.9375H3.41875Z" fill="#6E7485"/>
<path d="M0.625 12.0625V13.3125H8.375C8.24375 12.9125 8.175 12.4937 8.15 12.0625H0.625Z" fill="#6E7485"/>
<path d="M11.25 7.85V6.4375H10V8.475L11.25 7.85Z" fill="#6E7485"/>
<path d="M11.875 8.9375L9.375 10.1875V11.7812C9.375 13.3562 10.4438 14.8313 11.875 15.1875C13.3062 14.8313 14.375 13.3562 14.375 11.7812V10.1875L11.875 8.9375ZM11.425 13.3125L10.1562 12.0437L10.8187 11.3812L11.425 11.9875L12.9313 10.5L13.5938 11.1625L11.425 13.3125Z" fill="#6E7485"/>
</svg>
