<svg width="27" height="27" viewBox="0 0 27 27" fill="none" xmlns="http://www.w3.org/2000/svg">
<path fill-rule="evenodd" clip-rule="evenodd" d="M10.6695 9.92575C10.6695 9.16196 10.9729 8.42946 11.513 7.88939C12.0531 7.34931 12.7856 7.0459 13.5494 7.0459C14.3131 7.0459 15.0456 7.34931 15.5857 7.88939C16.1258 8.42946 16.4292 9.16196 16.4292 9.92575C16.4292 10.6895 16.1258 11.422 15.5857 11.9621C15.0456 12.5022 14.3131 12.8056 13.5494 12.8056C12.7856 12.8056 12.0531 12.5022 11.513 11.9621C10.9729 11.422 10.6695 10.6895 10.6695 9.92575ZM10.6695 14.2455C9.71478 14.2455 8.79916 14.6248 8.12406 15.2999C7.44897 15.975 7.0697 16.8906 7.0697 17.8453C7.0697 18.4182 7.29726 18.9675 7.70232 19.3726C8.10738 19.7777 8.65675 20.0052 9.22959 20.0052H17.8691C18.442 20.0052 18.9914 19.7777 19.3964 19.3726C19.8015 18.9675 20.029 18.4182 20.029 17.8453C20.029 16.8906 19.6498 15.975 18.9747 15.2999C18.2996 14.6248 17.3839 14.2455 16.4292 14.2455H10.6695Z" fill="black"/>
</svg>
