<svg width="25" height="26" viewBox="0 0 25 26" fill="none" xmlns="http://www.w3.org/2000/svg">
<path fill-rule="evenodd" clip-rule="evenodd" d="M9.89766 1.79254C10.2447 1.40492 10.6696 1.09484 11.1446 0.882557C11.6197 0.670271 12.1341 0.560547 12.6544 0.560547C13.1747 0.560547 13.6891 0.670271 14.1641 0.882557C14.6391 1.09484 15.064 1.40492 15.4111 1.79254L16.2745 2.75712C16.3979 2.89515 16.5508 3.00364 16.7218 3.07453C16.8928 3.14542 17.0776 3.1769 17.2625 3.16663L18.5576 3.09509C19.0769 3.06656 19.5965 3.14785 20.0823 3.33364C20.5681 3.51943 21.0093 3.80555 21.377 4.17334C21.7448 4.54113 22.0309 4.98233 22.2167 5.46815C22.4025 5.95397 22.4838 6.4735 22.4553 6.99285L22.3837 8.28799C22.3736 8.47265 22.4052 8.65721 22.4761 8.82802C22.547 8.99883 22.6554 9.15151 22.7932 9.27477L23.759 10.1382C24.1468 10.4853 24.4571 10.9103 24.6695 11.3854C24.8819 11.8606 24.9917 12.3752 24.9917 12.8956C24.9917 13.4161 24.8819 13.9307 24.6695 14.4058C24.4571 14.881 24.1468 15.306 23.759 15.653L22.7932 16.5165C22.6552 16.6399 22.5467 16.7927 22.4758 16.9638C22.4049 17.1348 22.3735 17.3196 22.3837 17.5045L22.4553 18.7996C22.4838 19.319 22.4025 19.8385 22.2167 20.3243C22.0309 20.8101 21.7448 21.2513 21.377 21.6191C21.0093 21.9869 20.5681 22.273 20.0823 22.4588C19.5965 22.6446 19.0769 22.7259 18.5576 22.6974L17.2625 22.6258C17.0779 22.6158 16.8933 22.6473 16.7225 22.7182C16.5517 22.7891 16.399 22.8975 16.2758 23.0353L15.4124 24.0012C15.0653 24.389 14.6403 24.6992 14.1652 24.9116C13.69 25.1241 13.1755 25.2338 12.655 25.2338C12.1346 25.2338 11.62 25.1241 11.1448 24.9116C10.6697 24.6992 10.2447 24.389 9.89766 24.0012L9.03426 23.0353C8.91087 22.8973 8.75799 22.7888 8.58696 22.7179C8.41593 22.647 8.23113 22.6156 8.04628 22.6258L6.75117 22.6974C6.23184 22.7259 5.71232 22.6446 5.22651 22.4588C4.74071 22.273 4.29952 21.9869 3.93174 21.6191C3.56396 21.2513 3.27785 20.8101 3.09206 20.3243C2.90628 19.8385 2.825 19.319 2.85352 18.7996L2.92506 17.5045C2.93514 17.3198 2.90357 17.1353 2.83268 16.9644C2.7618 16.7936 2.65342 16.641 2.51556 16.5177L1.55101 15.6543C1.16319 15.3072 0.852952 14.8822 0.640549 14.4071C0.428146 13.9319 0.318359 13.4173 0.318359 12.8968C0.318359 12.3764 0.428146 11.8618 0.640549 11.3866C0.852952 10.9115 1.16319 10.4865 1.55101 10.1394L2.51556 9.276C2.65359 9.15261 2.76207 8.99973 2.83296 8.82869C2.90385 8.65765 2.93533 8.47285 2.92506 8.28799L2.85352 6.99285C2.825 6.4735 2.90628 5.95397 3.09206 5.46815C3.27785 4.98233 3.56396 4.54113 3.93174 4.17334C4.29952 3.80555 4.74071 3.51943 5.22651 3.33364C5.71232 3.14785 6.23184 3.06656 6.75117 3.09509L8.04628 3.16663C8.23093 3.17671 8.41549 3.14514 8.58629 3.07425C8.75709 3.00337 8.90977 2.89498 9.03303 2.75712L9.89766 1.79254ZM17.2267 8.32376C17.458 8.55507 17.5879 8.86875 17.5879 9.19583C17.5879 9.5229 17.458 9.83658 17.2267 10.0679L9.82612 17.4687C9.5935 17.6934 9.28193 17.8177 8.95853 17.8149C8.63512 17.8121 8.32576 17.6824 8.09707 17.4537C7.86838 17.225 7.73867 16.9156 7.73586 16.5922C7.73304 16.2688 7.85737 15.9572 8.08205 15.7246L15.4827 8.32376C15.714 8.09252 16.0276 7.96262 16.3547 7.96262C16.6818 7.96262 16.9954 8.09252 17.2267 8.32376ZM9.5708 7.96236C9.08011 7.96236 8.60952 8.15729 8.26255 8.50427C7.91558 8.85125 7.72065 9.32186 7.72065 9.81256V9.8249C7.72065 10.3156 7.91558 10.7862 8.26255 11.1332C8.60952 11.4802 9.08011 11.6751 9.5708 11.6751H9.58314C10.0738 11.6751 10.5444 11.4802 10.8914 11.1332C11.2384 10.7862 11.4333 10.3156 11.4333 9.8249V9.81256C11.4333 9.32186 11.2384 8.85125 10.8914 8.50427C10.5444 8.15729 10.0738 7.96236 9.58314 7.96236H9.5708ZM15.738 14.1297C15.2473 14.1297 14.7767 14.3246 14.4297 14.6716C14.0828 15.0186 13.8878 15.4892 13.8878 15.9799V15.9922C13.8878 16.4829 14.0828 16.9536 14.4297 17.3005C14.7767 17.6475 15.2473 17.8424 15.738 17.8424H15.7503C16.241 17.8424 16.7116 17.6475 17.0586 17.3005C17.4055 16.9536 17.6005 16.4829 17.6005 15.9922V15.9799C17.6005 15.4892 17.4055 15.0186 17.0586 14.6716C16.7116 14.3246 16.241 14.1297 15.7503 14.1297H15.738Z" fill="#0BAA40"/>
</svg>
