<svg width="15" height="14" viewBox="0 0 15 14" fill="none" xmlns="http://www.w3.org/2000/svg">
<path fill-rule="evenodd" clip-rule="evenodd" d="M5.80751 0.699054C6.00444 0.479109 6.24554 0.303168 6.51507 0.182713C6.7846 0.0622591 7.0765 0 7.37172 0C7.66694 0 7.95884 0.0622591 8.22837 0.182713C8.4979 0.303168 8.739 0.479109 8.93593 0.699054L9.42584 1.24637C9.49585 1.32469 9.5826 1.38625 9.67964 1.42647C9.77669 1.46669 9.88154 1.48456 9.98643 1.47873L10.7213 1.43814C11.016 1.42195 11.3108 1.46807 11.5864 1.57349C11.8621 1.67892 12.1124 1.84127 12.3211 2.04996C12.5298 2.25864 12.6921 2.50899 12.7975 2.78465C12.9029 3.06031 12.9491 3.3551 12.9329 3.64979L12.8923 4.38467C12.8866 4.48945 12.9045 4.59417 12.9447 4.69109C12.9849 4.78801 13.0464 4.87464 13.1246 4.94458L13.6726 5.4345C13.8927 5.63144 14.0687 5.87259 14.1893 6.14219C14.3098 6.41179 14.3721 6.70379 14.3721 6.9991C14.3721 7.29442 14.3098 7.58642 14.1893 7.85602C14.0687 8.12562 13.8927 8.36677 13.6726 8.56371L13.1246 9.05363C13.0463 9.12364 12.9848 9.21039 12.9445 9.30744C12.9043 9.40449 12.8865 9.50935 12.8923 9.61424L12.9329 10.3491C12.9491 10.6438 12.9029 10.9386 12.7975 11.2143C12.6921 11.4899 12.5298 11.7403 12.3211 11.949C12.1124 12.1576 11.8621 12.32 11.5864 12.4254C11.3108 12.5308 11.016 12.577 10.7213 12.5608L9.98643 12.5202C9.88166 12.5145 9.77694 12.5324 9.68002 12.5726C9.58311 12.6128 9.49647 12.6743 9.42654 12.7525L8.93663 13.3006C8.73969 13.5206 8.49855 13.6967 8.22896 13.8172C7.95936 13.9377 7.66738 14 7.37207 14C7.07676 14 6.78478 13.9377 6.51518 13.8172C6.24559 13.6967 6.00445 13.5206 5.80751 13.3006L5.3176 12.7525C5.24759 12.6742 5.16085 12.6127 5.0638 12.5724C4.96675 12.5322 4.8619 12.5144 4.75701 12.5202L4.02215 12.5608C3.72747 12.577 3.43268 12.5308 3.15703 12.4254C2.88138 12.32 2.63104 12.1576 2.42236 11.949C2.21368 11.7403 2.05133 11.4899 1.94591 11.2143C1.84049 10.9386 1.79437 10.6438 1.81056 10.3491L1.85115 9.61424C1.85687 9.50946 1.83896 9.40474 1.79874 9.30782C1.75852 9.2109 1.69702 9.12427 1.61879 9.05433L1.0715 8.56441C0.851442 8.36747 0.675406 8.12632 0.554886 7.85672C0.434365 7.58712 0.37207 7.29512 0.37207 6.9998C0.37207 6.70449 0.434365 6.41249 0.554886 6.14289C0.675406 5.87329 0.851442 5.63214 1.0715 5.4352L1.61879 4.94528C1.69711 4.87527 1.75867 4.78852 1.79889 4.69147C1.83912 4.59442 1.85698 4.48956 1.85115 4.38467L1.81056 3.64979C1.79437 3.3551 1.84049 3.06031 1.94591 2.78465C2.05133 2.50899 2.21368 2.25864 2.42236 2.04996C2.63104 1.84127 2.88138 1.67892 3.15703 1.57349C3.43268 1.46807 3.72747 1.42195 4.02215 1.43814L4.75701 1.47873C4.86178 1.48445 4.9665 1.46654 5.06342 1.42631C5.16033 1.38609 5.24697 1.32459 5.3169 1.24637L5.80751 0.699054ZM9.96614 4.40497C10.0973 4.53621 10.171 4.7142 10.171 4.89979C10.171 5.08537 10.0973 5.26336 9.96614 5.39461L5.76692 9.59394C5.63492 9.72143 5.45813 9.79198 5.27463 9.79038C5.09113 9.78879 4.91559 9.71518 4.78583 9.58542C4.65607 9.45565 4.58246 9.28011 4.58087 9.0966C4.57927 8.91309 4.64982 8.7363 4.7773 8.6043L8.97652 4.40497C9.10777 4.27376 9.28575 4.20005 9.47133 4.20005C9.65691 4.20005 9.83489 4.27376 9.96614 4.40497ZM5.62205 4.1999C5.34362 4.1999 5.0766 4.31051 4.87972 4.50739C4.68285 4.70427 4.57224 4.9713 4.57224 5.24973V5.25673C4.57224 5.53516 4.68285 5.80219 4.87972 5.99908C5.0766 6.19596 5.34362 6.30656 5.62205 6.30656H5.62905C5.90747 6.30656 6.17449 6.19596 6.37137 5.99908C6.56825 5.80219 6.67885 5.53516 6.67885 5.25673V5.24973C6.67885 4.9713 6.56825 4.70427 6.37137 4.50739C6.17449 4.31051 5.90747 4.1999 5.62905 4.1999H5.62205ZM9.12139 7.69934C8.84297 7.69934 8.57595 7.80995 8.37907 8.00683C8.18219 8.20371 8.07159 8.47074 8.07159 8.74918V8.75618C8.07159 9.03461 8.18219 9.30164 8.37907 9.49852C8.57595 9.6954 8.84297 9.80601 9.12139 9.80601H9.12839C9.40682 9.80601 9.67384 9.6954 9.87072 9.49852C10.0676 9.30164 10.1782 9.03461 10.1782 8.75618V8.74918C10.1782 8.47074 10.0676 8.20371 9.87072 8.00683C9.67384 7.80995 9.40682 7.69934 9.12839 7.69934H9.12139Z" fill="#6E7485"/>
</svg>
