<svg width="14" height="14" viewBox="0 0 14 14" fill="none" xmlns="http://www.w3.org/2000/svg">
<path fill-rule="evenodd" clip-rule="evenodd" d="M5.43544 0.699054C5.63237 0.479109 5.87347 0.303168 6.143 0.182713C6.41253 0.0622591 6.70443 0 6.99965 0C7.29487 0 7.58677 0.0622591 7.8563 0.182713C8.12583 0.303168 8.36693 0.479109 8.56386 0.699054L9.05377 1.24637C9.12378 1.32469 9.21052 1.38625 9.30757 1.42647C9.40462 1.46669 9.50947 1.48456 9.61436 1.47873L10.3492 1.43814C10.6439 1.42195 10.9387 1.46807 11.2143 1.57349C11.49 1.67892 11.7403 1.84127 11.949 2.04996C12.1577 2.25864 12.32 2.50899 12.4255 2.78465C12.5309 3.06031 12.577 3.3551 12.5608 3.64979L12.5202 4.38467C12.5145 4.48945 12.5324 4.59417 12.5726 4.69109C12.6129 4.78801 12.6744 4.87464 12.7526 4.94458L13.3006 5.4345C13.5206 5.63144 13.6967 5.87259 13.8172 6.14219C13.9377 6.41179 14 6.70379 14 6.9991C14 7.29442 13.9377 7.58642 13.8172 7.85602C13.6967 8.12562 13.5206 8.36677 13.3006 8.56371L12.7526 9.05363C12.6743 9.12364 12.6127 9.21039 12.5725 9.30744C12.5323 9.40449 12.5144 9.50935 12.5202 9.61424L12.5608 10.3491C12.577 10.6438 12.5309 10.9386 12.4255 11.2143C12.32 11.4899 12.1577 11.7403 11.949 11.949C11.7403 12.1576 11.49 12.32 11.2143 12.4254C10.9387 12.5308 10.6439 12.577 10.3492 12.5608L9.61436 12.5202C9.50959 12.5145 9.40487 12.5324 9.30795 12.5726C9.21104 12.6128 9.1244 12.6743 9.05447 12.7525L8.56456 13.3006C8.36762 13.5206 8.12648 13.6967 7.85689 13.8172C7.58729 13.9377 7.29531 14 7 14C6.70469 14 6.41271 13.9377 6.14311 13.8172C5.87352 13.6967 5.63238 13.5206 5.43544 13.3006L4.94553 12.7525C4.87552 12.6742 4.78877 12.6127 4.69173 12.5724C4.59468 12.5322 4.48983 12.5144 4.38494 12.5202L3.65007 12.5608C3.3554 12.577 3.06061 12.5308 2.78496 12.4254C2.50931 12.32 2.25897 12.1576 2.05029 11.949C1.84161 11.7403 1.67926 11.4899 1.57384 11.2143C1.46842 10.9386 1.4223 10.6438 1.43849 10.3491L1.47908 9.61424C1.4848 9.50946 1.46689 9.40474 1.42667 9.30782C1.38645 9.2109 1.32495 9.12427 1.24672 9.05433L0.699425 8.56441C0.479372 8.36747 0.303336 8.12632 0.182815 7.85672C0.0622946 7.58712 0 7.29512 0 6.9998C0 6.70449 0.0622946 6.41249 0.182815 6.14289C0.303336 5.87329 0.479372 5.63214 0.699425 5.4352L1.24672 4.94528C1.32504 4.87527 1.3866 4.78852 1.42682 4.69147C1.46704 4.59442 1.48491 4.48956 1.47908 4.38467L1.43849 3.64979C1.4223 3.3551 1.46842 3.06031 1.57384 2.78465C1.67926 2.50899 1.84161 2.25864 2.05029 2.04996C2.25897 1.84127 2.50931 1.67892 2.78496 1.57349C3.06061 1.46807 3.3554 1.42195 3.65007 1.43814L4.38494 1.47873C4.48971 1.48445 4.59443 1.46654 4.69135 1.42631C4.78826 1.38609 4.8749 1.32459 4.94483 1.24637L5.43544 0.699054ZM9.59407 4.40497C9.72527 4.53621 9.79898 4.7142 9.79898 4.89979C9.79898 5.08537 9.72527 5.26336 9.59407 5.39461L5.39485 9.59394C5.26285 9.72143 5.08606 9.79198 4.90256 9.79038C4.71906 9.78879 4.54352 9.71518 4.41376 9.58542C4.284 9.45565 4.21039 9.28011 4.2088 9.0966C4.2072 8.91309 4.27775 8.7363 4.40523 8.6043L8.60445 4.40497C8.7357 4.27376 8.91368 4.20005 9.09926 4.20005C9.28484 4.20005 9.46282 4.27376 9.59407 4.40497ZM5.24998 4.1999C4.97155 4.1999 4.70453 4.31051 4.50765 4.50739C4.31078 4.70427 4.20017 4.9713 4.20017 5.24973V5.25673C4.20017 5.53516 4.31078 5.80219 4.50765 5.99908C4.70453 6.19596 4.97155 6.30656 5.24998 6.30656H5.25698C5.5354 6.30656 5.80242 6.19596 5.9993 5.99908C6.19618 5.80219 6.30678 5.53516 6.30678 5.25673V5.24973C6.30678 4.9713 6.19618 4.70427 5.9993 4.50739C5.80242 4.31051 5.5354 4.1999 5.25698 4.1999H5.24998ZM8.74932 7.69934C8.4709 7.69934 8.20388 7.80995 8.007 8.00683C7.81012 8.20371 7.69952 8.47074 7.69952 8.74918V8.75618C7.69952 9.03461 7.81012 9.30164 8.007 9.49852C8.20388 9.6954 8.4709 9.80601 8.74932 9.80601H8.75632C9.03475 9.80601 9.30177 9.6954 9.49865 9.49852C9.69552 9.30164 9.80613 9.03461 9.80613 8.75618V8.74918C9.80613 8.47074 9.69552 8.20371 9.49865 8.00683C9.30177 7.80995 9.03475 7.69934 8.75632 7.69934H8.74932Z" fill="#007BFF"/>
</svg>
