<svg width="40" height="39" viewBox="0 0 40 39" fill="none" xmlns="http://www.w3.org/2000/svg">
<rect x="1.10195" y="1.6" width="37.3" height="36.3" rx="3.15" stroke="#7494DD" stroke-width="1.7"/>
<path d="M5.25195 23.7891L9.91617 23.7654" stroke="#8A898E" stroke-width="2" stroke-linecap="round"/>
<path d="M31.5879 23.4424H36.2518" stroke="#8A898E" stroke-width="2" stroke-linecap="round"/>
<path d="M11.0195 18.3818L10.1965 23.741" stroke="#8A898E" stroke-width="2" stroke-linecap="round"/>
<path d="M30.7637 17.7793L31.3542 23.4312" stroke="#8A898E" stroke-width="2" stroke-linecap="round"/>
<path d="M11.0195 18.3818L14.0374 29.411" stroke="#8A898E" stroke-width="2" stroke-linecap="round"/>
<path d="M30.5879 17.7793L27.4736 28.7768" stroke="#8A898E" stroke-width="2" stroke-linecap="round"/>
<path d="M15.4082 13.3145L14.0363 29.3382" stroke="#8A898E" stroke-width="2" stroke-linecap="round"/>
<path d="M25.5508 13.0098L27.2916 28.9911" stroke="#8A898E" stroke-width="2" stroke-linecap="round"/>
<path d="M15.4082 13.3145L18.7703 32.2301" stroke="#8A898E" stroke-width="2" stroke-linecap="round"/>
<path d="M25.4688 13.0166L22.5339 32.0161" stroke="#8A898E" stroke-width="2" stroke-linecap="round"/>
<path d="M20.6758 6.75L18.7658 32.0461" stroke="#8A898E" stroke-width="2" stroke-linecap="round"/>
<path d="M20.6758 6.75098L22.5373 32.0935" stroke="#8A898E" stroke-width="2" stroke-linecap="round"/>
<ellipse cx="20.3368" cy="19.9232" rx="3.08487" ry="3.17319" fill="#E9E9EB"/>
<path d="M21.4003 19.9641L19.252 21.1781V18.75L21.4003 19.9641Z" fill="#8A898E"/>
</svg>
