<svg width="43" height="44" viewBox="0 0 43 44" fill="none" xmlns="http://www.w3.org/2000/svg">
<circle cx="21.385" cy="21.8811" r="21.385" fill="white"/>
<path fill-rule="evenodd" clip-rule="evenodd" d="M17.0747 20.0777C17.401 19.7515 17.9299 19.7515 18.2561 20.0777L22.051 23.8726L25.8459 20.0777C26.1722 19.7515 26.7011 19.7515 27.0273 20.0777C27.3535 20.4039 27.3535 20.9328 27.0273 21.259L22.6417 25.6446C22.3155 25.9709 21.7866 25.9709 21.4603 25.6446L17.0747 21.259C16.7485 20.9328 16.7485 20.4039 17.0747 20.0777Z" fill="#4C4C4C"/>
<path fill-rule="evenodd" clip-rule="evenodd" d="M22.0521 12.5244C22.5135 12.5244 22.8875 12.8984 22.8875 13.3598V25.0547C22.8875 25.516 22.5135 25.89 22.0521 25.89C21.5908 25.89 21.2168 25.516 21.2168 25.0547V13.3598C21.2168 12.8984 21.5908 12.5244 22.0521 12.5244Z" fill="#4C4C4C"/>
<path fill-rule="evenodd" clip-rule="evenodd" d="M12.8646 24.2197C13.326 24.2197 13.7 24.5937 13.7 25.0551V30.9025H30.407V25.0551C30.407 24.5937 30.781 24.2197 31.2424 24.2197C31.7037 24.2197 32.0777 24.5937 32.0777 25.0551V30.9025C32.0777 31.3456 31.9017 31.7706 31.5884 32.0839C31.2751 32.3972 30.8501 32.5732 30.407 32.5732H13.7C13.2569 32.5732 12.832 32.3972 12.5186 32.0839C12.2053 31.7706 12.0293 31.3456 12.0293 30.9025V25.0551C12.0293 24.5937 12.4033 24.2197 12.8646 24.2197Z" fill="#4C4C4C"/>
</svg>
