<svg width="342" height="347" viewBox="0 0 342 347" fill="none" xmlns="http://www.w3.org/2000/svg">
<g clip-path="url(#clip0_3842_4377)">
<path d="M331.674 123.648C328.691 84.1779 302.149 50.94 269.209 31.0501C237.403 11.8485 199.199 3.47662 162.287 7.62097C111.19 13.361 43.1055 46.1377 46.6329 106.518C47.2749 117.439 50.3415 128.352 48.7402 139.174C45.8549 158.693 29.0265 172.555 17.81 188.777C5.95909 205.914 0.0298591 227.082 1.25347 247.895C2.62815 271.21 14.7132 295.479 36.353 304.191C58.0684 312.926 82.5482 304.244 105.933 305.114C143.812 306.521 176.479 332.786 213.822 339.312C241.346 344.13 270.682 337.49 293.455 321.29C304.105 313.713 313.516 303.866 318.441 291.751C330.836 261.25 312.217 226.538 317.119 193.973C320.495 171.58 332.482 152.023 331.931 128.843C331.886 127.096 331.803 125.364 331.674 123.64V123.648Z" fill="#0064FF" fill-opacity="0.74902"/>
<path opacity="0.7" d="M331.674 123.648C328.691 84.1779 302.149 50.94 269.209 31.0501C237.403 11.8485 199.199 3.47662 162.287 7.62097C111.19 13.361 43.1055 46.1377 46.6329 106.518C47.2749 117.439 50.3415 128.352 48.7402 139.174C45.8549 158.693 29.0265 172.555 17.81 188.777C5.95909 205.914 0.0298591 227.082 1.25347 247.895C2.62815 271.21 14.7132 295.479 36.353 304.191C58.0684 312.926 82.5482 304.244 105.933 305.114C143.812 306.521 176.479 332.786 213.822 339.312C241.346 344.13 270.682 337.49 293.455 321.29C304.105 313.713 313.516 303.866 318.441 291.751C330.836 261.25 312.217 226.538 317.119 193.973C320.495 171.58 332.482 152.023 331.931 128.843C331.886 127.096 331.803 125.364 331.674 123.64V123.648Z" fill="white"/>
<path d="M330.202 337.467H339.711" stroke="#455A64" stroke-width="1.41141" stroke-linecap="round" stroke-linejoin="round"/>
<path d="M2.83984 337.467H324.824" stroke="#455A64" stroke-width="1.41141" stroke-linecap="round" stroke-linejoin="round"/>
<path d="M11.9268 204.143L22.4332 304.908" stroke="#455A64" stroke-width="2.82282" stroke-miterlimit="10"/>
<path d="M20.7419 285.629L15.9834 280.592" stroke="#455A64" stroke-width="2.82282" stroke-miterlimit="10"/>
<path d="M17.4259 282.098C17.4259 282.098 17.5618 279.867 15.53 278.052C14.3064 276.955 7.87869 274.248 7.26688 276.517C6.6022 278.982 13.1886 283.83 17.4259 282.098Z" fill="#0064FF" fill-opacity="0.74902" stroke="#455A64" stroke-width="1.41141" stroke-miterlimit="10"/>
<path d="M17.4259 282.098L11.3003 278.279" stroke="#455A64" stroke-width="0.705706" stroke-miterlimit="10"/>
<path d="M21.9352 297.091L17.1768 292.055" stroke="#455A64" stroke-width="2.82282" stroke-miterlimit="10"/>
<path d="M18.6192 293.569C18.6192 293.569 18.7552 291.338 16.7234 289.523C15.4998 288.426 9.07205 285.719 8.46024 287.987C7.79556 290.453 14.3819 295.301 18.6192 293.569Z" fill="#0064FF" fill-opacity="0.74902" stroke="#455A64" stroke-width="1.41141" stroke-miterlimit="10"/>
<path d="M18.6193 293.569L12.4937 289.742" stroke="#455A64" stroke-width="0.705706" stroke-miterlimit="10"/>
<path d="M17.8264 257.664L13.0679 252.627" stroke="#455A64" stroke-width="2.82282" stroke-miterlimit="10"/>
<path d="M14.5104 254.139C14.5104 254.139 14.6463 251.908 12.6145 250.093C11.3909 248.996 4.96316 246.289 4.35135 248.558C3.68667 251.023 10.273 255.871 14.5104 254.139Z" fill="#0064FF" fill-opacity="0.74902" stroke="#455A64" stroke-width="1.41141" stroke-miterlimit="10"/>
<path d="M14.5104 254.139L8.38477 250.312" stroke="#455A64" stroke-width="0.705706" stroke-miterlimit="10"/>
<path d="M19.0192 269.117L14.2607 264.08" stroke="#455A64" stroke-width="2.82282" stroke-miterlimit="10"/>
<path d="M15.7032 265.594C15.7032 265.594 15.8392 263.363 13.8074 261.548C12.5838 260.451 6.15603 257.744 5.54422 260.013C4.87955 262.478 11.4659 267.326 15.7032 265.594Z" fill="#0064FF" fill-opacity="0.74902" stroke="#455A64" stroke-width="1.41141" stroke-miterlimit="10"/>
<path d="M15.703 265.595L9.58496 261.775" stroke="#455A64" stroke-width="0.705706" stroke-miterlimit="10"/>
<path d="M15.8845 239.041L11.126 234.004" stroke="#455A64" stroke-width="2.82282" stroke-miterlimit="10"/>
<path d="M12.5685 235.518C12.5685 235.518 12.7044 233.287 10.6726 231.472C9.44901 230.375 3.02126 227.668 2.40946 229.937C1.74478 232.402 8.33114 237.25 12.5685 235.518Z" fill="#0064FF" fill-opacity="0.74902" stroke="#455A64" stroke-width="1.41141" stroke-miterlimit="10"/>
<path d="M12.5683 235.518L6.4502 231.699" stroke="#455A64" stroke-width="0.705706" stroke-miterlimit="10"/>
<path d="M13.9362 220.347L9.17773 215.311" stroke="#455A64" stroke-width="2.82282" stroke-miterlimit="10"/>
<path d="M10.6202 216.825C10.6202 216.825 10.7562 214.594 8.72438 212.778C7.50076 211.682 1.07302 208.974 0.461217 211.243C-0.203462 213.709 6.3829 218.556 10.6202 216.825Z" fill="#0064FF" fill-opacity="0.74902" stroke="#455A64" stroke-width="1.41141" stroke-miterlimit="10"/>
<path d="M10.62 216.825L4.50195 212.998" stroke="#455A64" stroke-width="0.705706" stroke-miterlimit="10"/>
<path d="M19.9409 278.848L23.5589 272.934" stroke="#455A64" stroke-width="2.82282" stroke-miterlimit="10"/>
<path d="M22.4559 274.71C22.4559 274.71 21.8667 272.562 23.4756 270.361C24.4424 269.038 30.1828 265.06 31.2478 267.155C32.4034 269.431 26.9651 275.534 22.4559 274.71Z" fill="#0064FF" fill-opacity="0.74902" stroke="#455A64" stroke-width="1.41141" stroke-miterlimit="10"/>
<path d="M22.4561 274.71L27.9699 269.432" stroke="#455A64" stroke-width="0.705706" stroke-miterlimit="10"/>
<path d="M16.7988 248.69L20.4168 242.783" stroke="#455A64" stroke-width="2.82282" stroke-miterlimit="10"/>
<path d="M19.3143 244.55C19.3143 244.55 18.7251 242.402 20.334 240.201C21.3008 238.878 27.0412 234.9 28.1062 236.995C29.2618 239.271 23.8235 245.374 19.3143 244.55Z" fill="#0064FF" fill-opacity="0.74902" stroke="#455A64" stroke-width="1.41141" stroke-miterlimit="10"/>
<path d="M19.314 244.55L24.8278 239.279" stroke="#455A64" stroke-width="0.705706" stroke-miterlimit="10"/>
<path d="M15.416 235.436L19.034 229.521" stroke="#455A64" stroke-width="2.82282" stroke-miterlimit="10"/>
<path d="M17.931 231.298C17.931 231.298 17.3418 229.15 18.9507 226.949C19.9175 225.626 25.6579 221.648 26.7229 223.743C27.8785 226.019 22.4402 232.122 17.931 231.298Z" fill="#0064FF" fill-opacity="0.74902" stroke="#455A64" stroke-width="1.41141" stroke-miterlimit="10"/>
<path d="M17.9312 231.298L23.445 226.02" stroke="#455A64" stroke-width="0.705706" stroke-miterlimit="10"/>
<path d="M13.3921 216.008L17.0101 210.094" stroke="#455A64" stroke-width="2.82282" stroke-miterlimit="10"/>
<path d="M15.9075 211.87C15.9075 211.87 15.3184 209.722 16.9272 207.521C17.894 206.198 23.6344 202.22 24.6994 204.315C25.8551 206.591 20.4168 212.694 15.9075 211.87Z" fill="#0064FF" fill-opacity="0.74902" stroke="#455A64" stroke-width="1.41141" stroke-miterlimit="10"/>
<path d="M15.9072 211.871L21.421 206.592" stroke="#455A64" stroke-width="0.705706" stroke-miterlimit="10"/>
<path d="M11.8436 203.583C11.8436 203.583 11.2544 201.435 12.8633 199.234C13.8301 197.911 19.5705 193.933 20.6355 196.028C21.7911 198.304 16.3528 204.407 11.8436 203.583Z" fill="#0064FF" fill-opacity="0.74902" stroke="#455A64" stroke-width="1.41141" stroke-miterlimit="10"/>
<path d="M11.8438 203.582L17.3576 198.311" stroke="#455A64" stroke-width="0.705706" stroke-miterlimit="10"/>
<path d="M12.161 203.808C12.161 203.808 9.96305 204.171 7.94636 202.334C6.73785 201.23 3.38425 195.104 5.57467 194.257C7.95391 193.342 13.4451 199.399 12.161 203.801V203.808Z" fill="#0064FF" fill-opacity="0.74902" stroke="#455A64" stroke-width="1.41141" stroke-miterlimit="10"/>
<path d="M12.1608 203.81L7.50049 197.768" stroke="#455A64" stroke-width="0.705706" stroke-miterlimit="10"/>
<path d="M39.6311 218.023L29.1851 318.796" stroke="#455A64" stroke-width="2.82282" stroke-miterlimit="10"/>
<path d="M31.4961 299.582L27.8706 293.668" stroke="#455A64" stroke-width="2.82282" stroke-miterlimit="10"/>
<path d="M28.9808 295.444C28.9808 295.444 29.57 293.289 27.9612 291.096C26.9868 289.772 21.2539 285.794 20.1889 287.889C19.0333 290.165 24.4791 296.268 28.9808 295.444Z" fill="#0064FF" fill-opacity="0.74902" stroke="#455A64" stroke-width="1.41141" stroke-miterlimit="10"/>
<path d="M28.9807 295.442L23.769 290.443" stroke="#455A64" stroke-width="0.705706" stroke-miterlimit="10"/>
<path d="M34.397 271.615L30.7715 265.709" stroke="#455A64" stroke-width="2.82282" stroke-miterlimit="10"/>
<path d="M31.8739 267.475C31.8739 267.475 32.463 265.328 30.8542 263.127C29.8799 261.803 24.147 257.825 23.082 259.92C21.9264 262.197 27.3722 268.292 31.8739 267.475Z" fill="#0064FF" fill-opacity="0.74902" stroke="#455A64" stroke-width="1.41141" stroke-miterlimit="10"/>
<path d="M31.8741 267.474L26.6699 262.475" stroke="#455A64" stroke-width="0.705706" stroke-miterlimit="10"/>
<path d="M33.2115 283.069L29.5859 277.162" stroke="#455A64" stroke-width="2.82282" stroke-miterlimit="10"/>
<path d="M30.6883 278.938C30.6883 278.938 31.2775 276.783 29.6687 274.59C28.6943 273.266 22.9615 269.288 21.8965 271.383C20.7408 273.66 26.1867 279.755 30.6883 278.938Z" fill="#0064FF" fill-opacity="0.74902" stroke="#455A64" stroke-width="1.41141" stroke-miterlimit="10"/>
<path d="M30.6885 278.934L25.4844 273.928" stroke="#455A64" stroke-width="0.705706" stroke-miterlimit="10"/>
<path d="M36.3233 252.996L32.6978 247.09" stroke="#455A64" stroke-width="2.82282" stroke-miterlimit="10"/>
<path d="M33.808 248.856C33.808 248.856 34.3971 246.708 32.7883 244.508C31.8139 243.184 26.0811 239.206 25.0161 241.301C23.8605 243.578 29.3063 249.673 33.808 248.856Z" fill="#0064FF" fill-opacity="0.74902" stroke="#455A64" stroke-width="1.41141" stroke-miterlimit="10"/>
<path d="M33.8084 248.854L28.5967 243.855" stroke="#455A64" stroke-width="0.705706" stroke-miterlimit="10"/>
<path d="M38.2642 234.297L34.6387 228.383" stroke="#455A64" stroke-width="2.82282" stroke-miterlimit="10"/>
<path d="M35.7411 230.161C35.7411 230.161 36.3302 228.013 34.7214 225.812C33.747 224.489 28.0142 220.511 26.9492 222.606C25.7936 224.882 31.2394 230.978 35.7411 230.161Z" fill="#0064FF" fill-opacity="0.74902" stroke="#455A64" stroke-width="1.41141" stroke-miterlimit="10"/>
<path d="M35.7412 230.159L30.5371 225.16" stroke="#455A64" stroke-width="0.705706" stroke-miterlimit="10"/>
<path d="M32.1084 292.783L36.8669 287.738" stroke="#455A64" stroke-width="2.82282" stroke-miterlimit="10"/>
<path d="M35.4243 289.252C35.4243 289.252 35.2883 287.021 37.3201 285.206C38.5437 284.11 44.9715 281.402 45.5833 283.671C46.2479 286.136 39.6691 290.984 35.4243 289.252Z" fill="#0064FF" fill-opacity="0.74902" stroke="#455A64" stroke-width="1.41141" stroke-miterlimit="10"/>
<path d="M35.4243 289.252L41.9049 285.229" stroke="#455A64" stroke-width="0.705706" stroke-miterlimit="10"/>
<path d="M35.2354 262.619L39.9938 257.582" stroke="#455A64" stroke-width="2.82282" stroke-miterlimit="10"/>
<path d="M38.5434 259.088C38.5434 259.088 38.4074 256.857 40.4392 255.042C41.6629 253.946 48.0906 251.238 48.7024 253.507C49.3671 255.972 42.7883 260.82 38.5434 259.088Z" fill="#0064FF" fill-opacity="0.74902" stroke="#455A64" stroke-width="1.41141" stroke-miterlimit="10"/>
<path d="M38.5435 259.088L45.0241 255.064" stroke="#455A64" stroke-width="0.705706" stroke-miterlimit="10"/>
<path d="M36.6099 249.361L41.3684 244.324" stroke="#455A64" stroke-width="2.82282" stroke-miterlimit="10"/>
<path d="M39.9179 245.838C39.9179 245.838 39.782 243.607 41.8138 241.792C43.0374 240.696 49.4651 237.988 50.0769 240.257C50.7416 242.722 44.1628 247.57 39.9179 245.838Z" fill="#0064FF" fill-opacity="0.74902" stroke="#455A64" stroke-width="1.41141" stroke-miterlimit="10"/>
<path d="M39.9185 245.839L46.3991 241.809" stroke="#455A64" stroke-width="0.705706" stroke-miterlimit="10"/>
<path d="M38.6187 229.935L43.3771 224.898" stroke="#455A64" stroke-width="2.82282" stroke-miterlimit="10"/>
<path d="M41.9345 226.403C41.9345 226.403 41.7986 224.172 43.8304 222.357C45.054 221.26 51.4817 218.553 52.0935 220.821C52.7582 223.287 46.1794 228.135 41.9345 226.403Z" fill="#0064FF" fill-opacity="0.74902" stroke="#455A64" stroke-width="1.41141" stroke-miterlimit="10"/>
<path d="M41.9346 226.404L48.4152 222.381" stroke="#455A64" stroke-width="0.705706" stroke-miterlimit="10"/>
<path d="M39.6611 217.457C39.6611 217.457 39.5251 215.226 41.5569 213.411C42.7805 212.315 49.2083 209.607 49.8201 211.876C50.4848 214.342 43.906 219.189 39.6611 217.457Z" fill="#0064FF" fill-opacity="0.74902" stroke="#455A64" stroke-width="1.41141" stroke-miterlimit="10"/>
<path d="M39.6611 217.457L46.1417 213.434" stroke="#455A64" stroke-width="0.705706" stroke-miterlimit="10"/>
<path d="M39.9254 217.751C39.9254 217.751 37.6973 217.653 36.1035 215.444C35.1443 214.113 33.1276 207.428 35.4389 207.057C37.9616 206.657 42.0856 213.713 39.9179 217.759L39.9254 217.751Z" fill="#0064FF" fill-opacity="0.74902" stroke="#455A64" stroke-width="1.41141" stroke-miterlimit="10"/>
<path d="M39.9254 217.753L36.6021 210.871" stroke="#455A64" stroke-width="0.705706" stroke-miterlimit="10"/>
<path d="M27.6675 176.984V304.423" stroke="#455A64" stroke-width="2.82282" stroke-miterlimit="10"/>
<path d="M27.7659 285.261L23.5513 279.756" stroke="#455A64" stroke-width="2.82282" stroke-miterlimit="10"/>
<path d="M24.8355 281.411C24.8355 281.411 25.2056 279.21 23.3701 277.191C22.2674 275.973 16.1493 272.615 15.3109 274.808C14.397 277.191 20.4395 282.696 24.8355 281.411Z" fill="#0064FF" fill-opacity="0.74902" stroke="#455A64" stroke-width="1.41141" stroke-miterlimit="10"/>
<path d="M24.8352 281.41L19.1401 276.971" stroke="#455A64" stroke-width="0.705706" stroke-miterlimit="10"/>
<path d="M27.7659 261.309L23.5513 255.811" stroke="#455A64" stroke-width="2.82282" stroke-miterlimit="10"/>
<path d="M24.8355 257.459C24.8355 257.459 25.2056 255.259 23.3701 253.239C22.2674 252.022 16.1493 248.664 15.3109 250.857C14.397 253.239 20.4395 258.745 24.8355 257.459Z" fill="#0064FF" fill-opacity="0.74902" stroke="#455A64" stroke-width="1.41141" stroke-miterlimit="10"/>
<path d="M24.8352 257.459L19.1401 253.02" stroke="#455A64" stroke-width="0.705706" stroke-miterlimit="10"/>
<path d="M27.7659 233.203L23.5513 227.697" stroke="#455A64" stroke-width="2.82282" stroke-miterlimit="10"/>
<path d="M24.8355 229.346C24.8355 229.346 25.2056 227.145 23.3701 225.126C22.2674 223.909 16.1493 220.551 15.3109 222.744C14.397 225.126 20.4395 230.632 24.8355 229.346Z" fill="#0064FF" fill-opacity="0.74902" stroke="#455A64" stroke-width="1.41141" stroke-miterlimit="10"/>
<path d="M24.8352 229.346L19.1401 224.914" stroke="#455A64" stroke-width="0.705706" stroke-miterlimit="10"/>
<path d="M27.7659 214.482L23.5513 208.977" stroke="#455A64" stroke-width="2.82282" stroke-miterlimit="10"/>
<path d="M24.8355 210.625C24.8355 210.625 25.2056 208.425 23.3701 206.405C22.2674 205.188 16.1493 201.83 15.3109 204.023C14.397 206.405 20.4395 211.911 24.8355 210.625Z" fill="#0064FF" fill-opacity="0.74902" stroke="#455A64" stroke-width="1.41141" stroke-miterlimit="10"/>
<path d="M24.8352 210.627L19.1401 206.195" stroke="#455A64" stroke-width="0.705706" stroke-miterlimit="10"/>
<path d="M27.7659 195.683L23.5513 190.178" stroke="#455A64" stroke-width="2.82282" stroke-miterlimit="10"/>
<path d="M24.8355 191.832C24.8355 191.832 25.2056 189.632 23.3701 187.613C22.2674 186.395 16.1493 183.037 15.3109 185.23C14.397 187.613 20.4395 193.118 24.8355 191.832Z" fill="#0064FF" fill-opacity="0.74902" stroke="#455A64" stroke-width="1.41141" stroke-miterlimit="10"/>
<path d="M24.8352 191.832L19.1401 187.393" stroke="#455A64" stroke-width="0.705706" stroke-miterlimit="10"/>
<path d="M27.6753 292.574L31.89 287.068" stroke="#455A64" stroke-width="2.82282" stroke-miterlimit="10"/>
<path d="M30.6058 288.723C30.6058 288.723 30.2357 286.522 32.0711 284.503C33.1738 283.286 39.2919 279.928 40.1303 282.121C41.0442 284.503 35.0017 290.009 30.6058 288.723Z" fill="#0064FF" fill-opacity="0.74902" stroke="#455A64" stroke-width="1.41141" stroke-miterlimit="10"/>
<path d="M30.606 288.72L36.6334 284.039" stroke="#455A64" stroke-width="0.705706" stroke-miterlimit="10"/>
<path d="M27.6753 254.488L31.89 248.982" stroke="#455A64" stroke-width="2.82282" stroke-miterlimit="10"/>
<path d="M30.6058 250.631C30.6058 250.631 30.2357 248.431 32.0711 246.411C33.1738 245.194 39.2919 241.836 40.1303 244.029C41.0442 246.411 35.0017 251.917 30.6058 250.631Z" fill="#0064FF" fill-opacity="0.74902" stroke="#455A64" stroke-width="1.41141" stroke-miterlimit="10"/>
<path d="M30.606 250.631L36.6334 245.957" stroke="#455A64" stroke-width="0.705706" stroke-miterlimit="10"/>
<path d="M27.6753 235.689L31.89 230.184" stroke="#455A64" stroke-width="2.82282" stroke-miterlimit="10"/>
<path d="M30.6053 231.838C30.6053 231.838 30.2352 229.638 32.0706 227.618C33.1733 226.401 39.2914 223.043 40.1298 225.236C41.0437 227.618 35.0012 233.124 30.6053 231.838Z" fill="#0064FF" fill-opacity="0.74902" stroke="#455A64" stroke-width="1.41141" stroke-miterlimit="10"/>
<path d="M30.606 231.836L36.6334 227.154" stroke="#455A64" stroke-width="0.705706" stroke-miterlimit="10"/>
<path d="M27.6753 210.842L31.89 205.344" stroke="#455A64" stroke-width="2.82282" stroke-miterlimit="10"/>
<path d="M30.6063 206.991C30.6063 206.991 30.2361 204.79 32.0716 202.771C33.1743 201.553 39.2924 198.195 40.1308 200.388C41.0447 202.771 35.0022 208.276 30.6063 206.991Z" fill="#0064FF" fill-opacity="0.74902" stroke="#455A64" stroke-width="1.41141" stroke-miterlimit="10"/>
<path d="M30.606 206.99L36.6334 202.316" stroke="#455A64" stroke-width="0.705706" stroke-miterlimit="10"/>
<path d="M27.6743 191.303L31.889 185.805" stroke="#455A64" stroke-width="2.82282" stroke-miterlimit="10"/>
<path d="M30.6053 187.452C30.6053 187.452 30.2352 185.251 32.0706 183.232C33.1733 182.014 39.2914 178.656 40.1298 180.849C41.0437 183.232 35.0012 188.737 30.6053 187.452Z" fill="#0064FF" fill-opacity="0.74902" stroke="#455A64" stroke-width="1.41141" stroke-miterlimit="10"/>
<path d="M30.6055 187.453L36.6329 182.779" stroke="#455A64" stroke-width="0.705706" stroke-miterlimit="10"/>
<path d="M27.4178 178.784C27.4178 178.784 27.0477 176.583 28.8831 174.564C29.9858 173.346 36.1039 169.988 36.9423 172.181C37.8562 174.564 31.8137 180.069 27.4178 178.784Z" fill="#0064FF" fill-opacity="0.74902" stroke="#455A64" stroke-width="1.41141" stroke-miterlimit="10"/>
<path d="M27.4175 178.783L33.4525 174.109" stroke="#455A64" stroke-width="0.705706" stroke-miterlimit="10"/>
<path d="M27.7126 179.051C27.7126 179.051 25.4844 179.187 23.6792 177.152C22.5915 175.927 19.8875 169.484 22.1535 168.879C24.6158 168.213 29.4498 174.815 27.7126 179.058V179.051Z" fill="#0064FF" fill-opacity="0.74902" stroke="#455A64" stroke-width="1.41141" stroke-miterlimit="10"/>
<path d="M27.7129 179.049L23.7021 172.553" stroke="#455A64" stroke-width="0.705706" stroke-miterlimit="10"/>
<path d="M32.9021 337.472H19.4197L17.7354 303.387H34.5865L32.9021 337.472Z" fill="#455A64" stroke="#455A64" stroke-width="1.41141" stroke-miterlimit="10"/>
<path d="M108.901 9.91602C107.821 11.7235 107.043 13.7352 106.627 15.8754C105.819 15.7695 105.003 15.709 104.165 15.709C93.923 15.709 85.6221 24.0204 85.6221 34.2754C85.6221 37.5122 86.4454 40.5524 87.9031 43.1994" stroke="#455A64" stroke-width="1.41141" stroke-linecap="round" stroke-linejoin="round"/>
<path d="M151.184 26.4815C148.85 24.7647 145.98 23.7287 142.876 23.6682C143.193 22.2993 143.366 20.8775 143.366 19.4179C143.366 9.16294 135.066 0.851562 124.823 0.851562C118.985 0.851562 113.781 3.55144 110.382 7.77897" stroke="#455A64" stroke-width="1.41141" stroke-linecap="round" stroke-linejoin="round"/>
<path d="M89.6177 45.7744C92.1178 48.9356 95.6224 51.2649 99.6483 52.2783H146.561C152.671 50.5389 157.143 44.9198 157.143 38.2496C157.143 34.9901 156.07 31.9725 154.265 29.5449" stroke="#455A64" stroke-width="1.41141" stroke-linecap="round" stroke-linejoin="round"/>
<path d="M182.756 18.875C177.823 22.2101 174.583 27.8595 174.583 34.2726C174.583 42.9621 180.55 50.2601 188.609 52.2793H235.522C237.199 51.8029 238.755 51.0315 240.122 50.0257" stroke="#455A64" stroke-width="1.41141" stroke-linecap="round" stroke-linejoin="round"/>
<path d="M230.824 12.0746C227.984 5.47236 221.428 0.851562 213.792 0.851562C204.766 0.851562 197.243 7.31765 195.589 15.871C194.78 15.7652 193.965 15.7047 193.126 15.7047C190.792 15.7047 188.564 16.1357 186.51 16.9222" stroke="#455A64" stroke-width="1.41141" stroke-linecap="round" stroke-linejoin="round"/>
<path d="M242.615 47.7183C244.79 45.1696 246.104 41.8647 246.104 38.2498C246.104 30.2938 239.745 23.8278 231.837 23.6689C232.154 22.3001 232.328 20.8783 232.328 19.4187C232.328 17.8532 232.131 16.3407 231.769 14.8887" stroke="#455A64" stroke-width="1.41141" stroke-linecap="round" stroke-linejoin="round"/>
<path d="M121.424 143.401V65.9668" stroke="#455A64" stroke-width="1.41141" stroke-linecap="round" stroke-linejoin="round"/>
<path d="M159.945 34.2031H167.498" stroke="#455A64" stroke-width="1.41141" stroke-linecap="round" stroke-linejoin="round"/>
<path d="M209.796 53.8652V71.6148" stroke="#455A64" stroke-width="1.41141" stroke-linecap="round" stroke-linejoin="round"/>
<path d="M134.287 87.1582H107.051V114.354H134.287V87.1582Z" fill="#455A64" stroke="#455A64" stroke-width="1.41141" stroke-linecap="round" stroke-linejoin="round"/>
<path d="M127.973 102.185L114.657 94.4863V109.876L127.973 102.185Z" fill="white" stroke="#455A64" stroke-width="1.41141" stroke-linecap="round" stroke-linejoin="round"/>
<path d="M134.287 87.1582H107.051V92.142H134.287V87.1582Z" fill="white" stroke="#455A64" stroke-width="1.41141" stroke-linecap="round" stroke-linejoin="round"/>
<path d="M107.059 92.142H110.964L113.381 87.1582H109.468L107.059 92.142Z" fill="#455A64" stroke="#455A64" stroke-width="1.41141" stroke-linecap="round" stroke-linejoin="round"/>
<path d="M134.288 89.3438V87.1582H131.44L129.023 92.142H132.935L134.288 89.3438Z" fill="#455A64" stroke="#455A64" stroke-width="1.41141" stroke-linecap="round" stroke-linejoin="round"/>
<path d="M120.699 87.1582H116.794L114.377 92.142H118.29L120.699 87.1582Z" fill="#455A64" stroke="#455A64" stroke-width="1.41141" stroke-linecap="round" stroke-linejoin="round"/>
<path d="M128.026 87.1582H124.113L121.704 92.142H125.609L128.026 87.1582Z" fill="#455A64" stroke="#455A64" stroke-width="1.41141" stroke-linecap="round" stroke-linejoin="round"/>
<path d="M224.17 19.8555H196.934V47.0509H224.17V19.8555Z" fill="#455A64" stroke="#455A64" stroke-width="1.41141" stroke-linecap="round" stroke-linejoin="round"/>
<path d="M217.856 34.8804L204.54 27.1816V42.5717L217.856 34.8804Z" fill="white" stroke="#455A64" stroke-width="1.41141" stroke-linecap="round" stroke-linejoin="round"/>
<path d="M224.17 19.8555H196.934V24.8393H224.17V19.8555Z" fill="white" stroke="#455A64" stroke-width="1.41141" stroke-linecap="round" stroke-linejoin="round"/>
<path d="M196.941 24.8393H200.846L203.263 19.8555H199.351L196.941 24.8393Z" fill="#455A64" stroke="#455A64" stroke-width="1.41141" stroke-linecap="round" stroke-linejoin="round"/>
<path d="M224.17 22.0411V19.8555H221.322L218.905 24.8393H222.818L224.17 22.0411Z" fill="#455A64" stroke="#455A64" stroke-width="1.41141" stroke-linecap="round" stroke-linejoin="round"/>
<path d="M210.582 19.8555H206.677L204.26 24.8393H208.172L210.582 19.8555Z" fill="#455A64" stroke="#455A64" stroke-width="1.41141" stroke-linecap="round" stroke-linejoin="round"/>
<path d="M217.908 19.8555H213.996L211.586 24.8393H215.491L217.908 19.8555Z" fill="#455A64" stroke="#455A64" stroke-width="1.41141" stroke-linecap="round" stroke-linejoin="round"/>
<path d="M174.531 92.627H309.816C314.393 92.627 318.109 96.3478 318.109 100.931V302.869H166.245V100.931C166.245 96.3478 169.961 92.627 174.538 92.627H174.531Z" fill="white" stroke="#455A64" stroke-width="1.41141" stroke-linecap="round" stroke-linejoin="round"/>
<path d="M309.815 92.6267H209.079V116.086H318.108V100.923C318.108 96.34 314.4 92.6191 309.815 92.6191V92.6267Z" fill="#455A64" stroke="#455A64" stroke-width="1.41141" stroke-linecap="round" stroke-linejoin="round"/>
<path d="M309.815 92.627H174.531C169.953 92.627 166.237 96.3402 166.237 100.931V106.958H318.101V100.931C318.101 96.3478 314.393 92.627 309.808 92.627H309.815Z" fill="#455A64" stroke="#455A64" stroke-width="1.41141" stroke-linecap="round" stroke-linejoin="round"/>
<path d="M297.7 102.303C298.951 102.303 299.966 101.287 299.966 100.034C299.966 98.7814 298.951 97.7656 297.7 97.7656C296.449 97.7656 295.434 98.7814 295.434 100.034C295.434 101.287 296.449 102.303 297.7 102.303Z" fill="white" stroke="#455A64" stroke-width="1.41141" stroke-linecap="round" stroke-linejoin="round"/>
<path d="M304.747 102.303C305.999 102.303 307.013 101.287 307.013 100.034C307.013 98.7814 305.999 97.7656 304.747 97.7656C303.496 97.7656 302.481 98.7814 302.481 100.034C302.481 101.287 303.496 102.303 304.747 102.303Z" fill="white" stroke="#455A64" stroke-width="1.41141" stroke-linecap="round" stroke-linejoin="round"/>
<path d="M311.794 102.303C313.046 102.303 314.06 101.287 314.06 100.034C314.06 98.7814 313.046 97.7656 311.794 97.7656C310.543 97.7656 309.528 98.7814 309.528 100.034C309.528 101.287 310.543 102.303 311.794 102.303Z" fill="white" stroke="#455A64" stroke-width="1.41141" stroke-linecap="round" stroke-linejoin="round"/>
<path d="M248.227 135.547H181.155V179.032H248.227V135.547Z" fill="#455A64" stroke="#455A64" stroke-width="1.41141" stroke-linecap="round" stroke-linejoin="round"/>
<path d="M248.227 173.715H181.155V179.039H248.227V173.715Z" fill="white" stroke="#455A64" stroke-width="1.41141" stroke-linecap="round" stroke-linejoin="round"/>
<path d="M222.841 155.64L209.532 147.949V163.339L222.841 155.64Z" fill="white" stroke="#455A64" stroke-width="1.41141" stroke-linecap="round" stroke-linejoin="round"/>
<path d="M245.221 177.081H184.085C183.67 177.081 183.33 176.741 183.33 176.325C183.33 175.909 183.67 175.568 184.085 175.568H245.221C245.636 175.568 245.976 175.909 245.976 176.325C245.976 176.741 245.636 177.081 245.221 177.081Z" fill="#455A64"/>
<path d="M248.227 190.256H181.155V233.741H248.227V190.256Z" fill="#455A64" stroke="#455A64" stroke-width="1.41141" stroke-linecap="round" stroke-linejoin="round"/>
<path d="M248.227 228.418H181.155V233.742H248.227V228.418Z" fill="white" stroke="#455A64" stroke-width="1.41141" stroke-linecap="round" stroke-linejoin="round"/>
<path d="M222.841 210.349L209.532 202.658V218.041L222.841 210.349Z" fill="white" stroke="#455A64" stroke-width="1.41141" stroke-linecap="round" stroke-linejoin="round"/>
<path d="M245.221 231.782H184.085C183.67 231.782 183.33 231.442 183.33 231.026C183.33 230.61 183.67 230.27 184.085 230.27H245.221C245.636 230.27 245.976 230.61 245.976 231.026C245.976 231.442 245.636 231.782 245.221 231.782Z" fill="#455A64"/>
<path d="M248.227 244.959H181.155V288.444H248.227V244.959Z" fill="#455A64" stroke="#455A64" stroke-width="1.41141" stroke-linecap="round" stroke-linejoin="round"/>
<path d="M248.227 283.127H181.155V288.451H248.227V283.127Z" fill="white" stroke="#455A64" stroke-width="1.41141" stroke-linecap="round" stroke-linejoin="round"/>
<path d="M222.841 265.06L209.532 257.361V272.751L222.841 265.06Z" fill="white" stroke="#455A64" stroke-width="1.41141" stroke-linecap="round" stroke-linejoin="round"/>
<path d="M245.221 286.493H184.085C183.67 286.493 183.33 286.153 183.33 285.737C183.33 285.321 183.67 284.98 184.085 284.98H245.221C245.636 284.98 245.976 285.321 245.976 285.737C245.976 286.153 245.636 286.493 245.221 286.493Z" fill="#455A64"/>
<path d="M293.637 139.77H251.717V144.685H293.637V139.77Z" fill="#CCCCCC"/>
<path d="M308.743 150.357H251.717V155.273H308.743V150.357Z" fill="#CCCCCC"/>
<path d="M308.743 160.949H251.717V165.865H308.743V160.949Z" fill="#CCCCCC"/>
<path d="M293.637 196.117H251.717V201.033H293.637V196.117Z" fill="#CCCCCC"/>
<path d="M308.743 206.705H251.717V211.621H308.743V206.705Z" fill="#CCCCCC"/>
<path d="M308.743 217.297H251.717V222.213H308.743V217.297Z" fill="#CCCCCC"/>
<path d="M293.637 252.457H251.717V257.373H293.637V252.457Z" fill="#CCCCCC"/>
<path d="M308.743 263.045H251.717V267.961H308.743V263.045Z" fill="#CCCCCC"/>
<path d="M308.743 273.637H251.717V278.552H308.743V273.637Z" fill="#CCCCCC"/>
<path d="M114.166 221.939C114.166 221.939 116.424 227.869 116.847 228.572C117.27 229.275 111.492 231.68 110.223 232.24C108.954 232.807 106.839 225.607 106.839 225.607L114.166 221.939Z" fill="#0064FF" fill-opacity="0.74902" stroke="#455A64" stroke-width="1.41141" stroke-linecap="round" stroke-linejoin="round"/>
<path d="M97.126 162.385C97.126 162.385 101.847 162.763 103.357 168.813C104.868 174.863 106.945 190.556 106.945 194.148C106.945 197.74 110.91 211.92 112.988 214.756C115.065 217.592 115.82 222.319 114.121 223.643C112.421 224.966 109.4 228.936 105.434 225.155C101.469 221.374 96.5595 208.706 96.1818 204.925C95.8042 201.144 97.5036 194.526 97.6925 191.879C97.8813 189.232 97.5036 173.162 95.993 169.569C94.4824 165.977 93.7271 163.519 93.7271 163.519C93.7271 163.519 94.4824 162.007 97.126 162.385Z" fill="#0064FF" fill-opacity="0.74902" stroke="#455A64" stroke-width="1.41141" stroke-linecap="round" stroke-linejoin="round"/>
<path d="M113.177 237.605C113.177 237.605 114.589 240.29 114.302 240.993C114.023 241.697 112.61 241.137 112.044 241.273C111.477 241.417 111.054 243.247 112.044 243.814C113.033 244.381 113.736 246.212 115.148 245.788C116.56 245.365 117.119 241.833 117.119 239.435C117.119 237.038 114.438 235.624 113.169 237.598L113.177 237.605Z" fill="#455A64" stroke="#455A64" stroke-width="1.41141" stroke-linecap="round" stroke-linejoin="round"/>
<path d="M110.08 231.26C110.08 231.26 109.234 237.189 109.513 238.459C109.793 239.73 110.216 242.551 110.216 243.118C110.216 243.685 110.216 244.956 112.051 243.821C113.886 242.687 112.33 240.01 112.618 239.027C112.897 238.036 114.453 238.036 115.012 238.883C115.578 239.73 115.858 241.144 115.714 242.695C115.571 244.245 113.32 246.083 113.879 246.65C114.445 247.217 115.571 247.353 116.84 245.803C118.109 244.252 118.811 240.864 118.532 238.747C118.252 236.629 117.686 232.538 117.119 230.987C116.553 229.437 115.85 228.303 115.85 228.303L110.072 231.267L110.08 231.26Z" fill="white" stroke="#455A64" stroke-width="1.41141" stroke-linecap="round" stroke-linejoin="round"/>
<path d="M78.4246 148.062C78.4246 148.062 79.6936 157.728 78.2962 159.633C76.8989 161.539 71.5664 162.174 67.5028 164.08C63.4391 165.986 63.8168 168.656 63.8168 172.218C63.8168 175.78 70.9243 196.116 70.5467 199.806C70.169 203.497 60.6445 213.918 58.9903 224.347C57.3362 234.769 66.9891 264.906 68.2581 269.738C69.527 274.571 70.6675 277.619 69.2702 282.194C67.8729 286.77 65.4634 290.203 65.2066 298.212C64.9498 306.221 71.0452 327.578 71.4304 329.612C71.8081 331.646 69.0209 338.007 68.2581 341.312C67.4952 344.616 70.4183 346.016 72.8277 345.887C75.2372 345.758 79.4292 344.874 79.4292 343.217C79.4292 341.561 78.0319 334.188 78.0319 331.397C78.0319 328.606 78.4095 324.152 78.4095 322.246C78.4095 320.34 80.4413 302.031 80.9474 298.219C81.4534 294.408 82.8508 288.305 82.8508 288.305C82.8508 288.305 82.4731 307.756 81.9595 313.095C81.4534 318.434 79.9277 336.615 80.6906 338.521C81.4534 340.427 84.6258 340.049 88.0549 340.684C91.484 341.319 90.4644 342.59 94.6564 343.353C98.8484 344.117 104.309 344.367 103.675 342.34C103.04 340.306 98.5991 337.636 96.3105 334.46C94.0219 331.283 91.1064 328.742 90.978 327.85C90.8496 326.958 90.978 324.802 91.2348 323.017C91.4916 321.24 95.0416 313.481 96.3105 308.013C97.5794 302.545 97.2018 301.275 97.5794 292.88C97.9571 284.486 95.8045 280.167 97.2018 274.828C98.5991 269.489 103.426 252.072 104.823 242.157C106.22 232.243 106.885 223.137 105.986 218.751C104.287 210.432 99.9965 204.911 99.2336 201.727C98.4707 198.551 102.028 192.955 103.675 184.946C105.329 176.937 102.278 170.07 100.631 166.258C98.9843 162.447 93.6443 160.79 92.7605 160.412C91.8693 160.034 91.1064 155.837 90.9855 153.167C90.8647 150.498 90.8571 149.099 90.8571 149.099L78.4171 148.085L78.4246 148.062Z" fill="#455A64" stroke="#455A64" stroke-width="1.41141" stroke-linecap="round" stroke-linejoin="round"/>
<path d="M68.2664 341.303C69.0292 337.998 71.8239 331.638 71.4387 329.604C71.2801 328.734 70.0716 324.355 68.7724 318.993C71.3405 319.734 74.8452 320.082 78.7124 318.6C78.5387 320.438 78.4254 321.784 78.4254 322.222C78.4254 324.128 78.0477 328.583 78.0477 331.373C78.0477 334.164 79.4451 341.545 79.4451 343.194C79.4451 344.842 75.2531 345.735 72.8436 345.863C70.4341 345.992 67.5111 344.593 68.2739 341.288L68.2664 341.303ZM103.691 342.316C103.056 340.282 98.615 337.612 96.3264 334.436C94.0378 331.26 91.1222 328.719 90.9938 327.826C90.8654 326.934 90.9938 324.779 91.2507 322.994C91.3413 322.343 91.8851 320.884 92.5876 319.031C87.7686 320.982 83.4105 319.334 81.5146 318.373C80.8953 325.845 80.1248 337.03 80.7064 338.505C81.4693 340.411 84.6416 340.033 88.0708 340.668C91.4999 341.303 90.4802 342.574 94.6722 343.337C98.8642 344.101 104.325 344.351 103.691 342.324V342.316Z" fill="white" stroke="#455A64" stroke-width="1.41141" stroke-linecap="round" stroke-linejoin="round"/>
<path d="M103.69 342.324C103.056 340.29 98.6145 337.62 96.3259 334.444C94.0373 331.267 91.1218 328.726 90.9934 327.834C90.9934 327.834 88.2516 328.772 87.8739 330.095C87.4963 331.419 86.9298 332.742 86.9298 332.742C86.9298 332.742 84.0973 333.309 81.6426 332.175C81.2498 331.993 80.9175 331.827 80.6153 331.676C80.4567 335.132 80.4416 337.839 80.7135 338.513C81.4764 340.418 84.6487 340.04 88.0779 340.675C91.507 341.311 90.4873 342.581 94.6793 343.345C98.8713 344.109 104.332 344.358 103.698 342.332L103.69 342.324Z" fill="white" stroke="#455A64" stroke-width="1.41141" stroke-linecap="round" stroke-linejoin="round"/>
<path d="M103.69 342.329C97.6173 343.35 92.247 340.613 88.9387 339.244C86.1062 338.071 82.2692 337.535 80.5396 337.338C80.5698 337.898 80.6302 338.298 80.7133 338.503C81.4761 340.408 84.6485 340.03 88.0776 340.665C91.5067 341.301 90.4871 342.571 94.6791 343.335C98.8635 344.099 104.317 344.348 103.698 342.329H103.69Z" fill="#0064FF" fill-opacity="0.74902" stroke="#455A64" stroke-width="1.41141" stroke-linecap="round" stroke-linejoin="round"/>
<path d="M78.0475 330.984C77.2921 330.493 76.1214 330.092 74.2784 330.092C73.0246 330.092 72.1107 330.311 71.4384 330.621C71.1212 333.261 68.9308 338.433 68.2661 341.307C67.5032 344.612 70.4263 346.011 72.8358 345.883C75.2452 345.754 79.4372 344.869 79.4372 343.213C79.4372 341.557 78.0399 334.183 78.0399 331.393C78.0399 331.264 78.0399 331.128 78.0399 330.992L78.0475 330.984Z" fill="white" stroke="#455A64" stroke-width="1.41141" stroke-linecap="round" stroke-linejoin="round"/>
<path d="M79.4375 343.206C79.4375 342.798 79.3544 342.049 79.226 341.111C78.5085 342.397 76.9978 343.993 73.8633 344.121C68.5458 344.341 68.5458 340.348 68.5458 340.348H68.5232C68.425 340.68 68.3419 341.006 68.2739 341.301C67.5111 344.605 70.4341 346.005 72.8436 345.876C75.2531 345.747 79.4451 344.863 79.4451 343.206H79.4375Z" fill="#0064FF" fill-opacity="0.74902" stroke="#455A64" stroke-width="1.41141" stroke-linecap="round" stroke-linejoin="round"/>
<path d="M99.2486 201.712C98.4858 198.536 102.043 192.94 103.69 184.931C105.336 176.922 102.293 170.055 100.646 166.243C98.9994 162.432 93.6593 160.776 92.7756 160.397C91.8843 160.019 91.1214 155.822 91.0006 153.152C90.8797 150.483 90.8722 149.084 90.8722 149.084L78.4321 148.07C78.4321 148.07 79.7011 157.735 78.3037 159.641C76.9064 161.547 71.5739 162.182 67.5102 164.088C63.4466 165.994 63.8243 168.663 63.8243 172.226C63.8243 175.788 70.9318 196.124 70.5542 199.814C70.1765 203.505 60.652 213.926 58.9978 224.355C58.9525 224.642 58.9223 224.945 58.8921 225.255C63.847 226.979 73.0769 229.528 85.0411 229.898C96.099 230.239 102.814 226.934 106.409 224.257C106.409 222.026 106.288 220.143 106.001 218.744C104.302 210.425 100.012 204.904 99.2486 201.72V201.712Z" fill="#0064FF" fill-opacity="0.74902" stroke="#455A64" stroke-width="1.41141" stroke-linecap="round" stroke-linejoin="round"/>
<path d="M92.7755 160.39C91.8842 160.012 91.1213 155.814 91.0005 153.145C90.8796 150.475 90.8721 149.076 90.8721 149.076L78.432 148.062C78.432 148.062 79.7009 157.728 78.3036 159.633C77.4501 160.798 75.1388 161.486 72.5405 162.28C73.1372 163.067 77.4274 168.141 86.8085 166.5C91.2119 165.729 94.1879 163.808 96.1442 161.88C94.6033 161.04 93.1984 160.579 92.783 160.397L92.7755 160.39Z" fill="white" stroke="#455A64" stroke-width="1.41141" stroke-linecap="round" stroke-linejoin="round"/>
<path d="M90.9931 153.143C90.8647 150.474 90.8647 149.074 90.8647 149.074L83.0094 148.432L82.3296 149.906C82.3296 149.906 86.0986 153.862 91.1668 155.087C91.0837 154.399 91.0233 153.733 90.9931 153.143Z" fill="#455A64" stroke="#455A64" stroke-width="1.41141" stroke-linecap="round" stroke-linejoin="round"/>
<path d="M81.2797 149.862L81.0909 152.803C81.0909 152.803 77.7373 155.443 68.2128 149.173C58.6807 142.904 60.3877 122.386 68.1976 115.792C76.0001 109.197 87.564 110.581 90.842 112.381C94.1125 114.181 96.5975 112.986 97.8967 118.121C99.1958 123.256 96.9374 125.729 96.9374 125.729C96.9374 125.729 94.815 123.354 93.9011 122.893C92.9796 122.424 89.3541 123.044 87.9038 125.056C86.4536 127.068 84.0895 140.892 83.6741 143.713C83.2587 146.534 81.2873 149.869 81.2873 149.869L81.2797 149.862Z" fill="#455A64" stroke="#455A64" stroke-width="1.41141" stroke-linecap="round" stroke-linejoin="round"/>
<path d="M92.4736 119.128C92.4736 119.128 96.439 121.276 98.6445 128.612C100.858 135.94 100.873 144.191 100.231 146.316C99.5886 148.449 97.7986 149.991 95.8952 150.619C93.9918 151.247 89.9055 151.632 87.6622 151.216C85.4189 150.801 81.2798 149.863 81.2798 149.863C81.2798 149.863 83.2058 118.916 92.4736 119.128Z" fill="white" stroke="#455A64" stroke-width="1.41141" stroke-linecap="round" stroke-linejoin="round"/>
<path d="M94.883 128.211C94.883 128.211 94.1277 130.676 94.8604 132.522C95.593 134.367 98.5614 135.085 98.1687 135.864C97.7759 136.643 95.1021 138.436 95.1021 138.436" stroke="#455A64" stroke-width="1.41141" stroke-linecap="round" stroke-linejoin="round"/>
<path d="M96.8545 141.379C96.8545 141.379 95.7517 142.786 91.3784 141.742" stroke="#455A64" stroke-width="1.41141" stroke-linecap="round" stroke-linejoin="round"/>
<path d="M89.9054 134.079C90.1093 134.699 89.9809 135.289 89.6259 135.41C89.2709 135.531 88.8177 135.123 88.6138 134.503C88.4098 133.883 88.5382 133.293 88.8932 133.172C89.2482 133.051 89.7014 133.459 89.9054 134.079Z" fill="#455A64"/>
<path d="M97.2393 130.433C97.4433 131.053 97.3149 131.643 96.9599 131.764C96.6049 131.885 96.1517 131.476 95.9477 130.856C95.7438 130.236 95.8722 129.646 96.2272 129.525C96.5822 129.404 97.0354 129.813 97.2393 130.433Z" fill="#455A64"/>
<path d="M85.5474 132.318C85.5474 132.318 85.9477 130.359 88.6517 129.475" stroke="#455A64" stroke-width="1.41141" stroke-linecap="round" stroke-linejoin="round"/>
<path d="M94.687 127.225C94.687 127.225 96.6131 125.939 97.814 127.633" stroke="#455A64" stroke-width="1.41141" stroke-linecap="round" stroke-linejoin="round"/>
<path d="M121.123 169.955L114.272 170.107C113.645 170.122 113.147 169.577 113.215 168.957L115.194 151.041C115.254 150.527 115.685 150.126 116.198 150.118L123.049 149.967C123.676 149.952 124.174 150.496 124.106 151.117L122.127 169.033C122.067 169.547 121.636 169.948 121.123 169.955Z" fill="#455A64" stroke="#455A64" stroke-width="1.41141" stroke-linecap="round" stroke-linejoin="round"/>
<path d="M106.742 172.849C106.742 172.849 108.396 166.24 108.645 164.583C108.895 162.927 109.537 161.785 110.549 161.657C111.561 161.528 112.709 161.278 112.709 161.278C112.709 161.278 118.547 158.231 120.579 157.973C122.611 157.716 123.374 157.974 122.739 158.737C122.105 159.501 118.676 161.407 117.535 162.042C116.395 162.677 114.869 163.57 114.869 164.205C114.869 164.84 116.901 164.583 117.407 164.205C117.913 163.827 121.599 161.664 122.996 161.793C124.394 161.921 123.253 163.956 121.856 164.591C120.458 165.226 116.523 168.531 116.523 168.531C116.523 168.531 120.081 167.003 121.221 166.24C122.362 165.476 122.49 164.583 123.381 164.84C124.273 165.098 124.016 167.003 122.747 168.145C121.478 169.287 120.338 171.579 118.812 172.592C117.286 173.606 109.672 178.31 109.672 178.31L105.737 173.348L106.749 172.842L106.742 172.849Z" fill="white" stroke="#455A64" stroke-width="1.41141" stroke-linecap="round" stroke-linejoin="round"/>
<path d="M122.127 168.834C122.127 168.834 119.71 170.967 116.863 171.965" stroke="#455A64" stroke-width="1.41141" stroke-linecap="round" stroke-linejoin="round"/>
<path d="M112.029 161.566C112.029 161.566 110.322 162.565 109.899 163.986" stroke="#455A64" stroke-width="1.41141" stroke-linecap="round" stroke-linejoin="round"/>
<path d="M106.228 171.58L112.323 178.954L106.613 182.387L101.787 175.649L106.228 171.58Z" fill="#0064FF" fill-opacity="0.74902" stroke="#455A64" stroke-width="1.41141" stroke-linecap="round" stroke-linejoin="round"/>
<path d="M66.6116 164.713C66.6116 164.713 61.4075 165.855 61.2791 172.593C61.1507 179.332 70.8036 202.98 72.0726 204.379C73.3415 205.778 76.899 204.757 78.0396 204.122C79.1801 203.487 102.799 188.611 105.087 186.577C105.087 186.577 107.119 184.671 107.248 183.272C107.376 181.873 103.69 177.169 103.69 177.169C103.69 177.169 101.152 174.877 99.2489 174.756C97.3455 174.628 79.1876 189.125 79.1876 189.125C79.1876 189.125 73.2206 171.451 72.3294 170.687" fill="#0064FF" fill-opacity="0.74902"/>
<path d="M66.6116 164.713C66.6116 164.713 61.4075 165.855 61.2791 172.593C61.1507 179.332 70.8036 202.98 72.0726 204.379C73.3415 205.778 76.899 204.757 78.0396 204.122C79.1801 203.487 102.799 188.611 105.087 186.577C105.087 186.577 107.119 184.671 107.248 183.272C107.376 181.873 103.69 177.169 103.69 177.169C103.69 177.169 101.152 174.877 99.2489 174.756C97.3455 174.628 79.1876 189.125 79.1876 189.125C79.1876 189.125 73.2206 171.451 72.3294 170.687" stroke="#455A64" stroke-width="1.41141" stroke-linecap="round" stroke-linejoin="round"/>
<path d="M134.061 240.965L130.994 236.594L117.822 255.364H124.295V268.773H129.605" stroke="#455A64" stroke-width="1.41141" stroke-linecap="round" stroke-linejoin="round"/>
<path d="M132.407 268.77H137.694V255.362H144.168L135.134 242.482" stroke="#455A64" stroke-width="1.41141" stroke-linecap="round" stroke-linejoin="round"/>
<path d="M154.908 174.193L146.69 162.479L138.472 174.193H142.513V182.557H150.867V174.193H154.908Z" stroke="#455A64" stroke-width="1.41141" stroke-linecap="round" stroke-linejoin="round"/>
<path d="M279.445 46.6016L284.067 40.0069H280.026V31.6426H271.672V40.0069H267.631L275.849 51.729L277.858 48.8628" stroke="#455A64" stroke-width="1.41141" stroke-linecap="round" stroke-linejoin="round"/>
<path d="M335.972 220.922L341.222 213.442H337.181V205.07H333.82" stroke="#455A64" stroke-width="1.41141" stroke-linecap="round" stroke-linejoin="round"/>
<path d="M331.214 205.07H328.82V213.442H324.779L333.004 225.157L334.462 223.077" stroke="#455A64" stroke-width="1.41141" stroke-linecap="round" stroke-linejoin="round"/>
<path d="M63.9453 76.6861H66.7778V68.3142H70.8187L62.6009 56.5996L54.3755 68.3142H58.4164V76.6861H61.7851" stroke="#455A64" stroke-width="1.41141" stroke-linecap="round" stroke-linejoin="round"/>
<path d="M134.552 46.8741L121.387 28.1035L108.214 46.8741H114.687V60.2827H128.079V46.8741H134.552Z" fill="#0064FF" fill-opacity="0.74902" stroke="#455A64" stroke-width="1.41141" stroke-linecap="round" stroke-linejoin="round"/>
<path d="M196.843 90.1703L210.008 108.948L223.181 90.1703H216.708V76.7617H203.316V90.1703H196.843Z" fill="#0064FF" fill-opacity="0.74902" stroke="#455A64" stroke-width="1.41141" stroke-linecap="round" stroke-linejoin="round"/>
</g>
<defs>
<clipPath id="clip0_3842_4377">
<rect width="341.562" height="345.796" fill="white" transform="translate(0.0375977 0.478516)"/>
</clipPath>
</defs>
</svg>
