<svg width="29" height="27" viewBox="0 0 29 27" fill="none" xmlns="http://www.w3.org/2000/svg">
<path d="M12.5804 18.9406C13.5643 19.5086 14.6803 19.8077 15.8164 19.8078C16.9524 19.8078 18.0685 19.5088 19.0523 18.9408C20.0362 18.3728 20.8532 17.5558 21.4213 16.572C21.9893 15.5881 22.2884 14.4721 22.2884 13.336C22.2884 12.2 21.9893 11.0839 21.4213 10.1001C20.8532 9.11622 20.0362 8.29923 19.0523 7.73123C18.0685 7.16322 16.9524 6.86421 15.8164 6.86426C14.6803 6.8643 13.5643 7.16339 12.5804 7.73147" stroke="black" stroke-width="1.75077"/>
<path d="M7.72652 13.3356L7.09553 12.83L6.69104 13.3356L7.09553 13.8412L7.72652 13.3356ZM15.0073 14.1446C15.2218 14.1446 15.4276 14.0594 15.5793 13.9076C15.731 13.7559 15.8162 13.5502 15.8162 13.3356C15.8162 13.1211 15.731 12.9153 15.5793 12.7636C15.4276 12.6119 15.2218 12.5266 15.0073 12.5266V14.1446ZM10.3314 8.78516L7.09553 12.83L8.35752 13.8412L11.5934 9.79637L10.3314 8.78516ZM7.09553 13.8412L10.3314 17.8861L11.5934 16.8749L8.35752 12.83L7.09553 13.8412ZM7.72652 14.1446H15.0073V12.5266H7.72652V14.1446Z" fill="black"/>
</svg>
