<svg width="342" height="315" viewBox="0 0 342 315" fill="none" xmlns="http://www.w3.org/2000/svg">
<g clip-path="url(#clip0_3842_1773)">
<path d="M81.3839 299.677C100.446 318.887 145.876 310.546 165.316 297.592C228.43 255.524 339.155 185.36 341.832 87.6383C342.966 46.0994 305.968 25.2233 290.576 19.2125C253.609 4.78167 213.352 1.172 173.693 0.382136C132.27 -0.44722 87.9189 2.10404 51.1495 23.2882C37.2291 31.3053 24.1512 41.4708 15.3643 55.1355C6.44362 69.0055 1.51479 85.3872 0.506978 101.824C-1.11497 128.332 6.63258 154.682 17.9547 178.686C29.2847 202.69 44.1421 224.814 57.842 247.538C66.7863 262.364 65.3219 283.493 81.3839 299.677Z" fill="#0064FF"/>
<path opacity="0.7" d="M81.3839 299.677C100.446 318.887 145.876 310.546 165.316 297.592C228.43 255.524 339.155 185.36 341.832 87.6383C342.966 46.0994 305.968 25.2233 290.576 19.2125C253.609 4.78167 213.352 1.172 173.693 0.382136C132.27 -0.44722 87.9189 2.10404 51.1495 23.2882C37.2291 31.3053 24.1512 41.4708 15.3643 55.1355C6.44362 69.0055 1.51479 85.3872 0.506978 101.824C-1.11497 128.332 6.63258 154.682 17.9547 178.686C29.2847 202.69 44.1421 224.814 57.842 247.538C66.7863 262.364 65.3219 283.493 81.3839 299.677Z" fill="white"/>
<path d="M260.105 255.847H255.058C253.499 255.847 252.043 254.583 251.799 253.027L250.578 245.334" stroke="#263238" stroke-width="1.41141" stroke-miterlimit="10" stroke-linecap="round" stroke-linejoin="round"/>
<path d="M278.174 245.334L279.395 253.027C279.639 254.583 278.584 255.847 277.025 255.847H262.593" stroke="#263238" stroke-width="1.41141" stroke-miterlimit="10" stroke-linecap="round" stroke-linejoin="round"/>
<path d="M268.207 234.822H273.687C275.238 234.822 276.703 236.086 276.947 237.642L277.687 242.302" stroke="#263238" stroke-width="1.41141" stroke-miterlimit="10" stroke-linecap="round" stroke-linejoin="round"/>
<path d="M264.372 234.822H266.12" stroke="#263238" stroke-width="1.41141" stroke-miterlimit="10" stroke-linecap="round" stroke-linejoin="round"/>
<path d="M250.231 243.203L249.35 237.642C249.105 236.086 250.16 234.822 251.719 234.822H260.837" stroke="#263238" stroke-width="1.41141" stroke-miterlimit="10" stroke-linecap="round" stroke-linejoin="round"/>
<path d="M270.592 230.549H268.561C268.207 230.549 267.892 230.77 267.758 231.094L267.081 232.839H255.05C253.814 232.839 252.759 233.645 252.381 234.759" stroke="#263238" stroke-width="1.41141" stroke-miterlimit="10" stroke-linecap="round" stroke-linejoin="round"/>
<path d="M279.843 235.669C279.843 234.176 278.686 232.968 277.229 232.865L276.544 231.104C276.418 230.772 276.096 230.559 275.741 230.559H271.938" stroke="#263238" stroke-width="1.41141" stroke-miterlimit="10" stroke-linecap="round" stroke-linejoin="round"/>
<path d="M277.033 255.849C278.592 255.849 279.852 254.585 279.852 253.021V238.559" stroke="#263238" stroke-width="1.41141" stroke-miterlimit="10" stroke-linecap="round" stroke-linejoin="round"/>
<path d="M209.707 248.141L208.038 237.628C207.793 236.072 208.848 234.809 210.407 234.809H214.029" stroke="#263238" stroke-width="1.41141" stroke-miterlimit="10" stroke-linecap="round" stroke-linejoin="round"/>
<path d="M226.273 255.844H213.746C212.187 255.844 210.73 254.581 210.486 253.025L210.101 250.584" stroke="#263238" stroke-width="1.41141" stroke-miterlimit="10" stroke-linecap="round" stroke-linejoin="round"/>
<path d="M232.296 255.846H228.139" stroke="#263238" stroke-width="1.41141" stroke-miterlimit="10" stroke-linecap="round" stroke-linejoin="round"/>
<path d="M217.194 234.818H232.374C233.933 234.818 235.39 236.082 235.634 237.638L238.083 253.033C238.327 254.589 237.272 255.852 235.713 255.852" stroke="#263238" stroke-width="1.41141" stroke-miterlimit="10" stroke-linecap="round" stroke-linejoin="round"/>
<path d="M220.769 232.844H213.746C212.51 232.844 211.455 233.649 211.077 234.763" stroke="#263238" stroke-width="1.41141" stroke-miterlimit="10" stroke-linecap="round" stroke-linejoin="round"/>
<path d="M238.532 245.331V235.663C238.532 234.17 237.374 232.962 235.918 232.859L235.233 231.098C235.107 230.766 234.784 230.553 234.429 230.553H227.249C226.895 230.553 226.58 230.774 226.446 231.098L225.769 232.843H223.052" stroke="#263238" stroke-width="1.41141" stroke-miterlimit="10" stroke-linecap="round" stroke-linejoin="round"/>
<path d="M235.713 255.844C237.264 255.844 238.532 254.581 238.532 253.017V247.195" stroke="#263238" stroke-width="1.41141" stroke-miterlimit="10" stroke-linecap="round" stroke-linejoin="round"/>
<path d="M218.784 217.787H213.737C212.178 217.787 210.722 216.523 210.478 214.967L209.257 207.273" stroke="#263238" stroke-width="1.41141" stroke-miterlimit="10" stroke-linecap="round" stroke-linejoin="round"/>
<path d="M236.854 207.273L238.075 214.967C238.319 216.523 237.264 217.787 235.705 217.787H221.272" stroke="#263238" stroke-width="1.41141" stroke-miterlimit="10" stroke-linecap="round" stroke-linejoin="round"/>
<path d="M226.887 196.762H232.367C233.926 196.762 235.382 198.026 235.626 199.582L236.366 204.242" stroke="#263238" stroke-width="1.41141" stroke-miterlimit="10" stroke-linecap="round" stroke-linejoin="round"/>
<path d="M223.06 196.762H224.8" stroke="#263238" stroke-width="1.41141" stroke-miterlimit="10" stroke-linecap="round" stroke-linejoin="round"/>
<path d="M208.919 205.136L208.037 199.576C207.793 198.02 208.848 196.756 210.407 196.756H219.525" stroke="#263238" stroke-width="1.41141" stroke-miterlimit="10" stroke-linecap="round" stroke-linejoin="round"/>
<path d="M229.272 192.488H227.241C226.886 192.488 226.571 192.709 226.437 193.033L225.76 194.779H213.745C212.509 194.779 211.454 195.585 211.076 196.698" stroke="#263238" stroke-width="1.41141" stroke-miterlimit="10" stroke-linecap="round" stroke-linejoin="round"/>
<path d="M238.531 197.608C238.531 196.116 237.374 194.907 235.917 194.804L235.232 193.043C235.107 192.711 234.784 192.498 234.429 192.498H230.626" stroke="#263238" stroke-width="1.41141" stroke-miterlimit="10" stroke-linecap="round" stroke-linejoin="round"/>
<path d="M235.712 217.788C237.263 217.788 238.531 216.524 238.531 214.96V200.498" stroke="#263238" stroke-width="1.41141" stroke-miterlimit="10" stroke-linecap="round" stroke-linejoin="round"/>
<path d="M251.019 210.083L249.35 199.57C249.105 198.014 250.16 196.75 251.719 196.75H255.341" stroke="#263238" stroke-width="1.41141" stroke-miterlimit="10" stroke-linecap="round" stroke-linejoin="round"/>
<path d="M267.585 217.786H255.058C253.499 217.786 252.042 216.522 251.798 214.966L251.413 212.525" stroke="#263238" stroke-width="1.41141" stroke-miterlimit="10" stroke-linecap="round" stroke-linejoin="round"/>
<path d="M273.608 217.787H269.458" stroke="#263238" stroke-width="1.41141" stroke-miterlimit="10" stroke-linecap="round" stroke-linejoin="round"/>
<path d="M258.515 196.76H273.695C275.246 196.76 276.71 198.024 276.954 199.58L279.403 214.974C279.647 216.53 278.592 217.794 277.033 217.794" stroke="#263238" stroke-width="1.41141" stroke-miterlimit="10" stroke-linecap="round" stroke-linejoin="round"/>
<path d="M262.081 194.777H255.058C253.822 194.777 252.767 195.583 252.389 196.697" stroke="#263238" stroke-width="1.41141" stroke-miterlimit="10" stroke-linecap="round" stroke-linejoin="round"/>
<path d="M279.844 207.272V197.605C279.844 196.112 278.686 194.903 277.23 194.801L276.545 193.039C276.419 192.707 276.096 192.494 275.741 192.494H268.561C268.207 192.494 267.892 192.715 267.758 193.039L267.081 194.785H264.364" stroke="#263238" stroke-width="1.41141" stroke-miterlimit="10" stroke-linecap="round" stroke-linejoin="round"/>
<path d="M277.033 217.786C278.592 217.786 279.852 216.522 279.852 214.958V209.137" stroke="#263238" stroke-width="1.41141" stroke-miterlimit="10" stroke-linecap="round" stroke-linejoin="round"/>
<path d="M47.1021 160.89H25.135C23.576 160.89 22.1194 159.626 21.8754 158.07L19.4267 142.675C19.1826 141.119 20.2377 139.855 21.7966 139.855H43.7716C45.3227 139.855 46.7872 141.119 47.0313 142.675L49.4799 158.07C49.7161 159.626 48.6611 160.89 47.1021 160.89Z" stroke="#263238" stroke-width="1.41141" stroke-miterlimit="10" stroke-linecap="round" stroke-linejoin="round"/>
<path d="M47.1021 160.891C48.6532 160.891 49.9208 159.627 49.9208 158.063V140.71C49.9208 139.217 48.7634 138.009 47.3068 137.906L46.6218 136.145C46.4958 135.813 46.173 135.6 45.8187 135.6H38.638C38.2837 135.6 37.9688 135.821 37.8349 136.145L37.1578 137.89H25.1349C23.8988 137.89 22.8437 138.696 22.4658 139.81" stroke="#263238" stroke-width="1.41141" stroke-miterlimit="10" stroke-linecap="round" stroke-linejoin="round"/>
<path d="M210.045 221.865C212.359 221.865 214.234 219.984 214.234 217.663C214.234 215.342 212.359 213.461 210.045 213.461C207.732 213.461 205.856 215.342 205.856 217.663C205.856 219.984 207.732 221.865 210.045 221.865Z" fill="white" stroke="#263238" stroke-width="1.41141" stroke-miterlimit="10" stroke-linecap="round" stroke-linejoin="round"/>
<path d="M209.258 216.08C209.739 216.08 209.849 215.843 209.951 215.574H210.376V219.571H209.746V216.522H209.266V216.08H209.258Z" fill="#263238"/>
<path d="M258.515 217.663C258.515 219.985 256.641 221.865 254.326 221.865C252.011 221.865 250.137 219.985 250.137 217.663C250.137 215.341 252.011 213.461 254.326 213.461C256.633 213.461 258.515 215.341 258.515 217.663Z" fill="white" stroke="#263238" stroke-width="1.41141" stroke-miterlimit="10" stroke-linecap="round" stroke-linejoin="round"/>
<path d="M254.341 216.106C254.144 216.106 254.018 216.216 254.018 216.501V216.927H253.428V216.54C253.428 215.9 253.751 215.537 254.365 215.537C254.979 215.537 255.302 215.9 255.302 216.54C255.302 217.069 255.105 217.496 254.53 218.12C254.16 218.523 254.058 218.712 254.058 218.918C254.058 218.949 254.058 218.973 254.065 219.005H255.247V219.573H253.436V219.084C253.436 218.641 253.593 218.302 254.065 217.812C254.546 217.306 254.68 216.99 254.68 216.564C254.664 216.201 254.538 216.106 254.341 216.106Z" fill="#263238"/>
<path d="M214.226 255.849C214.226 258.171 212.352 260.051 210.037 260.051C207.723 260.051 205.849 258.171 205.849 255.849C205.849 253.526 207.723 251.646 210.037 251.646C212.352 251.646 214.226 253.526 214.226 255.849Z" fill="white" stroke="#263238" stroke-width="1.41141" stroke-miterlimit="10" stroke-linecap="round" stroke-linejoin="round"/>
<path d="M210.352 254.744C210.352 254.38 210.226 254.285 210.03 254.285C209.833 254.285 209.707 254.396 209.707 254.68V254.941H209.116V254.728C209.116 254.088 209.431 253.725 210.053 253.725C210.667 253.725 210.99 254.088 210.99 254.728V254.83C210.99 255.257 210.856 255.525 210.549 255.644V255.652C210.864 255.786 210.99 256.078 210.99 256.489V256.805C210.99 257.445 210.667 257.808 210.053 257.808C209.439 257.808 209.116 257.445 209.116 256.805V256.473H209.707V256.845C209.707 257.129 209.833 257.239 210.03 257.239C210.226 257.239 210.352 257.145 210.352 256.789V256.473C210.352 256.102 210.226 255.968 209.943 255.968H209.73V255.399H209.974C210.211 255.399 210.352 255.296 210.352 254.973V254.744Z" fill="#263238"/>
<path d="M258.514 255.849C258.514 258.171 256.64 260.051 254.325 260.051C252.011 260.051 250.137 258.171 250.137 255.849C250.137 253.526 252.011 251.646 254.325 251.646C256.632 251.646 258.514 253.526 258.514 255.849Z" fill="white" stroke="#263238" stroke-width="1.41141" stroke-miterlimit="10" stroke-linecap="round" stroke-linejoin="round"/>
<path d="M253.278 256.465L254.42 253.764H255.105V256.465H255.396V257.034H255.097V257.76H254.467V257.034H253.271V256.465H253.278ZM254.475 256.465V254.988H254.467L253.861 256.465H254.475Z" fill="#263238"/>
<path d="M284.82 131.637H299.937" stroke="#263238" stroke-width="1.41141" stroke-miterlimit="10" stroke-linecap="round" stroke-linejoin="round"/>
<path d="M278.796 141.865V131.637H282.332" stroke="#263238" stroke-width="1.41141" stroke-miterlimit="10" stroke-linecap="round" stroke-linejoin="round"/>
<path d="M281.812 165.278H278.796V143.715" stroke="#263238" stroke-width="1.41141" stroke-miterlimit="10" stroke-linecap="round" stroke-linejoin="round"/>
<path d="M287.316 165.279H283.521" stroke="#263238" stroke-width="1.41141" stroke-miterlimit="10" stroke-linecap="round" stroke-linejoin="round"/>
<path d="M307.283 164.734V165.279H291.26" stroke="#263238" stroke-width="1.41141" stroke-miterlimit="10" stroke-linecap="round" stroke-linejoin="round"/>
<path d="M307.283 139.018V162.698" stroke="#263238" stroke-width="1.41141" stroke-miterlimit="10" stroke-linecap="round" stroke-linejoin="round"/>
<path d="M312.007 134.278V160.541H283.521V126.9H304.661L309.598 131.861L312.007 134.278Z" fill="white" stroke="#263238" stroke-width="1.41141" stroke-miterlimit="10" stroke-linecap="round" stroke-linejoin="round"/>
<path d="M312.007 134.278H304.661V126.9L309.598 131.861L312.007 134.278Z" fill="white" stroke="#263238" stroke-width="1.41141" stroke-miterlimit="10" stroke-linecap="round" stroke-linejoin="round"/>
<path d="M297.764 140.119V147.307" stroke="#263238" stroke-width="1.41141" stroke-miterlimit="10" stroke-linecap="round" stroke-linejoin="round"/>
<path d="M301.347 143.713H294.182" stroke="#263238" stroke-width="1.41141" stroke-miterlimit="10" stroke-linecap="round" stroke-linejoin="round"/>
<path d="M109.594 70.5794V113.082H63.4946V58.6445H97.6972L105.697 66.6695L109.594 70.5794Z" fill="#0064FF" stroke="#263238" stroke-width="1.41141" stroke-miterlimit="10" stroke-linecap="round" stroke-linejoin="round"/>
<path d="M73.7456 66.8262H103.641" stroke="#263238" stroke-width="1.41141" stroke-miterlimit="10" stroke-linecap="round" stroke-linejoin="round"/>
<path d="M69.5337 72.2754H103.642" stroke="#263238" stroke-width="1.41141" stroke-miterlimit="10" stroke-linecap="round" stroke-linejoin="round"/>
<path d="M69.5337 77.7188H103.642" stroke="#263238" stroke-width="1.41141" stroke-miterlimit="10" stroke-linecap="round" stroke-linejoin="round"/>
<path d="M69.5337 83.168H103.642" stroke="#263238" stroke-width="1.41141" stroke-miterlimit="10" stroke-linecap="round" stroke-linejoin="round"/>
<path d="M69.5337 88.6094H103.642" stroke="#263238" stroke-width="1.41141" stroke-miterlimit="10" stroke-linecap="round" stroke-linejoin="round"/>
<path d="M69.5337 94.0527H103.642" stroke="#263238" stroke-width="1.41141" stroke-miterlimit="10" stroke-linecap="round" stroke-linejoin="round"/>
<path d="M69.5337 99.5039H103.642" stroke="#263238" stroke-width="1.41141" stroke-miterlimit="10" stroke-linecap="round" stroke-linejoin="round"/>
<path d="M69.5337 104.945H99.4374" stroke="#263238" stroke-width="1.41141" stroke-miterlimit="10" stroke-linecap="round" stroke-linejoin="round"/>
<path d="M109.594 70.5794H97.6973V58.6445L105.697 66.6695L109.594 70.5794Z" fill="#0064FF" stroke="#263238" stroke-width="1.41141" stroke-miterlimit="10" stroke-linecap="round" stroke-linejoin="round"/>
<path d="M260.593 57.0735V99.576H214.493V45.1387H248.696L256.695 53.1637L260.593 57.0735Z" fill="#0064FF" stroke="#263238" stroke-width="1.41141" stroke-miterlimit="10" stroke-linecap="round" stroke-linejoin="round"/>
<path d="M224.744 53.332H254.648" stroke="#263238" stroke-width="1.41141" stroke-miterlimit="10" stroke-linecap="round" stroke-linejoin="round"/>
<path d="M220.54 58.7715H254.648" stroke="#263238" stroke-width="1.41141" stroke-miterlimit="10" stroke-linecap="round" stroke-linejoin="round"/>
<path d="M220.54 64.2168H254.648" stroke="#263238" stroke-width="1.41141" stroke-miterlimit="10" stroke-linecap="round" stroke-linejoin="round"/>
<path d="M220.54 69.6641H254.648" stroke="#263238" stroke-width="1.41141" stroke-miterlimit="10" stroke-linecap="round" stroke-linejoin="round"/>
<path d="M220.54 75.1113H254.648" stroke="#263238" stroke-width="1.41141" stroke-miterlimit="10" stroke-linecap="round" stroke-linejoin="round"/>
<path d="M220.54 80.5586H254.648" stroke="#263238" stroke-width="1.41141" stroke-miterlimit="10" stroke-linecap="round" stroke-linejoin="round"/>
<path d="M220.54 86.002H254.648" stroke="#263238" stroke-width="1.41141" stroke-miterlimit="10" stroke-linecap="round" stroke-linejoin="round"/>
<path d="M220.54 91.4414H250.436" stroke="#263238" stroke-width="1.41141" stroke-miterlimit="10" stroke-linecap="round" stroke-linejoin="round"/>
<path d="M260.593 57.0735H248.696V45.1387L256.696 53.1637L260.593 57.0735Z" fill="#0064FF" stroke="#263238" stroke-width="1.41141" stroke-miterlimit="10" stroke-linecap="round" stroke-linejoin="round"/>
<path d="M265.576 101.678V106.417H260.852" stroke="#263238" stroke-width="1.41141" stroke-linecap="round" stroke-linejoin="round"/>
<path d="M251.529 106.416H218.894" stroke="#263238" stroke-width="1.41141" stroke-linecap="round" stroke-linejoin="round" stroke-dasharray="16.71 16.71"/>
<path d="M214.233 106.417H209.509V101.678" stroke="#263238" stroke-width="1.41141" stroke-linecap="round" stroke-linejoin="round"/>
<path d="M209.509 93.3091V47.2363" stroke="#263238" stroke-width="1.41141" stroke-linecap="round" stroke-linejoin="round" stroke-dasharray="14.97 14.97"/>
<path d="M209.509 43.0478V38.3086H214.233" stroke="#263238" stroke-width="1.41141" stroke-linecap="round" stroke-linejoin="round"/>
<path d="M223.555 38.3086H256.191" stroke="#263238" stroke-width="1.41141" stroke-linecap="round" stroke-linejoin="round" stroke-dasharray="16.71 16.71"/>
<path d="M260.852 38.3086H265.576V43.0478" stroke="#263238" stroke-width="1.41141" stroke-linecap="round" stroke-linejoin="round"/>
<path d="M265.576 51.4219V97.4946" stroke="#263238" stroke-width="1.41141" stroke-linecap="round" stroke-linejoin="round" stroke-dasharray="14.97 14.97"/>
<path d="M115.224 87.1463L199.18 73.9082" stroke="#263238" stroke-width="1.41141" stroke-miterlimit="10" stroke-linecap="round" stroke-linejoin="round" stroke-dasharray="16.94 16.94"/>
<path d="M200.848 73.5126L198.281 72.5332L198.888 75.4478L200.848 73.5126Z" fill="#263238"/>
<path d="M116.082 87.1442C116.082 87.6181 115.696 88.0051 115.224 88.0051C114.752 88.0051 114.366 87.6181 114.366 87.1442C114.366 86.6702 114.752 86.2832 115.224 86.2832C115.696 86.2832 116.082 86.6702 116.082 87.1442Z" fill="#263238"/>
<path d="M268.674 45.3008C271.389 42.5771 271.389 38.1612 268.674 35.4375C265.959 32.7138 261.557 32.7138 258.842 35.4375C256.127 38.1612 256.127 42.5771 258.842 45.3008C261.557 48.0245 265.959 48.0245 268.674 45.3008Z" fill="white" stroke="#263238" stroke-width="1.41141" stroke-miterlimit="10" stroke-linecap="round" stroke-linejoin="round"/>
<path d="M263.758 36.7754V43.9631" stroke="#263238" stroke-width="1.41141" stroke-miterlimit="10" stroke-linecap="round" stroke-linejoin="round"/>
<path d="M267.341 40.3691H260.176" stroke="#263238" stroke-width="1.41141" stroke-miterlimit="10" stroke-linecap="round" stroke-linejoin="round"/>
<path d="M147.404 154.389C146.467 154.389 144.656 151.83 143.601 150.203C143.569 153.56 143.64 162.162 145.089 161.609C146.892 160.922 148.774 154.389 147.404 154.389Z" fill="white" stroke="#263238" stroke-width="1.41141" stroke-miterlimit="10" stroke-linecap="round" stroke-linejoin="round"/>
<path d="M143.341 177.966C142.837 178.582 142.136 179.111 141.27 179.553C138.971 180.738 135.506 181.299 131.53 181.149C115.5 180.533 91.0919 168.306 100.674 138.093C106.548 119.547 133.286 125.724 140.112 132.786C142.506 135.258 144.498 140.455 145.774 146.553C146.238 148.78 145.309 151.126 145.569 153.504C145.797 155.652 147.238 157.824 147.277 159.965C147.411 167.429 146.262 174.388 143.341 177.966Z" fill="white" stroke="#263238" stroke-width="1.41141" stroke-miterlimit="10" stroke-linecap="round" stroke-linejoin="round"/>
<path d="M141.27 179.554C138.971 180.739 135.506 181.299 131.53 181.149C132.625 179.262 134.239 177.129 134.239 177.129C134.239 177.129 139.53 177.911 141.27 179.554Z" fill="#263238"/>
<path d="M136.397 177.003C136.397 177.003 134.94 195.296 137.341 199.419C139.743 203.542 116.602 207.673 107.351 199.419C107.351 199.419 112.634 185.802 112.122 172.65" fill="white"/>
<path d="M136.397 177.003C136.397 177.003 134.94 195.296 137.341 199.419C139.743 203.542 116.602 207.673 107.351 199.419C107.351 199.419 112.634 185.802 112.122 172.65" stroke="#263238" stroke-width="1.41141" stroke-miterlimit="10" stroke-linecap="round" stroke-linejoin="round"/>
<path d="M140.113 142.083C140.113 142.083 147.317 139.026 144.884 128.877C141.459 114.58 133.743 123.411 131.176 121.278C127.184 117.976 119.523 114.951 113.35 120.18C107.178 125.409 103.414 125.986 95.5248 133.434C87.6434 140.882 87.6434 157.58 95.5248 164.191C103.406 170.803 105.461 177.745 113.004 179.941C120.547 182.145 131.79 179.183 134.05 173.441C136.31 167.698 136.31 163.749 136.31 163.749C136.31 163.749 142.853 152.154 140.113 142.083Z" fill="#263238"/>
<path d="M139.569 159.879C139.569 159.879 137.939 152.747 136.916 152.226C135.884 151.712 132.719 157.865 132.806 160.33C132.893 162.794 136.231 167.178 137.861 168.212C139.491 169.247 140.057 166.325 140.12 165.977" fill="white"/>
<path d="M139.569 159.879C139.569 159.879 137.939 152.747 136.916 152.226C135.884 151.712 132.719 157.865 132.806 160.33C132.893 162.794 136.231 167.178 137.861 168.212C139.491 169.247 140.057 166.325 140.12 165.977" stroke="#263238" stroke-width="1.41141" stroke-miterlimit="10" stroke-linecap="round" stroke-linejoin="round"/>
<path d="M137.254 156.184C137.254 156.184 135.971 160.401 137.853 163.837" stroke="#263238" stroke-width="1.41141" stroke-miterlimit="10" stroke-linecap="round" stroke-linejoin="round"/>
<path opacity="0.2" d="M139.065 133.945C138.868 136.196 138.294 138.914 136.396 140.367" stroke="white" stroke-width="1.41141" stroke-miterlimit="10" stroke-linecap="round" stroke-linejoin="round"/>
<path opacity="0.2" d="M126.452 125.055C128.98 123.91 132.468 122.528 135.263 123.262C138.711 124.171 139.113 129.092 139.144 132.038" stroke="white" stroke-width="1.41141" stroke-miterlimit="10" stroke-linecap="round" stroke-linejoin="round"/>
<path opacity="0.2" d="M131.798 146.6C131.412 147.848 130.908 149.056 130.286 150.209" stroke="white" stroke-width="1.41141" stroke-miterlimit="10" stroke-linecap="round" stroke-linejoin="round"/>
<path opacity="0.2" d="M119.562 130.888C122.68 129.996 126.594 129.387 129.31 131.623C132.845 134.529 133.089 140.698 132.255 144.813" stroke="white" stroke-width="1.41141" stroke-miterlimit="10" stroke-linecap="round" stroke-linejoin="round"/>
<path opacity="0.2" d="M122.696 142.398C125.404 147.398 125.365 157.588 119.082 160.004" stroke="white" stroke-width="1.41141" stroke-miterlimit="10" stroke-linecap="round" stroke-linejoin="round"/>
<path opacity="0.2" d="M113.783 136.718C116.46 135.091 120.326 138.985 121.72 140.865" stroke="white" stroke-width="1.41141" stroke-miterlimit="10" stroke-linecap="round" stroke-linejoin="round"/>
<path opacity="0.2" d="M120.806 121.387C119.775 120.178 118.271 119.507 116.696 119.949" stroke="white" stroke-width="1.41141" stroke-miterlimit="10" stroke-linecap="round" stroke-linejoin="round"/>
<path opacity="0.2" d="M123.106 126.023C122.807 124.917 122.373 123.835 121.814 122.84" stroke="white" stroke-width="1.41141" stroke-miterlimit="10" stroke-linecap="round" stroke-linejoin="round"/>
<path opacity="0.2" d="M115.24 131.74C115.24 131.74 115.657 123.596 109.736 125.832" stroke="white" stroke-width="1.41141" stroke-miterlimit="10" stroke-linecap="round" stroke-linejoin="round"/>
<path opacity="0.2" d="M103.13 131.803C101.934 131.59 100.729 131.89 99.666 132.451" stroke="white" stroke-width="1.41141" stroke-miterlimit="10" stroke-linecap="round" stroke-linejoin="round"/>
<path opacity="0.2" d="M108.075 137.139C107.429 135.251 106.264 133.316 104.5 132.305" stroke="white" stroke-width="1.41141" stroke-miterlimit="10" stroke-linecap="round" stroke-linejoin="round"/>
<path opacity="0.2" d="M103.406 164.625C104.28 165.249 105.217 165.786 106.201 166.197" stroke="white" stroke-width="1.41141" stroke-miterlimit="10" stroke-linecap="round" stroke-linejoin="round"/>
<path opacity="0.2" d="M99.9416 145.146C98.3669 150.202 97.8079 159.38 102.005 163.456" stroke="white" stroke-width="1.41141" stroke-miterlimit="10" stroke-linecap="round" stroke-linejoin="round"/>
<path opacity="0.2" d="M108.075 140.146C104.682 138.606 101.879 140.462 100.493 143.653" stroke="white" stroke-width="1.41141" stroke-miterlimit="10" stroke-linecap="round" stroke-linejoin="round"/>
<path d="M105.264 193.061L109.122 181.893C109.122 181.893 136.939 178.22 143.6 187.477C150.253 196.734 105.264 193.061 105.264 193.061Z" fill="#0064FF" stroke="#263238" stroke-width="1.41141" stroke-miterlimit="10" stroke-linecap="round" stroke-linejoin="round"/>
<path d="M55.4249 177.006C55.4249 177.006 52.307 171.84 52.5354 170.513C52.7558 169.194 51.9842 163.026 52.5275 160.04C53.0944 156.912 55.4328 157.583 55.4328 157.583C55.4328 157.583 56.3855 151.565 58.8736 152.007C58.8736 152.007 59.2121 144.63 60.1097 143.066C60.9994 141.502 61.4482 140.538 61.4482 140.538C61.4482 140.538 63.2276 139.717 63.2276 142.394C63.2276 145.072 63.2276 149.985 63.2276 149.985L65.2275 141.944L68.125 137.939C68.125 137.939 70.1248 140.048 68.4556 143.058C67.2195 145.285 68.4163 159.131 68.4163 159.131C71.235 158.46 72.1247 155.782 72.1247 155.782C72.1247 155.782 73.1404 152.947 75.7465 152.244C78.3527 151.541 75.9197 154.669 74.967 159.131C74.0143 163.594 67.9281 173.42 64.7944 175.434" fill="white"/>
<path d="M55.4249 177.006C55.4249 177.006 52.307 171.84 52.5354 170.513C52.7558 169.194 51.9842 163.026 52.5275 160.04C53.0944 156.912 55.4328 157.583 55.4328 157.583C55.4328 157.583 56.3855 151.565 58.8736 152.007C58.8736 152.007 59.2121 144.63 60.1097 143.066C60.9994 141.502 61.4482 140.538 61.4482 140.538C61.4482 140.538 63.2276 139.717 63.2276 142.394C63.2276 145.072 63.2276 149.985 63.2276 149.985L65.2275 141.944L68.125 137.939C68.125 137.939 70.1248 140.048 68.4556 143.058C67.2195 145.285 68.4163 159.131 68.4163 159.131C71.235 158.46 72.1247 155.782 72.1247 155.782C72.1247 155.782 73.1404 152.947 75.7465 152.244C78.3527 151.541 75.9197 154.669 74.967 159.131C74.0143 163.594 67.9281 173.42 64.7944 175.434" stroke="#263238" stroke-width="1.41141" stroke-miterlimit="10" stroke-linecap="round" stroke-linejoin="round"/>
<path d="M66.5032 171.746L58.7636 216.342L82.5495 202.393L77.7073 236.847C77.7073 236.847 47.0477 251.04 40.1584 252.557C33.2691 254.074 31.5448 234.374 32.5762 229.193C33.6076 224.011 52.6222 184.692 55 173.594" fill="white"/>
<path d="M66.5032 171.746L58.7636 216.342L82.5495 202.393L77.7073 236.847C77.7073 236.847 47.0477 251.04 40.1584 252.557C33.2691 254.074 31.5448 234.374 32.5762 229.193C33.6076 224.011 52.6222 184.692 55 173.594" stroke="#263238" stroke-width="1.41141" stroke-miterlimit="10" stroke-linecap="round" stroke-linejoin="round"/>
<path d="M40.6226 225.394C40.6226 225.394 45.6774 221.018 53.9446 218.254" stroke="#263238" stroke-width="1.41141" stroke-miterlimit="10" stroke-linecap="round" stroke-linejoin="round"/>
<path d="M91.1006 193.785L90.077 225.917L89.6204 240.253L66.3226 246.121L60.1104 247.685C47.2844 239.005 49.1741 216.399 49.1741 216.399L55.4256 211.889L59.1734 212.639C59.1734 212.639 82.7468 195.136 91.1006 193.785Z" fill="#0064FF"/>
<mask id="mask0_3842_1773" style="mask-type:luminance" maskUnits="userSpaceOnUse" x="49" y="193" width="43" height="55">
<path d="M91.1006 193.791L90.077 225.923L89.6204 240.259L66.3226 246.127L60.1104 247.691C47.2844 239.011 49.1741 216.405 49.1741 216.405L55.4256 211.895L59.1734 212.645C59.1734 212.645 82.7468 195.142 91.1006 193.791Z" fill="white"/>
</mask>
<g mask="url(#mask0_3842_1773)">
<path opacity="0.2" d="M90.0772 225.921L89.6205 240.257L66.3227 246.126C64.2678 239.91 68.5195 241.616 68.5195 241.616C66.2283 238.235 66.3385 234.531 66.3385 234.531L70.6296 236.513C68.0392 229.95 72.409 222.572 72.409 222.572L73.1727 229.649C72.409 222.572 80.7707 210.574 80.7707 210.574C80.7707 210.574 86.9356 215.44 90.0772 225.921Z" fill="black" fill-opacity="0.7"/>
</g>
<path d="M91.1006 193.785L90.077 225.917L89.6204 240.253L66.3226 246.121L60.1104 247.685C47.2844 239.005 49.1741 216.399 49.1741 216.399L55.4256 211.889L59.1734 212.639C59.1734 212.639 82.7468 195.136 91.1006 193.785Z" stroke="#263238" stroke-width="1.41141" stroke-miterlimit="10" stroke-linecap="round" stroke-linejoin="round"/>
<path d="M71.6287 226.143C71.6287 226.143 71.542 232.77 74.6993 238.235" stroke="#263238" stroke-width="1.41141" stroke-miterlimit="10" stroke-linecap="round" stroke-linejoin="round"/>
<path d="M66.3379 236.506C66.3379 236.506 71.3455 242.659 74.9122 243.954" stroke="#263238" stroke-width="1.41141" stroke-miterlimit="10" stroke-linecap="round" stroke-linejoin="round"/>
<path d="M59.1728 212.637C59.1728 212.637 55.0628 221.207 57.4249 229.635" stroke="#263238" stroke-width="1.41141" stroke-miterlimit="10" stroke-linecap="round" stroke-linejoin="round"/>
<path d="M79.7071 204.186C76.1719 214.628 74.983 233.727 74.7468 251.704C74.4476 274.034 75.6286 294.61 75.6286 294.61C94.1944 326.26 136.066 313.148 151.183 307.082C151.238 307.066 151.262 307.058 151.262 307.058C154.726 305.66 156.765 304.649 156.765 304.649C161.671 284.278 164.773 266.285 166.67 250.82V250.812C169.639 226.808 169.709 208.894 169.182 197.67C168.765 188.586 167.946 183.887 167.946 183.887C167.946 183.887 154.679 184.053 139.003 185.166H138.995C130.507 185.767 121.319 186.635 113.146 187.907C107.076 188.847 102.052 190.056 97.9422 191.319C95.281 192.141 90.919 193.618 88.9743 194.345C87.8405 194.771 85.7461 195.94 85.7461 195.94" fill="#0064FF"/>
<path opacity="0.2" d="M139.003 185.164C130.421 188.861 117.177 193.426 112.335 193.276C107.044 193.118 100.706 192.731 97.9502 191.317C102.06 190.053 107.083 188.845 113.154 187.905C121.327 186.633 130.515 185.764 139.003 185.164Z" fill="black" fill-opacity="0.7"/>
<path opacity="0.2" d="M151.191 307.082C136.074 313.148 94.2022 326.26 75.6365 294.61C75.6365 294.61 74.4554 274.034 74.7546 251.705C80.7228 264.026 100.391 272.004 100.391 272.004C100.391 272.004 98.2177 247.858 100.391 242.029C102.556 236.192 108.729 202.314 108.729 202.314C108.729 202.314 111.091 209.115 107.351 227.653C103.619 246.191 105.272 272.004 105.272 272.004C114.437 274.002 136.404 272.004 136.404 272.004C120.594 294.484 85.7539 298.275 85.7539 298.275C109.847 318.582 149.23 307.643 151.191 307.082Z" fill="black" fill-opacity="0.7"/>
<path opacity="0.2" d="M166.678 250.809C166.017 245.565 165.395 241.607 165.395 241.607C163.844 254.064 147.428 258.06 151.27 253.85C155.112 249.632 161.962 236.505 161.962 236.505C158.435 226.189 164.19 195.938 164.19 195.938C164.19 195.938 166.19 196.483 169.19 197.667C169.718 208.891 169.647 226.805 166.678 250.809Z" fill="black" fill-opacity="0.7"/>
<path d="M156.773 304.649C161.678 284.278 164.781 266.285 166.678 250.82V250.812C169.646 226.808 169.717 208.894 169.19 197.67C168.772 188.586 167.954 183.887 167.954 183.887C167.954 183.887 154.687 184.053 139.01 185.166H139.003C130.515 185.767 121.327 186.635 113.154 187.907C107.083 188.847 102.06 190.056 97.95 191.319C95.2887 192.141 90.9268 193.618 88.9821 194.345C87.8483 194.771 85.7539 195.94 85.7539 195.94" stroke="#263238" stroke-width="1.41141" stroke-miterlimit="10" stroke-linecap="round" stroke-linejoin="round"/>
<path d="M79.7071 204.188C76.1719 214.629 74.983 233.728 74.7468 251.706C74.4476 274.035 75.6286 294.611 75.6286 294.611" stroke="#263238" stroke-width="1.41141" stroke-miterlimit="10" stroke-linecap="round" stroke-linejoin="round"/>
<path d="M140.94 185.031C140.94 185.031 112.115 196.563 105.265 195.916" stroke="#263238" stroke-width="1.41141" stroke-miterlimit="10" stroke-linecap="round" stroke-linejoin="round"/>
<path d="M108.965 200.648C108.965 200.648 100.604 257.44 103.407 276.815C103.407 276.815 101.084 295.424 98.5093 307.059" stroke="#263238" stroke-width="1.41141" stroke-miterlimit="10" stroke-linecap="round" stroke-linejoin="round"/>
<path d="M82.5493 267.131C82.5493 267.131 81.2895 275.883 103.406 276.815C125.523 277.755 137.861 268.687 137.861 268.687" stroke="#263238" stroke-width="1.41141" stroke-miterlimit="10" stroke-linecap="round" stroke-linejoin="round"/>
<path d="M230.989 132.769C230.422 128.109 230.013 115.993 230.989 115.219C231.965 114.445 237.107 106.404 237.107 106.404C238.217 106.491 237.878 108.252 237.878 108.252C237.878 108.252 244.563 96.6806 246.106 94.3426C247.649 92.0046 248.673 93.5528 248.421 96.1356C248.421 96.1356 250.255 92.3601 251.074 93.5133C252.704 95.8039 248.933 107.225 248.933 107.225C248.933 107.225 252.334 106.965 252.177 110.835C252.177 110.835 254.247 110.187 254.421 113.568C254.531 115.811 253.46 122.399 251.161 121.024C251.161 121.024 249.712 130.416 240.973 134.934" fill="white"/>
<path d="M230.989 132.769C230.422 128.109 230.013 115.993 230.989 115.219C231.965 114.445 237.107 106.404 237.107 106.404C238.217 106.491 237.878 108.252 237.878 108.252C237.878 108.252 244.563 96.6806 246.106 94.3426C247.649 92.0046 248.673 93.5528 248.421 96.1356C248.421 96.1356 250.255 92.3601 251.074 93.5133C252.704 95.8039 248.933 107.225 248.933 107.225C248.933 107.225 252.334 106.965 252.177 110.835C252.177 110.835 254.247 110.187 254.421 113.568C254.531 115.811 253.46 122.399 251.161 121.024C251.161 121.024 249.712 130.416 240.973 134.934" stroke="#263238" stroke-width="1.41141" stroke-miterlimit="10" stroke-linecap="round" stroke-linejoin="round"/>
<path d="M237.879 108.254C237.879 108.254 235.737 112.077 234.28 114.747C232.824 117.408 232.824 118.87 232.824 118.87" stroke="#263238" stroke-width="1.41141" stroke-miterlimit="10" stroke-linecap="round" stroke-linejoin="round"/>
<path d="M248.421 96.1348C248.421 96.1348 243.445 106.711 242.414 108.259" stroke="#263238" stroke-width="1.41141" stroke-miterlimit="10" stroke-linecap="round" stroke-linejoin="round"/>
<path d="M248.933 107.223C248.933 107.223 246.964 109.197 246.705 109.497" stroke="#263238" stroke-width="1.41141" stroke-miterlimit="10" stroke-linecap="round" stroke-linejoin="round"/>
<path d="M252.177 110.834C252.177 110.834 251.421 111.482 250.129 112.508" stroke="#263238" stroke-width="1.41141" stroke-miterlimit="10" stroke-linecap="round" stroke-linejoin="round"/>
<path d="M251.153 121.025C251.153 121.025 251.586 118.015 251.586 117.755C251.586 117.494 252.956 116.554 253.389 115.18" stroke="#263238" stroke-width="1.41141" stroke-miterlimit="10" stroke-linecap="round" stroke-linejoin="round"/>
<path d="M231.438 128.842C231.438 128.842 230.06 133.297 220.809 150.215C211.557 167.126 207.794 176.494 207.794 176.494L190.181 181.336L194.732 209.621C194.732 209.621 225.068 193.563 226.092 191.383C227.123 189.203 234.572 166.321 237.146 155.934C239.721 145.547 242.855 132.886 242.855 132.886" fill="white"/>
<path d="M231.438 128.842C231.438 128.842 230.06 133.297 220.809 150.215C211.557 167.126 207.794 176.494 207.794 176.494L190.181 181.336L194.732 209.621C194.732 209.621 225.068 193.563 226.092 191.383C227.123 189.203 234.572 166.321 237.146 155.934C239.721 145.547 242.855 132.886 242.855 132.886" stroke="#263238" stroke-width="1.41141" stroke-miterlimit="10" stroke-linecap="round" stroke-linejoin="round"/>
<path d="M205.266 197.93C203.683 204.32 200.762 207.772 198.282 209.612C195.92 211.381 193.959 211.689 193.959 211.689L167.953 226.136C167.953 226.136 162.434 213.561 163.812 198.87C164.276 193.981 165.505 188.854 167.953 183.886L192.928 179.455L195.243 177.133H199.353C199.353 177.133 208.352 185.458 205.266 197.93Z" fill="#0064FF"/>
<mask id="mask1_3842_1773" style="mask-type:luminance" maskUnits="userSpaceOnUse" x="163" y="177" width="43" height="50">
<path d="M205.266 197.926C203.683 204.316 200.762 207.768 198.282 209.608C195.92 211.377 193.959 211.685 193.959 211.685L167.953 226.132C167.953 226.132 162.434 213.557 163.812 198.866C164.276 193.977 165.505 188.85 167.953 183.882L192.928 179.451L195.243 177.129H199.353C199.353 177.129 208.352 185.454 205.266 197.926Z" fill="white"/>
</mask>
<g mask="url(#mask1_3842_1773)">
<path opacity="0.2" d="M198.282 209.609C195.92 211.379 193.959 211.687 193.959 211.687L167.953 226.133C167.953 226.133 162.434 213.559 163.812 198.867C168.717 199.42 167.095 215.999 168.819 216.189C170.685 216.402 178.787 204.183 180.448 204.183C183.102 204.183 180.535 215.818 180.456 216.189C180.819 216.063 192.408 211.71 195.747 205.36C197.416 202.169 198.621 204.894 198.282 209.609Z" fill="black" fill-opacity="0.7"/>
</g>
<path d="M205.266 197.93C203.683 204.32 200.762 207.772 198.282 209.612C195.92 211.381 193.959 211.689 193.959 211.689L167.953 226.136C167.953 226.136 162.434 213.561 163.812 198.87C164.276 193.981 165.505 188.854 167.953 183.886L192.928 179.455L195.243 177.133H199.353C199.353 177.133 208.352 185.458 205.266 197.93Z" stroke="#263238" stroke-width="1.41141" stroke-miterlimit="10" stroke-linecap="round" stroke-linejoin="round"/>
<path d="M192.928 179.465C192.928 179.465 199.652 185.792 198.408 196.463" stroke="#263238" stroke-width="1.41141" stroke-miterlimit="10" stroke-linecap="round" stroke-linejoin="round"/>
<path d="M177.858 209.613C177.858 209.613 170.252 219.668 167.953 226.145C167.953 226.145 161.655 246.903 152.931 252.645" stroke="#263238" stroke-width="1.41141" stroke-miterlimit="10" stroke-linecap="round" stroke-linejoin="round"/>
<path d="M207.793 176.488C207.793 176.488 211.801 175.319 213.982 177.009" stroke="#263238" stroke-width="1.41141" stroke-miterlimit="10" stroke-linecap="round" stroke-linejoin="round"/>
</g>
<defs>
<clipPath id="clip0_3842_1773">
<rect width="341.562" height="314.745" fill="white" transform="translate(0.294434 0.246094)"/>
</clipPath>
</defs>
</svg>
