<svg width="15" height="15" viewBox="0 0 15 15" fill="none" xmlns="http://www.w3.org/2000/svg">
<path d="M12.54 9.77995C12.8025 9.07789 12.945 8.32627 12.945 7.50031C12.945 6.90562 12.8625 6.33571 12.72 5.8071C12.2325 5.93099 11.7225 5.99707 11.19 5.99707C10.0995 5.99836 9.02466 5.71089 8.05615 5.15891C7.08764 4.60692 6.25382 3.8066 5.625 2.8254C4.95232 4.61787 3.68334 6.05968 2.0775 6.85607C2.0475 7.06256 2.0475 7.28556 2.0475 7.50031C2.0475 8.28886 2.18853 9.06969 2.46255 9.79821C2.73656 10.5267 3.13819 11.1887 3.6445 11.7463C4.66704 12.8724 6.05391 13.505 7.5 13.505C8.2875 13.505 9.045 13.315 9.7275 12.9764C10.155 13.8767 10.35 14.3227 10.335 14.3227C9.105 14.777 8.1525 15 7.5 15C5.685 15 3.9525 14.2153 2.6775 12.803C1.902 11.9515 1.32553 10.9057 0.9975 9.75517H0V5.99707H0.8175C1.06518 4.66936 1.63462 3.44025 2.46539 2.44016C3.29616 1.44008 4.35728 0.706329 5.53615 0.316767C6.71501 -0.0727943 7.96765 -0.103634 9.16115 0.227521C10.3546 0.558676 11.4445 1.23947 12.315 2.19767C13.2602 3.23446 13.9049 4.55669 14.1675 5.99707H15V9.75517H14.955L12.285 12.4561L8.31 11.9605V10.5811H11.9325L12.54 9.77995ZM5.4525 7.31034C5.6775 7.31034 5.895 7.40946 6.0525 7.59117C6.21078 7.76691 6.2996 8.00441 6.2996 8.25193C6.2996 8.49946 6.21078 8.73696 6.0525 8.9127C5.895 9.08615 5.6775 9.18526 5.4525 9.18526C4.98 9.18526 4.5975 8.77229 4.5975 8.25193C4.5975 7.73158 4.98 7.31034 5.4525 7.31034ZM9.54 7.31034C10.0125 7.31034 10.3875 7.73158 10.3875 8.25193C10.3875 8.77229 10.0125 9.18526 9.54 9.18526C9.0675 9.18526 8.685 8.77229 8.685 8.25193C8.685 8.00221 8.77508 7.76271 8.93542 7.58613C9.09577 7.40955 9.31324 7.31034 9.54 7.31034Z" fill="black"/>
</svg>
