<svg width="18" height="21" viewBox="0 0 18 21" fill="none" xmlns="http://www.w3.org/2000/svg">
<path d="M13 6.61219V13.8672C12.9997 15.2172 12.579 16.5337 11.7964 17.6337C11.0138 18.7338 9.9081 19.5629 8.6328 20.0059C7.3575 20.4489 5.97591 20.4837 4.67988 20.1057C3.38384 19.7277 2.23768 18.9555 1.40054 17.8963C0.563391 16.8372 0.0768126 15.5436 0.00836286 14.1953C-0.0600869 12.847 0.29299 11.5108 1.01857 10.3723C1.74414 9.23385 2.80621 8.34954 4.0573 7.84219C5.30838 7.33484 6.6864 7.22964 8 7.54119V10.7042C7.31482 10.3792 6.54261 10.2855 5.7996 10.4373C5.05658 10.589 4.38296 10.978 3.8801 11.5457C3.37725 12.1133 3.07237 12.829 3.01135 13.5849C2.95033 14.3408 3.13648 15.096 3.54177 15.737C3.94706 16.378 4.54957 16.87 5.25863 17.1389C5.96768 17.4079 6.74492 17.4393 7.47336 17.2284C8.2018 17.0175 8.84203 16.5757 9.29771 15.9695C9.75338 15.3633 9.99985 14.6255 10 13.8672V0.367188H13C13 1.69327 13.5268 2.96504 14.4645 3.90272C15.4022 4.8404 16.6739 5.36719 18 5.36719V8.36719C16.1819 8.36959 14.4177 7.75034 13 6.61219Z" fill="white"/>
</svg>
