<svg width="27" height="26" viewBox="0 0 27 26" fill="none" xmlns="http://www.w3.org/2000/svg">
<path d="M15.4451 10.5971C15.586 10.9884 16.0174 11.1915 16.4087 11.0506C16.8001 10.9098 17.0032 10.4784 16.8623 10.087L15.4451 10.5971ZM14.3987 9.0689L14.4305 8.31649C14.4199 8.31604 14.4093 8.31582 14.3987 8.31582V9.0689ZM11.7987 12.8883V13.6414V12.8883ZM14.3987 16.7078V17.4609V16.7078ZM11.7987 16.7078L11.7669 17.4602C11.7775 17.4606 11.7881 17.4609 11.7987 17.4609V16.7078ZM10.7523 15.1796C10.6115 14.7883 10.1801 14.5852 9.78872 14.726C9.39738 14.8669 9.1943 15.2983 9.33514 15.6896L10.7523 15.1796ZM13.8518 7.15918C13.8518 6.74326 13.5146 6.4061 13.0987 6.4061C12.6828 6.4061 12.3456 6.74326 12.3456 7.15918H13.8518ZM12.3456 9.0689C12.3456 9.48481 12.6828 9.82198 13.0987 9.82198C13.5146 9.82198 13.8518 9.48481 13.8518 9.0689H12.3456ZM13.8518 16.7078C13.8518 16.2919 13.5146 15.9547 13.0987 15.9547C12.6828 15.9547 12.3456 16.2919 12.3456 16.7078H13.8518ZM12.3456 18.6175C12.3456 19.0334 12.6828 19.3706 13.0987 19.3706C13.5146 19.3706 13.8518 19.0334 13.8518 18.6175H12.3456ZM16.8623 10.087C16.6811 9.58357 16.3512 9.14729 15.9175 8.8327L15.0331 10.0518C15.225 10.191 15.3676 10.3815 15.4451 10.5971L16.8623 10.087ZM15.9175 8.8327C15.484 8.51823 14.9661 8.33914 14.4305 8.31649L14.3669 9.82131C14.6091 9.83155 14.841 9.91253 15.0331 10.0518L15.9175 8.8327ZM14.3987 8.31582H11.7987V9.82198H14.3987V8.31582ZM11.7987 8.31582C11.0868 8.31582 10.401 8.59263 9.89295 9.09021L10.9468 10.1663C11.1701 9.94758 11.4763 9.82198 11.7987 9.82198V8.31582ZM9.89295 9.09021C9.38434 9.58831 9.09565 10.2673 9.09565 10.9786H10.6018C10.6018 10.677 10.724 10.3845 10.9468 10.1663L9.89295 9.09021ZM9.09565 10.9786C9.09565 11.69 9.38434 12.3689 9.89295 12.867L10.9468 11.791C10.724 11.5728 10.6018 11.2802 10.6018 10.9786H9.09565ZM9.89295 12.867C10.401 13.3646 11.0868 13.6414 11.7987 13.6414V12.1353C11.4763 12.1353 11.1701 12.0097 10.9468 11.791L9.89295 12.867ZM11.7987 13.6414H14.3987V12.1353H11.7987V13.6414ZM14.3987 13.6414C14.7212 13.6414 15.0273 13.767 15.2507 13.9857L16.3045 12.9096C15.7964 12.4121 15.1106 12.1353 14.3987 12.1353V13.6414ZM15.2507 13.9857C15.4734 14.2039 15.5956 14.4964 15.5956 14.7981H17.1018C17.1018 14.0867 16.8131 13.4078 16.3045 12.9096L15.2507 13.9857ZM15.5956 14.7981C15.5956 15.0997 15.4734 15.3922 15.2507 15.6104L16.3045 16.6865C16.8131 16.1884 17.1018 15.5094 17.1018 14.7981H15.5956ZM15.2507 15.6104C15.0273 15.8291 14.7212 15.9547 14.3987 15.9547V17.4609C15.1106 17.4609 15.7964 17.1841 16.3045 16.6865L15.2507 15.6104ZM14.3987 15.9547H11.7987V17.4609H14.3987V15.9547ZM11.8305 15.9554C11.5884 15.9451 11.3564 15.8642 11.1644 15.7248L10.2799 16.944C10.7134 17.2585 11.2313 17.4375 11.7669 17.4602L11.8305 15.9554ZM11.1644 15.7248C10.9725 15.5856 10.8299 15.3952 10.7523 15.1796L9.33514 15.6896C9.51632 16.1931 9.84628 16.6294 10.2799 16.944L11.1644 15.7248ZM12.3456 7.15918V9.0689H13.8518V7.15918H12.3456ZM12.3456 16.7078V18.6175H13.8518V16.7078H12.3456ZM22.7456 12.7842C22.7456 17.8635 18.4547 22.0311 13.0987 22.0311V23.5373C19.2303 23.5373 24.2518 18.7505 24.2518 12.7842H22.7456ZM13.0987 22.0311C7.74277 22.0311 3.45181 17.8635 3.45181 12.7842H1.94565C1.94565 18.7505 6.96716 23.5373 13.0987 23.5373V22.0311ZM3.45181 12.7842C3.45181 7.70481 7.74277 3.53726 13.0987 3.53726V2.0311C6.96716 2.0311 1.94565 6.81785 1.94565 12.7842H3.45181ZM13.0987 3.53726C18.4547 3.53726 22.7456 7.70481 22.7456 12.7842H24.2518C24.2518 6.81785 19.2303 2.0311 13.0987 2.0311V3.53726Z" fill="black"/>
</svg>
