<svg width="342" height="323" viewBox="0 0 342 323" fill="none" xmlns="http://www.w3.org/2000/svg">
<g clip-path="url(#clip0_3842_1964)">
<path d="M20.5815 148.56L22.0047 174.741C22.0574 175.676 22.818 176.408 23.7517 176.415L70.8003 176.762C71.7717 176.77 72.5699 175.985 72.5774 175.005L72.728 154.622C72.7356 153.642 71.9449 152.843 70.966 152.843L42.0275 152.82C41.5606 152.82 41.1088 152.632 40.7775 152.3L35.785 147.3C35.4536 146.968 35.0169 146.787 34.55 146.78L22.3511 146.689C21.3421 146.689 20.5288 147.542 20.5815 148.56Z" fill="#C5DCFF"/>
<path d="M72.7665 149.772L21.3579 149.395L21.1328 180.153L72.5414 180.531L72.7665 149.772Z" fill="#C5DCFF"/>
<path d="M17.2536 152.13L20.9434 184.239C21.0112 184.812 21.4856 185.242 22.0654 185.249L72.1637 185.619C72.7586 185.626 73.2556 185.174 73.3007 184.578L76.0568 152.515C76.117 151.851 75.5975 151.286 74.9348 151.278L18.3907 150.863C17.7054 150.856 17.1708 151.452 17.2536 152.13Z" fill="#C5DCFF"/>
<path d="M234.191 153.083L235.418 175.63C235.464 176.429 236.119 177.063 236.924 177.07L277.437 177.364C278.273 177.372 278.966 176.693 278.966 175.856L279.094 158.309C279.101 157.464 278.416 156.778 277.572 156.778L252.655 156.756C252.256 156.756 251.864 156.597 251.578 156.311L247.278 152.005C247 151.726 246.616 151.56 246.217 151.56L235.712 151.485C234.846 151.47 234.146 152.201 234.191 153.083Z" fill="#C5DCFF"/>
<path d="M279.129 154.12L234.866 153.795L234.672 180.286L278.935 180.61L279.129 154.12Z" fill="#C5DCFF"/>
<path d="M231.322 156.146L234.499 183.791C234.552 184.281 234.966 184.65 235.463 184.658L278.604 184.974C279.116 184.974 279.537 184.59 279.583 184.077L281.955 156.47C282 155.905 281.555 155.415 280.991 155.407L232.301 155.053C231.713 155.053 231.254 155.558 231.322 156.146Z" fill="#C5DCFF"/>
<path d="M315.08 5.33398H243.083V124.674H315.08V5.33398Z" fill="#C5DCFF"/>
<path d="M312.685 5.33398H240.688V124.674H312.685V5.33398Z" fill="#C5DCFF"/>
<path d="M309.628 7.76367H243.761V122.263H309.628V7.76367Z" fill="white"/>
<path d="M296.796 22.6387H256.299V107.382H296.796V22.6387Z" fill="#C5DCFF"/>
<path d="M256.299 77.401C256.209 69.4832 263.31 61.7539 271.141 60.653C274.876 60.1251 278.837 60.8716 282.331 59.4389C288.559 56.8826 290.539 48.6028 296.804 46.1445L297.09 107.398H256.307V77.401H256.299Z" fill="#C5DCFF"/>
<path d="M310.923 158.238C310.923 158.238 304.959 157.808 305.509 171.201C306.059 184.593 307.422 191.734 307.422 191.734C307.422 191.734 307.248 194.705 304.952 194.125C302.655 193.544 298.333 190.648 296.202 192.812C293.988 195.052 294.778 198.491 297.708 202.54C300.644 206.589 306.751 215.691 307.301 216.521C307.843 217.327 308.054 218.851 306.428 218.707C304.801 218.564 293.807 214.831 292.354 220.163C290.9 225.494 300.931 235.425 302.007 236.534C303.084 237.642 303.144 238.336 302.708 239.007C302.271 239.678 298.694 238.072 295.524 237.145C292.354 236.209 288.513 235.689 287.933 238.834C287.354 241.978 291.766 251.185 308.31 260.853L316.27 264.834L323.8 260.023C339.297 248.742 342.768 239.143 341.88 236.074C340.984 233.005 337.219 233.91 334.161 235.154C331.104 236.398 327.7 238.351 327.203 237.733C326.699 237.107 326.691 236.406 327.648 235.199C328.604 233.992 337.595 223.104 335.615 217.946C333.634 212.788 323.069 217.599 321.465 217.908C319.861 218.217 319.922 216.686 320.381 215.819C320.848 214.945 326.014 205.27 328.529 200.949C331.044 196.628 331.488 193.129 329.056 191.123C326.714 189.185 322.708 192.496 320.479 193.303C318.25 194.109 317.783 191.176 317.783 191.176C317.783 191.176 318.431 183.937 317.64 170.56C316.849 157.175 310.818 158.253 310.818 158.253" fill="#C5DCFF"/>
<path d="M311.39 170.234C311.39 170.234 311.405 170.332 311.42 170.513C311.435 170.709 311.458 170.981 311.48 171.335C311.533 172.074 311.601 173.138 311.691 174.495C311.872 177.24 312.106 181.221 312.377 186.138C312.919 195.971 313.559 209.552 314.214 224.566C314.869 239.579 315.472 253.168 315.961 263.001C316.209 267.91 316.413 271.884 316.556 274.644C316.624 276.009 316.676 277.072 316.714 277.811C316.729 278.165 316.737 278.437 316.744 278.633C316.752 278.821 316.744 278.912 316.744 278.912C316.744 278.912 316.729 278.814 316.714 278.633C316.699 278.437 316.676 278.165 316.654 277.811C316.601 277.072 316.533 276.009 316.443 274.651C316.262 271.906 316.029 267.925 315.758 263.008C315.215 253.175 314.575 239.587 313.92 224.573C313.265 209.567 312.663 195.979 312.173 186.145C311.925 181.236 311.721 177.262 311.578 174.502C311.511 173.138 311.458 172.074 311.42 171.335C311.405 170.981 311.398 170.709 311.39 170.513C311.39 170.332 311.39 170.234 311.39 170.234Z" fill="#C5DCFF"/>
<path d="M302.076 197.101C302.091 197.086 302.264 197.236 302.573 197.515C302.881 197.794 303.311 198.209 303.838 198.729C304.884 199.77 306.3 201.248 307.829 202.907C309.327 204.543 310.675 206.029 311.722 207.175C312.189 207.68 312.58 208.11 312.904 208.465C313.183 208.766 313.333 208.94 313.318 208.955C313.303 208.97 313.13 208.827 312.821 208.547C312.513 208.268 312.083 207.854 311.564 207.326C310.525 206.27 309.132 204.777 307.603 203.118C306.097 201.489 304.734 200.019 303.68 198.88C303.213 198.375 302.814 197.953 302.49 197.598C302.211 197.297 302.061 197.116 302.076 197.101Z" fill="#C5DCFF"/>
<path d="M314.108 208.691C314.048 208.63 316.962 205.576 320.607 201.874C324.259 198.164 327.264 195.215 327.324 195.268C327.384 195.329 324.477 198.383 320.825 202.085C317.173 205.795 314.169 208.751 314.108 208.691Z" fill="#C5DCFF"/>
<path d="M314.078 231.769C314.071 231.754 314.267 231.625 314.636 231.414C315.057 231.173 315.577 230.886 316.194 230.539C317.505 229.8 319.319 228.775 321.277 227.568C323.235 226.369 324.975 225.223 326.225 224.379C326.812 223.987 327.301 223.655 327.708 223.383C328.062 223.15 328.265 223.029 328.273 223.052C328.288 223.067 328.107 223.225 327.776 223.481C327.444 223.745 326.955 224.115 326.345 224.552C325.125 225.442 323.401 226.618 321.428 227.825C319.462 229.031 317.633 230.034 316.292 230.728C315.622 231.075 315.072 231.339 314.688 231.52C314.304 231.693 314.086 231.784 314.078 231.769Z" fill="#C5DCFF"/>
<path d="M300.893 223.703C300.901 223.688 301.097 223.778 301.443 223.959C301.79 224.14 302.279 224.419 302.889 224.758C304.101 225.445 305.765 226.417 307.588 227.503C309.418 228.589 311.059 229.592 312.241 230.331C312.836 230.701 313.311 231.002 313.635 231.221C313.958 231.44 314.132 231.56 314.124 231.583C314.116 231.598 313.921 231.507 313.574 231.326C313.228 231.146 312.738 230.867 312.129 230.527C310.916 229.841 309.252 228.868 307.43 227.782C305.6 226.696 303.958 225.694 302.776 224.955C302.181 224.585 301.707 224.283 301.383 224.065C301.059 223.846 300.878 223.718 300.893 223.703Z" fill="#C5DCFF"/>
<path d="M298.272 244.072C298.28 244.056 298.528 244.177 298.972 244.411C299.462 244.682 300.087 245.022 300.825 245.436C302.384 246.311 304.522 247.54 306.879 248.913C309.236 250.285 311.36 251.544 312.888 252.464C313.611 252.909 314.214 253.279 314.695 253.573C315.117 253.837 315.343 253.995 315.336 254.018C315.328 254.033 315.08 253.912 314.635 253.678C314.146 253.407 313.521 253.068 312.783 252.653C311.224 251.778 309.085 250.549 306.729 249.177C304.372 247.804 302.248 246.545 300.719 245.625C299.997 245.18 299.394 244.811 298.912 244.516C298.491 244.245 298.265 244.094 298.272 244.072Z" fill="#C5DCFF"/>
<path d="M314.99 253.677C314.982 253.662 315.223 253.496 315.683 253.209C316.187 252.9 316.842 252.508 317.618 252.033C319.252 251.037 321.504 249.65 323.943 248.059C326.391 246.468 328.567 244.967 330.133 243.874C330.879 243.353 331.504 242.916 331.993 242.577C332.437 242.275 332.686 242.117 332.693 242.132C332.708 242.147 332.483 242.343 332.061 242.675C331.639 243.007 331.029 243.482 330.254 244.047C328.717 245.186 326.556 246.717 324.101 248.315C321.654 249.914 319.38 251.271 317.716 252.221C316.88 252.696 316.202 253.073 315.728 253.315C315.269 253.564 315.005 253.692 314.99 253.677Z" fill="#C5DCFF"/>
<path d="M326.955 267.43H304.937L312.12 321.904H319.771L326.955 267.43Z" fill="#C5DCFF"/>
<path d="M306.081 274.121C306.074 274.129 306.104 274.197 306.202 274.317C306.292 274.43 306.465 274.581 306.736 274.694C307.256 274.921 308.175 274.943 309.063 274.408C309.952 273.918 310.727 272.952 311.917 272.523C313.099 272.07 314.56 272.153 315.968 272.606C317.391 273.043 318.619 273.767 319.741 274.438C320.863 275.102 321.887 275.697 322.806 276.082C323.717 276.482 324.515 276.662 325.065 276.738C325.343 276.776 325.554 276.783 325.705 276.783C325.848 276.783 325.931 276.776 325.931 276.768C325.946 276.693 324.688 276.708 322.911 275.856C322.023 275.448 321.021 274.838 319.914 274.159C318.807 273.473 317.542 272.726 316.081 272.274C314.635 271.806 313.077 271.723 311.804 272.229C311.172 272.47 310.637 272.847 310.193 273.224C309.741 273.593 309.342 273.948 308.935 274.204C308.129 274.725 307.286 274.747 306.789 274.574C306.269 274.385 306.104 274.091 306.081 274.121Z" fill="#C5DCFF"/>
<path d="M306.88 284.156C306.91 284.171 307.053 283.93 307.399 283.568C307.753 283.221 308.325 282.761 309.161 282.452C309.99 282.135 311.051 281.947 312.226 281.992C313.408 282.03 314.688 282.294 316.059 282.512C317.422 282.739 318.777 282.844 319.982 282.678C321.187 282.52 322.234 282.173 323.069 281.796C323.905 281.411 324.523 280.997 324.922 280.687C325.328 280.378 325.524 280.175 325.509 280.16C325.472 280.099 324.621 280.861 322.964 281.562C322.136 281.902 321.112 282.218 319.937 282.346C318.762 282.49 317.467 282.384 316.112 282.158C314.756 281.939 313.453 281.683 312.233 281.66C311.014 281.63 309.914 281.856 309.063 282.218C308.205 282.573 307.625 283.085 307.294 283.478C307.136 283.681 307.023 283.847 306.962 283.968C306.902 284.088 306.872 284.149 306.88 284.156Z" fill="#C5DCFF"/>
<path d="M324.462 289.516C324.47 289.501 324.266 289.366 323.852 289.2C323.446 289.034 322.821 288.868 322.03 288.808C321.239 288.747 320.298 288.792 319.274 288.966C318.25 289.132 317.143 289.418 315.991 289.66C314.839 289.901 313.724 290.067 312.715 290.029C311.706 289.991 310.81 289.773 310.11 289.464C308.694 288.838 308.189 287.933 308.137 287.993C308.122 288.001 308.22 288.227 308.506 288.566C308.792 288.906 309.281 289.343 310.004 289.69C310.72 290.044 311.646 290.301 312.7 290.353C313.754 290.414 314.899 290.248 316.066 290.006C317.233 289.758 318.325 289.464 319.334 289.283C320.336 289.102 321.254 289.026 322.022 289.049C323.559 289.117 324.44 289.584 324.462 289.516Z" fill="#C5DCFF"/>
<path d="M308.83 297.084C308.838 297.144 309.613 296.594 310.969 296.865C311.631 296.986 312.369 297.318 313.205 297.702C314.033 298.087 315.035 298.418 316.112 298.501C318.273 298.713 320.201 298.011 321.375 297.28C321.978 296.918 322.399 296.533 322.686 296.269C322.957 295.983 323.092 295.817 323.07 295.802C323.024 295.749 322.445 296.398 321.247 297.061C320.065 297.717 318.213 298.343 316.142 298.147C314.056 298.026 312.46 296.782 311.014 296.616C310.306 296.511 309.719 296.609 309.35 296.76C308.973 296.91 308.815 297.076 308.83 297.084Z" fill="#C5DCFF"/>
<path d="M310.058 307.537C310.058 307.575 310.796 307.575 311.895 307.175C313.002 306.805 314.372 305.953 315.969 305.32C316.775 305.011 317.573 304.822 318.311 304.83C319.041 304.83 319.696 305.011 320.193 305.26C321.202 305.765 321.496 306.481 321.556 306.436C321.571 306.428 321.526 306.247 321.345 305.968C321.165 305.689 320.833 305.327 320.314 305.033C319.802 304.739 319.109 304.521 318.318 304.498C317.528 304.475 316.677 304.664 315.848 304.981C314.192 305.644 312.866 306.519 311.805 306.934C310.75 307.386 310.05 307.477 310.058 307.537Z" fill="#C5DCFF"/>
<path d="M311.134 312.41C311.119 312.455 311.646 312.644 312.527 312.863C313.408 313.081 314.636 313.315 316.014 313.451C317.392 313.587 318.642 313.594 319.545 313.556C320.449 313.511 321.006 313.428 320.999 313.383C320.991 313.277 318.77 313.368 316.044 313.096C313.325 312.833 311.164 312.305 311.134 312.41Z" fill="#C5DCFF"/>
<path d="M81.2677 18.4043H9.30176V122.859H81.2677V18.4043Z" fill="#C5DCFF"/>
<path d="M77.6622 18.4043H5.69629V122.859H77.6622V18.4043Z" fill="#C5DCFF"/>
<path d="M68.7219 29.7109H14.6401V111.536H68.7219V29.7109Z" fill="white"/>
<path d="M68.7219 111.552C68.7219 111.552 68.7143 111.416 68.7143 111.152C68.7143 110.881 68.7068 110.496 68.7068 109.991C68.6993 108.965 68.6917 107.457 68.6842 105.504C68.6767 101.583 68.6541 95.8671 68.639 88.6506C68.6164 74.2251 68.5863 53.7896 68.5487 29.727L68.7294 29.908C52.2082 29.9156 33.8948 29.9156 14.6552 29.9231H14.6477L14.8434 29.727C14.8284 60.5989 14.8133 89.0578 14.8058 111.552L14.6477 111.394C31.1162 111.431 44.6178 111.454 54.0154 111.476C58.7143 111.492 62.3815 111.507 64.889 111.514C66.1315 111.522 67.0878 111.529 67.7429 111.529C68.3755 111.537 68.7219 111.552 68.7219 111.552C68.7219 111.552 68.4056 111.559 67.7655 111.567C67.1179 111.575 66.1767 111.575 64.9417 111.582C62.4417 111.59 58.782 111.605 54.0983 111.62C44.678 111.642 31.1463 111.665 14.6401 111.703H14.482V111.544C14.4745 89.0502 14.4594 60.5839 14.4443 29.7195V29.5234H14.6401H14.6477C33.8873 29.531 52.2007 29.531 68.7219 29.5385H68.9026V29.7195C68.8649 53.8273 68.8348 74.3005 68.8122 88.7637C68.7896 95.9651 68.7746 101.666 68.767 105.58C68.7595 107.518 68.752 109.011 68.7445 110.029C68.7369 110.526 68.7369 110.903 68.7369 111.167C68.7294 111.424 68.7219 111.552 68.7219 111.552Z" fill="#C5DCFF"/>
<path d="M77.8639 18.4019C77.9091 18.4321 77.4196 19.1485 76.5838 20.2645C75.7479 21.3805 74.5581 22.9038 73.2102 24.5552C71.8548 26.1991 70.5897 27.662 69.656 28.6951C68.7222 29.7282 68.1123 30.3465 68.0746 30.3163C68.037 30.2786 68.5641 29.6 69.4451 28.5141C70.409 27.3453 71.5988 25.8974 72.909 24.3063C74.2193 22.7077 75.409 21.2674 76.3729 20.0986C77.2539 19.0203 77.8187 18.3642 77.8639 18.4019Z" fill="#C5DCFF"/>
<path d="M68.9932 111.285C71.6814 115.561 74.8516 119.535 78.4285 123.102Z" fill="white"/>
<path d="M78.428 123.087C78.3903 123.125 77.7503 122.567 76.7864 121.586C75.8225 120.613 74.5349 119.203 73.2246 117.567C71.9144 115.923 70.83 114.362 70.0921 113.208C69.3541 112.047 68.955 111.301 68.9927 111.27C69.0379 111.24 69.5273 111.934 70.318 113.05C71.1087 114.166 72.2231 115.689 73.5258 117.318C74.8286 118.947 76.071 120.372 76.9822 121.39C77.8933 122.423 78.4656 123.049 78.428 123.087Z" fill="#C5DCFF"/>
<path d="M5.68799 122.774C8.82808 118.89 11.9757 115.007 15.1158 111.131Z" fill="white"/>
<path d="M15.1153 111.132C15.1981 111.2 13.1574 113.862 10.552 117.082C7.94655 120.302 5.77033 122.851 5.68749 122.783C5.60466 122.715 7.64534 120.053 10.2508 116.833C12.8487 113.621 15.0325 111.064 15.1153 111.132Z" fill="#C5DCFF"/>
<path d="M5.69595 18.4018C5.77878 18.3339 7.827 20.7846 10.2743 23.8764C12.7141 26.9681 14.6268 29.5319 14.5439 29.5998C14.4611 29.6677 12.4129 27.2169 9.96557 24.1252C7.52579 21.026 5.61312 18.4696 5.69595 18.4018Z" fill="#C5DCFF"/>
<path d="M51.8694 46.3242H33.7593V97.8125H51.8694V46.3242Z" fill="#C5DCFF"/>
<path d="M171.458 0.933594H114.898V59.9777H171.458V0.933594Z" fill="#C5DCFF"/>
<path d="M167.634 0.947266H111.075V59.9914H167.634V0.947266Z" fill="#FAFAFA"/>
<path d="M167.655 59.99H111.058V0.908203H167.655V59.99ZM111.088 59.9523H167.617V0.945907H111.088V59.9523Z" fill="#C5DCFF"/>
<path d="M160.034 8.89062H118.678V52.0614H160.034V8.89062Z" fill="white"/>
<path d="M118.678 52.3229C118.708 52.3606 118.316 52.813 117.654 53.5143C116.991 54.2156 116.065 55.1582 115.026 56.1838C113.987 57.2093 113.03 58.1217 112.322 58.7702C111.615 59.4188 111.163 59.8033 111.125 59.7656C111.087 59.7279 111.479 59.283 112.142 58.5817C112.804 57.8804 113.73 56.9378 114.777 55.9048C115.824 54.8792 116.78 53.9592 117.481 53.3107C118.188 52.6622 118.64 52.2852 118.678 52.3229Z" fill="#C5DCFF"/>
<path d="M160.026 52.2536C160.064 52.2234 160.516 52.6155 161.216 53.2791C161.917 53.9427 162.858 54.8702 163.882 55.9108C164.906 56.9515 165.817 57.9091 166.465 58.618C167.112 59.3268 167.496 59.7792 167.459 59.817C167.421 59.8547 166.977 59.4625 166.277 58.7989C165.576 58.1354 164.635 57.2079 163.603 56.1597C162.579 55.1115 161.661 54.1538 161.013 53.4526C160.373 52.7362 159.989 52.2837 160.026 52.2536Z" fill="#C5DCFF"/>
<path d="M159.912 8.99605C159.882 8.95834 160.274 8.5059 160.936 7.80461C161.599 7.10332 162.525 6.16072 163.564 5.13518C164.604 4.10964 165.56 3.19721 166.268 2.5487C166.976 1.9002 167.427 1.51562 167.465 1.55332C167.503 1.59102 167.111 2.03593 166.448 2.73722C165.786 3.43851 164.86 4.3811 163.813 5.41419C162.766 6.43973 161.81 7.3597 161.11 8.00821C160.402 8.65671 159.95 9.03375 159.912 8.99605Z" fill="#C5DCFF"/>
<path d="M118.566 9.09321C118.528 9.12338 118.076 8.73126 117.376 8.06767C116.676 7.40408 115.734 6.47657 114.71 5.43595C113.686 4.39532 112.775 3.43765 112.127 2.72882C111.48 2.01999 111.096 1.56754 111.133 1.52984C111.171 1.49213 111.615 1.88425 112.316 2.54784C113.016 3.21143 113.957 4.13894 114.989 5.1871C116.013 6.23527 116.932 7.19294 117.579 7.89423C118.219 8.61061 118.603 9.06305 118.566 9.09321Z" fill="#C5DCFF"/>
<path d="M159.914 52.0292C159.914 52.0292 159.906 51.9538 159.906 51.8181C159.906 51.6673 159.899 51.4712 159.899 51.2148C159.891 50.6719 159.891 49.8952 159.884 48.8847C159.876 46.8412 159.861 43.8626 159.838 40.0847C159.816 32.5213 159.793 21.7531 159.756 8.85844L159.914 9.0168C147.873 9.02434 133.739 9.03188 118.678 9.03942H118.671L118.852 8.85844C118.844 24.7016 118.837 39.5267 118.829 52.0292L118.671 51.8709C131.028 51.901 141.322 51.9312 148.536 51.9538C152.143 51.9689 154.974 51.984 156.924 51.9915C157.888 51.9991 158.626 52.0066 159.146 52.0066C159.387 52.0142 159.575 52.0142 159.718 52.0142C159.846 52.0217 159.914 52.0217 159.914 52.0292C159.914 52.0292 159.853 52.0368 159.733 52.0368C159.597 52.0368 159.417 52.0443 159.176 52.0443C158.664 52.0519 157.933 52.0519 156.985 52.0594C155.042 52.0669 152.218 52.082 148.634 52.0971C141.397 52.1197 131.073 52.1424 118.671 52.1801H118.513V52.0217C118.505 39.5191 118.498 24.694 118.49 8.8509V8.66992H118.671H118.678C133.739 8.67746 147.881 8.685 159.914 8.69254H160.079V8.8509C160.049 21.7908 160.019 32.5967 159.997 40.1827C159.982 43.9456 159.966 46.9091 159.951 48.9451C159.944 49.9405 159.936 50.7096 159.936 51.245C159.929 51.4938 159.929 51.6899 159.929 51.8332C159.921 51.9689 159.921 52.0292 159.914 52.0292Z" fill="#C5DCFF"/>
<path d="M146.253 23.5469H132.45V37.3691H146.253V23.5469Z" fill="#C5DCFF"/>
<path d="M85.3481 239.68L86.7638 265.718C86.8165 266.645 87.5771 267.377 88.5033 267.377L135.296 267.724C136.267 267.731 137.058 266.947 137.065 265.982L137.216 245.712C137.224 244.74 136.433 243.94 135.461 243.94L106.689 243.918C106.222 243.918 105.778 243.729 105.446 243.405L100.484 238.436C100.16 238.111 99.7157 237.923 99.2564 237.923L87.1253 237.832C86.1012 237.817 85.2954 238.669 85.3481 239.68Z" fill="#C5DCFF"/>
<path d="M137.249 240.883L86.1265 240.508L85.9026 271.101L137.025 271.476L137.249 240.883Z" fill="#C5DCFF"/>
<path d="M82.0355 243.22L85.7027 275.148C85.7705 275.713 86.2449 276.143 86.8172 276.15L136.637 276.512C137.224 276.52 137.721 276.068 137.766 275.479L140.507 243.597C140.56 242.941 140.048 242.375 139.393 242.368L83.1575 241.953C82.4873 241.953 81.9602 242.549 82.0355 243.22Z" fill="#C5DCFF"/>
<path d="M166.637 254.338L168.053 280.437C168.106 281.365 168.866 282.096 169.8 282.103L216.69 282.45C217.662 282.458 218.452 281.674 218.46 280.701L218.61 260.386C218.618 259.406 217.827 258.614 216.856 258.614L188.015 258.591C187.549 258.591 187.104 258.403 186.773 258.079L181.795 253.102C181.472 252.777 181.027 252.589 180.568 252.589L168.414 252.498C167.39 252.476 166.585 253.328 166.637 254.338Z" fill="#C5DCFF"/>
<path d="M218.652 255.546L167.417 255.17L167.193 285.831L218.428 286.207L218.652 255.546Z" fill="#C5DCFF"/>
<path d="M163.316 257.887L166.991 289.89C167.059 290.455 167.533 290.885 168.105 290.893L218.038 291.262C218.625 291.27 219.122 290.817 219.175 290.229L221.924 258.279C221.984 257.623 221.464 257.057 220.802 257.05L164.446 256.635C163.768 256.62 163.241 257.216 163.316 257.887Z" fill="#C5DCFF"/>
<path d="M251.675 42.517L250.448 40.4961C240.109 23.4314 221.411 13.1458 201.705 14.3976C199.175 14.5559 196.652 14.9028 194.16 15.4382C176.238 19.2764 160.643 32.8498 154.182 50.2312C150.379 60.4565 149.318 72.2201 142.104 80.3339C132.714 90.891 116.78 91.2228 102.766 90.7854C88.7524 90.348 72.8035 90.7175 63.4585 101.32C57.6076 107.956 55.7476 117.404 56.222 126.295C57.472 149.837 73.8502 170.883 94.6862 181.342C115.515 191.801 140.048 192.744 162.842 188.137C194.777 181.689 225.154 163.984 243.407 136.633C261.66 109.29 266.284 72.0391 251.675 42.517Z" fill="#C5DCFF"/>
<path d="M111.125 66.5617C119.351 66.5617 126.02 59.8837 126.02 51.6461C126.02 43.4084 119.351 36.7305 111.125 36.7305C102.899 36.7305 96.2305 43.4084 96.2305 51.6461C96.2305 59.8837 102.899 66.5617 111.125 66.5617Z" fill="#C5DCFF"/>
<path d="M51.1773 210.247C43.4589 198.423 44.5809 181.532 53.8054 170.839C56.6668 167.521 60.6654 164.633 65.0329 165.01C69.4983 165.394 73.0977 169.233 74.4607 173.508C75.8161 177.784 75.3492 182.421 74.551 186.84C73.4366 193.024 71.5616 199.358 67.2769 203.95C62.9847 208.543 56.6894 213.263 51.1773 210.247Z" fill="#0064FF" fill-opacity="0.74902"/>
<path d="M53.511 267.16C50.6043 260.366 52.7128 251.769 58.4282 247.094C60.2053 245.646 62.5246 244.522 64.7385 245.111C67.005 245.714 68.5111 248.014 68.8273 250.344C69.1436 252.674 68.4809 255.019 67.6677 257.221C66.5306 260.305 64.9945 263.397 62.374 265.373C59.7459 267.348 56.0788 269.211 53.511 267.16Z" fill="#0064FF" fill-opacity="0.74902"/>
<path d="M36.8316 263.079C38.9552 252.597 33.4355 241.029 23.9626 236.09C21.0183 234.56 17.4038 233.655 14.4369 235.14C11.4023 236.663 9.94141 240.373 10.1824 243.759C10.4233 247.153 12.0499 250.282 13.8496 253.163C16.3646 257.197 19.452 261.126 23.7517 263.154C28.0515 265.19 33.797 266.743 36.8316 263.079Z" fill="#0064FF" fill-opacity="0.74902"/>
<path d="M38.165 234.739C41.8623 222.795 35.5972 208.316 25.1528 201.462C21.9073 199.335 17.8033 197.857 14.1813 199.237C10.4765 200.655 8.34542 204.795 8.22493 208.769C8.10445 212.743 9.63308 216.574 11.3876 220.133C13.8425 225.125 16.975 230.056 21.7341 232.922C26.5007 235.787 34.2116 238.653 38.165 234.739Z" fill="#0064FF" fill-opacity="0.74902"/>
<path d="M43.6537 293.13C43.6387 293.13 43.5935 292.934 43.5333 292.55C43.4655 292.112 43.3827 291.562 43.2848 290.883C43.2321 290.514 43.1793 290.114 43.1191 289.677C43.0363 289.239 42.9459 288.764 42.848 288.259C42.6522 287.241 42.4564 286.072 42.1176 284.813C41.967 284.18 41.8013 283.516 41.6357 282.822C41.4323 282.136 41.229 281.427 41.0106 280.688C40.6115 279.203 40.0242 277.672 39.4745 276.036C38.2546 272.808 36.7335 269.332 34.8735 265.81C32.9759 262.311 30.9202 259.114 28.9096 256.316C27.8554 254.952 26.9066 253.617 25.89 252.463C25.4006 251.875 24.9186 251.309 24.4593 250.766C23.9774 250.246 23.5105 249.741 23.0662 249.266C22.2002 248.286 21.3418 247.479 20.6038 246.755C20.2348 246.393 19.896 246.054 19.5722 245.744C19.2409 245.45 18.9397 245.186 18.661 244.937C18.149 244.477 17.7348 244.1 17.411 243.806C17.1324 243.542 16.9893 243.399 16.9969 243.384C17.0044 243.369 17.1701 243.49 17.4788 243.723C17.8252 244.002 18.2544 244.349 18.7891 244.779C19.0752 245.013 19.3915 245.277 19.7303 245.556C20.0617 245.865 20.4156 246.189 20.7921 246.544C21.5526 247.252 22.4337 248.052 23.3222 249.017C23.774 249.492 24.2484 249.99 24.7454 250.503C25.2123 251.045 25.7018 251.611 26.2063 252.192C27.2379 253.338 28.2093 254.673 29.2786 256.037C31.3193 258.843 33.4052 262.047 35.3103 265.569C37.1853 269.113 38.6989 272.62 39.9037 275.87C40.4459 277.521 41.0257 279.067 41.4022 280.56C41.6055 281.299 41.8088 282.023 42.0046 282.709C42.1628 283.403 42.3134 284.074 42.4564 284.723C42.7727 285.997 42.9459 287.173 43.1116 288.199C43.1944 288.712 43.2697 289.187 43.345 289.632C43.3902 290.069 43.4278 290.476 43.4655 290.846C43.5257 291.532 43.5784 292.09 43.6161 292.527C43.6688 292.927 43.6763 293.13 43.6537 293.13Z" fill="#263238"/>
<path d="M43.3829 295.279C43.3754 295.279 43.3754 295.196 43.3829 295.037C43.398 294.849 43.4131 294.623 43.4356 294.344C43.4959 293.695 43.5787 292.813 43.6766 291.689C43.7369 291.109 43.7971 290.468 43.8649 289.774C43.9176 289.073 43.9402 288.311 43.9778 287.489C44.0381 285.845 44.1962 283.983 44.136 281.916C44.1284 280.883 44.1284 279.797 44.1209 278.674C44.1058 277.543 44.0004 276.374 43.9477 275.16C43.8649 272.732 43.5335 270.153 43.2474 267.438C42.5094 262.031 41.3498 256.127 39.5877 250.072C37.7654 244.032 35.5214 238.451 33.2021 233.512C31.9672 231.077 30.8452 228.739 29.5877 226.658C28.9777 225.61 28.428 224.569 27.8256 223.619C27.2157 222.669 26.6283 221.764 26.0711 220.889C24.9943 219.125 23.8497 217.646 22.9009 216.304C22.4189 215.641 21.9897 215.007 21.5605 214.449C21.1237 213.906 20.7246 213.401 20.3632 212.949C19.6704 212.066 19.1132 211.365 18.7141 210.86C18.5484 210.634 18.4053 210.453 18.2924 210.309C18.202 210.181 18.1569 210.113 18.1644 210.113C18.1719 210.113 18.2246 210.166 18.33 210.279C18.4505 210.422 18.6011 210.588 18.7894 210.799C19.2111 211.297 19.7834 211.976 20.5138 212.835C20.8903 213.28 21.3045 213.778 21.7487 214.313C22.1855 214.864 22.6298 215.49 23.1268 216.146C24.0982 217.473 25.2653 218.944 26.3647 220.701C26.937 221.568 27.5319 222.473 28.1494 223.423C28.7669 224.373 29.3241 225.413 29.9491 226.462C31.2217 228.543 32.3663 230.888 33.6163 233.324C35.9732 238.278 38.2398 243.881 40.0697 249.944C41.8393 256.029 42.9914 261.964 43.7067 267.4C43.9854 270.13 44.3016 272.717 44.3694 275.16C44.4146 276.382 44.5125 277.55 44.5125 278.689C44.5049 279.82 44.4974 280.906 44.4974 281.947C44.5351 284.02 44.3468 285.89 44.264 287.534C44.2113 288.356 44.1736 289.125 44.1058 289.827C44.023 290.52 43.9402 291.161 43.8724 291.742C43.7293 292.858 43.6164 293.74 43.5335 294.389C43.4959 294.668 43.4582 294.894 43.4356 295.075C43.4131 295.203 43.3905 295.279 43.3829 295.279Z" fill="#263238"/>
<path d="M63.4811 179.268C63.4887 179.275 63.4586 179.351 63.3833 179.486C63.2929 179.652 63.1875 179.856 63.0519 180.105C62.7281 180.678 62.2914 181.469 61.7341 182.465C61.448 182.978 61.1091 183.536 60.7853 184.169C60.4691 184.81 60.1227 185.504 59.7537 186.25C59.3847 186.997 58.9856 187.796 58.5639 188.641C58.1648 189.493 57.7808 190.42 57.3516 191.378C56.9374 192.343 56.4705 193.339 56.0489 194.402C55.6347 195.473 55.213 196.581 54.7687 197.735C54.5504 198.308 54.3244 198.896 54.091 199.492C53.8877 200.095 53.6768 200.706 53.466 201.332C53.0443 202.576 52.6151 203.858 52.1708 205.17C50.5368 210.471 48.9855 216.368 47.6753 222.634C46.4102 228.908 45.5217 234.949 44.859 240.461C44.2942 245.981 43.8801 250.965 43.7671 255.158C43.6617 257.254 43.6391 259.154 43.6316 260.821C43.6015 262.487 43.6015 263.928 43.6391 265.096C43.6542 266.235 43.6692 267.14 43.6768 267.804C43.6768 268.09 43.6768 268.316 43.6768 268.505C43.6768 268.663 43.6692 268.746 43.6617 268.746C43.6542 268.746 43.6391 268.663 43.6316 268.505C43.6165 268.316 43.6015 268.083 43.5864 267.804C43.5563 267.148 43.5111 266.243 43.4509 265.096C43.3831 263.92 43.3605 262.487 43.3605 260.813C43.3379 259.147 43.3379 257.239 43.4207 255.143C43.4885 250.935 43.8725 245.943 44.4072 240.408C45.0397 234.881 45.9208 228.825 47.1858 222.529C48.4961 216.247 50.0699 210.328 51.7341 205.027C52.1859 203.715 52.6226 202.425 53.0518 201.181C53.2702 200.555 53.4811 199.944 53.6844 199.341C53.9178 198.745 54.1437 198.157 54.3696 197.584C54.8214 196.438 55.2582 195.322 55.6799 194.251C56.1166 193.188 56.591 192.192 57.0203 191.235C57.457 190.277 57.8561 189.357 58.2703 188.505C58.707 187.668 59.1136 186.869 59.4977 186.13C59.8817 185.391 60.2356 184.704 60.567 184.064C60.9058 183.438 61.2597 182.887 61.561 182.374C62.1558 181.394 62.6227 180.625 62.9616 180.059C63.1122 179.818 63.2402 179.622 63.3381 179.464C63.4284 179.328 63.4736 179.268 63.4811 179.268Z" fill="#263238"/>
<path d="M60.8606 251.834C60.8908 251.857 60.5971 252.37 60.0398 253.275C59.4751 254.18 58.6995 255.514 57.7883 257.188C56.8696 258.855 55.8757 260.891 54.8666 263.198C53.8802 265.513 52.8937 268.1 52.0277 270.867C51.1843 273.642 50.5367 276.342 50.0473 278.808C49.5879 281.281 49.2566 283.528 49.0759 285.421C48.8876 287.314 48.7747 288.852 48.7295 289.923C48.6768 290.986 48.6316 291.574 48.594 291.574C48.5563 291.574 48.5413 290.986 48.5337 289.915C48.5187 288.844 48.5714 287.299 48.722 285.391C48.8575 283.483 49.1512 281.221 49.5879 278.725C50.0548 276.236 50.6874 273.522 51.5383 270.724C52.4118 267.934 53.4133 265.332 54.4299 263.017C55.469 260.71 56.5082 258.674 57.4721 257.022C58.4284 255.363 59.2492 254.051 59.8667 253.177C60.4766 252.294 60.8305 251.819 60.8606 251.834Z" fill="#263238"/>
<path d="M28.4956 287.811H62.404L58.3001 322.491H32.72L28.4956 287.811Z" fill="#455A64"/>
<path d="M29.7305 318.758L32.6145 322.498H58.3L61.2669 318.871L29.7305 318.758Z" fill="#263238"/>
<path d="M61.0868 297.995C61.0868 298.138 54.046 298.251 45.3713 298.251C36.689 298.251 29.6558 298.138 29.6558 297.995C29.6558 297.851 36.689 297.738 45.3713 297.738C54.046 297.746 61.0868 297.859 61.0868 297.995Z" fill="white"/>
<path d="M61.0868 300.329C61.0868 300.472 54.046 300.585 45.3713 300.585C36.689 300.585 29.6558 300.472 29.6558 300.329C29.6558 300.185 36.689 300.072 45.3713 300.072C54.046 300.072 61.0868 300.185 61.0868 300.329Z" fill="white"/>
<path d="M60.6651 302.543C60.6651 302.687 53.8728 302.8 45.4993 302.8C37.1182 302.8 30.3335 302.687 30.3335 302.543C30.3335 302.4 37.1257 302.287 45.4993 302.287C53.8728 302.287 60.6651 302.4 60.6651 302.543Z" fill="white"/>
<path d="M328.492 322.509C328.492 322.614 255.05 322.705 164.477 322.705C73.8658 322.705 0.438965 322.622 0.438965 322.509C0.438965 322.403 73.8658 322.312 164.469 322.312C255.05 322.312 328.492 322.403 328.492 322.509Z" fill="#263238"/>
<path d="M315.027 82.7972C312.496 79.5848 312.436 73.7257 312.519 72.1874C312.715 68.6357 304.808 47.8986 285.215 56.4649V56.4498C278.196 56.4498 278.076 63.3873 276.743 64.7899C275.41 66.1849 273.927 67.6403 273.58 69.5406C272.963 72.9113 276.156 76.184 275.343 79.5094C275.041 80.7612 274.205 81.8169 273.618 82.9556C272.993 83.9811 272.489 85.6401 272.76 86.56C273.031 87.48 273.618 88.2718 274.1 89.1013C274.582 89.9308 274.981 90.8809 274.808 91.831C274.499 93.5428 272.526 94.4854 271.992 96.1443C271.472 97.7656 272.489 99.4321 273.415 100.865C274.334 102.298 275.23 104.092 274.484 105.623C274.085 106.437 273.302 106.98 272.669 107.621C270.734 109.567 270.162 112.742 271.284 115.245C275.041 114.506 278.799 113.76 282.556 113.021C283.046 107.644 283.543 102.26 284.032 96.8833C287.331 97.7053 290.938 95.5939 292.496 95.1942L294.416 94.1536C298.618 94.8926 303.151 94.6286 306.834 92.4795C310.516 90.3304 315.975 93.0752 315.26 88.8675C314.921 86.8089 316.307 84.426 315.027 82.7972Z" fill="#263238"/>
<path d="M302.173 63.1597L286.842 58.6126C281.902 57.8887 278.355 63.8685 277.843 68.8454C277.271 74.3728 276.789 81.1369 277.278 85.2994C278.265 93.6621 284.583 94.9742 284.583 94.9742C284.583 94.9666 283.476 106.821 283.37 109.784L302.279 100.094L304.666 66.2288C304.756 64.7206 303.672 63.3859 302.173 63.1597Z" fill="#FFD3C1"/>
<path d="M278.793 75.6745C278.748 76.2401 279.192 76.7378 279.779 76.7905C280.367 76.8433 280.871 76.4361 280.916 75.8706C280.961 75.305 280.517 74.8073 279.937 74.7545C279.342 74.7017 278.838 75.1165 278.793 75.6745Z" fill="#263238"/>
<path d="M278.227 73.195C278.333 73.3307 279.236 73.1346 280.366 73.474C281.495 73.7982 282.211 74.4693 282.361 74.4015C282.437 74.3713 282.346 74.1526 282.038 73.851C281.736 73.5569 281.179 73.1874 280.471 72.9838C279.771 72.7802 279.123 72.7953 278.732 72.8858C278.34 72.9838 278.175 73.1271 278.227 73.195Z" fill="#263238"/>
<path d="M289.417 76.5398C289.372 77.1054 289.816 77.6031 290.404 77.6558C290.991 77.7086 291.496 77.3014 291.541 76.7359C291.586 76.1703 291.142 75.6726 290.562 75.6198C289.967 75.5671 289.455 75.9743 289.417 76.5398Z" fill="#263238"/>
<path d="M289.603 74.7369C289.769 74.8123 290.597 74.2619 291.877 74.0809C293.158 73.8924 294.174 74.1789 294.295 74.0583C294.355 74.0055 294.174 73.8471 293.73 73.7114C293.293 73.5756 292.57 73.4927 291.772 73.6058C290.974 73.7189 290.341 74.0055 289.987 74.2543C289.626 74.5032 289.52 74.6992 289.603 74.7369Z" fill="#263238"/>
<path d="M285.653 82.241C285.66 82.1732 284.952 82.0224 283.808 81.8263C283.514 81.7811 283.243 81.7132 283.198 81.5096C283.138 81.2985 283.273 80.9817 283.431 80.65C283.733 79.9487 284.049 79.2247 284.388 78.4556C285.713 75.3262 286.692 72.7548 286.564 72.702C286.436 72.6492 285.261 75.1377 283.928 78.2671C283.605 79.0362 283.303 79.7752 283.01 80.4765C282.889 80.8083 282.678 81.1778 282.814 81.6227C282.882 81.8414 283.092 82.0148 283.281 82.0676C283.469 82.1355 283.627 82.143 283.778 82.1581C284.922 82.2712 285.645 82.3014 285.653 82.241Z" fill="#263238"/>
<path d="M284.583 94.9797C284.583 94.9797 290.035 95.681 295.705 92.5742C295.607 92.5893 292.302 98.358 284.38 97.1892L284.583 94.9797Z" fill="#F4AF9B"/>
<path d="M286.022 85.0229C286.458 84.495 287.189 84.2236 287.904 84.3292C288.401 84.4046 288.891 84.6609 289.177 85.0832C289.463 85.498 289.501 86.0786 289.214 86.4556C288.891 86.8779 288.236 86.9533 287.701 86.7724C287.159 86.5914 286.707 86.2143 286.27 85.8373C286.15 85.7317 286.029 85.6262 285.954 85.4829C285.879 85.3472 285.871 85.1662 285.969 85.0531" fill="#F4AF9B"/>
<path d="M288.989 83.1544C288.8 83.1394 288.748 84.3836 287.648 85.2206C286.549 86.0652 285.231 85.8691 285.216 86.0425C285.193 86.118 285.502 86.2989 286.059 86.3366C286.609 86.3743 287.415 86.2311 288.085 85.7183C288.755 85.2055 289.064 84.4891 289.124 83.9839C289.199 83.4636 289.079 83.1469 288.989 83.1544Z" fill="#263238"/>
<path d="M289.754 70.6756C289.852 70.9923 291.004 70.8867 292.345 71.1054C293.685 71.2939 294.754 71.7313 294.942 71.4598C295.025 71.3316 294.852 71.03 294.423 70.7057C294.001 70.389 293.316 70.0723 292.518 69.9517C291.712 69.831 290.974 69.929 290.477 70.11C289.965 70.291 289.709 70.5323 289.754 70.6756Z" fill="#263238"/>
<path d="M279.455 69.9229C279.643 70.1943 280.449 69.953 281.398 69.9757C282.347 69.9681 283.145 70.2245 283.341 69.953C283.424 69.8248 283.311 69.5609 282.972 69.297C282.633 69.0406 282.068 68.8144 281.413 68.8068C280.758 68.7993 280.186 69.018 279.847 69.2668C279.493 69.5307 279.372 69.7947 279.455 69.9229Z" fill="#263238"/>
<path d="M285.034 57.5352C291.201 58.5155 297.241 60.2348 303.001 62.6403C304.334 63.1983 305.735 63.8619 306.488 65.0985C307.286 66.4031 307.18 68.0545 307.052 69.5777C306.42 77.028 305.787 84.4783 305.155 91.9286L304.357 91.8833C302.06 92.2604 301.894 91.084 300.253 89.4326C298.611 87.7811 297.82 85.3153 298.197 83.0154C298.536 80.9869 299.71 78.9509 299.078 76.9903C298.242 74.4038 294.695 73.4763 293.844 70.8898C293.347 69.3892 293.912 67.6699 293.34 66.1995C292.805 64.812 291.397 63.9674 290.019 63.4094C288.641 62.8514 287.158 62.4442 286.021 61.4865C284.891 60.5364 284.228 58.7869 285.034 57.5352Z" fill="#263238"/>
<path d="M234.695 100.474H173.919C171.442 100.474 169.438 98.4608 169.438 95.9874V47.0629C169.438 44.582 171.442 42.5762 173.919 42.5762H234.695C237.172 42.5762 239.175 44.5896 239.175 47.0629V95.9799C239.183 98.4683 237.172 100.474 234.695 100.474Z" fill="#455A64"/>
<path d="M204.311 80.4776C209.863 80.4776 214.363 75.9704 214.363 70.4107C214.363 64.8509 209.863 60.3438 204.311 60.3438C198.759 60.3438 194.258 64.8509 194.258 70.4107C194.258 75.9704 198.759 80.4776 204.311 80.4776Z" fill="#0064FF" fill-opacity="0.74902"/>
<path d="M201.886 73.3601V67.418C201.886 67.1314 202.194 66.9429 202.451 67.0862L207.752 70.0799C208.008 70.2231 208.008 70.5926 207.752 70.7359L202.451 73.6843C202.194 73.8276 201.886 73.6466 201.886 73.3601Z" fill="white"/>
<path d="M267.387 295.216L269.127 311.994C269.127 311.994 252.681 319.399 252.704 322.529L285.309 320.319L283.668 294.062L267.387 295.216Z" fill="#455A64"/>
<g opacity="0.3">
<path d="M267.387 295.216L269.127 311.994C269.127 311.994 252.681 319.399 252.704 322.529L285.309 320.319L283.668 294.062L267.387 295.216Z" fill="black"/>
</g>
<g opacity="0.6">
<path d="M279.109 309.893C279.749 310.021 280.239 310.707 280.133 311.356C280.028 312.004 279.342 312.502 278.695 312.382C278.047 312.261 277.445 311.462 277.618 310.828C277.791 310.195 278.635 309.652 279.229 309.923" fill="white"/>
</g>
<g opacity="0.6">
<path d="M285.304 320.317L285.033 317.678L253.873 320.785C253.873 320.785 252.465 321.516 252.698 322.526L285.304 320.317Z" fill="white"/>
</g>
<path d="M268.58 311.849C268.595 312.008 269.393 312.03 270.214 312.483C271.042 312.92 271.494 313.584 271.637 313.508C271.78 313.471 271.479 312.528 270.477 311.993C269.491 311.45 268.542 311.706 268.58 311.849Z" fill="#263238"/>
<path d="M265.259 313.512C265.237 313.67 265.945 313.896 266.524 314.53C267.127 315.148 267.315 315.872 267.473 315.849C267.624 315.864 267.669 314.922 266.931 314.145C266.193 313.361 265.252 313.361 265.259 313.512Z" fill="#263238"/>
<path d="M263.596 317.742C263.747 317.765 263.912 316.958 263.446 316.106C262.986 315.254 262.211 314.96 262.15 315.103C262.068 315.239 262.587 315.676 262.956 316.377C263.348 317.071 263.438 317.742 263.596 317.742Z" fill="#263238"/>
<path d="M268.611 307.988C268.686 308.131 269.401 307.859 270.305 307.859C271.208 307.844 271.931 308.093 272.007 307.957C272.09 307.837 271.367 307.294 270.305 307.309C269.236 307.309 268.528 307.867 268.611 307.988Z" fill="#263238"/>
<path d="M268.324 304.605C268.324 304.672 268.964 304.725 269.958 304.484C270.455 304.363 271.035 304.16 271.63 303.843C271.931 303.685 272.232 303.496 272.534 303.277C272.677 303.172 272.85 303.059 273.001 302.863C273.166 302.682 273.234 302.252 273.016 302.011C272.835 301.769 272.526 301.686 272.293 301.694C272.052 301.701 271.863 301.762 271.683 301.822C271.329 301.935 270.99 302.078 270.689 302.237C270.086 302.561 269.604 302.953 269.251 303.33C268.543 304.084 268.324 304.695 268.377 304.725C268.452 304.77 268.784 304.25 269.522 303.617C269.883 303.3 270.357 302.968 270.922 302.697C271.208 302.561 271.517 302.44 271.841 302.342C272.18 302.229 272.473 302.207 272.571 302.35C272.609 302.41 272.616 302.433 272.549 302.538C272.481 302.636 272.345 302.734 272.202 302.84C271.924 303.051 271.645 303.232 271.374 303.39C270.824 303.715 270.297 303.941 269.838 304.107C268.927 304.431 268.317 304.522 268.324 304.605Z" fill="#263238"/>
<path d="M268.544 304.803C268.604 304.825 268.883 304.23 268.868 303.196C268.86 302.684 268.762 302.065 268.521 301.424C268.401 301.1 268.243 300.776 268.039 300.459C267.828 300.15 267.565 299.735 266.94 299.705C266.616 299.713 266.367 299.984 266.292 300.21C266.202 300.437 266.194 300.633 266.164 300.821C266.127 301.206 266.164 301.583 266.239 301.922C266.39 302.608 266.714 303.166 267.053 303.566C267.746 304.373 268.423 304.516 268.431 304.463C268.476 304.38 267.904 304.109 267.361 303.332C267.09 302.948 266.842 302.435 266.744 301.832C266.691 301.53 266.676 301.213 266.706 300.881C266.736 300.535 266.842 300.24 266.977 300.271C267.143 300.256 267.429 300.497 267.587 300.768C267.776 301.047 267.926 301.341 268.054 301.628C268.295 302.201 268.423 302.767 268.483 303.242C268.589 304.177 268.461 304.788 268.544 304.803Z" fill="#263238"/>
<path d="M264.56 172.412C264.56 172.412 250.117 238.077 249.672 243.936C249.228 249.803 267.572 300.424 267.572 300.424L283.355 297.438C283.355 297.438 282.354 222.686 281.841 221.216C281.329 219.753 285.878 183.014 285.878 183.014L264.56 172.412Z" fill="#263238"/>
<path d="M274.642 295.965L274.815 312.834C274.815 312.834 257.752 318.678 257.481 321.8L290.147 322.139L290.953 296.342L274.642 295.965Z" fill="#455A64"/>
<g opacity="0.6">
<path d="M284.958 311.687C285.583 311.876 286.005 312.6 285.839 313.233C285.673 313.867 284.943 314.304 284.318 314.123C283.685 313.942 283.158 313.09 283.392 312.479C283.625 311.868 284.514 311.401 285.079 311.725" fill="white"/>
</g>
<g opacity="0.6">
<path d="M290.155 322.159L290.14 320.002L258.822 320.19C258.822 320.19 257.353 320.786 257.489 321.819L290.155 322.159Z" fill="white"/>
</g>
<path d="M274.296 312.682C274.296 312.84 275.094 312.938 275.862 313.466C276.646 313.979 277.037 314.68 277.18 314.62C277.331 314.59 277.112 313.632 276.171 312.999C275.23 312.373 274.266 312.539 274.296 312.682Z" fill="#263238"/>
<path d="M270.833 314.005C270.795 314.156 271.473 314.45 272 315.136C272.542 315.807 272.663 316.546 272.821 316.539C272.972 316.569 273.107 315.634 272.437 314.789C271.774 313.945 270.841 313.854 270.833 314.005Z" fill="#263238"/>
<path d="M268.775 318.07C268.918 318.108 269.159 317.316 268.775 316.434C268.391 315.544 267.653 315.182 267.578 315.31C267.487 315.438 267.954 315.921 268.263 316.652C268.594 317.376 268.617 318.047 268.775 318.07Z" fill="#263238"/>
<path d="M274.68 308.82C274.741 308.971 275.479 308.767 276.382 308.85C277.286 308.918 277.979 309.235 278.061 309.099C278.159 308.986 277.489 308.375 276.427 308.292C275.366 308.202 274.605 308.692 274.68 308.82Z" fill="#263238"/>
<g opacity="0.3">
<path d="M274.68 299.311L274.71 302.312L290.772 302.576L290.863 299.869L274.68 299.311Z" fill="black"/>
</g>
<path d="M274.711 305.435C274.711 305.503 275.336 305.616 276.345 305.466C276.85 305.39 277.445 305.239 278.07 304.983C278.386 304.855 278.702 304.696 279.019 304.508C279.169 304.417 279.35 304.319 279.523 304.138C279.704 303.98 279.817 303.558 279.621 303.294C279.463 303.037 279.169 302.924 278.928 302.909C278.687 302.894 278.492 302.939 278.311 302.977C277.942 303.052 277.603 303.166 277.287 303.301C276.654 303.573 276.142 303.92 275.751 304.251C274.975 304.938 274.704 305.526 274.757 305.556C274.824 305.609 275.208 305.119 275.992 304.561C276.383 304.282 276.88 303.995 277.475 303.776C277.769 303.671 278.085 303.573 278.424 303.512C278.77 303.43 279.064 303.437 279.154 303.595C279.184 303.656 279.192 303.678 279.117 303.776C279.041 303.867 278.898 303.957 278.748 304.048C278.454 304.229 278.16 304.387 277.874 304.523C277.294 304.794 276.745 304.968 276.278 305.088C275.321 305.322 274.711 305.345 274.711 305.435Z" fill="#263238"/>
<path d="M274.906 305.637C274.958 305.66 275.29 305.102 275.38 304.069C275.418 303.556 275.38 302.93 275.199 302.267C275.109 301.935 274.981 301.595 274.808 301.264C274.627 300.939 274.401 300.495 273.784 300.412C273.46 300.389 273.189 300.638 273.091 300.849C272.978 301.068 272.948 301.256 272.91 301.445C272.842 301.822 272.835 302.199 272.88 302.546C272.963 303.247 273.234 303.835 273.535 304.257C274.153 305.125 274.815 305.328 274.83 305.275C274.883 305.2 274.341 304.876 273.866 304.046C273.633 303.639 273.437 303.104 273.385 302.493C273.362 302.191 273.37 301.867 273.437 301.55C273.498 301.203 273.633 300.924 273.761 300.962C273.927 300.962 274.19 301.234 274.318 301.513C274.476 301.807 274.604 302.116 274.702 302.41C274.891 303.006 274.966 303.571 274.981 304.054C275.011 305.019 274.823 305.607 274.906 305.637Z" fill="#263238"/>
<path d="M301.269 171.406L264.56 172.417L269.831 237.825L273.099 300.874L292.143 301.537C293.114 289.366 293.182 246.361 293.182 246.361L297.03 220.383C297.918 213.378 300.727 206.018 302.082 199.737C302.873 196.042 304.04 191.254 304.281 189.693C305.004 185.07 301.269 171.406 301.269 171.406Z" fill="#263238"/>
<path d="M266.698 187.465C266.706 187.465 266.706 187.563 266.706 187.759C266.698 187.97 266.69 188.257 266.683 188.619C266.653 189.395 266.608 190.504 266.555 191.921C266.495 193.354 266.419 195.111 266.359 197.147C266.299 199.183 266.201 201.506 266.148 204.07C266.005 209.197 265.93 215.305 265.96 222.092C266.013 228.879 266.171 236.329 266.555 244.149C266.954 251.969 267.549 259.404 268.219 266.153C268.588 269.523 268.912 272.728 269.319 275.722C269.514 277.215 269.68 278.663 269.883 280.05C270.087 281.438 270.282 282.765 270.463 284.032C270.809 286.573 271.224 288.858 271.547 290.871C271.864 292.885 272.18 294.612 272.444 296.022C272.692 297.417 272.895 298.51 273.031 299.272C273.091 299.634 273.136 299.913 273.174 300.116C273.204 300.305 273.219 300.403 273.212 300.41C273.204 300.41 273.182 300.312 273.136 300.124C273.091 299.92 273.031 299.641 272.956 299.287C272.805 298.525 272.579 297.439 272.3 296.044C272.014 294.634 271.675 292.915 271.337 290.902C270.99 288.888 270.561 286.611 270.2 284.07C270.004 282.803 269.8 281.468 269.59 280.088C269.379 278.701 269.206 277.253 269.01 275.76C268.588 272.766 268.249 269.561 267.873 266.19C267.18 259.434 266.578 251.991 266.178 244.164C265.794 236.337 265.644 228.879 265.614 222.084C265.606 215.298 265.712 209.182 265.885 204.055C265.945 201.491 266.065 199.168 266.148 197.132C266.231 195.096 266.321 193.339 266.412 191.906C266.495 190.489 266.562 189.38 266.608 188.603C266.63 188.242 266.653 187.955 266.668 187.744C266.675 187.563 266.69 187.465 266.698 187.465Z" fill="#455A64"/>
<path d="M245.802 99.9952L236.397 89.9434L228.987 95.1389L236.397 106.111L245.802 99.9952Z" fill="#FFD3C1"/>
<path d="M305.237 103.697L304.778 97.3248L283.551 97.0156L283.37 105.016C283.37 105.016 272.948 116.305 269.168 128.966C262.813 150.246 260.508 177.332 260.508 177.332H303.95C303.498 169.837 300.411 153.066 300.411 153.066L310.072 124.223C312.466 113.854 305.237 103.697 305.237 103.697Z" fill="#0064FF" fill-opacity="0.74902"/>
<path d="M252.677 132.507C252.677 132.507 252.798 132.62 253.039 132.831C253.272 133.05 253.641 133.344 254.138 133.691C255.132 134.37 256.736 135.207 258.897 135.523C259.966 135.689 261.179 135.689 262.436 135.486C263.701 135.342 265.049 135.169 266.465 134.98C269.296 134.596 272.406 134.121 275.659 133.57C282.135 132.432 288.001 131.399 292.301 130.645C294.394 130.305 296.111 130.019 297.354 129.815C297.919 129.725 298.37 129.649 298.732 129.596C299.048 129.544 299.206 129.506 299.206 129.506C299.206 129.506 299.041 129.521 298.724 129.559C298.363 129.611 297.911 129.672 297.346 129.747C296.149 129.913 294.417 130.177 292.286 130.524C288.016 131.203 282.135 132.296 275.637 133.404C272.384 133.955 269.281 134.438 266.45 134.83C265.034 135.026 263.686 135.199 262.421 135.35C261.164 135.554 259.982 135.561 258.92 135.41C256.781 135.109 255.177 134.302 254.176 133.646C253.671 133.306 253.302 133.027 253.061 132.816C252.813 132.605 252.677 132.507 252.677 132.507Z" fill="#263238"/>
<path d="M306.571 122.214C306.579 122.214 306.594 122.153 306.616 122.048C306.647 121.889 306.684 121.731 306.714 121.558C306.797 121.128 306.91 120.509 307.016 119.733C307.219 118.202 307.437 116 306.857 113.662C306.263 111.325 304.802 109.538 303.484 108.701C302.821 108.271 302.226 108.037 301.805 107.939C301.383 107.833 301.142 107.818 301.142 107.818C301.119 107.871 302.136 107.931 303.424 108.799C304.704 109.643 306.127 111.408 306.707 113.708C307.279 116.008 307.083 118.194 306.91 119.725C306.82 120.494 306.722 121.12 306.662 121.55C306.639 121.724 306.616 121.889 306.594 122.048C306.571 122.153 306.571 122.214 306.571 122.214Z" fill="#263238"/>
<path d="M261.382 127.409C261.39 127.409 261.382 127.236 261.352 126.934C261.314 126.534 261.277 126.104 261.232 125.644C261.141 124.551 261.066 123.035 261.104 121.369C261.149 119.695 261.299 118.187 261.442 117.101C261.51 116.641 261.57 116.218 261.631 115.819C261.676 115.517 261.698 115.344 261.683 115.344C261.676 115.344 261.631 115.51 261.563 115.804C261.495 116.105 261.412 116.543 261.329 117.086C261.156 118.172 260.983 119.687 260.938 121.361C260.9 123.043 260.991 124.559 261.111 125.652C261.171 126.195 261.232 126.64 261.284 126.941C261.337 127.243 261.375 127.409 261.382 127.409Z" fill="#263238"/>
<path d="M283.627 104.907C284.071 103.399 285.02 102.102 285.946 100.842C287.467 98.7838 289.109 96.6272 291.481 95.6544C293.092 94.9908 297.256 95.3603 298.371 94.0105C301.835 89.8103 296.759 87.1937 298.604 81.4175C300.622 75.0908 299.583 76.056 299.734 71.0791L307.43 67.7461C308.642 68.651 312 71.9237 311.631 73.3866C311.263 74.857 311.368 76.4858 311.925 78.2353C313.107 81.9453 317.189 84.1397 319.116 87.5179C321.097 90.9867 318.868 95.579 318.815 99.5681C318.763 103.557 320.269 108.361 324.162 109.228C322.708 112.154 320.276 114.582 317.339 116.014C316.526 114.906 315.713 113.797 314.9 112.689C315.382 115.698 313.333 118.91 310.404 119.74C309.583 116.233 308.717 112.629 306.601 109.725C304.485 106.822 300.765 104.771 297.294 105.699C294.975 106.325 293.175 108.112 291.104 109.333C289.033 110.547 286.089 111.068 284.432 109.326C283.341 108.195 283.182 106.408 283.627 104.907Z" fill="#263238"/>
<g opacity="0.3">
<path d="M269.168 134.466C279.176 132.634 292.519 130.447 302.527 128.622C302.903 128.554 303.295 128.486 303.649 128.629C304.311 128.893 304.507 129.813 304.206 130.462C303.905 131.11 303.272 131.533 302.64 131.864C299.356 133.584 295.501 133.719 291.796 133.825C285.471 133.998 275.493 134.293 269.168 134.466Z" fill="black"/>
</g>
<path d="M261.856 135.463C264.966 135.524 300.81 128.971 300.81 128.971Z" fill="#0064FF" fill-opacity="0.74902"/>
<path d="M300.2 106.548C302.828 106.872 304.538 107.332 307.61 110.62C307.941 110.974 308.243 111.411 308.529 111.909C311.948 117.942 309.47 126.274 302.926 128.536L296.586 129.841L261.857 135.451C261.857 135.451 254.455 137.118 248.107 127.239C245.78 123.62 229.733 99.6477 229.733 99.6477L240.275 92.582L261.525 115.348L300.2 106.548Z" fill="#0064FF" fill-opacity="0.74902"/>
<path d="M252.677 132.49C252.677 132.49 252.798 132.603 253.039 132.814C253.272 133.032 253.641 133.327 254.138 133.673C255.132 134.352 256.736 135.189 258.897 135.506C259.966 135.672 261.179 135.672 262.436 135.468C263.701 135.325 265.049 135.151 266.465 134.963C269.296 134.578 272.406 134.103 275.659 133.553C282.135 132.414 288.001 131.381 292.301 130.627C294.394 130.288 296.111 130.001 297.354 129.797C297.919 129.707 298.37 129.632 298.732 129.579C299.048 129.526 299.206 129.488 299.206 129.488C299.206 129.488 299.041 129.503 298.724 129.541C298.363 129.594 297.911 129.654 297.346 129.73C296.149 129.895 294.417 130.159 292.286 130.506C288.016 131.185 282.135 132.278 275.637 133.387C272.384 133.937 269.281 134.42 266.45 134.812C265.034 135.008 263.686 135.182 262.421 135.332C261.164 135.536 259.982 135.544 258.92 135.393C256.781 135.091 255.177 134.284 254.176 133.628C253.671 133.289 253.302 133.01 253.061 132.799C252.813 132.588 252.677 132.49 252.677 132.49Z" fill="#263238"/>
<path d="M306.571 122.212C306.579 122.212 306.594 122.151 306.616 122.046C306.647 121.887 306.684 121.729 306.714 121.556C306.797 121.126 306.91 120.508 307.016 119.731C307.219 118.2 307.437 115.998 306.857 113.66C306.263 111.323 304.802 109.536 303.484 108.699C302.821 108.269 302.226 108.035 301.805 107.937C301.383 107.831 301.142 107.816 301.142 107.816C301.119 107.869 302.136 107.93 303.424 108.797C304.704 109.641 306.127 111.406 306.707 113.706C307.279 116.006 307.083 118.192 306.91 119.723C306.82 120.492 306.722 121.118 306.662 121.548C306.639 121.722 306.616 121.887 306.594 122.046C306.571 122.151 306.571 122.212 306.571 122.212Z" fill="#263238"/>
<path d="M261.383 127.407C261.39 127.407 261.383 127.234 261.352 126.932C261.315 126.532 261.277 126.102 261.232 125.642C261.142 124.549 261.066 123.033 261.104 121.367C261.149 119.693 261.3 118.185 261.443 117.099C261.511 116.639 261.571 116.217 261.631 115.817C261.676 115.515 261.699 115.342 261.684 115.342C261.676 115.342 261.631 115.508 261.563 115.802C261.496 116.103 261.413 116.541 261.33 117.084C261.157 118.17 260.984 119.685 260.938 121.359C260.901 123.041 260.991 124.557 261.112 125.65C261.172 126.193 261.232 126.638 261.285 126.939C261.337 127.241 261.375 127.407 261.383 127.407Z" fill="#263238"/>
<path d="M236.352 82.1763C236.065 79.9367 236.103 78.5341 236.156 77.8555C236.178 77.5388 235.915 77.2899 235.606 77.3201C235.034 77.3729 234.19 77.6971 233.671 79.0092C233.355 79.8161 233.445 80.6455 233.453 81.4449C233.468 82.7871 233.453 83.8428 233.453 83.8428C233.453 83.8428 226.766 75.827 225.41 75.465C224.68 75.269 224.416 75.4877 224.145 75.9175C223.897 76.3171 224.394 77.2522 224.394 77.2522L228.166 82.6514C228.166 82.6514 222.466 75.9326 221.434 75.9552C220.38 75.9778 219.951 76.7394 220.598 77.9535C221.088 78.8659 226.065 84.7703 226.065 84.7703C226.065 84.7703 220.742 79.62 219.68 79.6652C218.618 79.7105 218.799 80.8341 219.356 81.3016C219.913 81.7691 223.852 86.3539 223.852 86.3539C223.852 86.3539 220.004 83.1038 219.228 83.3602C218.43 83.6241 218.784 84.4762 219.198 85.1775C219.612 85.8713 229.258 95.5385 229.258 95.5385L237.624 91.3308C237.843 90.1544 237.805 88.9479 237.496 87.7866C237.127 86.3614 236.615 84.2123 236.352 82.1763Z" fill="#FFD3C1"/>
<path d="M113.408 177.394C109.154 177.394 105.705 173.941 105.705 169.68V102.613C105.705 99.1969 108.657 96.437 112.294 96.437H118.589C121.157 96.437 123.491 95.0344 124.568 92.8476L125.924 90.0952C127 87.9084 129.335 86.5059 131.903 86.5059H161.797C164.124 86.5059 166.285 87.6596 167.468 89.5448L168.936 91.8749C170.118 93.7525 172.28 94.9138 174.606 94.9138H212.717C216.354 94.9138 219.306 97.6812 219.306 101.09V169.68C219.306 173.941 215.857 177.394 211.602 177.394H113.408Z" fill="#0064FF" fill-opacity="0.74902"/>
<g opacity="0.3">
<path d="M113.408 177.394C109.154 177.394 105.705 173.941 105.705 169.68V102.613C105.705 99.1969 108.657 96.437 112.294 96.437H118.589C121.157 96.437 123.491 95.0344 124.568 92.8476L125.924 90.0952C127 87.9084 129.335 86.5059 131.903 86.5059H161.797C164.124 86.5059 166.285 87.6596 167.468 89.5448L168.936 91.8749C170.118 93.7525 172.28 94.9138 174.606 94.9138H212.717C216.354 94.9138 219.306 97.6812 219.306 101.09V169.68C219.306 173.941 215.857 177.394 211.602 177.394H113.408Z" fill="black"/>
</g>
<path d="M170.847 94.9082L146.607 94.8554L144.439 90.7985C143.03 88.1668 140.169 86.5078 137.029 86.5078H113.331C109.115 86.5078 105.696 89.7126 105.696 93.6715V96.439V169.26C105.696 173.754 109.581 177.396 114.371 177.396H210.622C215.411 177.396 219.296 173.754 219.296 169.26V100.466C219.296 97.3966 216.811 94.9082 213.747 94.9082H170.847Z" fill="#0064FF" fill-opacity="0.74902"/>
<path d="M183.075 152.193H172.345C171.923 152.193 171.584 151.853 171.584 151.431C171.584 151.009 171.923 150.67 172.345 150.67H183.075C188.964 150.67 193.753 145.874 193.753 139.977C193.753 134.306 189.318 129.623 183.663 129.314C183.332 129.299 183.053 129.065 182.97 128.749C181.027 121.2 174.235 115.929 166.456 115.929C161.253 115.929 156.404 118.267 153.135 122.346C152.97 122.55 152.714 122.656 152.458 122.625C151.863 122.558 151.328 122.52 150.831 122.52C143.083 122.52 136.78 128.831 136.78 136.591C136.78 144.35 143.083 150.662 150.831 150.662H159.529C159.95 150.662 160.289 151.001 160.289 151.424C160.289 151.846 159.95 152.185 159.529 152.185H150.831C142.247 152.185 135.259 145.187 135.259 136.591C135.259 127.994 142.247 120.997 150.831 120.997C151.268 120.997 151.727 121.019 152.217 121.064C155.764 116.827 160.937 114.398 166.456 114.398C174.747 114.398 182.006 119.896 184.295 127.836C190.493 128.454 195.274 133.68 195.274 139.969C195.267 146.718 189.8 152.193 183.075 152.193Z" fill="white"/>
<path d="M165.726 159.053C165.304 159.053 164.965 158.714 164.965 158.291V138.685C164.965 138.263 165.304 137.924 165.726 137.924C166.148 137.924 166.486 138.263 166.486 138.685V158.291C166.486 158.714 166.14 159.053 165.726 159.053Z" fill="white"/>
<path d="M171.441 146.513C171.208 146.513 170.982 146.407 170.831 146.211L165.839 139.515C165.794 139.462 165.756 139.455 165.696 139.447C165.651 139.447 165.598 139.462 165.553 139.515L160.259 146.023C159.996 146.347 159.514 146.4 159.19 146.136C158.866 145.872 158.813 145.389 159.077 145.065L164.371 138.557C164.702 138.15 165.191 137.931 165.718 137.924C166.246 137.931 166.728 138.173 167.051 138.595L172.044 145.299C172.292 145.638 172.225 146.113 171.893 146.362C171.765 146.468 171.6 146.513 171.441 146.513Z" fill="white"/>
<path d="M151.027 193.288V189.91H151.652V193.266C151.652 194.668 152.307 195.309 153.452 195.309C154.604 195.309 155.259 194.668 155.259 193.266V189.91H155.869V193.288C155.869 194.985 154.958 195.86 153.452 195.86C151.946 195.86 151.027 194.985 151.027 193.288Z" fill="#263238"/>
<path d="M162.104 193.597C162.104 194.947 161.163 195.859 159.898 195.859C159.19 195.859 158.588 195.557 158.211 194.984V197.458H157.616V191.387H158.189V192.262C158.55 191.674 159.167 191.35 159.898 191.35C161.163 191.342 162.104 192.255 162.104 193.597ZM161.509 193.597C161.509 192.571 160.794 191.87 159.86 191.87C158.919 191.87 158.211 192.571 158.211 193.597C158.211 194.637 158.919 195.324 159.86 195.324C160.794 195.324 161.509 194.63 161.509 193.597Z" fill="#263238"/>
<path d="M163.324 189.555H163.919V195.814H163.324V189.555Z" fill="#263238"/>
<path d="M165.146 193.597C165.146 192.285 166.103 191.35 167.406 191.35C168.701 191.35 169.657 192.285 169.657 193.597C169.657 194.916 168.708 195.859 167.406 195.859C166.103 195.851 165.146 194.909 165.146 193.597ZM169.04 193.597C169.04 192.556 168.339 191.87 167.398 191.87C166.457 191.87 165.749 192.564 165.749 193.597C165.749 194.637 166.457 195.324 167.398 195.324C168.339 195.324 169.04 194.63 169.04 193.597Z" fill="#263238"/>
<path d="M174.183 193.061V195.806H173.611V195.112C173.34 195.564 172.82 195.843 172.09 195.843C171.088 195.843 170.471 195.323 170.471 194.554C170.471 193.868 170.907 193.295 172.18 193.295H173.588V193.023C173.588 192.261 173.159 191.854 172.331 191.854C171.758 191.854 171.216 192.058 170.855 192.375L170.584 191.93C171.028 191.553 171.683 191.334 172.383 191.334C173.535 191.342 174.183 191.915 174.183 193.061ZM173.588 194.478V193.755H172.203C171.344 193.755 171.066 194.094 171.066 194.546C171.066 195.059 171.48 195.383 172.188 195.383C172.85 195.383 173.347 195.059 173.588 194.478Z" fill="#263238"/>
<path d="M179.868 189.555V195.814H179.296V194.939C178.934 195.534 178.317 195.859 177.586 195.859C176.321 195.859 175.38 194.939 175.38 193.597C175.38 192.254 176.321 191.349 177.586 191.349C178.294 191.349 178.904 191.651 179.273 192.224V189.562H179.868V189.555ZM179.273 193.597C179.273 192.556 178.565 191.87 177.631 191.87C176.69 191.87 175.982 192.563 175.982 193.597C175.982 194.637 176.69 195.323 177.631 195.323C178.565 195.323 179.273 194.63 179.273 193.597Z" fill="#263238"/>
<path d="M181.141 195.386C181.141 195.122 181.344 194.934 181.585 194.934C181.826 194.934 182.037 195.13 182.037 195.386C182.037 195.643 181.826 195.854 181.585 195.854C181.344 195.847 181.141 195.643 181.141 195.386Z" fill="#263238"/>
<path d="M182.925 195.386C182.925 195.122 183.129 194.934 183.37 194.934C183.611 194.934 183.822 195.13 183.822 195.386C183.822 195.643 183.611 195.854 183.37 195.854C183.129 195.847 182.925 195.643 182.925 195.386Z" fill="#263238"/>
<path d="M184.71 195.386C184.71 195.122 184.913 194.934 185.155 194.934C185.396 194.934 185.607 195.13 185.607 195.386C185.607 195.643 185.396 195.854 185.155 195.854C184.913 195.847 184.71 195.643 184.71 195.386Z" fill="#263238"/>
<path d="M223.061 217.353H105.613C102.857 217.353 100.62 215.113 100.62 212.353V210.89C100.62 208.13 102.857 205.891 105.613 205.891H223.053C225.81 205.891 228.046 208.13 228.046 210.89V212.353C228.046 215.113 225.81 217.353 223.061 217.353Z" fill="#C5DCFF"/>
<path d="M159.348 217.353H105.613C102.857 217.353 100.62 215.113 100.62 212.353V210.89C100.62 208.13 102.857 205.891 105.613 205.891H159.348C162.104 205.891 164.341 208.13 164.341 210.89V212.353C164.333 215.113 162.104 217.353 159.348 217.353Z" fill="#0064FF" fill-opacity="0.74902"/>
<g opacity="0.3">
<path d="M110.251 205.904L103.466 216.68L104.528 217.155C104.829 217.291 105.153 217.359 105.477 217.359H107.63L114.995 205.904H110.251Z" fill="white"/>
</g>
<g opacity="0.3">
<path d="M122.367 205.904L115.161 217.359H119.762L127.126 205.904H122.367Z" fill="white"/>
</g>
<g opacity="0.3">
<path d="M134.491 205.904L127.277 217.359H131.885L139.242 205.904H134.491Z" fill="white"/>
</g>
<g opacity="0.3">
<path d="M146.607 205.904L139.401 217.359H144.002L151.366 205.904H146.607Z" fill="white"/>
</g>
<g opacity="0.3">
<path d="M158.731 205.904L151.524 217.359H156.125L161.924 208.332L162.609 207.352C161.72 206.372 160.357 205.972 158.731 205.904Z" fill="white"/>
</g>
<path d="M223.167 217.366C223.167 217.351 223.4 217.358 223.859 217.29C224.311 217.23 224.989 217.072 225.749 216.596C226.51 216.144 227.338 215.33 227.805 214.116C228.039 213.512 228.144 212.811 228.129 212.064C228.114 211.31 228.182 210.496 227.948 209.689C227.549 208.075 226.111 206.462 224.078 206.1C223.581 205.994 223.054 206.017 222.511 206.017C221.969 206.017 221.419 206.017 220.855 206.024C219.733 206.024 218.566 206.032 217.353 206.032C212.519 206.039 207.007 206.047 200.922 206.062C176.57 206.077 142.94 206.1 105.793 206.122C104.679 206.13 103.572 206.522 102.714 207.231C101.855 207.94 101.26 208.943 101.049 210.028C100.936 210.564 100.959 211.122 100.959 211.702C100.959 212.283 100.952 212.826 101.072 213.369C101.298 214.44 101.915 215.42 102.751 216.106C103.595 216.792 104.671 217.17 105.748 217.185C106.87 217.185 107.985 217.185 109.099 217.185C111.328 217.185 113.534 217.185 115.726 217.185C124.483 217.192 132.932 217.192 140.982 217.2C157.074 217.215 171.57 217.23 183.746 217.245C195.915 217.275 205.757 217.29 212.579 217.305C215.975 217.32 218.618 217.335 220.418 217.343C221.307 217.351 221.984 217.358 222.459 217.366C222.933 217.351 223.167 217.366 223.167 217.366C223.167 217.366 222.933 217.381 222.474 217.388C222.007 217.396 221.322 217.396 220.433 217.411C218.633 217.418 215.99 217.433 212.594 217.449C205.779 217.464 195.93 217.486 183.761 217.509C171.585 217.524 157.089 217.539 140.997 217.554C132.947 217.554 124.498 217.562 115.741 217.569C113.55 217.569 111.343 217.569 109.114 217.569C108 217.569 106.878 217.569 105.756 217.569C104.589 217.554 103.421 217.147 102.51 216.408C101.599 215.661 100.936 214.613 100.688 213.444C100.56 212.864 100.567 212.261 100.567 211.695C100.575 211.129 100.545 210.534 100.665 209.945C100.899 208.777 101.546 207.691 102.465 206.922C103.391 206.16 104.589 205.73 105.793 205.723C142.932 205.745 176.562 205.768 200.922 205.783C207.007 205.791 212.511 205.806 217.353 205.813C218.566 205.813 219.725 205.821 220.855 205.821C221.419 205.821 221.969 205.821 222.511 205.828C223.046 205.836 223.588 205.813 224.108 205.926C226.216 206.318 227.692 207.992 228.091 209.659C228.325 210.504 228.249 211.325 228.257 212.08C228.264 212.841 228.151 213.558 227.903 214.176C227.414 215.413 226.555 216.234 225.779 216.687C225.004 217.154 224.311 217.298 223.852 217.351C223.407 217.388 223.167 217.366 223.167 217.366Z" fill="#263238"/>
</g>
<defs>
<clipPath id="clip0_3842_1964">
<rect width="341.562" height="321.802" fill="white" transform="translate(0.438477 0.916016)"/>
</clipPath>
</defs>
</svg>
