<svg width="17" height="16" viewBox="0 0 17 16" fill="none" xmlns="http://www.w3.org/2000/svg">
<path d="M7.99969 1.19342C8.276 0.935527 8.724 0.935527 9.00031 1.19342L11.0186 3.07712C11.2949 3.33501 11.2949 3.75314 11.0186 4.01103L9.00031 5.89473C8.724 6.15262 8.276 6.15262 7.99969 5.89473L5.98144 4.01103C5.70513 3.75314 5.70513 3.33501 5.98144 3.07712L7.99969 1.19342Z" stroke="#007BFF" stroke-width="1.5"/>
<path d="M12.7739 5.64935C13.0502 5.39145 13.4982 5.39145 13.7745 5.64935L15.7928 7.53304C16.0691 7.79094 16.0691 8.20906 15.7928 8.46696L13.7745 10.3507C13.4982 10.6085 13.0502 10.6085 12.7739 10.3507L10.7557 8.46696C10.4793 8.20906 10.4793 7.79094 10.7557 7.53304L12.7739 5.64935Z" stroke="#007BFF" stroke-width="1.5"/>
<path d="M3.22548 5.64935C3.5018 5.39145 3.94979 5.39145 4.2261 5.64935L6.24435 7.53304C6.52066 7.79094 6.52066 8.20906 6.24435 8.46696L4.2261 10.3507C3.94979 10.6085 3.5018 10.6085 3.22548 10.3507L1.20724 8.46696C0.930921 8.20906 0.930922 7.79094 1.20724 7.53304L3.22548 5.64935Z" stroke="#007BFF" stroke-width="1.5"/>
<path d="M7.99969 10.1053C8.276 9.84738 8.724 9.84738 9.00031 10.1053L11.0186 11.989C11.2949 12.2469 11.2949 12.665 11.0186 12.9229L9.00031 14.8066C8.724 15.0645 8.276 15.0645 7.99969 14.8066L5.98144 12.9229C5.70513 12.665 5.70513 12.2469 5.98144 11.989L7.99969 10.1053Z" stroke="#007BFF" stroke-width="1.5"/>
</svg>
