<svg width="52" height="52" viewBox="0 0 52 52" fill="none" xmlns="http://www.w3.org/2000/svg">
<path fill-rule="evenodd" clip-rule="evenodd" d="M26 0.108399C23.048 0.107788 20.1589 0.961011 17.6809 2.56522C15.2028 4.16942 13.2417 6.45612 12.0338 9.14968C11.862 9.53583 11.686 9.92012 11.5059 10.3025L11.4549 10.305C11.2917 10.3101 11.0698 10.3101 10.6974 10.3101C7.99176 10.3101 5.39691 11.3849 3.48371 13.2981C1.57052 15.2113 0.495697 17.8062 0.495697 20.5118C0.495697 23.2175 1.57052 25.8124 3.48371 27.7255C5.39691 29.6387 7.99176 30.7136 10.6974 30.7136H11.1361L16.237 25.6127H10.6974C9.34459 25.6127 8.04716 25.0753 7.09057 24.1187C6.13397 23.1621 5.59656 21.8647 5.59656 20.5118C5.59656 19.159 6.13397 17.8616 7.09057 16.905C8.04716 15.9484 9.34459 15.411 10.6974 15.411H10.8606C11.3911 15.411 12.0083 15.4135 12.5184 15.309C13.1534 15.2004 13.7603 14.9663 14.3037 14.6203C14.9184 14.2225 15.3418 13.7277 15.6631 13.2763C15.86 12.9855 16.0315 12.6783 16.1757 12.3581C16.3118 12.0742 16.4784 11.7103 16.6756 11.2665L16.6858 11.241C17.4903 9.44338 18.7978 7.91694 20.4505 6.84587C22.1032 5.77481 24.0306 5.20489 26 5.20489C27.9694 5.20489 29.8968 5.77481 31.5495 6.84587C33.2023 7.91694 34.5097 9.44338 35.3142 11.241L35.3269 11.2665C35.5225 11.7086 35.6882 12.0725 35.8243 12.3581C35.9416 12.6055 36.115 12.9651 36.3369 13.2763C36.6583 13.7251 37.0791 14.2225 37.6963 14.6229C38.3135 15.0208 38.9383 15.2018 39.4816 15.3115C39.9917 15.4135 40.6089 15.4135 41.1394 15.4135L41.3026 15.411C42.6554 15.411 43.9528 15.9484 44.9094 16.905C45.866 17.8616 46.4035 19.159 46.4035 20.5118C46.4035 21.8647 45.866 23.1621 44.9094 24.1187C43.9528 25.0753 42.6554 25.6127 41.3026 25.6127H35.7631L40.8639 30.7136H41.3026C44.0083 30.7136 46.6031 29.6387 48.5163 27.7255C50.4295 25.8124 51.5043 23.2175 51.5043 20.5118C51.5043 17.8062 50.4295 15.2113 48.5163 13.2981C46.6031 11.3849 44.0083 10.3101 41.3026 10.3101C40.9302 10.3101 40.7083 10.3101 40.5451 10.305H40.4941L40.4303 10.1698C40.2725 9.83121 40.1178 9.49114 39.9662 9.14968C38.7583 6.45612 36.7972 4.16942 34.3191 2.56522C31.8411 0.961011 28.952 0.107788 26 0.108399Z" fill="#007BFF"/>
<path d="M25.9998 25.6122L24.1966 23.809L25.9998 22.0059L27.8029 23.809L25.9998 25.6122ZM28.5502 48.566C28.5502 49.2425 28.2815 49.8912 27.8032 50.3695C27.3249 50.8478 26.6762 51.1165 25.9998 51.1165C25.3234 51.1165 24.6747 50.8478 24.1964 50.3695C23.7181 49.8912 23.4494 49.2425 23.4494 48.566H28.5502ZM13.9949 34.0107L24.1966 23.809L27.8029 27.4153L17.6012 37.617L13.9949 34.0107ZM27.8029 23.809L38.0047 34.0107L34.3983 37.617L24.1966 27.4153L27.8029 23.809ZM28.5502 25.6122V48.566H23.4494V25.6122H28.5502Z" fill="#007BFF"/>
</svg>
