<svg width="342" height="362" viewBox="0 0 342 362" fill="none" xmlns="http://www.w3.org/2000/svg">
<g clip-path="url(#clip0_550_2469)">
<path d="M285.608 104.943C245.498 62.0976 184.676 36.8957 127.243 56.9675C79.4696 73.6647 39.9636 115.027 18.4821 161.13C3.36911 193.559 -5.00536 235.585 4.19681 270.91C12.1818 301.574 37.6947 315.209 66.8689 317.393C113.006 320.856 159.309 315.843 205.486 316.72C238.253 317.345 288.237 329.487 317.46 310.001C345.057 291.597 343.333 251.512 340.315 222.067C335.796 178.208 315.094 136.445 285.608 104.943Z" fill="#0064FF" fill-opacity="0.74902"/>
<path opacity="0.7" d="M285.608 104.943C245.498 62.0976 184.676 36.8957 127.243 56.9675C79.4696 73.6647 39.9636 115.027 18.4821 161.13C3.36911 193.559 -5.00536 235.585 4.19681 270.91C12.1818 301.574 37.6947 315.209 66.8689 317.393C113.006 320.856 159.309 315.843 205.486 316.72C238.253 317.345 288.237 329.487 317.46 310.001C345.057 291.597 343.333 251.512 340.315 222.067C335.796 178.208 315.094 136.445 285.608 104.943Z" fill="white"/>
<path d="M49.8475 213.317L32.2708 191.158L14.7039 213.317H21.569V246.673H42.9726V213.317H49.8475Z" stroke="white" stroke-width="1.41141" stroke-miterlimit="10" stroke-linecap="round" stroke-linejoin="round"/>
<path d="M264.886 213.317L247.319 191.158L229.743 213.317H236.618V246.673H258.021V213.317H264.886Z" stroke="white" stroke-width="1.41141" stroke-miterlimit="10" stroke-linecap="round" stroke-linejoin="round"/>
<path d="M319.155 267.886L301.579 245.727L284.012 267.886H290.877V301.241H312.281V267.886H319.155Z" stroke="white" stroke-width="1.41141" stroke-miterlimit="10" stroke-linecap="round" stroke-linejoin="round"/>
<path d="M296.894 140.423L279.318 118.264L261.751 140.423H268.626V173.778H290.02V140.423H296.894Z" stroke="white" stroke-width="1.41141" stroke-miterlimit="10" stroke-linecap="round" stroke-linejoin="round"/>
<path d="M94.5341 144.257L76.9575 122.107L59.3809 144.257H66.2557V177.612H87.6593V144.257H94.5341Z" stroke="white" stroke-width="1.41141" stroke-miterlimit="10" stroke-linecap="round" stroke-linejoin="round"/>
<path d="M128.607 267.886L111.04 245.727L93.4629 267.886H100.338V301.241H121.741V267.886H128.607Z" stroke="white" stroke-width="1.41141" stroke-miterlimit="10" stroke-linecap="round" stroke-linejoin="round"/>
<path d="M174.169 361.32C229.025 361.32 273.495 356.154 273.495 349.782C273.495 343.41 229.025 338.244 174.169 338.244C119.314 338.244 74.8442 343.41 74.8442 349.782C74.8442 356.154 119.314 361.32 174.169 361.32Z" fill="#0064FF" fill-opacity="0.74902"/>
<path opacity="0.5" d="M174.169 361.32C229.025 361.32 273.495 356.154 273.495 349.782C273.495 343.41 229.025 338.244 174.169 338.244C119.314 338.244 74.8442 343.41 74.8442 349.782C74.8442 356.154 119.314 361.32 174.169 361.32Z" fill="white"/>
<path d="M237.728 72.8754C238.137 70.6809 238.37 68.428 238.37 66.1165C238.37 45.8203 221.943 29.3767 201.688 29.3767C194.142 29.3767 187.13 31.6686 181.297 35.5796C173.897 17.5559 156.203 4.87695 135.549 4.87695C108.225 4.87695 86.0816 27.0554 86.0816 54.4225C86.0816 55.037 86.1011 55.6319 86.1303 56.2366C72.6338 60.0891 62.7402 72.5047 62.7402 87.2611C62.7402 103.578 74.8345 117.027 90.5318 119.202V119.544H236.15C249.043 119.544 259.492 109.079 259.492 96.1657C259.501 83.789 249.88 73.6849 237.728 72.8754Z" fill="#263238" stroke="#263238" stroke-width="1.41141" stroke-miterlimit="10" stroke-linecap="round" stroke-linejoin="round"/>
<path d="M237.728 68.4867C238.137 66.2922 238.37 64.0393 238.37 61.7278C238.37 41.4317 221.943 24.988 201.688 24.988C194.142 24.988 187.13 27.28 181.297 31.1909C173.897 13.1673 156.203 0.488281 135.549 0.488281C108.225 0.488281 86.0816 22.6668 86.0816 50.0339C86.0816 50.6483 86.1011 51.2433 86.1303 51.8479C72.6338 55.7004 62.7402 68.1161 62.7402 82.8725C62.7402 99.1893 74.8345 112.639 90.5318 114.814V115.155H236.15C249.043 115.155 259.492 104.69 259.492 91.777C259.501 79.4004 249.88 69.2962 237.728 68.4867Z" fill="#0064FF" fill-opacity="0.74902" stroke="#263238" stroke-width="1.41141" stroke-miterlimit="10" stroke-linecap="round" stroke-linejoin="round"/>
<path d="M187.218 199.223L181.093 202.441C181.093 202.441 174.384 205.367 170.002 207.698C165.63 210.039 144.031 226.697 144.031 226.697L139.659 226.99L137.03 228.745C137.03 228.745 132.648 229.623 132.648 230.501C132.648 231.378 133.524 231.671 134.4 231.671C135.277 231.671 138.198 230.208 138.198 230.208C138.198 230.208 135.238 234.558 136.406 234.558C137.575 234.558 141.441 235.367 141.441 235.367C141.441 235.367 145.784 234.597 147.245 234.597C148.705 234.597 152.201 226.707 152.201 226.707C152.201 226.707 177.295 216.768 180.509 214.428C183.722 212.087 193.061 206.245 193.061 206.245L187.218 199.223Z" fill="white" stroke="#263238" stroke-width="1.41141" stroke-miterlimit="10" stroke-linecap="round" stroke-linejoin="round"/>
<path d="M210.774 175.203L183.42 200.103L191.298 209.456L206.479 203.604L211.728 175.544L210.774 175.203Z" fill="#0064FF" fill-opacity="0.74902" stroke="#263238" stroke-width="1.41141" stroke-miterlimit="10" stroke-linecap="round" stroke-linejoin="round"/>
<path d="M187.072 196.775L183.42 200.101L191.298 209.454L196.011 207.631L187.072 196.775Z" fill="#263238" stroke="#263238" stroke-width="1.41141" stroke-miterlimit="10" stroke-linecap="round" stroke-linejoin="round"/>
<path d="M258.518 330.957C258.518 330.957 267.204 340.008 268.09 344.446C268.976 348.883 266.853 352.785 263.309 351.721C259.764 350.658 256.57 339.657 255.684 337.697C254.798 335.746 253.736 333.61 253.736 333.61C253.736 333.61 256.395 330.07 258.518 330.957Z" fill="#0064FF" fill-opacity="0.74902" stroke="#263238" stroke-width="1.41141" stroke-miterlimit="10" stroke-linecap="round" stroke-linejoin="round"/>
<path d="M268.168 344.925C268.811 349.157 266.727 352.756 263.309 351.722C262.082 351.352 260.894 349.791 259.832 347.821C262.131 344.047 265.85 344.291 268.168 344.925Z" fill="white" stroke="#263238" stroke-width="1.41141" stroke-miterlimit="10" stroke-linecap="round" stroke-linejoin="round"/>
<path d="M258.605 345.282C260.534 347.945 263.026 350.802 264.906 350.305C266.863 349.778 267.759 346.287 268.1 344.473C268.976 348.901 266.853 352.792 263.309 351.729C261.575 351.202 259.94 348.325 258.605 345.282Z" fill="white" stroke="#263238" stroke-width="1.41141" stroke-miterlimit="10" stroke-linecap="round" stroke-linejoin="round"/>
<path d="M256.746 335.92C256.746 335.92 260.641 333.794 260.826 334.496C261.001 335.208 257.106 337.158 256.57 337.158C256.035 337.168 255.684 336.993 256.746 335.92Z" fill="white" stroke="#263238" stroke-width="0.705706" stroke-miterlimit="10" stroke-linecap="round" stroke-linejoin="round"/>
<path d="M257.632 337.17C257.632 337.17 261.527 335.044 261.712 335.746C261.887 336.458 257.992 338.408 257.456 338.408C256.921 338.408 256.57 338.233 257.632 337.17Z" fill="white" stroke="#263238" stroke-width="0.705706" stroke-miterlimit="10" stroke-linecap="round" stroke-linejoin="round"/>
<path d="M258.518 338.408C258.518 338.408 262.413 336.282 262.598 336.984C262.773 337.696 258.878 339.647 258.343 339.647C257.807 339.656 257.456 339.471 258.518 338.408Z" fill="white" stroke="#263238" stroke-width="0.705706" stroke-miterlimit="10" stroke-linecap="round" stroke-linejoin="round"/>
<path d="M259.404 339.656C259.404 339.656 263.299 337.53 263.484 338.232C263.659 338.944 259.764 340.895 259.229 340.895C258.693 340.895 258.343 340.719 259.404 339.656Z" fill="white" stroke="#263238" stroke-width="0.705706" stroke-miterlimit="10" stroke-linecap="round" stroke-linejoin="round"/>
<path d="M188.523 339.09C188.523 339.09 191.911 343.82 192.213 346.502C192.515 349.184 190.276 349.253 187.413 348.95C184.54 348.638 181.132 350.764 177.091 350.657C173.049 350.55 168.405 348.784 170.644 346.863C172.884 344.942 178.727 343.371 179.983 342.26C181.239 341.157 182.106 340.124 182.106 340.124L188.523 339.09Z" fill="#0064FF" fill-opacity="0.74902" stroke="#263238" stroke-width="1.41141" stroke-miterlimit="10" stroke-linecap="round" stroke-linejoin="round"/>
<path d="M170.644 346.859C171.277 346.323 172.192 345.806 173.205 345.328C175.903 346.694 177.003 349.2 177.431 350.653C177.315 350.653 177.207 350.663 177.091 350.653C173.059 350.556 168.404 348.781 170.644 346.859Z" fill="white" stroke="#263238" stroke-width="1.41141" stroke-miterlimit="10" stroke-linecap="round" stroke-linejoin="round"/>
<path d="M180.363 341.633C180.363 341.633 184.521 343.808 183.469 344.237C182.417 344.666 179.253 342.228 180.363 341.633Z" fill="white" stroke="#263238" stroke-width="0.705706" stroke-miterlimit="10" stroke-linecap="round" stroke-linejoin="round"/>
<path d="M178.746 342.076C178.746 342.076 182.904 344.251 181.852 344.68C180.801 345.109 177.646 342.671 178.746 342.076Z" fill="white" stroke="#263238" stroke-width="0.705706" stroke-miterlimit="10" stroke-linecap="round" stroke-linejoin="round"/>
<path d="M177.811 342.719C177.811 342.719 181.969 344.894 180.918 345.323C179.866 345.752 176.711 343.314 177.811 342.719Z" fill="white" stroke="#263238" stroke-width="0.705706" stroke-miterlimit="10" stroke-linecap="round" stroke-linejoin="round"/>
<path d="M176.097 343.51C176.097 343.51 180.255 345.685 179.204 346.114C178.152 346.533 174.997 344.095 176.097 343.51Z" fill="white" stroke="#263238" stroke-width="0.705706" stroke-miterlimit="10" stroke-linecap="round" stroke-linejoin="round"/>
<path d="M170.177 347.459C173.225 349.331 176.477 349.546 179.846 348.892C183.586 348.161 185.533 347.829 189.117 347.605C190.626 347.517 191.61 347.293 192.243 347.078C192.165 349.195 190.061 349.234 187.413 348.951C184.54 348.639 181.132 350.765 177.091 350.658C173.478 350.57 169.388 349.136 170.177 347.459Z" fill="white" stroke="#263238" stroke-width="1.41141" stroke-miterlimit="10" stroke-linecap="round" stroke-linejoin="round"/>
<path d="M231.116 234.831C231.116 234.831 229.071 263.349 230.307 270.264C231.544 277.189 234.592 297.768 234.592 297.768C234.592 297.768 239.198 301.142 243.804 308.594C248.41 316.045 258.508 330.957 258.508 330.957C258.508 330.957 258.858 333.62 255.674 334.507C255.674 334.507 254.077 335.219 253.191 334.507C252.305 333.795 222.001 305.755 218.456 299.894C214.912 294.032 210.121 258.043 210.121 258.043L205.515 257.156L186.049 294.432L189.428 339.745C189.428 339.745 189.701 341.305 187.471 341.939C185.251 342.563 183.478 342.797 182.154 341.666C180.83 340.525 170.566 290.892 171.413 289.126C172.261 287.361 191.931 238.567 191.931 238.567L193.528 234.48C193.528 234.48 212.137 236.606 220.462 235.017C228.817 233.407 230.405 232.169 231.116 234.831Z" fill="#263238" stroke="#263238" stroke-width="1.41141" stroke-miterlimit="10" stroke-linecap="round" stroke-linejoin="round"/>
<path d="M205.535 257.156L195.427 254.143" stroke="white" stroke-width="1.41141" stroke-miterlimit="10" stroke-linecap="round" stroke-linejoin="round"/>
<path d="M204.463 257.691L190.645 256.092" stroke="white" stroke-width="1.41141" stroke-miterlimit="10" stroke-linecap="round" stroke-linejoin="round"/>
<path d="M227.941 240.381C227.941 240.381 220.462 245.15 227.99 248.339" stroke="white" stroke-width="1.41141" stroke-miterlimit="10" stroke-linecap="round" stroke-linejoin="round"/>
<path d="M206.771 242.324L205.612 246.937L202.545 250.01L206.382 253.462" stroke="white" stroke-width="1.41141" stroke-miterlimit="10" stroke-linecap="round" stroke-linejoin="round"/>
<path d="M250.581 187.775C243.765 182.235 235.303 175.535 235.303 175.535C235.303 175.535 217.356 175.125 210.773 175.203L201.522 204.775C201.522 204.775 193.012 234.239 193.372 235.477C193.723 236.716 199.75 239.564 213.218 241.153C226.685 242.753 232.352 237.067 232.713 235.292C233.063 233.517 232.362 230.503 232.362 230.503L236.968 222.34L252.208 197.235C254.106 194.124 253.415 190.077 250.581 187.775Z" fill="#0064FF" fill-opacity="0.74902" stroke="#263238" stroke-width="1.41141" stroke-miterlimit="10" stroke-linecap="round" stroke-linejoin="round"/>
<path d="M245.226 183.454C240.006 179.261 235.303 175.545 235.303 175.545C235.303 175.545 229.343 175.408 223.043 175.311C221.446 178.958 218.69 186.41 220.959 190.106C223.754 194.641 232.898 195.997 245.226 183.454Z" fill="#263238" stroke="#263238" stroke-width="1.41141" stroke-miterlimit="10" stroke-linecap="round" stroke-linejoin="round"/>
<path d="M237.143 145.145C237.143 145.145 232.002 146.569 229.879 149.758C227.756 152.957 221.553 171.585 221.728 173.185C221.904 174.784 229.879 173.185 229.879 173.185C229.879 173.185 224.387 184.723 224.387 186.673C224.387 188.624 226.87 189.687 230.054 188.985C233.248 188.273 244.106 169.537 244.106 169.537C244.106 169.537 247.329 173.282 249.364 171.995C251.701 170.522 250.961 167.557 249.189 167.557C247.416 167.557 254.155 160.281 251.847 155.493C249.549 150.694 239.276 143.545 237.143 145.145Z" fill="white" stroke="#263238" stroke-width="1.41141" stroke-miterlimit="10" stroke-linecap="round" stroke-linejoin="round"/>
<path d="M235.196 139.459C235.196 139.459 225.273 139.459 224.737 144.247C224.202 149.036 229.343 151.172 235.011 150.284C240.678 149.397 245.819 149.748 246.53 150.636C247.241 151.523 239.617 153.298 241.389 154.537C243.161 155.775 244.933 155.6 244.933 155.6C244.933 155.6 242.45 156.312 242.625 158.087C242.801 159.862 244.349 167.703 245.586 167.703C246.822 167.703 249.179 167.547 249.179 167.547C249.179 167.547 252.548 165.948 255.207 163.11C257.865 160.272 258.576 154.234 255.207 150.684C251.837 147.134 249.179 143.711 246.521 140.873C243.862 138.035 241.379 135.011 236.062 134.309C230.765 133.607 227.931 135.733 235.196 139.459Z" fill="#263238" stroke="#263238" stroke-width="1.41141" stroke-miterlimit="10" stroke-linecap="round" stroke-linejoin="round"/>
<path d="M255.888 157.785C256.18 159.589 255.995 160.935 255.995 160.935" stroke="white" stroke-width="1.41141" stroke-miterlimit="10" stroke-linecap="round" stroke-linejoin="round"/>
<path d="M237.679 145.066C237.679 145.066 226.802 146.129 230.911 148.207C235.02 150.284 241.311 146.393 249.228 149.533C252.578 150.86 254.301 153.103 255.178 155.249" stroke="white" stroke-width="1.41141" stroke-miterlimit="10" stroke-linecap="round" stroke-linejoin="round"/>
<path d="M244.281 153.326C244.281 153.326 251.711 156.964 252.694 162.25" stroke="white" stroke-width="1.41141" stroke-miterlimit="10" stroke-linecap="round" stroke-linejoin="round"/>
<path d="M229.879 173.186C229.879 173.186 238.39 172.65 240.688 170.699" stroke="#263238" stroke-width="1.41141" stroke-miterlimit="10" stroke-linecap="round" stroke-linejoin="round"/>
<path d="M227.22 166.081C227.22 166.081 233.423 167.857 235.196 164.131" stroke="#263238" stroke-width="1.41141" stroke-miterlimit="10" stroke-linecap="round" stroke-linejoin="round"/>
<path d="M234.134 163.422L236.792 164.485" stroke="#263238" stroke-width="1.41141" stroke-miterlimit="10" stroke-linecap="round" stroke-linejoin="round"/>
<path d="M229.168 157.92C229.168 157.92 223.676 158.632 223.676 159.519C223.676 160.407 227.22 162.894 227.22 162.894" fill="white"/>
<path d="M229.168 157.92C229.168 157.92 223.676 158.632 223.676 159.519C223.676 160.407 227.22 162.894 227.22 162.894" stroke="#263238" stroke-width="1.41141" stroke-miterlimit="10" stroke-linecap="round" stroke-linejoin="round"/>
<path d="M229.869 156.214C229.616 156.985 229.09 157.502 228.71 157.375C228.331 157.248 228.223 156.517 228.477 155.756C228.73 154.985 229.256 154.469 229.635 154.595C230.025 154.722 230.122 155.444 229.869 156.214Z" fill="#263238"/>
<path d="M234.533 158.585C234.28 159.356 233.764 159.873 233.375 159.746C232.995 159.619 232.888 158.888 233.141 158.127C233.394 157.357 233.91 156.84 234.3 156.966C234.679 157.093 234.787 157.815 234.533 158.585Z" fill="#263238"/>
<path d="M234.787 153.543C234.787 153.543 237.465 153.787 237.221 157.454L234.787 153.543Z" fill="#263238" stroke="#263238" stroke-width="1.41141" stroke-miterlimit="10" stroke-linecap="round" stroke-linejoin="round"/>
<path d="M232.353 151.824C232.353 151.824 230.892 149.873 228.935 152.555L232.353 151.824Z" fill="#263238" stroke="#263238" stroke-width="1.41141" stroke-miterlimit="10" stroke-linecap="round" stroke-linejoin="round"/>
<path d="M183.45 86.9193L157.8 54.5879L132.161 86.9193H142.191V135.597H173.42V86.9193H183.45Z" fill="#263238" stroke="#263238" stroke-width="1.41141" stroke-miterlimit="10" stroke-linecap="round" stroke-linejoin="round"/>
<path d="M183.45 84.8216L157.8 52.4902L132.161 84.8216H142.191V133.499H173.42V84.8216H183.45Z" fill="white" stroke="#263238" stroke-width="1.41141" stroke-miterlimit="10" stroke-linecap="round" stroke-linejoin="round"/>
<path d="M207.823 127.998H103.522V232.463H207.823V127.998Z" fill="white" stroke="#263238" stroke-width="1.41141" stroke-miterlimit="10" stroke-linecap="round" stroke-linejoin="round"/>
<path d="M202.974 132.863H108.371V227.614H202.974V132.863Z" fill="#C5DCFF" stroke="#263238" stroke-width="1.41141" stroke-miterlimit="10" stroke-linecap="round" stroke-linejoin="round"/>
<path d="M181.034 164.756L158.978 187.851L141.791 183.033C140.077 182.555 138.247 182.887 136.805 183.93L108.381 204.577V227.604H202.983V178.878L189.448 164.746C187.15 162.356 183.323 162.356 181.034 164.756Z" fill="white" stroke="#263238" stroke-width="1.41141" stroke-miterlimit="10" stroke-linecap="round" stroke-linejoin="round"/>
<path d="M154.503 162.892C157.008 156.783 154.093 149.797 147.993 147.289C141.894 144.781 134.919 147.7 132.415 153.809C129.911 159.919 132.825 166.904 138.925 169.412C145.025 171.921 151.999 169.001 154.503 162.892Z" fill="white" stroke="#263238" stroke-width="1.41141" stroke-miterlimit="10" stroke-linecap="round" stroke-linejoin="round"/>
<path d="M237.552 192.28L211.484 219.121L171.754 230.083C171.754 230.083 168.21 225.958 165.659 225.928C163.098 225.909 154.898 228.903 154.898 228.903C154.898 228.903 153.856 231.458 155.901 231.468C157.946 231.488 162.046 230.503 162.046 230.503L150.779 232.443C151.062 234.218 152.581 235.535 154.373 235.545L159.446 235.594L168.132 236.696L176.331 234.209C176.331 234.209 215.234 229.956 217.278 229.469C219.323 228.971 252.315 200.6 252.315 200.6C252.315 200.6 256.044 197.313 254.623 193.499C253.201 189.686 245.927 186.994 245.927 186.994" fill="white"/>
<path d="M237.552 192.28L211.484 219.121L171.754 230.083C171.754 230.083 168.21 225.958 165.659 225.928C163.098 225.909 154.898 228.903 154.898 228.903C154.898 228.903 153.856 231.458 155.901 231.468C157.946 231.488 162.046 230.503 162.046 230.503L150.779 232.443C151.062 234.218 152.581 235.535 154.373 235.545L159.446 235.594L168.132 236.696L176.331 234.209C176.331 234.209 215.234 229.956 217.278 229.469C219.323 228.971 252.315 200.6 252.315 200.6C252.315 200.6 256.044 197.313 254.623 193.499C253.201 189.686 245.927 186.994 245.927 186.994" stroke="#263238" stroke-width="1.41141" stroke-miterlimit="10" stroke-linecap="round" stroke-linejoin="round"/>
<path d="M232.839 195.089L212.974 215.053L227.756 225.714L253.396 201.536C255.966 199.117 256.531 195.225 254.71 192.202C254.681 192.153 254.652 192.104 254.623 192.065C251.75 187.364 247.095 185.277 247.095 185.277" fill="#0064FF" fill-opacity="0.74902"/>
<path d="M232.839 195.089L212.974 215.053L227.756 225.714L253.396 201.536C255.966 199.117 256.531 195.225 254.71 192.202C254.681 192.153 254.652 192.104 254.623 192.065C251.75 187.364 247.095 185.277 247.095 185.277" stroke="#263238" stroke-width="1.41141" stroke-miterlimit="10" stroke-linecap="round" stroke-linejoin="round"/>
<path d="M227.756 225.703L231.233 222.425L216.402 211.6L212.974 215.052L227.756 225.703Z" fill="#263238" stroke="#263238" stroke-width="1.41141" stroke-miterlimit="10" stroke-linecap="round" stroke-linejoin="round"/>
<path d="M132.648 230.492L136.397 234.549L140.029 234.959L134.381 230.111L132.648 230.492Z" fill="white" stroke="#263238" stroke-width="1.41141" stroke-miterlimit="10" stroke-linecap="round" stroke-linejoin="round"/>
<path d="M139.698 230.492L143.447 234.549L147.069 234.959L141.431 230.111L139.698 230.492Z" fill="white" stroke="#263238" stroke-width="1.41141" stroke-miterlimit="10" stroke-linecap="round" stroke-linejoin="round"/>
<path d="M140.029 234.96L135.793 229.508H138.412L143.651 234.96L141.431 235.36L140.029 234.96Z" fill="white" stroke="#263238" stroke-width="1.41141" stroke-miterlimit="10" stroke-linecap="round" stroke-linejoin="round"/>
<path d="M131.167 230.921L132.979 234.354L136.397 234.549L132.648 230.492L131.167 230.921Z" fill="white" stroke="#263238" stroke-width="1.41141" stroke-miterlimit="10" stroke-linecap="round" stroke-linejoin="round"/>
</g>
<defs>
<clipPath id="clip0_550_2469">
<rect width="341.562" height="361.321" fill="white" transform="translate(0.360352)"/>
</clipPath>
</defs>
</svg>
