<svg width="31" height="18" viewBox="0 0 31 18" fill="none" xmlns="http://www.w3.org/2000/svg">
<path d="M15.8482 5.98832C15.831 8.28992 17.0573 9.57423 17.9811 10.3379C18.9302 11.1214 19.249 11.6238 19.2452 12.3245C19.2381 13.3968 18.4881 13.87 17.7863 13.8884C16.5619 13.9206 15.8499 13.3276 15.2839 12.8791L14.8429 16.3805C15.4107 16.8244 16.4622 17.2115 17.5526 17.2285C20.1121 17.2285 21.7865 15.0852 21.7956 11.7621C21.8056 7.54464 18.3569 7.3112 18.3804 5.42611C18.3886 4.85451 18.7101 4.24453 19.4146 4.08944C19.7633 4.01109 20.726 3.95113 21.8174 4.80374L22.2458 1.41609C21.6588 1.05354 20.9045 0.706385 19.9653 0.706385C17.5562 0.706385 15.8618 2.87888 15.8482 5.98832ZM26.362 0.998182C25.8946 0.998182 25.5007 1.46066 25.325 2.17037L21.6688 16.9797H24.2265L24.7354 14.5935H27.8608L28.156 16.9797H30.4103L28.4431 0.998182H26.362ZM26.7198 5.31539L27.4579 11.3166H25.4364L26.7198 5.31539ZM12.7472 0.998383L10.7312 16.9795H13.1684L15.1835 0.997982H12.7472V0.998383ZM9.14174 0.997982L6.60498 11.8758L5.57882 2.62685C5.45842 1.59437 4.98292 0.998182 4.45488 0.998182H0.308082L0.25 1.46226C1.10132 1.77564 2.06857 2.28109 2.65457 2.82192C3.0132 3.15229 3.11546 3.44109 3.23327 4.22614L5.17684 16.9797H7.75237L11.701 0.998182H9.14174" fill="url(#paint0_linear_3064_6850)"/>
<defs>
<linearGradient id="paint0_linear_3064_6850" x1="14.1159" y1="17.5599" x2="14.926" y2="0.616733" gradientUnits="userSpaceOnUse">
<stop stop-color="#222357"/>
<stop offset="1" stop-color="#254AA5"/>
</linearGradient>
</defs>
</svg>
