<svg width="342" height="324" viewBox="0 0 342 324" fill="none" xmlns="http://www.w3.org/2000/svg">
<g clip-path="url(#clip0_3842_3052)">
<path d="M43.7255 108.345C43.1941 108.345 42.7661 102.772 42.7661 95.895C42.7661 89.0178 43.1941 83.4453 43.7255 83.4453C44.2568 83.4453 44.6848 89.0178 44.6848 95.895C44.6848 102.772 44.2568 108.345 43.7255 108.345Z" fill="#E0E0E0"/>
<path d="M36.8475 101.478C36.3162 101.478 35.8882 98.8245 35.8882 95.5591C35.8882 92.2938 36.3162 89.6328 36.8475 89.6328C37.3789 89.6328 37.8069 92.2864 37.8069 95.5591C37.8069 98.8319 37.3789 101.478 36.8475 101.478Z" fill="#E0E0E0"/>
<path d="M29.9548 99.5645C29.4235 99.594 28.929 98.223 28.8405 96.5129C28.7593 94.8029 29.1209 93.3876 29.6522 93.3655C30.1836 93.3434 30.678 94.707 30.7666 96.4171C30.8478 98.1272 30.4862 99.5351 29.9622 99.5645H29.9548Z" fill="#E0E0E0"/>
<path d="M50.8982 102.314C50.3669 102.307 49.9979 99.1225 50.0791 95.2158C50.1529 91.3018 50.6473 88.1396 51.1786 88.1543C51.71 88.1617 52.079 91.346 51.9978 95.2527C51.924 99.1667 51.4296 102.329 50.8982 102.314Z" fill="#E0E0E0"/>
<path d="M58.7064 99.7103C58.1751 99.7103 57.7471 98.3246 57.7471 96.6071C57.7471 94.8897 58.1751 93.5039 58.7064 93.5039C59.2378 93.5039 59.6658 94.8897 59.6658 96.6071C59.6658 98.3246 59.2378 99.7103 58.7064 99.7103Z" fill="#E0E0E0"/>
<path d="M68.4029 96.616C68.4029 96.616 68.3808 96.4834 68.366 96.218C68.3439 95.9379 68.3217 95.5472 68.2848 95.046C68.2701 94.788 68.248 94.5006 68.2332 94.1836C68.1963 93.8666 68.1299 93.5276 68.0782 93.1517C67.9601 92.4072 67.8494 91.5448 67.5616 90.6087C67.1262 88.7069 66.2333 86.4588 64.8238 84.0779C63.4069 81.7044 61.3553 79.2278 58.5732 77.127C55.7984 75.041 52.2931 73.272 48.249 72.557C47.238 72.4169 46.2122 72.2032 45.1495 72.2032C44.6182 72.1884 44.0869 72.1368 43.5482 72.1442C43.0094 72.1737 42.4707 72.2032 41.9246 72.2253C41.6516 72.2474 41.3785 72.24 41.1055 72.2769L40.2863 72.4022C39.7402 72.4906 39.1868 72.557 38.6407 72.6675C37.5559 72.9624 36.4415 73.1835 35.3715 73.6258C34.2719 73.9796 33.2387 74.5177 32.1761 75.0263C31.6595 75.3064 31.1651 75.6307 30.6485 75.9403C30.1245 76.2278 29.6522 76.5889 29.1725 76.9575C28.1763 77.643 27.3055 78.498 26.3904 79.3162C25.5639 80.2302 24.7005 81.1221 23.992 82.1541C22.5308 84.1737 21.2615 86.4219 20.494 88.8912C19.697 91.3458 19.269 93.9551 19.2321 96.6087C19.269 99.2623 19.697 101.872 20.494 104.334C21.2615 106.803 22.5382 109.051 23.992 111.078C24.7005 112.11 25.5713 113.002 26.3904 113.916C27.3055 114.741 28.1763 115.596 29.1725 116.275C29.6522 116.643 30.1319 117.004 30.6485 117.292C31.1577 117.594 31.6595 117.926 32.1761 118.206C33.2387 118.714 34.2719 119.26 35.3715 119.606C36.4341 120.049 37.5559 120.27 38.6407 120.565C39.1868 120.675 39.7476 120.741 40.2863 120.83L41.1055 120.955C41.3785 120.992 41.6516 120.992 41.9246 121.007C42.4707 121.036 43.0094 121.066 43.5482 121.088C44.0869 121.095 44.6182 121.044 45.1495 121.029C46.2122 121.029 47.238 120.815 48.249 120.675C52.2931 119.96 55.7984 118.184 58.5732 116.105C61.3553 114.004 63.4069 111.52 64.8238 109.147C66.2333 106.766 67.1262 104.518 67.5616 102.616C67.8494 101.68 67.9601 100.818 68.0782 100.073C68.1373 99.7045 68.2037 99.3581 68.2332 99.0411C68.2553 98.7242 68.2701 98.4367 68.2848 98.1787C68.3217 97.6775 68.3439 97.2868 68.366 97.0067C68.3882 96.7414 68.4029 96.6087 68.4029 96.6087C68.4029 96.6087 68.4029 96.7414 68.4029 97.0067C68.3955 97.2868 68.3808 97.6775 68.366 98.1787C68.3586 98.4367 68.3439 98.7242 68.3291 99.0411C68.2996 99.3581 68.2406 99.7045 68.1889 100.08C68.0856 100.832 67.9823 101.695 67.7019 102.646C67.2886 104.562 66.4104 106.84 65.0083 109.25C63.5914 111.653 61.5472 114.166 58.7355 116.311C55.9386 118.434 52.3964 120.24 48.3007 120.985C47.2749 121.132 46.2344 121.346 45.1569 121.361C44.6182 121.383 44.0795 121.434 43.5408 121.427C42.9947 121.397 42.4486 121.375 41.8951 121.346C41.6221 121.331 41.3416 121.331 41.0612 121.294L40.2347 121.169C39.6812 121.081 39.1203 121.014 38.5595 120.904C37.4599 120.609 36.3234 120.388 35.2386 119.938C34.1243 119.584 33.069 119.039 31.9916 118.523C31.4676 118.243 30.9584 117.911 30.4418 117.601C29.9105 117.307 29.4234 116.938 28.9364 116.569C27.9254 115.877 27.0398 115.014 26.11 114.174C25.2687 113.252 24.3905 112.346 23.6673 111.299C22.184 109.25 20.8925 106.965 20.1029 104.451C19.2911 101.96 18.8557 99.3065 18.8188 96.6087C18.8557 93.9109 19.2911 91.2647 20.1029 88.7733C20.8852 86.2671 22.184 83.9821 23.6673 81.9329C24.3905 80.8863 25.2687 79.9796 26.11 79.0582C27.0398 78.2253 27.9254 77.3555 28.9364 76.67C29.4234 76.3015 29.9105 75.9329 30.4418 75.6381C30.9584 75.3285 31.4676 74.9968 31.9916 74.7167C33.069 74.2007 34.1243 73.6553 35.2386 73.3015C36.3234 72.8518 37.4599 72.6307 38.5521 72.3358C39.1056 72.2253 39.6738 72.1589 40.2273 72.0705L41.0538 71.9452C41.3269 71.9083 41.6073 71.9083 41.8877 71.8936C42.4412 71.8641 42.9873 71.842 43.5334 71.8125C44.0795 71.8125 44.6182 71.8567 45.1495 71.8788C46.227 71.8862 47.2601 72.1 48.2933 72.2474C52.389 72.9845 55.9313 74.7978 58.7282 76.9133C61.5324 79.0509 63.584 81.5718 65.0009 83.9747C66.403 86.3924 67.2812 88.6627 67.7019 90.5792C67.9749 91.5227 68.0782 92.3924 68.1889 93.1443C68.2406 93.5202 68.2996 93.8593 68.3291 94.1836C68.3439 94.5006 68.3513 94.788 68.366 95.046C68.3808 95.5472 68.3955 95.9379 68.4029 96.218C68.4029 96.4834 68.4029 96.616 68.4029 96.616Z" fill="#E0E0E0"/>
<path d="M71.8572 45.5756C65.9534 45.5756 61.1714 40.7992 61.1714 34.9024V22.3569C61.1714 16.46 65.9534 11.6836 71.8572 11.6836C77.7609 11.6836 82.5429 16.46 82.5429 22.3569V34.9024C82.5429 40.7992 77.7609 45.5756 71.8572 45.5756Z" fill="#F5F5F5"/>
<path d="M71.8569 52.0776C63.1562 52.0776 56.0791 45.0088 56.0791 36.3184H57.6067C57.6067 44.1685 63.9975 50.5518 71.8569 50.5518C80.2476 50.5445 86.1071 44.6919 86.1071 36.3184H87.6347C87.6347 45.5838 81.1479 52.0703 71.8569 52.0776Z" fill="#F5F5F5"/>
<path d="M72.6169 51.3027H71.0894V59.0202H72.6169V51.3027Z" fill="#F5F5F5"/>
<path d="M81.1847 57.9219H62.5288V59.4477H81.1847V57.9219Z" fill="#F5F5F5"/>
<path d="M56.1014 18.6722C55.5406 18.6722 54.6845 18.3626 53.3414 17.795C51.0611 16.822 50.301 16.3355 50.574 15.5247L50.6774 15.2078L51.0316 15.0235C51.8286 14.6623 53.8506 15.4952 54.2491 15.6574C54.6476 15.8269 56.6402 16.7041 56.9353 17.5297L57.046 17.8466L56.8911 18.2078C56.7287 18.5174 56.4852 18.6648 56.0941 18.6648L56.1014 18.6722Z" fill="#F5F5F5"/>
<path d="M62.2043 10.6817C61.7173 10.6817 60.9793 10.1362 59.4443 8.05761C57.6215 5.58831 57.7175 4.98388 57.747 4.79223L57.7986 4.48265L58.3374 4.0625L58.7063 4.09936C58.9056 4.12884 59.5033 4.21729 61.3261 6.68659C63.4589 9.57605 63.208 10.1215 62.6988 10.5048C62.5585 10.608 62.4036 10.6964 62.2191 10.6964L62.2043 10.6817Z" fill="#F5F5F5"/>
<path d="M71.6203 7.79205L71.3251 7.54144C71.1849 7.40139 70.7421 6.98861 70.779 4.07704C70.8085 1.16547 71.2587 0.760061 71.4063 0.627382L71.6498 0.40625H72.0336C72.4985 0.450476 73.1405 0.494703 73.1036 4.10652C73.0667 7.71834 72.4247 7.7552 71.9524 7.77731L71.6203 7.79942V7.79205Z" fill="#F5F5F5"/>
<path d="M80.993 9.86432L80.6757 9.61371C80.0042 8.99454 80.6093 8.12475 81.9229 6.37044C83.2438 4.6235 83.9154 3.79794 84.705 4.26968L85.0002 4.43922L85.1035 4.83726C85.288 5.7439 83.9375 7.55718 83.7826 7.76357C83.635 7.96996 82.255 9.76113 81.3399 9.84221L80.993 9.87169V9.86432Z" fill="#F5F5F5"/>
<path d="M87.908 18.5539C87.4874 18.5539 87.3103 18.3548 87.1774 18.119C86.7716 17.404 87.5612 16.7848 87.9376 16.49C88.3803 16.1435 89.0002 15.7455 89.6718 15.3622C92.5056 13.7479 93.0295 14.1165 93.3173 14.6251C93.7232 15.3401 92.9336 15.9592 92.5572 16.2541C92.1145 16.6005 91.4946 16.9986 90.823 17.3819C89.2733 18.259 88.4172 18.5539 87.908 18.5539Z" fill="#F5F5F5"/>
<path d="M250.542 321.007C237.465 315.081 232.056 300.575 230.012 287.019C229.672 284.756 228.978 282.434 229.687 280.26C230.388 278.085 232.639 276.28 234.831 276.847C236.646 277.326 237.738 279.132 238.971 280.562C240.609 282.471 242.793 283.894 245.192 284.624C246.764 285.103 248.623 285.228 249.893 284.181C251.634 282.751 251.368 280.031 250.933 277.791C250.129 273.626 249.332 269.461 248.527 265.297C248.099 263.063 247.664 260.778 247.966 258.53C248.269 256.275 249.442 254.019 251.457 253.031C253.479 252.044 256.342 252.781 257.198 254.881C257.553 255.759 257.545 256.739 257.781 257.653C258.018 258.567 258.637 259.518 259.575 259.614C260.519 259.71 261.294 258.913 261.84 258.132C263.729 255.442 264.763 252.243 265.685 249.08C266.615 245.918 267.486 242.69 269.124 239.837C270.762 236.985 273.301 234.493 276.474 233.719C279.647 232.945 283.433 234.287 284.828 237.279C286.23 240.279 284.983 243.825 283.448 246.751C281.182 251.093 278.282 255.095 274.88 258.589C274.268 259.223 273.604 259.901 273.485 260.778C273.279 262.363 274.969 263.579 276.533 263.793C278.304 264.036 280.083 263.528 281.869 263.41C283.655 263.292 285.691 263.712 286.658 265.238C288.001 267.353 286.533 270.103 284.939 272.027C281.751 275.867 277.906 279.154 273.626 281.683C272.091 282.589 270.452 283.437 269.338 284.845C268.224 286.245 267.796 288.405 268.895 289.835C269.995 291.265 272.142 291.383 273.81 290.742C275.478 290.1 276.843 288.877 278.378 287.955C281.242 286.223 285.256 285.7 287.721 287.992C289.344 289.496 289.905 291.906 289.64 294.11C289.374 296.314 288.378 298.356 287.271 300.265C283.411 306.958 277.965 312.788 271.286 316.584C264.608 320.381 258.114 322.275 250.542 321" fill="#EBEBEB"/>
<path d="M251.671 323.455C251.169 318.03 251.722 319.084 252.453 311.919C253.176 304.754 254.615 296.963 256.408 288.862C256.866 286.843 257.316 284.838 257.751 282.87C258.202 280.902 258.637 278.956 259.19 277.076C260.275 273.31 261.604 269.779 262.976 266.454C264.341 263.138 265.766 260.034 267.109 257.145C268.467 254.255 269.78 251.587 271.079 249.214C273.669 244.445 276.208 240.847 278.045 238.452C278.968 237.25 279.706 236.344 280.222 235.732C280.466 235.444 280.665 235.216 280.813 235.039C280.946 234.884 281.02 234.811 281.027 234.811C281.027 234.811 280.975 234.899 280.85 235.061C280.71 235.238 280.525 235.474 280.296 235.776C279.809 236.403 279.086 237.324 278.186 238.54C276.385 240.965 273.891 244.57 271.345 249.346C270.061 251.727 268.769 254.395 267.434 257.285C266.098 260.182 264.696 263.278 263.338 266.595C261.98 269.912 260.666 273.435 259.589 277.179C259.043 279.052 258.607 280.983 258.157 282.951C257.714 284.919 257.264 286.917 256.814 288.936C255.028 297.03 253.574 304.799 252.836 311.941C252.084 319.084 251.501 317.993 251.966 323.411" fill="#E0E0E0"/>
<path d="M259.309 277.039C259.309 277.039 259.139 276.722 258.91 276.125C258.674 275.528 258.372 274.658 258.003 273.567C257.272 271.4 256.364 268.37 255.375 265.024C254.387 261.678 253.442 258.67 252.682 256.518C252.305 255.442 251.988 254.572 251.767 253.975C251.545 253.378 251.435 253.039 251.464 253.024C251.494 253.009 251.649 253.326 251.922 253.908C252.195 254.491 252.549 255.346 252.962 256.407C253.796 258.537 254.792 261.545 255.781 264.891C256.748 268.193 257.619 271.179 258.29 273.464C258.6 274.496 258.859 275.358 259.065 276.058C259.25 276.67 259.338 277.017 259.309 277.024V277.039Z" fill="#E0E0E0"/>
<path d="M287.1 266.322C287.1 266.322 286.709 266.477 285.979 266.676C285.255 266.882 284.2 267.17 282.909 267.561C280.326 268.335 276.791 269.529 272.954 271.018C269.116 272.514 265.699 274.01 263.264 275.168C262.039 275.735 261.065 276.222 260.386 276.561C259.707 276.9 259.331 277.069 259.316 277.047C259.301 277.018 259.655 276.797 260.312 276.421C260.969 276.045 261.928 275.514 263.139 274.91C265.552 273.679 268.961 272.131 272.806 270.634C276.658 269.145 280.215 267.988 282.828 267.288C284.134 266.927 285.196 266.683 285.942 266.529C286.687 266.381 287.093 266.308 287.1 266.337V266.322Z" fill="#E0E0E0"/>
<path d="M252.711 311.319C252.711 311.319 252.608 311.216 252.445 311.002C252.261 310.744 252.032 310.434 251.759 310.051C251.169 309.225 250.342 308.009 249.339 306.483C247.339 303.446 244.704 299.164 241.863 294.402C239.022 289.633 236.432 285.336 234.498 282.262C233.553 280.766 232.771 279.542 232.196 278.628C231.945 278.23 231.745 277.906 231.576 277.633C231.436 277.405 231.369 277.279 231.384 277.272C231.399 277.264 231.487 277.375 231.65 277.589C231.834 277.847 232.063 278.156 232.336 278.54C232.926 279.365 233.753 280.581 234.756 282.107C236.756 285.144 239.391 289.427 242.232 294.188C245.073 298.95 247.663 303.255 249.597 306.329C250.542 307.817 251.324 309.048 251.899 309.962C252.15 310.361 252.35 310.685 252.519 310.958C252.66 311.186 252.726 311.311 252.711 311.319Z" fill="#E0E0E0"/>
<path d="M288.68 291.905C288.68 291.905 288.562 291.993 288.333 292.133C288.052 292.288 287.705 292.48 287.292 292.708C286.325 293.232 285.027 293.939 283.44 294.794C280.193 296.556 275.728 299.04 270.799 301.797C265.869 304.554 261.382 307.001 258.091 308.696C256.445 309.544 255.109 310.214 254.179 310.664C253.744 310.87 253.39 311.033 253.102 311.173C252.851 311.283 252.718 311.335 252.711 311.32C252.711 311.305 252.829 311.232 253.058 311.092C253.338 310.937 253.685 310.745 254.098 310.517C255.065 309.993 256.364 309.286 257.951 308.431C261.205 306.669 265.662 304.185 270.592 301.428C275.522 298.671 280.008 296.224 283.292 294.529C284.938 293.681 286.274 293.01 287.204 292.561C287.639 292.354 287.993 292.192 288.281 292.052C288.532 291.942 288.665 291.89 288.672 291.905H288.68Z" fill="#E0E0E0"/>
<path d="M341.599 323.418C341.599 323.521 265.131 323.61 170.826 323.61C76.5207 323.61 0.0375977 323.521 0.0375977 323.418C0.0375977 323.315 76.4912 323.227 170.826 323.227C265.16 323.227 341.599 323.315 341.599 323.418Z" fill="#263238"/>
<path d="M269.728 301.809C268.961 298.757 270.975 295.713 273.234 293.516C275.484 291.32 278.178 289.352 279.359 286.44C281.277 281.715 278.768 275.568 282.015 271.639C283.927 269.325 287.329 268.565 289.026 266.096C289.919 264.799 290.214 263.199 290.569 261.666C292.384 253.853 296.347 246.548 301.911 240.762C302.258 247.735 300.679 254.789 297.395 260.951C296.074 263.428 294.458 265.838 294.007 268.61C293.277 273.106 295.771 277.757 294.635 282.172C293.343 287.221 287.639 290.568 287.336 295.772C287.085 300.172 290.901 304.05 290.591 308.443C290.458 310.315 289.58 312.047 288.598 313.647C285.159 319.278 280.134 323.148 272.555 322.978L263.264 323.251L269.721 301.816L269.728 301.809Z" fill="#0064FF" fill-opacity="0.74902"/>
<path d="M261.39 323.475C261.39 323.475 261.168 323.467 260.74 323.475C260.312 323.46 259.678 323.438 258.851 323.283C258.032 323.136 257.021 322.9 255.877 322.458C254.748 322.015 253.456 321.396 252.254 320.386C251.678 319.863 251.11 319.229 250.822 318.426C250.534 317.622 250.482 316.686 250.438 315.728C250.401 314.762 250.416 313.745 250.261 312.691C250.114 311.629 249.7 310.568 249.125 309.58C248.018 307.597 246.261 305.784 245.737 303.293C245.154 300.823 245.619 298.104 246.084 295.317C246.542 292.546 247.014 289.42 245.937 286.391C244.933 283.391 242.918 280.745 241.974 277.59C241.022 274.413 241.509 270.919 241.324 267.337C241.243 265.546 240.896 263.688 240.107 261.993C239.347 260.29 238.313 258.735 237.538 257.047C235.967 253.663 235.701 249.764 235.28 245.865C235.074 243.904 234.867 241.929 234.653 239.931C234.446 237.948 234.277 235.877 233.642 233.894C233.074 231.904 232.24 229.988 231.435 228.078C231.044 227.12 230.631 226.155 230.41 225.182C230.255 224.201 230.196 223.118 230.144 222.086C230.055 219.992 230.151 217.877 230.424 215.761C230.683 213.646 231.089 211.523 231.332 209.356C231.347 209.231 231.362 209.098 231.376 208.98L230.948 209.216C232.838 210.174 234.461 211.597 235.716 213.285C236.992 214.958 237.93 216.86 238.675 218.806C240.173 222.72 240.712 226.855 241.479 230.865C242.225 234.867 243.228 238.87 245.317 242.29C246.357 243.993 247.582 245.504 248.638 247.096C249.685 248.673 250.578 250.361 250.837 252.167C251.375 255.816 249.206 259.273 249.634 262.98C249.796 264.808 250.519 266.496 251.375 268C252.231 269.519 253.228 270.904 254.158 272.283C255.087 273.661 255.966 275.039 256.6 276.492C257.242 277.936 257.597 279.462 257.692 280.995C257.914 284.054 257.464 287.025 257.692 289.892C257.884 292.774 258.895 295.369 260.017 297.661C261.154 299.961 262.401 302.025 263.449 304.015C263.973 305.01 264.46 305.983 264.851 306.941C265.264 307.892 265.463 308.873 265.655 309.809C265.958 311.696 265.936 313.465 265.744 315.027C265.36 318.168 264.216 320.43 263.183 321.72C262.142 323.018 261.331 323.438 261.375 323.489C261.375 323.489 261.559 323.372 261.906 323.121C262.083 322.996 262.297 322.841 262.519 322.605C262.74 322.376 263.028 322.141 263.272 321.794C264.349 320.512 265.544 318.234 265.965 315.057C266.179 313.48 266.223 311.688 265.928 309.765C265.744 308.814 265.544 307.811 265.131 306.831C264.74 305.851 264.26 304.87 263.736 303.868C262.703 301.863 261.463 299.791 260.349 297.499C259.242 295.221 258.275 292.671 258.098 289.863C257.884 287.062 258.349 284.091 258.135 280.966C258.039 279.403 257.685 277.804 257.021 276.307C256.371 274.804 255.486 273.403 254.556 272.017C253.626 270.632 252.637 269.253 251.803 267.764C250.97 266.283 250.291 264.668 250.136 262.944C249.708 259.464 251.885 256.03 251.361 252.108C251.088 250.177 250.15 248.415 249.088 246.808C248.018 245.194 246.8 243.676 245.789 242.017C243.76 238.693 242.778 234.764 242.04 230.776C241.28 226.788 240.749 222.609 239.221 218.614C238.461 216.631 237.502 214.678 236.181 212.946C234.882 211.199 233.192 209.71 231.207 208.707L230.83 208.516L230.779 208.936C230.764 209.054 230.749 209.179 230.734 209.304C230.491 211.449 230.092 213.565 229.827 215.71C229.554 217.847 229.45 220 229.546 222.13C229.605 223.206 229.65 224.231 229.827 225.322C230.07 226.39 230.491 227.356 230.889 228.329C231.701 230.253 232.52 232.133 233.081 234.086C233.701 236.017 233.871 238.015 234.077 240.027C234.291 242.024 234.498 244 234.712 245.961C235.14 249.845 235.406 253.803 237.037 257.312C237.841 259.044 238.874 260.6 239.612 262.243C240.372 263.88 240.704 265.641 240.793 267.403C240.985 270.912 240.498 274.457 241.487 277.767C242.483 281.04 244.505 283.671 245.486 286.583C246.534 289.487 246.099 292.516 245.656 295.295C245.206 298.081 244.734 300.853 245.354 303.425C245.929 306.035 247.73 307.863 248.815 309.794C249.383 310.752 249.781 311.762 249.929 312.787C250.091 313.811 250.084 314.821 250.128 315.787C250.18 316.752 250.232 317.703 250.549 318.558C250.866 319.421 251.471 320.077 252.069 320.607C253.324 321.632 254.63 322.236 255.781 322.664C256.94 323.084 257.966 323.313 258.792 323.438C260.46 323.711 261.345 323.512 261.345 323.512L261.39 323.475Z" fill="#263238"/>
<path d="M232.668 214.035C232.668 214.035 232.668 214.138 232.697 214.33C232.734 214.559 232.779 214.831 232.838 215.178C232.978 215.922 233.148 217.013 233.465 218.428C233.797 219.851 234.609 221.428 235.28 223.345C235.989 225.254 236.697 227.458 237.354 229.927C238.018 232.396 238.601 235.139 239.221 238.094C239.856 241.021 240.52 244.271 242.136 247.308C242.889 248.834 243.723 250.36 244.372 251.989C245.036 253.61 245.383 255.372 245.627 257.193C246.04 260.849 246.704 264.652 247.56 268.47C249.398 276.085 251.147 283.338 252.741 289.942C254.401 296.51 255.899 302.429 257.168 307.419C258.438 312.35 259.471 316.36 260.202 319.191C260.563 320.54 260.851 321.608 261.058 322.382C261.154 322.721 261.235 322.987 261.294 323.208C261.353 323.392 261.382 323.488 261.397 323.488C261.404 323.488 261.397 323.385 261.353 323.193C261.309 322.972 261.249 322.692 261.176 322.353C260.991 321.572 260.748 320.495 260.43 319.132C259.744 316.294 258.777 312.269 257.582 307.316C256.357 302.318 254.896 296.392 253.279 289.81C251.7 283.205 249.966 275.959 248.151 268.345C247.294 264.527 246.638 260.79 246.21 257.112C245.959 255.276 245.59 253.456 244.903 251.782C244.232 250.109 243.383 248.583 242.631 247.072C241.029 244.094 240.372 240.94 239.708 237.998C239.066 235.05 238.454 232.301 237.76 229.824C237.074 227.347 236.328 225.136 235.59 223.234C234.882 221.31 234.048 219.755 233.694 218.377C233.354 216.998 233.14 215.893 232.963 215.163C232.882 214.824 232.816 214.551 232.764 214.33C232.712 214.146 232.683 214.05 232.675 214.05L232.668 214.035Z" fill="#263238"/>
<path d="M259.751 323.497C253.707 319.863 252.025 308.917 254.593 302.356C257.161 295.789 261.626 289.803 262.349 282.793C262.902 277.405 261.168 271.862 262.452 266.599C264.186 259.494 271.175 254.024 271.138 246.712C271.116 242.606 268.799 238.737 269.013 234.638C269.271 229.611 273.153 225.646 275.573 221.23C279.27 214.471 279.558 206.459 280.857 198.867C282.156 191.274 285.1 183.151 291.86 179.451C292.82 185.908 294.495 190.338 293.912 199.08C293.705 202.22 290.015 208.206 289.484 215.083C289.167 219.196 288.938 223.309 288.657 227.422C288.392 231.425 288.104 235.501 286.65 239.238C285.536 242.105 283.75 244.7 282.916 247.663C281.344 253.228 283.329 259.28 282.06 264.926C280.983 269.71 277.64 273.808 276.938 278.658C275.95 285.469 280.326 292.582 278.031 299.076C276.887 302.297 274.215 304.877 273.441 308.202C272.843 310.781 273.463 313.523 272.917 316.118C272.038 320.297 264.024 323.504 259.759 323.224" fill="#0064FF" fill-opacity="0.74902"/>
<path d="M290.148 185.85C290.148 185.85 290.111 185.968 290.06 186.203C290.008 186.469 289.942 186.815 289.861 187.25C289.676 188.171 289.477 189.55 289.123 191.282C288.746 193.014 287.794 194.997 287.005 197.415C286.185 199.818 285.366 202.597 284.636 205.707C283.898 208.818 283.271 212.267 282.621 215.96C281.95 219.646 281.278 223.612 279.433 227.393C278.57 229.309 277.596 231.248 276.843 233.356C276.075 235.464 275.706 237.742 275.485 240.027C275.138 244.612 274.503 249.292 273.618 254.083C271.721 263.629 269.921 272.725 268.275 281.003C266.578 289.258 265.05 296.696 263.759 302.961C262.504 309.189 261.478 314.239 260.762 317.777C260.43 319.502 260.165 320.85 259.98 321.809C259.899 322.244 259.84 322.59 259.788 322.863C259.751 323.099 259.737 323.224 259.744 323.224C259.751 323.224 259.788 323.106 259.847 322.87C259.914 322.605 259.995 322.258 260.091 321.831C260.305 320.873 260.6 319.531 260.984 317.821C261.744 314.29 262.829 309.256 264.164 303.049C265.485 296.791 267.057 289.369 268.806 281.121C270.467 272.843 272.282 263.747 274.201 254.194C275.086 249.41 275.721 244.663 276.061 240.093C276.282 237.816 276.629 235.604 277.374 233.555C278.105 231.491 279.071 229.56 279.927 227.629C281.787 223.788 282.451 219.727 283.101 216.056C283.728 212.356 284.326 208.921 285.042 205.818C285.743 202.715 286.525 199.936 287.315 197.533C288.06 195.122 288.99 193.125 289.344 191.348C289.669 189.579 289.831 188.216 289.979 187.28C290.038 186.837 290.082 186.491 290.119 186.218C290.148 185.982 290.156 185.857 290.148 185.857V185.85Z" fill="#263238"/>
<path d="M91.9733 282.924C93.8404 283.735 95.213 285.46 95.9067 287.369C96.593 289.286 96.6594 291.372 96.4306 293.391C95.9879 297.298 93.7666 301.249 91.3682 304.367C88.0695 301.492 87.3168 296.48 87.088 293.915C86.7338 289.861 88.5565 282.313 91.9733 282.917" fill="#0064FF" fill-opacity="0.74902"/>
<path d="M95.1991 310.823C94.6751 308.612 95.5902 306.187 97.2875 304.676C98.9849 303.165 101.361 302.524 103.627 302.7C104.675 302.782 105.811 303.084 106.409 303.946C106.97 304.75 106.911 305.877 106.453 306.747C105.996 307.617 105.213 308.266 104.379 308.789C101.523 310.58 98.4314 311.789 95.2065 310.816" fill="#0064FF" fill-opacity="0.74902"/>
<path d="M90.9703 322.815C90.9703 322.815 90.9925 322.528 91.0884 322.012C91.1917 321.444 91.3246 320.714 91.4869 319.845C91.8485 318.031 92.3208 315.429 93.7303 312.908C95.1251 310.395 97.0733 308.537 98.7116 307.616C99.5234 307.144 100.239 306.864 100.741 306.717C100.992 306.636 101.191 306.599 101.324 306.569C101.457 306.54 101.531 306.532 101.531 306.54C101.553 306.606 100.387 306.812 98.8076 307.785C97.2209 308.729 95.3391 310.564 93.9665 313.041C92.5865 315.51 92.0847 318.075 91.6714 319.881C91.4721 320.788 91.3098 321.525 91.1843 322.034C91.0589 322.542 90.9777 322.815 90.9556 322.815H90.9703Z" fill="#263238"/>
<path d="M91.0955 288.797C91.0955 288.797 91.1177 288.915 91.1324 289.151C91.1472 289.409 91.1693 289.748 91.1914 290.161C91.2357 291.038 91.2874 292.306 91.339 293.868C91.4424 297.001 91.5235 301.328 91.5014 306.111C91.4793 310.895 91.3612 315.222 91.2357 318.355C91.1693 319.917 91.1103 321.185 91.0512 322.062C91.0217 322.475 90.9996 322.807 90.9848 323.072C90.9627 323.301 90.9479 323.426 90.9405 323.426C90.9332 323.426 90.9258 323.301 90.9258 323.072C90.9258 322.814 90.9332 322.475 90.9405 322.062C90.9627 321.148 90.9922 319.895 91.0291 318.355C91.1029 315.222 91.1915 310.895 91.2136 306.119C91.2357 301.342 91.1841 297.016 91.1398 293.883C91.1176 292.342 91.0955 291.082 91.0808 290.175C91.0808 289.762 91.0808 289.423 91.0808 289.165C91.0808 288.937 91.0808 288.812 91.0955 288.812V288.797Z" fill="#263238"/>
<path d="M89.4943 313.205C88.7416 308.472 85.5535 304.197 81.229 302.133C80.1295 301.61 78.6904 301.264 77.7827 302.082C76.875 302.9 77.0817 304.374 77.5244 305.509C79.3694 310.249 84.3285 313.588 89.4131 313.529" fill="#0064FF" fill-opacity="0.74902"/>
<path d="M81.7678 305.843C81.7678 305.843 82.0261 305.932 82.4689 306.146C82.6903 306.249 82.9633 306.381 83.2585 306.566C83.5537 306.75 83.9153 306.934 84.2621 307.192C84.6237 307.443 85.0222 307.716 85.4134 308.055C85.8266 308.372 86.2177 308.755 86.6384 309.168C87.4502 310.001 88.2693 311.003 88.963 312.153C89.6493 313.31 90.1511 314.504 90.498 315.617C90.6529 316.178 90.8079 316.716 90.8817 317.224C90.9924 317.733 91.0367 318.212 91.081 318.647C91.14 319.082 91.1179 319.487 91.1326 319.834C91.1474 320.18 91.1326 320.482 91.1031 320.725C91.0662 321.212 91.0367 321.485 91.0219 321.485C90.9555 321.485 91.0662 320.394 90.8743 318.669C90.8153 318.241 90.7636 317.762 90.6456 317.268C90.557 316.767 90.402 316.244 90.2397 315.691C89.8855 314.6 89.391 313.436 88.7121 312.3C88.0258 311.165 87.2288 310.185 86.4391 309.352C86.0333 308.947 85.6495 308.563 85.251 308.239C84.8746 307.892 84.4835 307.62 84.1367 307.354C82.7198 306.337 81.7309 305.888 81.7604 305.836L81.7678 305.843Z" fill="#263238"/>
<path d="M249.847 323.42L144.037 322.933C131.315 322.874 121.042 312.525 121.094 299.818L122.216 34.8656C122.267 22.1506 132.636 11.8827 145.373 11.9417L251.183 12.4281C263.906 12.4871 274.178 22.8361 274.127 35.5437L273.005 300.496C272.953 313.211 262.585 323.479 249.847 323.42Z" fill="#455A64"/>
<path d="M251.028 21.5687L230.512 21.4729C227.76 21.4582 225.524 23.78 225.509 26.6547L225.494 30.3698C225.479 33.2445 223.243 35.559 220.491 35.5516L180.5 35.3673C177.748 35.3526 175.526 33.016 175.541 30.1413L175.556 26.4262C175.571 23.5515 173.349 21.2149 170.597 21.2002L163.379 21.1633L145.425 21.0822C136.51 21.038 129.248 28.2322 129.211 37.1364L128.119 295.75C128.082 304.654 135.278 311.9 144.185 311.944L249.781 312.43C258.695 312.475 265.957 305.28 265.994 296.376L267.086 37.7629C267.123 28.8587 259.928 21.6129 251.02 21.5687H251.028Z" fill="#FAFAFA"/>
<path d="M198.566 217.893C198.669 217.893 198.758 224.394 198.758 232.406C198.758 240.419 198.669 246.92 198.566 246.92C198.463 246.92 198.374 240.419 198.374 232.406C198.374 224.394 198.463 217.893 198.566 217.893Z" fill="#0064FF" fill-opacity="0.74902"/>
<path d="M194.78 221.086C194.884 221.086 194.972 226.047 194.972 232.165C194.972 238.283 194.884 243.243 194.78 243.243C194.677 243.243 194.588 238.283 194.588 232.165C194.588 226.047 194.677 221.086 194.78 221.086Z" fill="#0064FF" fill-opacity="0.74902"/>
<path d="M190.515 224.246C190.618 224.246 190.706 227.836 190.706 232.273C190.706 236.711 190.618 240.3 190.515 240.3C190.411 240.3 190.323 236.711 190.323 232.273C190.323 227.836 190.411 224.246 190.515 224.246Z" fill="#0064FF" fill-opacity="0.74902"/>
<path d="M186.803 226.982C186.906 226.982 186.995 228.987 186.995 231.457C186.995 233.926 186.906 235.931 186.803 235.931C186.699 235.931 186.611 233.926 186.611 231.457C186.611 228.987 186.699 226.982 186.803 226.982Z" fill="#0064FF" fill-opacity="0.74902"/>
<path d="M183.519 229.162C183.622 229.162 183.71 230.26 183.71 231.617C183.71 232.973 183.622 234.071 183.519 234.071C183.415 234.071 183.327 232.973 183.327 231.617C183.327 230.26 183.415 229.162 183.519 229.162Z" fill="#0064FF" fill-opacity="0.74902"/>
<path d="M179.807 226.543C179.91 226.543 179.999 228.548 179.999 231.017C179.999 233.486 179.91 235.491 179.807 235.491C179.704 235.491 179.615 233.486 179.615 231.017C179.615 228.548 179.704 226.543 179.807 226.543Z" fill="#0064FF" fill-opacity="0.74902"/>
<path d="M176.309 222.939C176.412 222.939 176.501 226.706 176.501 231.342C176.501 235.979 176.412 239.753 176.309 239.753C176.206 239.753 176.117 235.986 176.117 231.342C176.117 226.699 176.206 222.939 176.309 222.939Z" fill="#0064FF" fill-opacity="0.74902"/>
<path d="M220.661 224.246C220.764 224.246 220.853 227.836 220.853 232.273C220.853 236.711 220.764 240.3 220.661 240.3C220.558 240.3 220.469 236.711 220.469 232.273C220.469 227.836 220.558 224.246 220.661 224.246Z" fill="#0064FF" fill-opacity="0.74902"/>
<path d="M216.949 226.982C217.052 226.982 217.141 228.987 217.141 231.457C217.141 233.926 217.052 235.931 216.949 235.931C216.846 235.931 216.757 233.926 216.757 231.457C216.757 228.987 216.846 226.982 216.949 226.982Z" fill="#0064FF" fill-opacity="0.74902"/>
<path d="M213.665 229.162C213.768 229.162 213.857 230.26 213.857 231.617C213.857 232.973 213.768 234.071 213.665 234.071C213.562 234.071 213.473 232.973 213.473 231.617C213.473 230.26 213.562 229.162 213.665 229.162Z" fill="#0064FF" fill-opacity="0.74902"/>
<path d="M209.953 225.232C210.056 225.232 210.145 227.82 210.145 231.019C210.145 234.218 210.056 236.805 209.953 236.805C209.85 236.805 209.761 234.218 209.761 231.019C209.761 227.82 209.85 225.232 209.953 225.232Z" fill="#0064FF" fill-opacity="0.74902"/>
<path d="M206.455 222.939C206.558 222.939 206.646 226.706 206.646 231.342C206.646 235.979 206.558 239.753 206.455 239.753C206.351 239.753 206.263 235.986 206.263 231.342C206.263 226.699 206.351 222.939 206.455 222.939Z" fill="#0064FF" fill-opacity="0.74902"/>
<path d="M202.189 221.195C202.293 221.195 202.381 225.986 202.381 231.898C202.381 237.81 202.293 242.601 202.189 242.601C202.086 242.601 201.998 237.81 201.998 231.898C201.998 225.986 202.086 221.195 202.189 221.195Z" fill="#0064FF" fill-opacity="0.74902"/>
<path d="M224.638 235.495C224.535 235.495 224.446 233.49 224.446 231.021C224.446 228.552 224.535 226.547 224.638 226.547C224.741 226.547 224.83 228.552 224.83 231.021C224.83 233.49 224.741 235.495 224.638 235.495Z" fill="#0064FF" fill-opacity="0.74902"/>
<path d="M227.915 233.313C227.811 233.313 227.723 232.215 227.723 230.859C227.723 229.503 227.811 228.404 227.915 228.404C228.018 228.404 228.106 229.503 228.106 230.859C228.106 232.215 228.018 233.313 227.915 233.313Z" fill="#0064FF" fill-opacity="0.74902"/>
<path d="M172.885 226.543C172.988 226.543 173.077 228.548 173.077 231.017C173.077 233.486 172.988 235.491 172.885 235.491C172.781 235.491 172.693 233.486 172.693 231.017C172.693 228.548 172.781 226.543 172.885 226.543Z" fill="#0064FF" fill-opacity="0.74902"/>
<path d="M169.601 228.725C169.704 228.725 169.792 229.823 169.792 231.179C169.792 232.535 169.704 233.634 169.601 233.634C169.497 233.634 169.409 232.535 169.409 231.179C169.409 229.823 169.497 228.725 169.601 228.725Z" fill="#0064FF" fill-opacity="0.74902"/>
<path d="M166.332 226.543C166.435 226.543 166.523 228.548 166.523 231.017C166.523 233.486 166.435 235.491 166.332 235.491C166.228 235.491 166.14 233.486 166.14 231.017C166.14 228.548 166.228 226.543 166.332 226.543Z" fill="#0064FF" fill-opacity="0.74902"/>
<path d="M162.833 222.939C162.937 222.939 163.025 226.706 163.025 231.342C163.025 235.979 162.937 239.753 162.833 239.753C162.73 239.753 162.642 235.986 162.642 231.342C162.642 226.699 162.73 222.939 162.833 222.939Z" fill="#0064FF" fill-opacity="0.74902"/>
<path d="M159.409 226.543C159.512 226.543 159.601 228.548 159.601 231.017C159.601 233.486 159.512 235.491 159.409 235.491C159.306 235.491 159.217 233.486 159.217 231.017C159.217 228.548 159.306 226.543 159.409 226.543Z" fill="#0064FF" fill-opacity="0.74902"/>
<path d="M156.133 228.725C156.236 228.725 156.325 229.823 156.325 231.179C156.325 232.535 156.236 233.634 156.133 233.634C156.029 233.634 155.941 232.535 155.941 231.179C155.941 229.823 156.029 228.725 156.133 228.725Z" fill="#0064FF" fill-opacity="0.74902"/>
<path d="M238.313 226.543C238.416 226.543 238.505 228.548 238.505 231.017C238.505 233.486 238.416 235.491 238.313 235.491C238.21 235.491 238.121 233.486 238.121 231.017C238.121 228.548 238.21 226.543 238.313 226.543Z" fill="#0064FF" fill-opacity="0.74902"/>
<path d="M234.815 222.939C234.918 222.939 235.007 226.706 235.007 231.342C235.007 235.979 234.918 239.753 234.815 239.753C234.712 239.753 234.623 235.986 234.623 231.342C234.623 226.699 234.712 222.939 234.815 222.939Z" fill="#0064FF" fill-opacity="0.74902"/>
<path d="M231.391 226.543C231.494 226.543 231.583 228.548 231.583 231.017C231.583 233.486 231.494 235.491 231.391 235.491C231.288 235.491 231.199 233.486 231.199 231.017C231.199 228.548 231.288 226.543 231.391 226.543Z" fill="#0064FF" fill-opacity="0.74902"/>
<path d="M228.107 228.725C228.211 228.725 228.299 229.823 228.299 231.179C228.299 232.535 228.211 233.634 228.107 233.634C228.004 233.634 227.916 232.535 227.916 231.179C227.916 229.823 228.004 228.725 228.107 228.725Z" fill="#0064FF" fill-opacity="0.74902"/>
<path d="M242.579 228.725C242.682 228.725 242.77 229.823 242.77 231.179C242.77 232.535 242.682 233.634 242.579 233.634C242.475 233.634 242.387 232.535 242.387 231.179C242.387 229.823 242.475 228.725 242.579 228.725Z" fill="#0064FF" fill-opacity="0.74902"/>
<g opacity="0.3">
<path d="M255.559 125.836C255.559 125.836 255.537 125.527 255.515 124.922C255.478 124.318 255.5 123.419 255.39 122.247C255.249 119.903 254.851 116.438 253.781 112.104C253.205 109.952 252.504 107.564 251.471 105.05C250.453 102.537 249.198 99.8536 247.552 97.1411C244.298 91.716 239.627 86.0329 233.265 81.1901C230.099 78.7651 226.498 76.5832 222.528 74.7847C218.565 72.9862 214.233 71.5414 209.606 70.7159C204.994 69.8682 200.108 69.5291 195.127 69.9198C192.633 70.0672 190.124 70.4726 187.6 70.9739C185.083 71.512 182.582 72.2343 180.095 73.1115C170.191 76.6938 160.775 83.3867 153.993 92.6668C152.273 94.9666 150.775 97.4506 149.417 100.023C148.724 101.306 148.133 102.647 147.536 103.989C146.997 105.352 146.436 106.716 145.986 108.131C144.089 113.741 143.145 119.748 143.115 125.829C143.137 128.873 143.381 131.888 143.846 134.851C144.303 137.822 145.063 140.719 145.986 143.527C146.436 144.942 146.989 146.306 147.536 147.67C148.141 149.011 148.731 150.353 149.417 151.635C150.775 154.215 152.273 156.699 153.993 158.999C160.775 168.279 170.191 174.972 180.095 178.562C182.582 179.446 185.091 180.161 187.6 180.699C190.116 181.2 192.633 181.606 195.127 181.753C200.116 182.144 204.994 181.805 209.606 180.957C214.226 180.124 218.558 178.679 222.528 176.888C226.498 175.09 230.099 172.908 233.265 170.483C239.627 165.64 244.298 159.964 247.552 154.532C249.198 151.819 250.453 149.136 251.471 146.623C252.512 144.109 253.205 141.721 253.781 139.569C254.851 135.235 255.249 131.77 255.39 129.426C255.493 128.254 255.471 127.355 255.515 126.751C255.537 126.146 255.559 125.836 255.559 125.836C255.559 125.836 255.559 126.146 255.559 126.751C255.537 127.355 255.567 128.254 255.478 129.426C255.36 131.778 254.991 135.249 253.936 139.606C253.368 141.773 252.681 144.168 251.648 146.689C250.637 149.217 249.39 151.915 247.744 154.643C244.497 160.104 239.818 165.817 233.435 170.697C230.254 173.144 226.646 175.34 222.661 177.154C218.676 178.967 214.322 180.426 209.68 181.267C205.045 182.129 200.131 182.468 195.112 182.085C192.603 181.937 190.072 181.532 187.541 181.038C185.01 180.5 182.486 179.778 179.984 178.893C170.014 175.296 160.531 168.566 153.698 159.227C151.971 156.913 150.451 154.414 149.085 151.819C148.392 150.529 147.794 149.173 147.189 147.824C146.643 146.446 146.082 145.075 145.632 143.652C144.702 140.822 143.942 137.903 143.477 134.918C143.004 131.932 142.761 128.895 142.739 125.829C142.776 119.711 143.72 113.66 145.632 108.013C146.082 106.591 146.643 105.22 147.189 103.841C147.794 102.492 148.392 101.144 149.085 99.8536C150.451 97.259 151.963 94.7602 153.698 92.4457C160.531 83.1066 170.007 76.3768 179.977 72.7798C182.478 71.8952 185.002 71.1729 187.533 70.6348C190.072 70.1336 192.596 69.7282 195.105 69.5881C200.123 69.2048 205.031 69.5439 209.665 70.4063C214.314 71.2466 218.668 72.7061 222.646 74.5193C226.631 76.3326 230.247 78.5292 233.42 80.9764C239.804 85.856 244.475 91.5686 247.73 97.0305C249.375 99.7578 250.622 102.456 251.633 104.984C252.667 107.505 253.353 109.908 253.921 112.075C254.976 116.431 255.345 119.903 255.463 122.254C255.559 123.426 255.522 124.333 255.545 124.93C255.552 125.534 255.545 125.844 255.545 125.844L255.559 125.836Z" fill="#0064FF" fill-opacity="0.74902"/>
</g>
<path d="M248.423 124.629C248.423 124.629 248.401 124.364 248.386 123.841C248.357 123.325 248.372 122.543 248.276 121.533C248.15 119.506 247.811 116.521 246.881 112.784C245.922 109.062 244.313 104.573 241.501 99.8773C238.69 95.1966 234.66 90.3023 229.177 86.1229C226.447 84.0295 223.34 82.1499 219.916 80.602C216.499 79.054 212.757 77.8083 208.772 77.0934C204.795 76.3636 200.581 76.0761 196.286 76.4078C194.131 76.5332 191.969 76.887 189.799 77.3145C187.629 77.7789 185.467 78.398 183.327 79.1572C174.781 82.2457 166.671 88.0172 160.819 96.0222C159.336 98.005 158.044 100.143 156.871 102.369C155.698 104.595 154.709 106.931 153.912 109.364C152.273 114.207 151.462 119.381 151.432 124.622C151.462 129.863 152.273 135.045 153.904 139.887C154.701 142.312 155.69 144.656 156.864 146.882C158.037 149.108 159.328 151.246 160.812 153.229C166.656 161.234 174.781 167.005 183.32 170.101C185.467 170.86 187.629 171.48 189.792 171.944C191.961 172.371 194.131 172.725 196.286 172.851C200.588 173.19 204.795 172.895 208.78 172.165C212.765 171.45 216.506 170.204 219.923 168.656C223.347 167.109 226.454 165.229 229.185 163.136C234.675 158.956 238.697 154.062 241.509 149.381C244.32 144.678 245.929 140.197 246.888 136.474C247.818 132.737 248.158 129.745 248.283 127.725C248.379 126.715 248.357 125.941 248.394 125.418C248.416 124.895 248.431 124.629 248.431 124.629C248.431 124.629 248.46 125.698 248.364 127.725C248.261 129.752 247.944 132.752 247.036 136.511C246.099 140.248 244.505 144.76 241.693 149.492C238.889 154.202 234.852 159.14 229.347 163.349C226.602 165.465 223.487 167.359 220.048 168.929C216.61 170.492 212.853 171.752 208.839 172.482C204.839 173.227 200.596 173.521 196.264 173.19C194.094 173.064 191.917 172.718 189.725 172.283C187.541 171.819 185.364 171.192 183.202 170.433C174.59 167.33 166.405 161.521 160.509 153.45C159.018 151.452 157.712 149.293 156.531 147.052C155.351 144.811 154.347 142.452 153.543 140.005C151.897 135.126 151.078 129.9 151.048 124.622C151.078 119.337 151.897 114.118 153.55 109.238C154.354 106.791 155.351 104.433 156.539 102.192C157.72 99.951 159.026 97.7912 160.516 95.8011C166.413 87.7371 174.597 81.9288 183.209 78.8255C185.371 78.059 187.548 77.4398 189.733 76.9754C191.924 76.5479 194.101 76.1941 196.271 76.0688C200.603 75.7371 204.839 76.0319 208.846 76.7764C212.853 77.5061 216.617 78.7666 220.056 80.3292C223.495 81.8993 226.616 83.7936 229.354 85.9091C234.859 90.1254 238.896 95.0566 241.7 99.7667C244.512 104.499 246.099 109.01 247.043 112.747C247.951 116.506 248.268 119.506 248.372 121.533C248.475 123.56 248.438 124.629 248.438 124.629H248.423Z" fill="#0064FF" fill-opacity="0.74902"/>
<path d="M199.245 165.796C221.339 165.796 239.25 147.906 239.25 125.837C239.25 103.769 221.339 85.8789 199.245 85.8789C177.151 85.8789 159.24 103.769 159.24 125.837C159.24 147.906 177.151 165.796 199.245 165.796Z" fill="#0064FF" fill-opacity="0.74902"/>
<path d="M199.57 113.703H198.795C196.088 113.703 193.895 115.894 193.895 118.597V125.578C193.895 128.281 196.088 130.472 198.795 130.472H199.57C202.276 130.472 204.47 128.281 204.47 125.578V118.597C204.47 115.894 202.276 113.703 199.57 113.703Z" fill="#FAFAFA"/>
<path d="M199.179 133.682C194.876 133.682 191.386 130.188 191.386 125.898C191.386 125.691 191.548 125.529 191.755 125.529C191.961 125.529 192.124 125.691 192.124 125.898C192.124 129.782 195.29 132.945 199.179 132.945C203.333 132.945 206.234 130.04 206.234 125.898C206.234 125.691 206.396 125.529 206.603 125.529C206.809 125.529 206.972 125.691 206.972 125.898C206.972 130.475 203.769 133.682 199.179 133.682Z" fill="#FAFAFA"/>
<path d="M199.548 133.303H198.81V137.121H199.548V133.303Z" fill="white"/>
<path d="M203.798 137.331H194.566C194.36 137.331 194.197 137.169 194.197 136.962C194.197 136.756 194.36 136.594 194.566 136.594H203.798C204.005 136.594 204.167 136.756 204.167 136.962C204.167 137.169 204.005 137.331 203.798 137.331Z" fill="white"/>
<path d="M191.445 116.762C191.393 116.858 190.832 116.659 190.168 116.379C189.504 116.099 188.973 115.826 189.01 115.73C189.039 115.634 189.637 115.737 190.323 116.032C191.002 116.32 191.497 116.674 191.445 116.769V116.762Z" fill="white"/>
<path d="M194.419 112.81C194.33 112.877 193.851 112.368 193.349 111.682C192.84 110.997 192.5 110.385 192.589 110.326C192.677 110.26 193.157 110.768 193.659 111.454C194.168 112.139 194.507 112.751 194.419 112.81Z" fill="white"/>
<path d="M199.208 111.397C199.105 111.397 199.024 110.756 199.031 109.953C199.039 109.149 199.135 108.501 199.238 108.508C199.341 108.515 199.422 109.164 199.415 109.953C199.408 110.741 199.312 111.39 199.208 111.397Z" fill="white"/>
<path d="M205.348 110.359C205.437 110.411 205.215 110.956 204.78 111.531C204.345 112.106 203.887 112.475 203.806 112.401C203.725 112.327 204.049 111.855 204.47 111.295C204.891 110.742 205.252 110.3 205.348 110.352V110.359Z" fill="white"/>
<path d="M209.473 115.346C209.525 115.435 209.038 115.818 208.381 116.194C207.724 116.57 207.149 116.798 207.097 116.702C207.045 116.614 207.532 116.231 208.197 115.855C208.853 115.479 209.429 115.25 209.481 115.346H209.473Z" fill="white"/>
<path d="M232.004 289.175C232.004 289.175 232.188 289.153 232.543 289.131C232.72 289.116 232.941 289.109 233.199 289.079C233.458 289.035 233.76 288.991 234.1 288.932C235.443 288.667 237.472 288.011 239.428 286.241C240.395 285.364 241.324 284.207 242.011 282.77C242.69 281.34 243.14 279.622 243.095 277.757C243.095 276.821 243.11 275.848 243 274.868C242.881 273.88 242.608 272.892 242.217 271.919C241.789 270.961 241.243 270.025 240.542 269.163C239.826 268.315 238.97 267.548 237.996 266.915C236.04 265.625 233.576 265.028 231.015 265.153C228.439 265.153 225.761 265.153 222.986 265.168C217.436 265.168 211.503 265.182 205.267 265.182C192.788 265.182 179.069 265.19 164.671 265.197C162.9 265.204 161.151 265.639 159.594 266.435C158.03 267.224 156.709 268.426 155.705 269.819C154.687 271.212 154.052 272.848 153.794 274.521C153.713 274.942 153.683 275.362 153.676 275.782C153.646 276.202 153.654 276.63 153.654 277.057C153.654 277.92 153.646 278.752 153.786 279.578C154.03 281.229 154.642 282.807 155.558 284.163C156.487 285.512 157.705 286.639 159.085 287.458C160.465 288.276 162.015 288.784 163.579 288.939L164.753 288.998H165.941C166.73 288.998 167.513 288.998 168.295 288.998C180.774 289.013 192.013 289.028 201.452 289.042C210.883 289.065 218.514 289.087 223.805 289.101C226.432 289.116 228.484 289.131 229.886 289.138C230.572 289.146 231.096 289.153 231.465 289.16C231.819 289.16 232.004 289.182 232.004 289.182C232.004 289.182 231.819 289.197 231.465 289.205C231.096 289.205 230.572 289.212 229.886 289.227C228.484 289.234 226.439 289.249 223.805 289.264C218.514 289.278 210.883 289.3 201.452 289.323C192.013 289.337 180.774 289.345 168.295 289.367C167.513 289.367 166.73 289.367 165.941 289.367H164.753L163.542 289.308C161.926 289.153 160.325 288.63 158.901 287.789C157.469 286.949 156.214 285.784 155.248 284.391C154.296 282.991 153.661 281.362 153.41 279.652C153.27 278.804 153.277 277.927 153.277 277.079C153.277 276.652 153.27 276.224 153.299 275.789C153.314 275.354 153.344 274.92 153.425 274.485C153.69 272.752 154.347 271.057 155.403 269.62C156.45 268.182 157.816 266.937 159.432 266.118C161.041 265.293 162.856 264.843 164.686 264.836C179.084 264.836 192.803 264.843 205.282 264.851C211.518 264.851 217.451 264.865 223.001 264.865C225.775 264.865 228.454 264.873 231.03 264.873C233.613 264.755 236.173 265.374 238.158 266.708C239.155 267.364 240.026 268.153 240.756 269.023C241.465 269.907 242.025 270.865 242.461 271.853C242.852 272.856 243.132 273.865 243.243 274.868C243.354 275.878 243.332 276.851 243.324 277.779C243.354 279.674 242.889 281.421 242.188 282.873C241.479 284.332 240.527 285.497 239.538 286.374C237.539 288.143 235.48 288.784 234.122 289.028C233.775 289.079 233.472 289.116 233.214 289.16C232.948 289.182 232.727 289.182 232.55 289.19C232.196 289.205 232.011 289.197 232.011 289.197L232.004 289.175Z" fill="#263238"/>
<path d="M255.559 50.1439C255.559 50.2618 253.006 50.3503 249.854 50.3503C246.703 50.3503 244.15 50.2545 244.15 50.1439C244.15 50.0333 246.703 49.9375 249.854 49.9375C253.006 49.9375 255.559 50.0333 255.559 50.1439Z" fill="#263238"/>
<path d="M255.559 47.1595C255.559 47.2774 253.006 47.3659 249.854 47.3659C246.703 47.3659 244.15 47.2701 244.15 47.1595C244.15 47.0489 246.703 46.9531 249.854 46.9531C253.006 46.9531 255.559 47.0489 255.559 47.1595Z" fill="#263238"/>
<path d="M255.559 44.1849C255.559 44.3028 253.006 44.3913 249.854 44.3913C246.703 44.3913 244.15 44.2955 244.15 44.1849C244.15 44.0743 246.703 43.9785 249.854 43.9785C253.006 43.9785 255.559 44.0743 255.559 44.1849Z" fill="#263238"/>
<path d="M141.794 52.0628C141.794 52.0628 141.883 52.0554 142.038 52.0481C142.229 52.0481 142.458 52.0333 142.716 52.026C143.359 52.0112 144.2 51.9891 145.233 51.967L145.167 52.0407C145.159 51.4805 145.144 50.8761 145.137 50.2127C145.137 49.8736 145.108 49.5567 145.137 49.1586C145.203 48.7679 145.55 48.4215 145.986 48.3846C146.392 48.3773 146.746 48.3552 147.189 48.3846C147.646 48.4362 148.03 48.8785 148.015 49.3576C148.022 50.2053 148.037 51.0972 148.045 52.0186L147.927 51.9006C148.945 51.8933 150.008 51.8785 151.107 51.8712L150.989 51.9965C150.974 50.7213 150.967 49.3945 150.952 48.0382C150.952 47.6991 150.952 47.3674 150.945 47.0284C150.945 46.7188 150.753 46.5124 150.495 46.2765C150.022 45.8122 149.557 45.3551 149.107 44.9055C148.65 44.4559 148.207 44.0136 147.764 43.5861C147.543 43.3723 147.329 43.1586 147.115 42.9448C146.893 42.731 146.716 42.5099 146.458 42.4583C146.207 42.392 145.934 42.4436 145.727 42.5984C145.536 42.7605 145.329 42.989 145.137 43.1807C144.746 43.5713 144.362 43.962 143.993 44.3306C143.277 45.075 142.532 45.7532 141.986 46.3945C141.757 46.7483 141.846 47.1832 141.824 47.5812C141.824 47.9719 141.824 48.3478 141.824 48.7016C141.824 49.3871 141.816 49.9915 141.809 50.5001C141.809 50.9572 141.801 51.3404 141.794 51.65C141.794 51.9154 141.787 52.0628 141.779 52.0628C141.779 52.0628 141.765 51.9375 141.757 51.6795C141.75 51.3699 141.735 51.0014 141.728 50.5444C141.713 50.0284 141.705 49.4166 141.683 48.7311C141.683 48.3699 141.669 47.994 141.661 47.5886C141.661 47.3822 141.661 47.1758 141.654 46.962C141.654 46.7335 141.713 46.505 141.831 46.2986C142.421 45.5763 143.122 44.9424 143.846 44.1758C144.215 43.7998 144.591 43.4166 144.975 43.0185C145.181 42.8195 145.344 42.6205 145.587 42.4141C145.838 42.2224 146.192 42.1487 146.51 42.2298C146.849 42.3035 147.071 42.5836 147.27 42.7753C147.484 42.989 147.705 43.1954 147.919 43.4166C148.362 43.8441 148.805 44.2863 149.262 44.736C149.72 45.1856 150.185 45.6426 150.657 46.0996C150.768 46.2176 150.901 46.3208 151.011 46.4829C151.115 46.6377 151.174 46.8294 151.181 47.021C151.181 47.3527 151.181 47.6918 151.188 48.0308C151.196 49.3871 151.211 50.7065 151.218 51.9891V52.1144H151.1C150.008 52.1144 148.945 52.1292 147.919 52.1365H147.801V52.0186C147.801 51.0972 147.794 50.2053 147.786 49.3576C147.801 48.9743 147.499 48.6353 147.144 48.5837C146.775 48.5616 146.347 48.5837 145.993 48.5837C145.654 48.6132 145.366 48.8859 145.307 49.2028C145.277 49.5198 145.307 49.8957 145.292 50.22C145.292 50.8761 145.292 51.4879 145.292 52.0481V52.1218H145.226C144.178 52.1144 143.322 52.107 142.665 52.107C142.407 52.107 142.185 52.0997 142.001 52.0923C141.853 52.0923 141.779 52.0849 141.779 52.0776L141.794 52.0628Z" fill="#263238"/>
<path d="M267.846 93.4217C267.949 96.8713 265.499 97.2104 263.809 97.3431C262.119 97.4757 260.193 96.7165 258.658 95.9868C255.529 94.4978 252.496 92.9794 251.234 89.5371" fill="#FFBE9D"/>
<path d="M142.408 61.1562C142.511 61.1562 142.6 66.2865 142.6 72.6109C142.6 78.9353 142.511 84.0655 142.408 84.0655C142.304 84.0655 142.216 78.9353 142.216 72.6109C142.216 66.2865 142.304 61.1562 142.408 61.1562Z" fill="#0064FF" fill-opacity="0.74902"/>
<path d="M145.396 63.6758C145.499 63.6758 145.588 67.5898 145.588 72.4252C145.588 77.2607 145.499 81.1747 145.396 81.1747C145.293 81.1747 145.204 77.2607 145.204 72.4252C145.204 67.5898 145.293 63.6758 145.396 63.6758Z" fill="#0064FF" fill-opacity="0.74902"/>
<path d="M148.762 66.1738C148.865 66.1738 148.954 69.0117 148.954 72.5056C148.954 75.9995 148.865 78.8373 148.762 78.8373C148.658 78.8373 148.57 75.9995 148.57 72.5056C148.57 69.0117 148.658 66.1738 148.762 66.1738Z" fill="#0064FF" fill-opacity="0.74902"/>
<path d="M151.691 68.3301C151.795 68.3301 151.883 69.9148 151.883 71.8608C151.883 73.8068 151.795 75.3915 151.691 75.3915C151.588 75.3915 151.5 73.8068 151.5 71.8608C151.5 69.9148 151.588 68.3301 151.691 68.3301Z" fill="#0064FF" fill-opacity="0.74902"/>
<path d="M154.282 70.0527C154.385 70.0527 154.474 70.9225 154.474 71.9913C154.474 73.0601 154.385 73.9299 154.282 73.9299C154.178 73.9299 154.09 73.0601 154.09 71.9913C154.09 70.9225 154.178 70.0527 154.282 70.0527Z" fill="#0064FF" fill-opacity="0.74902"/>
<path d="M157.219 67.9844C157.322 67.9844 157.411 69.5692 157.411 71.5151C157.411 73.4611 157.322 75.0458 157.219 75.0458C157.115 75.0458 157.027 73.4611 157.027 71.5151C157.027 69.5692 157.115 67.9844 157.219 67.9844Z" fill="#0064FF" fill-opacity="0.74902"/>
<path d="M159.979 65.1465C160.082 65.1465 160.171 68.117 160.171 71.7804C160.171 75.4438 160.082 78.4144 159.979 78.4144C159.876 78.4144 159.787 75.4438 159.787 71.7804C159.787 68.117 159.876 65.1465 159.979 65.1465Z" fill="#0064FF" fill-opacity="0.74902"/>
<path d="M124.97 66.1758C125.073 66.1758 125.162 69.0136 125.162 72.5075C125.162 76.0014 125.073 78.8393 124.97 78.8393C124.866 78.8393 124.778 76.0014 124.778 72.5075C124.778 69.0136 124.866 66.1758 124.97 66.1758Z" fill="#0064FF" fill-opacity="0.74902"/>
<path d="M127.899 68.3301C128.003 68.3301 128.091 69.9148 128.091 71.8608C128.091 73.8068 128.003 75.3915 127.899 75.3915C127.796 75.3915 127.708 73.8068 127.708 71.8608C127.708 69.9148 127.796 68.3301 127.899 68.3301Z" fill="#0064FF" fill-opacity="0.74902"/>
<path d="M130.49 70.0527C130.593 70.0527 130.682 70.9225 130.682 71.9913C130.682 73.0601 130.593 73.9299 130.49 73.9299C130.386 73.9299 130.298 73.0601 130.298 71.9913C130.298 70.9225 130.386 70.0527 130.49 70.0527Z" fill="#0064FF" fill-opacity="0.74902"/>
<path d="M133.419 66.9512C133.522 66.9512 133.611 68.993 133.611 71.5212C133.611 74.0495 133.522 76.0913 133.419 76.0913C133.316 76.0913 133.227 74.0495 133.227 71.5212C133.227 68.993 133.316 66.9512 133.419 66.9512Z" fill="#0064FF" fill-opacity="0.74902"/>
<path d="M136.187 65.1465C136.29 65.1465 136.379 68.117 136.379 71.7804C136.379 75.4438 136.29 78.4144 136.187 78.4144C136.084 78.4144 135.995 75.4438 135.995 71.7804C135.995 68.117 136.084 65.1465 136.187 65.1465Z" fill="#0064FF" fill-opacity="0.74902"/>
<path d="M139.544 63.7656C139.648 63.7656 139.736 67.547 139.736 72.2129C139.736 76.8788 139.648 80.6601 139.544 80.6601C139.441 80.6601 139.353 76.8788 139.353 72.2129C139.353 67.547 139.441 63.7656 139.544 63.7656Z" fill="#0064FF" fill-opacity="0.74902"/>
<path d="M121.833 75.0497C121.73 75.0497 121.642 73.465 121.642 71.519C121.642 69.5731 121.73 67.9883 121.833 67.9883C121.937 67.9883 122.025 69.5731 122.025 71.519C122.025 73.465 121.937 75.0497 121.833 75.0497Z" fill="#0064FF" fill-opacity="0.74902"/>
<path d="M119.243 73.3244C119.14 73.3244 119.051 72.4546 119.051 71.3858C119.051 70.317 119.14 69.4473 119.243 69.4473C119.346 69.4473 119.435 70.317 119.435 71.3858C119.435 72.4546 119.346 73.3244 119.243 73.3244Z" fill="#0064FF" fill-opacity="0.74902"/>
<path d="M162.679 67.9805C162.782 67.9805 162.871 69.5652 162.871 71.5112C162.871 73.4572 162.782 75.0419 162.679 75.0419C162.576 75.0419 162.487 73.4572 162.487 71.5112C162.487 69.5652 162.576 67.9805 162.679 67.9805Z" fill="#0064FF" fill-opacity="0.74902"/>
<path d="M165.27 69.707C165.373 69.707 165.461 70.5768 165.461 71.6456C165.461 72.7144 165.373 73.5842 165.27 73.5842C165.166 73.5842 165.078 72.7144 165.078 71.6456C165.078 70.5768 165.166 69.707 165.27 69.707Z" fill="#0064FF" fill-opacity="0.74902"/>
<path d="M139.249 293.775L144.621 309.358C144.621 309.358 162.288 309.137 163.557 311.916L133.677 323.414L124.305 299.473L139.241 293.775H139.249Z" fill="#0064FF" fill-opacity="0.74902"/>
<path d="M134.88 311.621C134.364 312.004 134.216 312.807 134.57 313.338C134.932 313.869 135.744 314.031 136.268 313.655C136.792 313.286 136.998 312.328 136.585 311.834C136.172 311.348 135.198 311.215 134.777 311.702" fill="#E0E0E0"/>
<g opacity="0.6">
<path d="M133.685 323.414L132.836 320.967L161.801 310.861C161.801 310.861 163.351 310.928 163.565 311.923L133.685 323.422V323.414Z" fill="white"/>
</g>
<path d="M145.049 309.017C145.101 309.164 144.4 309.511 143.861 310.255C143.307 310.985 143.175 311.759 143.02 311.751C142.872 311.773 142.754 310.823 143.425 309.931C144.082 309.031 145.034 308.869 145.049 309.017Z" fill="#263238"/>
<path d="M148.68 309.105C148.769 309.231 148.23 309.724 147.972 310.528C147.691 311.324 147.824 312.039 147.676 312.09C147.551 312.164 147.116 311.353 147.455 310.351C147.787 309.348 148.621 308.958 148.68 309.098V309.105Z" fill="#263238"/>
<path d="M151.905 312.172C151.787 312.253 151.3 311.604 151.366 310.661C151.425 309.717 151.993 309.135 152.104 309.238C152.229 309.327 151.956 309.924 151.912 310.698C151.853 311.472 152.045 312.098 151.912 312.172H151.905Z" fill="#263238"/>
<path d="M143.426 305.606C143.418 305.761 142.666 305.819 141.869 306.195C141.057 306.549 140.526 307.073 140.4 306.977C140.275 306.903 140.695 306.122 141.647 305.694C142.599 305.259 143.463 305.458 143.433 305.606H143.426Z" fill="#263238"/>
<path d="M25.5741 288.158L25.2421 288.593L18.7775 297.026L10.7705 302.51L21.4932 323.141L33.3007 323.156C33.3007 323.156 32.4446 320.318 26.7696 318.851L26.3933 307.522L36.592 296.333" fill="#0064FF" fill-opacity="0.74902"/>
<g opacity="0.6">
<path d="M10.7603 302.52L21.483 323.151L33.2905 323.166L31.9621 321.39L22.3611 320.851L12.465 301.348L10.7603 302.52Z" fill="white"/>
</g>
<path d="M26.6861 313.668C26.5976 313.786 25.9187 313.403 25.0036 313.425C24.0885 313.425 23.4169 313.83 23.3284 313.712C23.2177 313.624 23.8819 312.916 24.9962 312.909C26.1105 312.887 26.7895 313.579 26.6861 313.668Z" fill="#263238"/>
<path d="M26.4941 310.862C26.376 310.943 25.8521 310.251 24.9075 310.066C23.9703 309.875 23.2175 310.31 23.1363 310.192C23.0995 310.14 23.2323 309.941 23.5644 309.764C23.8891 309.587 24.4278 309.447 25.0108 309.565C25.5938 309.683 26.0366 310.015 26.2653 310.31C26.5015 310.604 26.5532 310.84 26.4941 310.87V310.862Z" fill="#263238"/>
<path d="M26.5758 307.253C26.443 307.32 26.0445 306.634 25.2254 306.354C24.4062 306.059 23.6683 306.339 23.6018 306.207C23.5723 306.148 23.7199 305.986 24.0446 305.86C24.3693 305.735 24.8785 305.683 25.3951 305.86C25.9117 306.045 26.2733 306.406 26.4504 306.701C26.6275 307.003 26.6423 307.224 26.5758 307.246V307.253Z" fill="#263238"/>
<path d="M29.7409 304.456C29.6007 304.507 29.2686 303.837 28.5381 303.358C27.8222 302.864 27.0695 302.812 27.0621 302.665C27.0252 302.525 27.9403 302.326 28.8259 302.93C29.7188 303.52 29.8812 304.441 29.7409 304.456Z" fill="#263238"/>
<g opacity="0.6">
<path d="M20.1773 302.16C20.1773 302.934 19.5501 303.561 18.7752 303.561C18.0003 303.561 17.373 302.934 17.373 302.16C17.373 301.386 18.0003 300.76 18.7752 300.76C19.5501 300.76 20.1773 301.386 20.1773 302.16Z" fill="white"/>
</g>
<path d="M87.5091 194.358C90.2986 195.383 76.9267 250.304 76.9267 250.304L36.582 298.754L23.1362 287.182L53.3191 240.825L62.7872 166.127L84.5425 167.306L87.5165 194.351L87.5091 194.358Z" fill="#263238"/>
<path d="M106.04 166.128C106.423 167.189 128.836 244.342 128.836 244.342L141.263 296.949L125.035 302.234C125.035 302.234 103.737 253.01 101.176 244.732C98.6157 236.455 92.5718 224.455 92.5718 224.455L80.7569 193.268C80.7569 193.268 61.8722 182.852 63.267 165.258L106.04 166.142V166.128Z" fill="#263238"/>
<path d="M143.211 300.715L142.252 294.383L122.71 300.722L124.983 307.415L143.211 300.715Z" fill="#263238"/>
<path d="M63.4517 166.127C63.4517 166.127 63.4886 166.341 63.5402 166.746C63.5919 167.174 63.6657 167.778 63.769 168.567C63.9904 170.152 64.2634 172.503 65.0604 175.392C65.4737 176.83 66.0272 178.4 66.8906 179.985C67.7319 181.577 68.9053 183.154 70.3222 184.695C73.156 187.768 77.0746 190.54 81.6943 192.847L81.7607 192.876L81.7828 192.95C82.5208 195.751 83.4875 198.641 84.5428 201.633C85.5981 204.626 86.742 207.722 87.9449 210.899C90.358 217.26 93.0073 223.982 95.76 230.933C99.5974 240.538 103.169 249.722 106.586 258.007C109.995 266.292 113.169 273.715 115.825 279.951C118.489 286.187 120.644 291.228 122.076 294.737C122.799 296.491 123.338 297.862 123.692 298.791C123.862 299.248 123.995 299.602 124.091 299.853C124.179 300.096 124.216 300.221 124.216 300.221C124.216 300.221 124.157 300.103 124.054 299.867C123.95 299.617 123.81 299.27 123.626 298.821C123.235 297.884 122.666 296.528 121.943 294.796C120.438 291.302 118.261 286.268 115.582 280.061C112.888 273.84 109.685 266.432 106.261 258.147C102.822 249.869 99.2432 240.685 95.4057 231.081C92.6531 224.13 90.0038 217.407 87.6054 211.031C86.4025 207.847 85.266 204.751 84.2181 201.751C83.1702 198.751 82.2108 195.854 81.4729 193.031L81.5541 193.134C76.9122 190.798 72.9789 187.989 70.1303 184.872C68.7134 183.316 67.54 181.709 66.6913 180.088C65.8279 178.481 65.2818 176.889 64.8833 175.437C64.1085 172.525 63.8649 170.166 63.6731 168.574C63.5993 167.785 63.5328 167.181 63.4959 166.753C63.459 166.341 63.4517 166.127 63.4517 166.127Z" fill="#455A64"/>
<path d="M96.5566 196.584C96.5566 196.584 96.3795 196.731 96.0105 196.901C95.6416 197.07 95.0659 197.24 94.328 197.291C92.8742 197.417 90.7636 196.901 89.0441 195.441C87.3394 193.974 86.3874 192.139 85.8192 190.827C85.5388 190.164 85.3395 189.611 85.2214 189.227C85.1034 188.844 85.0517 188.623 85.0739 188.616C85.1329 188.594 85.4428 189.426 86.0627 190.709C86.6826 191.977 87.6494 193.739 89.2877 195.146C90.9259 196.54 92.9185 197.07 94.3058 197.019C95.7227 196.982 96.5197 196.51 96.5419 196.584H96.5566Z" fill="#455A64"/>
<path d="M63.0238 243.62C62.9574 243.724 61.1494 242.338 58.5148 241.497C55.895 240.628 53.6147 240.679 53.6221 240.554C53.6221 240.51 54.1829 240.436 55.1054 240.473C56.0205 240.51 57.2972 240.694 58.6329 241.129C59.9686 241.571 61.1051 242.168 61.8726 242.677C62.6401 243.185 63.0533 243.583 63.0238 243.62Z" fill="#455A64"/>
<path d="M142.038 294.452C142.075 294.555 137.78 296.081 132.444 297.857C127.116 299.641 122.762 301.005 122.733 300.902C122.696 300.799 126.991 299.273 132.326 297.496C137.654 295.712 142.001 294.356 142.038 294.452Z" fill="#455A64"/>
<path d="M19.0112 291.702L22.6051 285.385L38.4272 298.771L33.564 304.07L19.0112 291.702Z" fill="#263238"/>
<path d="M38.4272 298.773C38.4272 298.773 38.1837 298.61 37.7852 298.271C37.3276 297.873 36.7668 297.387 36.11 296.812C34.7005 295.574 32.7449 293.886 30.5162 292.094C28.3023 290.281 26.3024 288.63 24.8781 287.414C24.1623 286.809 23.5867 286.308 23.1955 285.962C22.8044 285.615 22.5978 285.409 22.6126 285.387C22.6273 285.365 22.8708 285.527 23.2915 285.844C23.7121 286.161 24.3099 286.625 25.0478 287.2C26.5238 288.357 28.5458 289.979 30.7597 291.792C32.9884 293.583 34.9292 295.323 36.2945 296.606C36.9808 297.247 37.5195 297.778 37.8885 298.153C38.2575 298.529 38.4493 298.75 38.4272 298.765V298.773Z" fill="#455A64"/>
<path d="M97.0364 48.2371C97.7153 45.7236 99.6119 44.4853 102.077 43.645C104.549 42.8047 107.42 43.269 109.493 44.8465C110.881 45.9005 111.965 47.4337 113.619 48.0086C116.334 48.9521 119.515 46.9251 122.113 48.1413C123.655 48.8637 124.548 50.7359 124.135 52.3871C123.721 54.0382 122.054 55.2765 120.356 55.1881C122.127 55.8367 122.681 58.3576 121.64 59.935C120.607 61.5124 118.482 62.1021 116.629 61.7557C114.777 61.4092 113.161 60.2888 111.759 59.0284C110.357 57.7679 109.102 56.3453 107.604 55.2028C106.106 54.0603 104.291 53.1979 102.409 53.2937C99.8628 53.4337 97.6711 55.3502 96.5346 57.6353C95.3981 59.9203 95.1398 62.5223 94.9922 65.0727C94.852 67.6157 94.8077 70.2029 94.0476 72.6427C93.9591 72.9302 93.8262 73.2472 93.5384 73.3356C93.1252 73.4609 92.7709 73.026 92.5643 72.6427C90.2471 68.3454 88.7785 63.5911 88.2841 58.7335C87.9963 55.9104 88.0701 53.2421 89.6198 50.8686C91.1696 48.4951 95.0955 46.7482 97.0216 48.2445" fill="#263238"/>
<path d="M92.1067 60.0456L90.8004 88.601C90.5791 93.4585 91.2432 100.638 98.9476 100.638C105.634 100.137 107.604 93.8934 107.811 89.3676C107.907 87.2153 107.988 85.4241 108.017 85.203C108.017 85.203 115.323 84.8492 116.179 77.6771C116.593 74.2128 116.858 67.0039 117.028 60.4805C117.205 53.478 111.965 47.5075 104.984 46.7704L104.291 46.6967C96.7633 46.3355 92.2543 52.5198 92.1067 60.0456Z" fill="#FFBE9D"/>
<path d="M108.04 85.1014C108.04 85.1014 103.457 84.9908 98.9478 81.4453C98.9478 81.4453 100.616 86.8483 107.855 86.9662L108.04 85.1014Z" fill="#EB996E"/>
<path d="M114.423 65.0662C114.386 65.6117 113.892 66.0244 113.323 65.995C112.755 65.9655 112.327 65.5011 112.364 64.9556C112.401 64.4102 112.895 63.9974 113.464 64.0269C114.032 64.0564 114.46 64.5207 114.423 65.0662Z" fill="#263238"/>
<path d="M115.109 63.8357C114.969 63.9537 114.253 63.2976 113.146 63.1871C112.047 63.0544 111.176 63.5409 111.065 63.3935C111.014 63.3271 111.169 63.0986 111.545 62.8775C111.921 62.6564 112.541 62.4721 113.228 62.5458C113.914 62.6195 114.467 62.9365 114.77 63.2313C115.08 63.5262 115.168 63.7841 115.102 63.8357H115.109Z" fill="#263238"/>
<path d="M103.545 64.2908C103.508 64.8363 103.014 65.249 102.445 65.2196C101.877 65.1901 101.449 64.7257 101.486 64.1802C101.523 63.6348 102.017 63.222 102.586 63.2515C103.154 63.281 103.582 63.7453 103.545 64.2908Z" fill="#263238"/>
<path d="M104.231 62.8963C104.091 63.0142 103.375 62.3582 102.268 62.2476C101.169 62.1149 100.298 62.6014 100.187 62.454C100.136 62.3877 100.291 62.1592 100.674 61.938C101.051 61.7169 101.671 61.5326 102.357 61.6064C103.043 61.6801 103.597 61.997 103.899 62.2919C104.209 62.5867 104.298 62.8447 104.231 62.8963Z" fill="#263238"/>
<path d="M107.368 71.5053C107.368 71.4389 108.069 71.3947 109.198 71.3726C109.486 71.3726 109.759 71.3431 109.825 71.1588C109.914 70.9598 109.825 70.6428 109.729 70.3038C109.537 69.5962 109.338 68.8517 109.124 68.0704C108.29 64.8934 107.722 62.2915 107.847 62.262C107.973 62.2325 108.755 64.7829 109.589 67.9598C109.788 68.7411 109.98 69.4856 110.157 70.2006C110.231 70.5323 110.371 70.9156 110.187 71.321C110.091 71.52 109.862 71.6527 109.678 71.6822C109.493 71.719 109.331 71.7043 109.19 71.6969C108.061 71.6379 107.368 71.5716 107.375 71.5053H107.368Z" fill="#263238"/>
<path d="M104.977 58.5987C104.837 58.8862 103.744 58.6282 102.438 58.643C101.125 58.6356 100.04 58.9009 99.8996 58.6135C99.8331 58.4734 100.047 58.2154 100.505 57.9648C100.955 57.7216 101.649 57.5152 102.438 57.5078C103.228 57.5078 103.921 57.7068 104.379 57.9501C104.837 58.1933 105.051 58.4513 104.984 58.5914L104.977 58.5987Z" fill="#263238"/>
<path d="M115.043 60.604C114.822 60.8325 114.091 60.4934 113.176 60.3829C112.268 60.2428 111.471 60.3681 111.316 60.088C111.25 59.9553 111.397 59.7121 111.766 59.5131C112.128 59.3141 112.704 59.1814 113.331 59.2625C113.958 59.3509 114.475 59.631 114.77 59.9259C115.065 60.2207 115.146 60.4861 115.043 60.5966V60.604Z" fill="#263238"/>
<path d="M92.1284 65.4258C92.0103 65.3595 87.3463 63.443 86.9773 68.3668C86.6084 73.2907 91.6413 72.642 91.6561 72.502C91.6782 72.3619 92.1284 65.4258 92.1284 65.4258Z" fill="#FFBE9D"/>
<path d="M90.291 70.5267C90.291 70.5267 90.2025 70.5783 90.0475 70.6373C89.8999 70.6889 89.6564 70.7184 89.4055 70.6004C88.8963 70.3719 88.5199 69.5095 88.5642 68.625C88.5863 68.1754 88.7118 67.7552 88.8963 67.4161C89.0734 67.0697 89.3243 66.8338 89.59 66.8044C89.8556 66.7601 90.0327 66.937 90.077 67.0771C90.1361 67.2171 90.0918 67.313 90.1213 67.3277C90.1361 67.3424 90.232 67.254 90.2099 67.0476C90.1951 66.9518 90.1508 66.8265 90.0401 66.7233C89.9294 66.6201 89.7597 66.5537 89.5752 66.5611C89.1915 66.5611 88.8225 66.8854 88.6232 67.2614C88.4018 67.6373 88.2469 68.109 88.2247 68.6103C88.1804 69.6053 88.6232 70.571 89.3169 70.8289C89.6564 70.9469 89.9516 70.8658 90.1139 70.7552C90.2763 70.6447 90.3132 70.5341 90.291 70.5267Z" fill="#EB996E"/>
<path d="M118.71 59.1544C115.456 59.663 111.98 58.4836 109.707 56.0954C108.113 54.4296 106.991 52.1593 104.873 51.2526C103.449 50.6408 101.774 50.7883 100.342 51.3853C98.9104 51.9897 97.6927 53.0069 96.6227 54.1347C97.6263 57.9308 96.2537 61.9038 94.9032 65.5967C94.7556 66.0021 94.5785 66.4444 94.2095 66.6655C93.5823 67.0488 92.7483 66.6065 92.2982 66.0242C91.575 65.0881 91.3905 63.8571 91.3093 62.6851C91.1174 60.0021 91.3388 57.2748 92.2023 54.7244C93.0657 52.1814 94.5933 49.83 96.726 48.1863C99.3901 46.1371 102.903 45.2968 106.238 45.7096C109.574 46.115 112.718 47.7219 115.175 50.0143C116.312 51.0831 117.33 52.3288 117.825 53.8104" fill="#263238"/>
<path d="M107.707 74.6202C107.537 75.0551 107.36 75.4973 107.072 75.8659C106.785 76.2344 106.364 76.5293 105.892 76.5514C105.39 76.5735 104.91 76.2787 104.637 75.8659C104.357 75.4531 104.261 74.9371 104.29 74.4359C104.312 73.9863 104.519 73.4482 104.962 73.3966C105.146 73.3745 105.331 73.4482 105.508 73.5145C106.29 73.8315 107.08 74.1484 107.862 74.4654" fill="#EB996E"/>
<path d="M106.77 76.5548C106.755 76.4811 106.238 76.6875 105.515 76.4C105.161 76.26 104.777 75.9799 104.563 75.5376C104.349 75.1027 104.312 74.513 104.533 73.9971C104.585 73.8718 104.666 73.7538 104.74 73.6433C104.836 73.5474 104.814 73.5474 104.917 73.5622C105.013 73.5917 105.168 73.658 105.294 73.7096C105.426 73.7612 105.552 73.8128 105.677 73.8644C106.179 74.0708 106.637 74.2477 107.02 74.3877C107.788 74.6752 108.282 74.83 108.304 74.771C108.327 74.7194 107.884 74.4688 107.139 74.115C106.77 73.9381 106.327 73.7317 105.825 73.5032C105.699 73.4442 105.574 73.3926 105.441 73.3337C105.301 73.2747 105.198 73.2157 105.013 73.1568C104.925 73.1273 104.792 73.1199 104.666 73.1641C104.541 73.2157 104.467 73.2968 104.408 73.3705C104.305 73.5106 104.209 73.658 104.142 73.8202C103.862 74.4614 103.936 75.1764 104.216 75.6998C104.504 76.2379 104.998 76.5401 105.412 76.6654C105.832 76.7981 106.201 76.7612 106.43 76.7022C106.666 76.6433 106.777 76.5622 106.762 76.5401L106.77 76.5548Z" fill="#263238"/>
<path d="M131.005 114.222L117.36 143.353C116.062 146.117 113.442 148.033 110.409 148.417C106.475 148.918 102.682 146.773 101.096 143.139L90.9116 119.839L108.652 99.0156L110.379 124.026L121.567 108.185L130.998 114.207L131.005 114.222Z" fill="#0064FF" fill-opacity="0.74902"/>
<path d="M106.365 133.857C106.269 133.82 107.059 131.521 108.129 128.727C109.199 125.933 110.151 123.7 110.254 123.737C110.35 123.774 109.56 126.073 108.49 128.867C107.42 131.661 106.468 133.894 106.365 133.857Z" fill="#263238"/>
<path d="M106.04 166.122L109.228 162.584C110.335 161.353 110.881 159.716 110.741 158.065L109.051 153.79L111.316 103.04C111.545 98.9272 111.493 93.0009 107.634 91.3351L90.9188 86.3965C90.9188 86.3965 79.5246 88.8289 76.831 94.77C74.713 99.4358 71.4143 130.991 71.4143 130.991L66.6101 143.795C66.0566 146.316 62.3963 160.439 62.1602 163.682L62.7948 166.129H106.047L106.04 166.122Z" fill="#0064FF" fill-opacity="0.74902"/>
<path d="M109.044 153.789C109.044 153.789 109.029 153.701 109.022 153.524C109.022 153.318 109.014 153.067 109.007 152.757C109.007 152.042 109.007 151.077 109.007 149.875C109.029 147.354 109.058 143.868 109.088 139.77V139.755C109.324 136.895 109.531 133.711 109.715 130.357C110.077 123.892 110.357 118.04 110.66 113.801C110.807 111.686 110.955 109.976 111.066 108.789C111.125 108.229 111.176 107.779 111.213 107.433C111.25 107.123 111.28 106.961 111.295 106.961C111.309 106.961 111.309 107.123 111.295 107.44C111.272 107.794 111.25 108.244 111.221 108.804C111.154 110.035 111.051 111.737 110.94 113.816C110.726 118.099 110.431 123.929 110.106 130.379C109.915 133.733 109.701 136.924 109.442 139.784V139.77C109.354 143.868 109.273 147.354 109.221 149.875C109.184 151.077 109.147 152.042 109.125 152.757C109.11 153.067 109.095 153.318 109.088 153.524C109.073 153.701 109.066 153.789 109.058 153.789H109.044Z" fill="#263238"/>
<path d="M78.838 176.181L93.9369 170.948L80.8453 135.795L89.8042 105.294C91.1695 100.031 88.7858 92.6231 83.5167 91.2595C83.288 91.2005 82.8673 89.3061 82.6386 89.402C80.5722 90.2496 75.3917 93.7582 73.2516 97.2079C71.6059 99.8541 70.4695 102.788 69.7684 105.825L64.3369 129.154C63.2743 133.709 63.6432 138.486 65.3922 142.827L78.8306 176.174L78.838 176.181Z" fill="#0064FF" fill-opacity="0.74902"/>
<path d="M64.5366 140.419C64.5366 140.419 64.5661 140.471 64.6177 140.581C64.6694 140.707 64.7432 140.869 64.8244 141.083C65.0089 141.54 65.2745 142.188 65.614 143.028C66.3003 144.753 67.2892 147.237 68.5438 150.37C71.0381 156.687 74.5508 165.613 78.6908 176.117L78.4695 176.014C83.2072 174.392 88.3804 172.616 93.775 170.766L93.8783 171.134C93.7676 171.039 93.5536 170.817 93.4945 170.618L93.3396 170.213C93.2362 169.94 93.1329 169.675 93.0222 169.402C92.8156 168.857 92.6016 168.304 92.3876 167.751C91.9669 166.638 91.5315 165.503 91.1035 164.368C87.1775 153.945 83.5024 144.164 80.3734 135.856L80.3587 135.812L80.3734 135.761C82.4766 126.657 84.233 119.05 85.4654 113.706C86.0853 111.06 86.5798 108.974 86.9192 107.529C87.089 106.829 87.2218 106.291 87.3177 105.9C87.362 105.731 87.3989 105.591 87.4284 105.488C87.4506 105.392 87.4727 105.348 87.4727 105.348C87.4727 105.348 87.4727 105.399 87.4506 105.495C87.4284 105.606 87.3989 105.738 87.3694 105.915C87.2882 106.306 87.1701 106.851 87.0225 107.552C86.7052 109.004 86.2403 111.097 85.6573 113.751C84.4544 119.102 82.7423 126.716 80.6981 135.834V135.739C83.8345 144.046 87.5317 153.812 91.4725 164.235C91.9079 165.378 92.3359 166.505 92.7566 167.618C92.9706 168.171 93.1772 168.724 93.3912 169.269C93.4945 169.542 93.5978 169.815 93.7012 170.08L93.8561 170.486C93.8709 170.53 93.8709 170.545 93.8561 170.589C93.8488 170.611 93.834 170.633 93.8192 170.663L93.8045 170.714V170.744V170.758V170.766L93.8414 170.943L93.9078 171.134C88.5059 172.977 83.3253 174.739 78.5875 176.353L78.4252 176.405L78.3661 176.242C74.2778 165.717 70.8093 156.776 68.3445 150.444C67.1342 147.296 66.1749 144.798 65.5107 143.065C65.1934 142.218 64.9498 141.562 64.7727 141.097C64.6989 140.884 64.6325 140.721 64.5882 140.589C64.5513 140.471 64.5292 140.412 64.5366 140.412V140.419Z" fill="#263238"/>
<path d="M72.5576 136.82C72.5576 136.82 72.8971 136.459 73.5834 136.09C74.2697 135.722 75.2881 135.331 76.4762 135.169C77.6644 135.007 78.7566 135.11 79.5093 135.287C80.2694 135.464 80.7048 135.67 80.69 135.714C80.6605 135.832 78.823 135.22 76.5279 135.552C74.2254 135.847 72.6167 136.938 72.5576 136.827V136.82Z" fill="#263238"/>
<path d="M111.287 99.0243C111.287 99.0243 111.191 99.0981 110.999 99.2086C110.8 99.3118 110.519 99.4961 110.121 99.6583C109.346 100.027 108.165 100.44 106.652 100.742C103.641 101.361 99.2799 101.309 94.7783 99.9531C90.2545 98.6042 86.7122 96.0243 84.55 93.8794C83.4578 92.7958 82.6682 91.8376 82.1663 91.1447C81.908 90.8056 81.7309 90.5182 81.6055 90.3339C81.48 90.1422 81.4284 90.039 81.4357 90.0317C81.4653 90.0169 81.7457 90.3928 82.2844 91.0489C82.8157 91.7123 83.6349 92.6336 84.7345 93.6803C86.9262 95.759 90.4316 98.2578 94.8889 99.5845C99.3242 100.926 103.627 101.015 106.601 100.469C108.091 100.204 109.272 99.8425 110.054 99.5182C110.844 99.2012 111.265 98.9875 111.279 99.017L111.287 99.0243Z" fill="#FAFAFA"/>
<path d="M85.3399 113.649C85.3399 113.649 85.0817 113.672 84.6167 113.635C84.1518 113.605 83.4803 113.509 82.6611 113.355C81.0228 113.038 78.7868 112.337 76.5507 111.077C74.3221 109.809 72.5657 108.261 71.4292 107.038C70.861 106.426 70.4256 105.91 70.1525 105.534C69.8721 105.158 69.7319 104.944 69.7467 104.929C69.7983 104.885 70.4477 105.689 71.6211 106.846C72.7945 108.003 74.5435 109.492 76.7352 110.738C78.927 111.976 81.1114 112.699 82.7128 113.082C84.3215 113.465 85.3473 113.576 85.3399 113.649Z" fill="#FAFAFA"/>
<path d="M109.818 120.438C109.818 120.438 109.494 120.593 108.874 120.806C108.261 121.027 107.346 121.278 106.202 121.536C105.058 121.787 103.678 122 102.136 122.111C100.594 122.207 98.8817 122.199 97.1032 122.023C93.5388 121.654 90.4245 120.696 88.2475 119.841C87.1627 119.413 86.2993 119.03 85.7163 118.735C85.1333 118.448 84.816 118.271 84.8234 118.249C84.8381 118.226 85.1702 118.352 85.7753 118.595C86.3731 118.846 87.2513 119.192 88.3435 119.583C90.5279 120.364 93.6199 121.271 97.1401 121.632C98.8964 121.809 100.586 121.824 102.114 121.75C103.642 121.661 105.014 121.477 106.151 121.263C108.431 120.828 109.796 120.364 109.818 120.438Z" fill="#FAFAFA"/>
<path d="M108.837 140.531C108.837 140.531 108.475 140.715 107.804 140.98C107.464 141.12 107.051 141.275 106.549 141.422C106.055 141.57 105.494 141.769 104.859 141.902C104.224 142.056 103.531 142.226 102.771 142.336C102.018 142.491 101.199 142.565 100.343 142.661C98.6233 142.801 96.7193 142.816 94.7342 142.631C92.749 142.432 90.8894 142.034 89.2289 141.562C88.4024 141.305 87.6202 141.069 86.9117 140.781C86.1885 140.523 85.5391 140.221 84.9487 139.948C84.351 139.69 83.8418 139.388 83.3842 139.152C82.9267 138.916 82.5429 138.68 82.2404 138.481C81.6279 138.091 81.2958 137.87 81.3105 137.847C81.3253 137.825 81.6869 138.01 82.3215 138.356C82.6389 138.533 83.0226 138.747 83.4875 138.968C83.9525 139.189 84.4617 139.469 85.0668 139.705C85.6572 139.963 86.3066 140.243 87.0298 140.486C87.7382 140.759 88.5205 140.988 89.3322 141.231C90.9779 141.673 92.8228 142.056 94.7784 142.255C96.7414 142.44 98.6159 142.432 100.321 142.314C101.169 142.226 101.981 142.167 102.726 142.034C103.479 141.931 104.173 141.784 104.8 141.644C105.435 141.526 105.996 141.349 106.49 141.223C106.992 141.098 107.412 140.965 107.752 140.848C108.438 140.626 108.829 140.516 108.837 140.538V140.531Z" fill="#FAFAFA"/>
<path d="M121.005 137.346C120.998 137.391 120.223 137.273 119.035 136.875C117.847 136.484 116.245 135.769 114.651 134.7C113.057 133.624 111.803 132.408 110.991 131.45C110.179 130.491 109.781 129.828 109.818 129.798C109.869 129.762 110.342 130.366 111.19 131.265C112.039 132.165 113.301 133.322 114.865 134.376C116.43 135.43 117.972 136.16 119.124 136.617C120.275 137.074 121.013 137.28 120.998 137.346H121.005Z" fill="#FAFAFA"/>
<path d="M127.293 121.926C127.279 121.97 126.6 121.823 125.544 121.418C124.496 121.012 123.087 120.319 121.685 119.324C120.283 118.322 119.168 117.224 118.438 116.368C117.707 115.513 117.346 114.916 117.382 114.887C117.478 114.806 119.124 117.061 121.899 119.007C124.651 120.983 127.33 121.801 127.279 121.919L127.293 121.926Z" fill="#FAFAFA"/>
<path d="M81.0522 131.559C81.0522 131.559 80.8161 131.632 80.388 131.706C79.96 131.78 79.3254 131.839 78.5431 131.868C76.9786 131.935 74.7942 131.787 72.4696 131.183C70.145 130.571 68.1746 129.62 66.8389 128.795C66.1747 128.382 65.6508 128.021 65.3113 127.748C64.9718 127.475 64.7873 127.313 64.8021 127.298C64.839 127.247 65.6212 127.814 66.9717 128.566C68.3222 129.318 70.2778 130.21 72.5582 130.814C74.8385 131.411 76.986 131.596 78.5283 131.603C80.0781 131.61 81.0374 131.5 81.0448 131.566L81.0522 131.559Z" fill="#FAFAFA"/>
<path d="M82.6977 142.876C82.6977 142.942 81.7973 142.928 80.3731 143.097C78.9488 143.259 76.9932 143.679 74.9711 144.52C72.9491 145.375 71.2887 146.48 70.1743 147.387C69.0526 148.286 68.4401 148.942 68.3958 148.898C68.3737 148.883 68.5139 148.699 68.7796 148.397C69.0379 148.087 69.4585 147.667 70.0046 147.181C71.0894 146.208 72.7646 145.036 74.8235 144.166C76.8825 143.304 78.8971 142.92 80.3509 142.824C81.0815 142.773 81.6719 142.765 82.0778 142.802C82.4836 142.824 82.705 142.854 82.705 142.883L82.6977 142.876Z" fill="#FAFAFA"/>
<path d="M90.6605 162.624C90.6531 162.698 89.7159 162.536 88.2031 162.551C87.4503 162.551 86.55 162.632 85.5685 162.794C84.587 162.971 83.5243 163.236 82.4469 163.634C81.3695 164.04 80.3954 164.541 79.5393 165.049C78.6907 165.573 77.9675 166.104 77.3918 166.597C76.2406 167.578 75.6429 168.307 75.5838 168.263C75.5617 168.249 75.7019 168.057 75.9676 167.718C76.2258 167.379 76.6539 166.922 77.2147 166.398C77.7756 165.868 78.4988 165.307 79.3548 164.755C80.2183 164.217 81.2145 163.701 82.3141 163.28C83.421 162.875 84.5132 162.61 85.5169 162.448C86.5279 162.307 87.443 162.256 88.2104 162.285C88.9779 162.315 89.5978 162.381 90.0185 162.47C90.4391 162.551 90.6679 162.61 90.6679 162.632L90.6605 162.624Z" fill="#FAFAFA"/>
<path d="M70.942 157.301C70.9272 157.405 69.2741 157.294 67.2521 157.043C65.2227 156.793 63.5918 156.513 63.6065 156.41C63.6213 156.306 65.2744 156.417 67.2964 156.668C69.3258 156.911 70.9567 157.198 70.942 157.301Z" fill="#FAFAFA"/>
<path d="M108.069 154.311C108.069 154.311 107.929 154.51 107.626 154.813C107.331 155.122 106.859 155.528 106.239 155.992C105.627 156.456 104.844 156.935 103.937 157.4C103.022 157.842 101.974 158.255 100.837 158.557C99.6933 158.845 98.579 158.999 97.5606 159.058C96.5422 159.103 95.6197 159.058 94.8596 158.955C94.0995 158.852 93.487 158.727 93.0737 158.601C92.6605 158.483 92.4391 158.402 92.4465 158.38C92.4612 158.314 93.3763 158.557 94.8891 158.682C95.6419 158.756 96.5422 158.764 97.5384 158.705C98.5347 158.623 99.6195 158.469 100.734 158.181C101.848 157.886 102.874 157.496 103.782 157.076C104.682 156.641 105.464 156.198 106.084 155.771C107.339 154.923 108.018 154.26 108.062 154.311H108.069Z" fill="#263238"/>
<path d="M100.261 158.494C100.284 158.538 99.7596 158.84 98.8445 159.179C97.9294 159.518 96.6084 159.865 95.1177 159.975C93.6271 160.086 92.2766 159.961 91.3172 159.806C90.3579 159.644 89.7822 159.474 89.7896 159.43C89.8118 159.297 92.1733 159.806 95.0882 159.6C98.0106 159.393 100.217 158.376 100.261 158.494Z" fill="#FAFAFA"/>
<path d="M134.222 101.082L141.455 100.566C141.455 100.566 143.034 102.571 141.772 104.133C140.51 105.696 138.112 109.802 138.112 109.802L132.451 110.598L130.186 114.674L121.647 109.146L125.522 101.421L131.802 95.9219L135.802 96.003L138.045 98.6786C138.045 98.6786 135.58 99.8949 134.4 97.9194L132.488 98.2954L132.466 99.401C132.444 100.374 133.263 101.148 134.23 101.082H134.222Z" fill="#FFBE9D"/>
<path d="M141.358 100.832L146.273 99.4163C146.273 99.4163 147.395 99.2762 147.919 100.043L148.067 100.551L142.023 103.153L141.351 100.832H141.358Z" fill="#FFBE9D"/>
<path d="M130.607 106.236C130.562 106.199 130.843 105.801 131.271 105.167C131.691 104.533 132.282 103.619 132.444 102.492C132.525 101.931 132.466 101.401 132.304 100.929C132.23 100.686 132.142 100.45 132.105 100.199C132.06 99.9485 132.105 99.7126 132.134 99.521C132.282 98.747 132.459 98.2974 132.503 98.3048C132.562 98.3195 132.481 98.7986 132.4 99.5579C132.333 99.9485 132.429 100.317 132.629 100.811C132.82 101.305 132.909 101.931 132.813 102.543C132.636 103.789 131.957 104.725 131.477 105.329C130.983 105.934 130.629 106.273 130.592 106.236H130.607Z" fill="#EB996E"/>
<path d="M150.694 94.9492C150.731 95.0893 151.432 96.6519 151.432 96.6519L131.411 106.581L130.407 104.709L150.694 94.9492Z" fill="#263238"/>
<path d="M138.053 109.47C138.547 109.087 138.429 108.254 137.986 107.812C137.543 107.369 136.887 107.222 136.274 107.097C135.27 106.89 134.245 106.706 133.219 106.736C132.879 106.743 132.533 106.78 132.237 106.957C131.95 107.126 131.728 107.465 131.795 107.797C131.876 108.202 132.304 108.424 132.688 108.571C133.721 108.969 134.805 109.242 135.898 109.389" fill="#FFBE9D"/>
<path d="M135.905 109.391C135.905 109.435 135.138 109.42 133.949 109.125C133.654 109.052 133.33 108.963 132.99 108.845C132.658 108.72 132.267 108.631 131.913 108.314C131.743 108.16 131.595 107.909 131.617 107.629C131.632 107.356 131.765 107.12 131.957 106.943C132.355 106.575 132.894 106.545 133.352 106.538C134.304 106.523 135.189 106.685 135.979 106.848C136.754 107.002 137.529 107.172 138.016 107.636C138.517 108.108 138.547 108.72 138.422 109.052C138.289 109.405 138.067 109.479 138.067 109.464C138.038 109.442 138.215 109.324 138.281 109.015C138.348 108.72 138.267 108.197 137.839 107.843C137.403 107.474 136.702 107.341 135.912 107.201C135.13 107.061 134.267 106.914 133.359 106.929C132.909 106.929 132.473 106.98 132.215 107.224C131.935 107.474 131.913 107.843 132.164 108.064C132.407 108.3 132.776 108.418 133.101 108.55C133.433 108.676 133.743 108.779 134.031 108.867C135.182 109.221 135.927 109.332 135.912 109.391H135.905Z" fill="#EB996E"/>
<path d="M140.517 105.544C138.938 104.851 137.787 104.482 136.208 103.797C135.691 103.568 135.13 103.34 134.584 103.465C134.038 103.591 133.588 104.254 133.898 104.726C134.008 104.895 134.178 104.998 134.348 105.102C135.875 106.03 137.41 106.959 138.938 107.888" fill="#FFBE9D"/>
<path d="M138.945 107.887C138.916 107.931 138.222 107.57 137.13 106.944C136.547 106.605 135.905 106.229 135.211 105.831C134.85 105.61 134.466 105.388 134.082 105.153C133.875 105.027 133.639 104.784 133.617 104.467C133.595 104.157 133.728 103.885 133.905 103.671C134.089 103.465 134.348 103.302 134.621 103.266C134.886 103.221 135.145 103.243 135.381 103.302C135.861 103.42 136.252 103.627 136.628 103.789C137.366 104.098 138.052 104.386 138.672 104.651C139.838 105.138 140.539 105.506 140.517 105.551C140.495 105.602 139.764 105.322 138.576 104.902C137.979 104.688 137.27 104.438 136.495 104.113C136.104 103.958 135.713 103.759 135.3 103.671C134.886 103.575 134.451 103.612 134.185 103.929C134.053 104.076 133.971 104.268 133.986 104.438C134.001 104.6 134.104 104.732 134.281 104.85C134.658 105.086 135.027 105.315 135.388 105.536C136.067 105.963 136.695 106.361 137.263 106.723C138.325 107.408 138.967 107.85 138.938 107.902L138.945 107.887Z" fill="#EB996E"/>
<path d="M142.03 103.157C140.414 102.568 139.322 102.162 137.706 101.58C137.174 101.388 136.606 101.197 136.067 101.352C135.529 101.514 135.13 102.199 135.462 102.656C135.58 102.818 135.765 102.914 135.942 103.003C137.528 103.828 139.115 104.661 140.702 105.487" fill="#FFBE9D"/>
<path d="M140.695 105.492C140.672 105.537 139.957 105.22 138.828 104.667C138.23 104.365 137.566 104.033 136.85 103.679C136.473 103.487 136.082 103.288 135.684 103.075C135.477 102.964 135.219 102.75 135.167 102.433C135.116 102.131 135.219 101.836 135.381 101.615C135.551 101.394 135.787 101.217 136.06 101.151C136.318 101.084 136.584 101.092 136.82 101.121C137.307 101.202 137.713 101.379 138.097 101.527C138.842 101.814 139.536 102.08 140.163 102.323C141.337 102.787 142.052 103.097 142.03 103.148C142.016 103.2 141.263 102.979 140.067 102.573C139.433 102.352 138.732 102.116 137.979 101.851C137.58 101.718 137.182 101.549 136.769 101.49C136.355 101.431 135.927 101.497 135.691 101.836C135.049 102.64 136.377 102.935 137.02 103.355C137.721 103.738 138.37 104.092 138.96 104.416C140.06 105.028 140.732 105.433 140.702 105.478L140.695 105.492Z" fill="#EB996E"/>
<path d="M141.721 95.4449C141.677 95.4302 141.81 95.0101 142.23 94.4572C142.643 93.9044 143.389 93.2336 144.4 92.8651C145.411 92.4965 146.414 92.526 147.086 92.6808C147.765 92.8356 148.134 93.0715 148.112 93.1083C148.09 93.1673 147.691 93.0272 147.042 92.9462C146.392 92.8651 145.47 92.8872 144.533 93.2263C143.603 93.5653 142.88 94.155 142.437 94.6341C141.987 95.1132 141.773 95.4744 141.721 95.4449Z" fill="#263238"/>
<path d="M140.009 94.5391C140.009 94.5391 140.171 93.9052 140.835 93.1165C141.492 92.3278 142.68 91.4359 144.208 91.0231C145.735 90.6103 147.197 90.743 148.185 90.9715C149.182 91.2 149.743 91.4948 149.728 91.5391C149.706 91.598 149.115 91.399 148.134 91.2368C147.16 91.0821 145.765 91.001 144.311 91.3916C142.865 91.7823 141.713 92.5931 141.035 93.3007C140.348 94.0084 140.068 94.5759 140.009 94.5391Z" fill="#263238"/>
<path d="M137.529 93.7284C137.529 93.7284 137.603 93.5294 137.817 93.205C138.024 92.8881 138.363 92.4458 138.843 91.952C139.78 90.9642 141.359 89.7996 143.374 89.1804C145.389 88.5539 147.352 88.6276 148.68 88.9151C149.352 89.0551 149.875 89.2247 150.23 89.3647C150.584 89.5048 150.768 89.608 150.761 89.6301C150.739 89.6964 149.957 89.3795 148.636 89.1731C147.322 88.9667 145.433 88.9372 143.485 89.5416C141.536 90.1461 139.994 91.2296 139.027 92.1436C138.053 93.0576 137.581 93.7579 137.529 93.721V93.7284Z" fill="#263238"/>
<path d="M135.773 92.8939C135.773 92.8939 135.817 92.6286 136.009 92.1937C136.194 91.7588 136.548 91.1543 137.101 90.5057C137.655 89.8497 138.43 89.1789 139.382 88.5745C140.334 87.9774 141.463 87.4393 142.688 87.0192C145.16 86.1346 147.603 86.2452 149.256 86.5917C150.09 86.7612 150.739 86.975 151.182 87.1445C151.625 87.314 151.853 87.432 151.846 87.4541C151.824 87.5204 150.85 87.1297 149.204 86.857C147.573 86.5843 145.212 86.5253 142.813 87.3804C140.4 88.1912 138.422 89.4516 137.308 90.6826C136.179 91.9062 135.854 92.9308 135.78 92.8939H135.773Z" fill="#263238"/>
<path d="M94.6529 177.44C93.1475 176.909 93.3024 177.956 93.8485 179.172C90.9852 180.978 87.8562 183.226 84.469 183.248L80.8677 175.199L91.0885 171.705L91.273 172.228C91.5756 172.531 92.6604 173.548 94.6308 174.875C95.2433 175.287 95.9148 175.582 96.6307 175.767C97.4941 175.988 98.6527 176.231 99.3242 176.172C100.158 176.098 100.653 177.079 100.084 177.58C99.5161 178.081 97.2137 178.346 94.6603 177.447L94.6529 177.44Z" fill="#FFBE9D"/>
<path d="M94.9479 178.347C94.9479 178.347 94.5346 178.9 93.686 179.608C92.8447 180.323 91.5754 181.2 90.0478 181.937C88.5202 182.667 87.0369 183.102 85.9521 183.315C84.8673 183.529 84.181 183.551 84.1736 183.507C84.1441 183.382 86.8745 183.05 89.8781 181.59C92.8964 180.168 94.8667 178.251 94.9479 178.347Z" fill="#455A64"/>
</g>
<defs>
<clipPath id="clip0_3842_3052">
<rect width="341.562" height="323.213" fill="white" transform="translate(0.0375977 0.396484)"/>
</clipPath>
</defs>
</svg>
