<svg width="20" height="17" viewBox="0 0 20 17" fill="none" xmlns="http://www.w3.org/2000/svg">
<path d="M10 0.366211C10.855 0.366211 11.732 0.388211 12.582 0.424211L13.586 0.472211L14.547 0.529211L15.447 0.590211L16.269 0.654211C17.1612 0.722102 18.0008 1.10265 18.64 1.72881C19.2791 2.35498 19.6768 3.18661 19.763 4.07721L19.803 4.50221L19.878 5.41221C19.948 6.35521 20 7.38321 20 8.36621C20 9.34921 19.948 10.3772 19.878 11.3202L19.803 12.2302L19.763 12.6552C19.6768 13.546 19.2789 14.3777 18.6396 15.0039C18.0002 15.6301 17.1604 16.0105 16.268 16.0782L15.448 16.1412L14.548 16.2032L13.586 16.2602L12.582 16.3082C11.7218 16.3455 10.861 16.3648 10 16.3662C9.13902 16.3648 8.27817 16.3455 7.418 16.3082L6.414 16.2602L5.453 16.2032L4.553 16.1412L3.731 16.0782C2.83881 16.0103 1.9992 15.6298 1.36004 15.0036C0.720888 14.3774 0.323191 13.5458 0.237 12.6552L0.197 12.2302L0.122 11.3202C0.0458327 10.3373 0.00513964 9.35202 0 8.36621C0 7.38321 0.052 6.35521 0.122 5.41221L0.197 4.50221L0.237 4.07721C0.323157 3.18676 0.720712 2.35526 1.35966 1.72912C1.99861 1.10297 2.83799 0.722327 3.73 0.654211L4.551 0.590211L5.451 0.529211L6.413 0.472211L7.417 0.424211C8.2775 0.386938 9.13869 0.367601 10 0.366211ZM10 2.36621C9.175 2.36621 8.326 2.38821 7.5 2.42221L6.522 2.46921L5.583 2.52421L4.701 2.58421L3.893 2.64721C3.46819 2.67695 3.06769 2.85634 2.76266 3.15349C2.45763 3.45065 2.26784 3.84633 2.227 4.27021C2.11 5.47921 2 6.98421 2 8.36621C2 9.74821 2.11 11.2532 2.227 12.4622C2.312 13.3342 3.004 14.0122 3.893 14.0852L4.701 14.1472L5.583 14.2072L6.522 14.2632L7.5 14.3102C8.326 14.3442 9.175 14.3662 10 14.3662C10.825 14.3662 11.674 14.3442 12.5 14.3102L13.478 14.2632L14.417 14.2082L15.299 14.1482L16.107 14.0852C16.5318 14.0555 16.9323 13.8761 17.2373 13.5789C17.5424 13.2818 17.7322 12.8861 17.773 12.4622C17.89 11.2532 18 9.74821 18 8.36621C18 6.98421 17.89 5.47921 17.773 4.27021C17.7322 3.84633 17.5424 3.45065 17.2373 3.15349C16.9323 2.85634 16.5318 2.67695 16.107 2.64721L15.299 2.58521L14.417 2.52521L13.478 2.46921L12.5 2.42221C11.6671 2.38646 10.8336 2.36779 10 2.36621ZM8 5.94121C7.99994 5.84347 8.02375 5.7472 8.06937 5.66076C8.11498 5.57433 8.18103 5.50034 8.26175 5.44525C8.34248 5.39015 8.43544 5.3556 8.53256 5.34462C8.62968 5.33363 8.72801 5.34654 8.819 5.38221L8.9 5.42221L13.1 7.84621C13.1836 7.89447 13.2544 7.9622 13.3063 8.04365C13.3581 8.1251 13.3896 8.21786 13.3979 8.31406C13.4062 8.41026 13.3912 8.50705 13.3542 8.59621C13.3171 8.68537 13.2591 8.76427 13.185 8.82621L13.1 8.88621L8.9 11.3112C8.81536 11.3602 8.72003 11.3878 8.62229 11.3915C8.52456 11.3953 8.4274 11.3751 8.33926 11.3327C8.25112 11.2903 8.17468 11.227 8.1166 11.1483C8.05851 11.0696 8.02054 10.9779 8.006 10.8812L8 10.7912V5.94121Z" fill="white"/>
</svg>
